<svg class="mermaid-svg" aria-roledescription="flowchart-v2" role="graphics-document document" viewBox="0 0 1347.5625 876.7979125976562" style="max-width: 1347.56px; background-color: transparent;" class="flowchart" xmlns:xlink="http://www.w3.org/1999/xlink" xmlns="http://www.w3.org/2000/svg"  id="my-svg"><style>#my-svg{font-family:"trebuchet ms",verdana,arial,sans-serif;font-size:16px;fill:#ccc;}@keyframes edge-animation-frame{from{stroke-dashoffset:0;}}@keyframes dash{to{stroke-dashoffset:0;}}#my-svg .edge-animation-slow{stroke-dasharray:9,5!important;stroke-dashoffset:900;animation:dash 50s linear infinite;stroke-linecap:round;}#my-svg .edge-animation-fast{stroke-dasharray:9,5!important;stroke-dashoffset:900;animation:dash 20s linear infinite;stroke-linecap:round;}#my-svg .error-icon{fill:#a44141;}#my-svg .error-text{fill:#ddd;stroke:#ddd;}#my-svg .edge-thickness-normal{stroke-width:1px;}#my-svg .edge-thickness-thick{stroke-width:3.5px;}#my-svg .edge-pattern-solid{stroke-dasharray:0;}#my-svg .edge-thickness-invisible{stroke-width:0;fill:none;}#my-svg .edge-pattern-dashed{stroke-dasharray:3;}#my-svg .edge-pattern-dotted{stroke-dasharray:2;}#my-svg .marker{fill:lightgrey;stroke:lightgrey;}#my-svg .marker.cross{stroke:lightgrey;}#my-svg svg{font-family:"trebuchet ms",verdana,arial,sans-serif;font-size:16px;}#my-svg p{margin:0;}#my-svg .label{font-family:"trebuchet ms",verdana,arial,sans-serif;color:#ccc;}#my-svg .cluster-label text{fill:#F9FFFE;}#my-svg .cluster-label span{color:#F9FFFE;}#my-svg .cluster-label span p{background-color:transparent;}#my-svg .label text,#my-svg span{fill:#ccc;color:#ccc;}#my-svg .node rect,#my-svg .node circle,#my-svg .node ellipse,#my-svg .node polygon,#my-svg .node path{fill:#1f2020;stroke:#ccc;stroke-width:1px;}#my-svg .rough-node .label text,#my-svg .node .label text,#my-svg .image-shape .label,#my-svg .icon-shape .label{text-anchor:middle;}#my-svg .node .katex path{fill:#000;stroke:#000;stroke-width:1px;}#my-svg .rough-node .label,#my-svg .node .label,#my-svg .image-shape .label,#my-svg .icon-shape .label{text-align:center;}#my-svg .node.clickable{cursor:pointer;}#my-svg .root .anchor path{fill:lightgrey!important;stroke-width:0;stroke:lightgrey;}#my-svg .arrowheadPath{fill:lightgrey;}#my-svg .edgePath .path{stroke:lightgrey;stroke-width:2.0px;}#my-svg .flowchart-link{stroke:lightgrey;fill:none;}#my-svg .edgeLabel{background-color:hsl(0, 0%, 34.4117647059%);text-align:center;}#my-svg .edgeLabel p{background-color:hsl(0, 0%, 34.4117647059%);}#my-svg .edgeLabel rect{opacity:0.5;background-color:hsl(0, 0%, 34.4117647059%);fill:hsl(0, 0%, 34.4117647059%);}#my-svg .labelBkg{background-color:rgba(87.75, 87.75, 87.75, 0.5);}#my-svg .cluster rect{fill:hsl(180, 1.5873015873%, 28.3529411765%);stroke:rgba(255, 255, 255, 0.25);stroke-width:1px;}#my-svg .cluster text{fill:#F9FFFE;}#my-svg .cluster span{color:#F9FFFE;}#my-svg div.mermaidTooltip{position:absolute;text-align:center;max-width:200px;padding:2px;font-family:"trebuchet ms",verdana,arial,sans-serif;font-size:12px;background:hsl(20, 1.5873015873%, 12.3529411765%);border:1px solid rgba(255, 255, 255, 0.25);border-radius:2px;pointer-events:none;z-index:100;}#my-svg .flowchartTitleText{text-anchor:middle;font-size:18px;fill:#ccc;}#my-svg rect.text{fill:none;stroke-width:0;}#my-svg .icon-shape,#my-svg .image-shape{background-color:hsl(0, 0%, 34.4117647059%);text-align:center;}#my-svg .icon-shape p,#my-svg .image-shape p{background-color:hsl(0, 0%, 34.4117647059%);padding:2px;}#my-svg .icon-shape rect,#my-svg .image-shape rect{opacity:0.5;background-color:hsl(0, 0%, 34.4117647059%);fill:hsl(0, 0%, 34.4117647059%);}#my-svg .label-icon{display:inline-block;height:1em;overflow:visible;vertical-align:-0.125em;}#my-svg .node .label-icon path{fill:currentColor;stroke:revert;stroke-width:revert;}#my-svg :root{--mermaid-font-family:"trebuchet ms",verdana,arial,sans-serif;}</style><g><marker orient="auto" markerHeight="8" markerWidth="8" markerUnits="userSpaceOnUse" refY="5" refX="5" viewBox="0 0 10 10" class="marker flowchart-v2" id="my-svg_flowchart-v2-pointEnd"><path style="stroke-width: 1; stroke-dasharray: 1, 0;" class="arrowMarkerPath" d="M 0 0 L 10 5 L 0 10 z"/></marker><marker orient="auto" markerHeight="8" markerWidth="8" markerUnits="userSpaceOnUse" refY="5" refX="4.5" viewBox="0 0 10 10" class="marker flowchart-v2" id="my-svg_flowchart-v2-pointStart"><path style="stroke-width: 1; stroke-dasharray: 1, 0;" class="arrowMarkerPath" d="M 0 5 L 10 10 L 10 0 z"/></marker><marker orient="auto" markerHeight="11" markerWidth="11" markerUnits="userSpaceOnUse" refY="5" refX="11" viewBox="0 0 10 10" class="marker flowchart-v2" id="my-svg_flowchart-v2-circleEnd"><circle style="stroke-width: 1; stroke-dasharray: 1, 0;" class="arrowMarkerPath" r="5" cy="5" cx="5"/></marker><marker orient="auto" markerHeight="11" markerWidth="11" markerUnits="userSpaceOnUse" refY="5" refX="-1" viewBox="0 0 10 10" class="marker flowchart-v2" id="my-svg_flowchart-v2-circleStart"><circle style="stroke-width: 1; stroke-dasharray: 1, 0;" class="arrowMarkerPath" r="5" cy="5" cx="5"/></marker><marker orient="auto" markerHeight="11" markerWidth="11" markerUnits="userSpaceOnUse" refY="5.2" refX="12" viewBox="0 0 11 11" class="marker cross flowchart-v2" id="my-svg_flowchart-v2-crossEnd"><path style="stroke-width: 2; stroke-dasharray: 1, 0;" class="arrowMarkerPath" d="M 1,1 l 9,9 M 10,1 l -9,9"/></marker><marker orient="auto" markerHeight="11" markerWidth="11" markerUnits="userSpaceOnUse" refY="5.2" refX="-1" viewBox="0 0 11 11" class="marker cross flowchart-v2" id="my-svg_flowchart-v2-crossStart"><path style="stroke-width: 2; stroke-dasharray: 1, 0;" class="arrowMarkerPath" d="M 1,1 l 9,9 M 10,1 l -9,9"/></marker><g class="root"><g class="clusters"><g data-look="classic" id="Applications" class="cluster"><rect  width="664.734375" y="8" x="623.6484375" style=""/><g transform="translate(912.21875, 8)" class="cluster-label"><foreignObject height="24" width="87.59375"><div style="display: table-cell; white-space: nowrap; line-height: 1.5; max-width: 200px; text-align: center;" xmlns="http://www.w3.org/1999/xhtml"><span class="nodeLabel"><p>Applications</p></span></div></foreignObject></g></g><g data-look="classic" id="subGraph3" class="cluster"><rect height="232" width="654.8046875" y="162" x="638.30859375" style=""/><g transform="translate(897.3359375, 162)" class="cluster-label"><foreignObject height="24" width="136.75"><div style="display: table-cell; white-space: nowrap; line-height: 1.5; max-width: 200px; text-align: center;" xmlns="http://www.w3.org/1999/xhtml"><span class="nodeLabel"><p>Connection Pooling</p></span></div></foreignObject></g></g><g data-look="classic" id="subGraph2" class="cluster"><rect height="400.7979202270508" width="1331.5625" y="468" x="8" style=""/><g transform="translate(603.4453125, 468)" class="cluster-label"><foreignObject height="24" width="140.671875"><div style="display: table-cell; white-space: nowrap; line-height: 1.5; max-width: 200px; text-align: center;" xmlns="http://www.w3.org/1999/xhtml"><span class="nodeLabel"><p>PostgreSQL Clusters</p></span></div></foreignObject></g></g><g data-look="classic" id="subGraph1" class="cluster"><rect height="149.6809310913086" width="700.921875" y="694.1169891357422" x="28" style=""/><g transform="translate(312.6796875, 694.1169891357422)" class="cluster-label"><foreignObject height="24" width="131.5625"><div style="display: table-cell; white-space: nowrap; line-height: 1.5; max-width: 200px; text-align: center;" xmlns="http://www.w3.org/1999/xhtml"><span class="nodeLabel"><p>Database Schemas</p></span></div></foreignObject></g></g><g data-look="classic" id="subGraph0" class="cluster"><rect height="350.7979202270508" width="570.640625" y="493" x="748.921875" style=""/><g transform="translate(966.2265625, 493)" class="cluster-label"><foreignObject height="24" width="136.03125"><div style="display: table-cell; white-space: nowrap; line-height: 1.5; max-width: 200px; text-align: center;" xmlns="http://www.w3.org/1999/xhtml"><span class="nodeLabel"><p>Master-Slave Setup</p></span></div></foreignObject></g></g></g><g class="edgePaths"><path marker-end="url(#my-svg_flowchart-v2-pointEnd)" style="" class="edge-thickness-normal edge-pattern-dotted edge-thickness-normal edge-pattern-solid flowchart-link" id="L_MASTER_SLAVE1_0" d="M909.163,614.189L916.06,621.344C922.958,628.498,936.752,642.808,943.65,656.129C950.547,669.45,950.547,681.784,951.552,691.533C952.557,701.283,954.568,708.448,955.573,712.031L956.578,715.614"/><path marker-end="url(#my-svg_flowchart-v2-pointEnd)" style="" class="edge-thickness-normal edge-pattern-dotted edge-thickness-normal edge-pattern-solid flowchart-link" id="L_MASTER_SLAVE2_0" d="M920.188,589.364L958.078,600.656C995.969,611.948,1071.75,634.533,1109.641,651.991C1147.531,669.45,1147.531,681.784,1148.536,691.533C1149.542,701.283,1151.552,708.448,1152.557,712.031L1153.562,715.614"/><path marker-end="url(#my-svg_flowchart-v2-pointEnd)" style="" class="edge-thickness-normal edge-pattern-solid edge-thickness-normal edge-pattern-solid flowchart-link" id="L_USER_SERVICE_PGPOOL_0" d="M732.805,87L732.805,91.167C732.805,95.333,732.805,103.667,732.805,112C732.805,120.333,732.805,128.667,732.805,137C732.805,145.333,732.805,153.667,763.963,164.288C795.121,174.91,857.438,187.821,888.597,194.276L919.755,200.731"/><path marker-end="url(#my-svg_flowchart-v2-pointEnd)" style="" class="edge-thickness-normal edge-pattern-solid edge-thickness-normal edge-pattern-solid flowchart-link" id="L_PROBLEM_SERVICE_PGPOOL_0" d="M944.523,87L944.523,91.167C944.523,95.333,944.523,103.667,944.523,112C944.523,120.333,944.523,128.667,944.523,137C944.523,145.333,944.523,153.667,950.295,161.633C956.066,169.6,967.61,177.2,973.381,181L979.153,184.8"/><path marker-end="url(#my-svg_flowchart-v2-pointEnd)" style="" class="edge-thickness-normal edge-pattern-solid edge-thickness-normal edge-pattern-solid flowchart-link" id="L_CONTEST_SERVICE_PGPOOL_0" d="M1167.734,87L1167.734,91.167C1167.734,95.333,1167.734,103.667,1167.734,112C1167.734,120.333,1167.734,128.667,1167.734,137C1167.734,145.333,1167.734,153.667,1160.125,161.698C1152.516,169.73,1137.297,177.459,1129.688,181.324L1122.079,185.189"/><path marker-end="url(#my-svg_flowchart-v2-pointEnd)" style="" class="edge-thickness-normal edge-pattern-solid edge-thickness-normal edge-pattern-solid flowchart-link" id="L_PGPOOL_BALANCER_0" d="M1041.727,265L1041.727,269.167C1041.727,273.333,1041.727,281.667,1041.727,289.333C1041.727,297,1041.727,304,1041.727,307.5L1041.727,311"/><path marker-end="url(#my-svg_flowchart-v2-pointEnd)" style="" class="edge-thickness-normal edge-pattern-solid edge-thickness-normal edge-pattern-solid flowchart-link" id="L_BALANCER_MASTER_0" d="M943.243,369L928.045,373.167C912.847,377.333,882.451,385.667,867.253,396C852.055,406.333,852.055,418.667,852.055,431C852.055,443.333,852.055,455.667,852.055,466C852.055,476.333,852.055,484.667,852.055,492.333C852.055,500,852.055,507,852.055,510.5L852.055,514"/><path marker-end="url(#my-svg_flowchart-v2-pointEnd)" style="" class="edge-thickness-normal edge-pattern-solid edge-thickness-normal edge-pattern-solid flowchart-link" id="L_BALANCER_SLAVE1_0" d="M1045.523,369L1046.109,373.167C1046.695,377.333,1047.867,385.667,1048.453,396C1049.039,406.333,1049.039,418.667,1049.039,431C1049.039,443.333,1049.039,455.667,1049.039,466C1049.039,476.333,1049.039,484.667,1049.039,501.51C1049.039,518.353,1049.039,543.706,1049.039,571.058C1049.039,598.411,1049.039,627.764,1049.039,648.607C1049.039,669.45,1049.039,681.784,1045.167,692.6C1041.296,703.417,1033.553,712.717,1029.681,717.367L1025.809,722.017"/><path marker-end="url(#my-svg_flowchart-v2-pointEnd)" style="" class="edge-thickness-normal edge-pattern-solid edge-thickness-normal edge-pattern-solid flowchart-link" id="L_BALANCER_SLAVE2_0" d="M1146.125,368.573L1162.775,372.811C1179.424,377.048,1212.724,385.524,1229.374,395.929C1246.023,406.333,1246.023,418.667,1246.023,431C1246.023,443.333,1246.023,455.667,1246.023,466C1246.023,476.333,1246.023,484.667,1246.023,501.51C1246.023,518.353,1246.023,543.706,1246.023,571.058C1246.023,598.411,1246.023,627.764,1246.023,648.607C1246.023,669.45,1246.023,681.784,1242.152,692.6C1238.28,703.417,1230.537,712.717,1226.665,717.367L1222.794,722.017"/><path marker-end="url(#my-svg_flowchart-v2-pointEnd)" style="" class="edge-thickness-normal edge-pattern-solid edge-thickness-normal edge-pattern-solid flowchart-link" id="L_MASTER_USERS_0" d="M816.357,618.184L812.046,624.673C807.734,631.162,799.111,644.139,794.8,656.795C790.488,669.45,790.488,681.784,696.606,698.804C602.723,715.824,414.958,737.53,321.075,748.384L227.192,759.237"/><path marker-end="url(#my-svg_flowchart-v2-pointEnd)" style="" class="edge-thickness-normal edge-pattern-solid edge-thickness-normal edge-pattern-solid flowchart-link" id="L_MASTER_PROBLEMS_0" d="M827.953,619.274L825.043,625.581C822.132,631.888,816.31,644.503,813.399,656.976C810.488,669.45,810.488,681.784,752.382,697.724C694.276,713.665,578.063,733.213,519.957,742.987L461.851,752.761"/><path marker-end="url(#my-svg_flowchart-v2-pointEnd)" style="" class="edge-thickness-normal edge-pattern-solid edge-thickness-normal edge-pattern-solid flowchart-link" id="L_MASTER_CONTESTS_0" d="M852.055,620.117L852.055,626.284C852.055,632.45,852.055,644.784,852.055,657.117C852.055,669.45,852.055,681.784,826.338,695.614C800.622,709.444,749.188,724.771,723.472,732.435L697.755,740.099"/></g><g class="edgeLabels"><g transform="translate(950.546875, 657.1169891357422)" class="edgeLabel"><g transform="translate(-78.4921875, -12)" class="label"><foreignObject height="24" width="156.984375"><div style="display: table-cell; white-space: nowrap; line-height: 1.5; max-width: 200px; text-align: center;" class="labelBkg" xmlns="http://www.w3.org/1999/xhtml"><span class="edgeLabel"><p>Streaming Replication</p></span></div></foreignObject></g></g><g transform="translate(1147.53125, 657.1169891357422)" class="edgeLabel"><g transform="translate(-78.4921875, -12)" class="label"><foreignObject height="24" width="156.984375"><div style="display: table-cell; white-space: nowrap; line-height: 1.5; max-width: 200px; text-align: center;" class="labelBkg" xmlns="http://www.w3.org/1999/xhtml"><span class="edgeLabel"><p>Streaming Replication</p></span></div></foreignObject></g></g><g class="edgeLabel"><g transform="translate(0, 0)" class="label"><foreignObject height="0" width="0"><div style="display: table-cell; white-space: nowrap; line-height: 1.5; max-width: 200px; text-align: center;" class="labelBkg" xmlns="http://www.w3.org/1999/xhtml"><span class="edgeLabel"></span></div></foreignObject></g></g><g class="edgeLabel"><g transform="translate(0, 0)" class="label"><foreignObject height="0" width="0"><div style="display: table-cell; white-space: nowrap; line-height: 1.5; max-width: 200px; text-align: center;" class="labelBkg" xmlns="http://www.w3.org/1999/xhtml"><span class="edgeLabel"></span></div></foreignObject></g></g><g class="edgeLabel"><g transform="translate(0, 0)" class="label"><foreignObject height="0" width="0"><div style="display: table-cell; white-space: nowrap; line-height: 1.5; max-width: 200px; text-align: center;" class="labelBkg" xmlns="http://www.w3.org/1999/xhtml"><span class="edgeLabel"></span></div></foreignObject></g></g><g class="edgeLabel"><g transform="translate(0, 0)" class="label"><foreignObject height="0" width="0"><div style="display: table-cell; white-space: nowrap; line-height: 1.5; max-width: 200px; text-align: center;" class="labelBkg" xmlns="http://www.w3.org/1999/xhtml"><span class="edgeLabel"></span></div></foreignObject></g></g><g transform="translate(852.0546875, 431)" class="edgeLabel"><g transform="translate(-22.578125, -12)" class="label"><foreignObject height="24" width="45.15625"><div style="display: table-cell; white-space: nowrap; line-height: 1.5; max-width: 200px; text-align: center;" class="labelBkg" xmlns="http://www.w3.org/1999/xhtml"><span class="edgeLabel"><p>Writes</p></span></div></foreignObject></g></g><g transform="translate(1049.0390625, 569.0584945678711)" class="edgeLabel"><g transform="translate(-20.59375, -12)" class="label"><foreignObject height="24" width="41.1875"><div style="display: table-cell; white-space: nowrap; line-height: 1.5; max-width: 200px; text-align: center;" class="labelBkg" xmlns="http://www.w3.org/1999/xhtml"><span class="edgeLabel"><p>Reads</p></span></div></foreignObject></g></g><g transform="translate(1246.0234375, 569.0584945678711)" class="edgeLabel"><g transform="translate(-32.25, -12)" class="label"><foreignObject height="24" width="64.5"><div style="display: table-cell; white-space: nowrap; line-height: 1.5; max-width: 200px; text-align: center;" class="labelBkg" xmlns="http://www.w3.org/1999/xhtml"><span class="edgeLabel"><p>Analytics</p></span></div></foreignObject></g></g><g class="edgeLabel"><g transform="translate(0, 0)" class="label"><foreignObject height="0" width="0"><div style="display: table-cell; white-space: nowrap; line-height: 1.5; max-width: 200px; text-align: center;" class="labelBkg" xmlns="http://www.w3.org/1999/xhtml"><span class="edgeLabel"></span></div></foreignObject></g></g><g class="edgeLabel"><g transform="translate(0, 0)" class="label"><foreignObject height="0" width="0"><div style="display: table-cell; white-space: nowrap; line-height: 1.5; max-width: 200px; text-align: center;" class="labelBkg" xmlns="http://www.w3.org/1999/xhtml"><span class="edgeLabel"></span></div></foreignObject></g></g><g class="edgeLabel"><g transform="translate(0, 0)" class="label"><foreignObject height="0" width="0"><div style="display: table-cell; white-space: nowrap; line-height: 1.5; max-width: 200px; text-align: center;" class="labelBkg" xmlns="http://www.w3.org/1999/xhtml"><span class="edgeLabel"></span></div></foreignObject></g></g></g><g class="nodes"><g transform="translate(852.0546875, 569.0584945678711)" id="flowchart-MASTER-0" class="node default"><path transform="translate(-68.1328125, -51.058489324801144)" style="" class="basic label-container" d="M0,13.038992883200766 a68.1328125,13.038992883200766 0,0,0 136.265625,0 a68.1328125,13.038992883200766 0,0,0 -136.265625,0 l0,76.03899288320076 a68.1328125,13.038992883200766 0,0,0 136.265625,0 l0,-76.03899288320076"/><g transform="translate(-60.6328125, -14)" style="" class="label"><rect/><foreignObject height="48" width="121.265625"><div style="display: table-cell; white-space: nowrap; line-height: 1.5; max-width: 200px; text-align: center;" xmlns="http://www.w3.org/1999/xhtml"><span class="nodeLabel"><p>Primary<br />Write Operations</p></span></div></foreignObject></g></g><g transform="translate(971.8359375, 768.9574546813965)" id="flowchart-SLAVE1-1" class="node default"><path transform="translate(-59.828125, -49.84046493805084)" style="" class="basic label-container" d="M0,12.226976625367225 a59.828125,12.226976625367225 0,0,0 119.65625,0 a59.828125,12.226976625367225 0,0,0 -119.65625,0 l0,75.22697662536723 a59.828125,12.226976625367225 0,0,0 119.65625,0 l0,-75.22697662536723"/><g transform="translate(-52.328125, -14)" style="" class="label"><rect/><foreignObject height="48" width="104.65625"><div style="display: table-cell; white-space: nowrap; line-height: 1.5; max-width: 200px; text-align: center;" xmlns="http://www.w3.org/1999/xhtml"><span class="nodeLabel"><p>Read Replica 1<br />User Queries</p></span></div></foreignObject></g></g><g transform="translate(1168.8203125, 768.9574546813965)" id="flowchart-SLAVE2-2" class="node default"><path transform="translate(-59.828125, -49.84046493805084)" style="" class="basic label-container" d="M0,12.226976625367225 a59.828125,12.226976625367225 0,0,0 119.65625,0 a59.828125,12.226976625367225 0,0,0 -119.65625,0 l0,75.22697662536723 a59.828125,12.226976625367225 0,0,0 119.65625,0 l0,-75.22697662536723"/><g transform="translate(-52.328125, -14)" style="" class="label"><rect/><foreignObject height="48" width="104.65625"><div style="display: table-cell; white-space: nowrap; line-height: 1.5; max-width: 200px; text-align: center;" xmlns="http://www.w3.org/1999/xhtml"><span class="nodeLabel"><p>Read Replica 2<br />Analytics</p></span></div></foreignObject></g></g><g transform="translate(143.109375, 768.9574546813965)" id="flowchart-USERS-3" class="node default"><rect height="78" width="160.21875" y="-39" x="-80.109375" style="" class="basic label-container"/><g transform="translate(-50.109375, -24)" style="" class="label"><rect/><foreignObject height="48" width="100.21875"><div style="display: table-cell; white-space: nowrap; line-height: 1.5; max-width: 200px; text-align: center;" xmlns="http://www.w3.org/1999/xhtml"><span class="nodeLabel"><p>Users Schema<br />Profile &amp; Auth</p></span></div></foreignObject></g></g><g transform="translate(365.5625, 768.9574546813965)" id="flowchart-PROBLEMS-4" class="node default"><rect height="78" width="184.6875" y="-39" x="-92.34375" style="" class="basic label-container"/><g transform="translate(-62.34375, -24)" style="" class="label"><rect/><foreignObject height="48" width="124.6875"><div style="display: table-cell; white-space: nowrap; line-height: 1.5; max-width: 200px; text-align: center;" xmlns="http://www.w3.org/1999/xhtml"><span class="nodeLabel"><p>Problems Schema<br />Problem Data</p></span></div></foreignObject></g></g><g transform="translate(600.9140625, 768.9574546813965)" id="flowchart-CONTESTS-5" class="node default"><rect height="78" width="186.015625" y="-39" x="-93.0078125" style="" class="basic label-container"/><g transform="translate(-63.0078125, -24)" style="" class="label"><rect/><foreignObject height="48" width="126.015625"><div style="display: table-cell; white-space: nowrap; line-height: 1.5; max-width: 200px; text-align: center;" xmlns="http://www.w3.org/1999/xhtml"><span class="nodeLabel"><p>Contests Schema<br />Competition Data</p></span></div></foreignObject></g></g><g transform="translate(1041.7265625, 226)" id="flowchart-PGPOOL-6" class="node default"><rect height="78" width="236.109375" y="-39" x="-118.0546875" style="" class="basic label-container"/><g transform="translate(-88.0546875, -24)" style="" class="label"><rect/><foreignObject height="48" width="176.109375"><div style="display: table-cell; white-space: nowrap; line-height: 1.5; max-width: 200px; text-align: center;" xmlns="http://www.w3.org/1999/xhtml"><span class="nodeLabel"><p>PgPool<br />Connection Management</p></span></div></foreignObject></g></g><g transform="translate(1041.7265625, 342)" id="flowchart-BALANCER-7" class="node default"><rect height="54" width="208.796875" y="-27" x="-104.3984375" style="" class="basic label-container"/><g transform="translate(-74.3984375, -12)" style="" class="label"><rect/><foreignObject height="24" width="148.796875"><div style="display: table-cell; white-space: nowrap; line-height: 1.5; max-width: 200px; text-align: center;" xmlns="http://www.w3.org/1999/xhtml"><span class="nodeLabel"><p>Read/Write Balancer</p></span></div></foreignObject></g></g><g transform="translate(732.8046875, 60)" id="flowchart-USER_SERVICE-8" class="node default"><rect height="54" width="148.3125" y="-27" x="-74.15625" style="" class="basic label-container"/><g transform="translate(-44.15625, -12)" style="" class="label"><rect/><foreignObject height="24" width="88.3125"><div style="display: table-cell; white-space: nowrap; line-height: 1.5; max-width: 200px; text-align: center;" xmlns="http://www.w3.org/1999/xhtml"><span class="nodeLabel"><p>User Service</p></span></div></foreignObject></g></g><g transform="translate(944.5234375, 60)" id="flowchart-PROBLEM_SERVICE-9" class="node default"><rect height="54" width="175.125" y="-27" x="-87.5625" style="" class="basic label-container"/><g transform="translate(-57.5625, -12)" style="" class="label"><rect/><foreignObject height="24" width="115.125"><div style="display: table-cell; white-space: nowrap; line-height: 1.5; max-width: 200px; text-align: center;" xmlns="http://www.w3.org/1999/xhtml"><span class="nodeLabel"><p>Problem Service</p></span></div></foreignObject></g></g><g transform="translate(1167.734375, 60)" id="flowchart-CONTEST_SERVICE-10" class="node default"><rect height="54" width="171.296875" y="-27" x="-85.6484375" style="" class="basic label-container"/><g transform="translate(-55.6484375, -12)" style="" class="label"><rect/><foreignObject height="24" width="111.296875"><div style="display: table-cell; white-space: nowrap; line-height: 1.5; max-width: 200px; text-align: center;" xmlns="http://www.w3.org/1999/xhtml"><span class="nodeLabel"><p>Contest Service</p></span></div></foreignObject></g></g></g></g></g></svg>