<svg class="mermaid-svg" aria-roledescription="pie" role="graphics-document document" style="max-width: 736.531px; background-color: transparent;" viewBox="0 0 736.53125 450" xmlns:xlink="http://www.w3.org/1999/xlink" xmlns="http://www.w3.org/2000/svg"  id="my-svg"><style>#my-svg{font-family:"trebuchet ms",verdana,arial,sans-serif;font-size:16px;fill:#333;}@keyframes edge-animation-frame{from{stroke-dashoffset:0;}}@keyframes dash{to{stroke-dashoffset:0;}}#my-svg .edge-animation-slow{stroke-dasharray:9,5!important;stroke-dashoffset:900;animation:dash 50s linear infinite;stroke-linecap:round;}#my-svg .edge-animation-fast{stroke-dasharray:9,5!important;stroke-dashoffset:900;animation:dash 20s linear infinite;stroke-linecap:round;}#my-svg .error-icon{fill:#552222;}#my-svg .error-text{fill:#552222;stroke:#552222;}#my-svg .edge-thickness-normal{stroke-width:1px;}#my-svg .edge-thickness-thick{stroke-width:3.5px;}#my-svg .edge-pattern-solid{stroke-dasharray:0;}#my-svg .edge-thickness-invisible{stroke-width:0;fill:none;}#my-svg .edge-pattern-dashed{stroke-dasharray:3;}#my-svg .edge-pattern-dotted{stroke-dasharray:2;}#my-svg .marker{fill:#333333;stroke:#333333;}#my-svg .marker.cross{stroke:#333333;}#my-svg svg{font-family:"trebuchet ms",verdana,arial,sans-serif;font-size:16px;}#my-svg p{margin:0;}#my-svg .pieCircle{stroke:black;stroke-width:2px;opacity:0.7;}#my-svg .pieOuterCircle{stroke:black;stroke-width:2px;fill:none;}#my-svg .pieTitleText{text-anchor:middle;font-size:25px;fill:black;font-family:"trebuchet ms",verdana,arial,sans-serif;}#my-svg .slice{font-family:"trebuchet ms",verdana,arial,sans-serif;fill:#333;font-size:17px;}#my-svg .legend text{fill:black;font-family:"trebuchet ms",verdana,arial,sans-serif;font-size:17px;}#my-svg :root{--mermaid-font-family:"trebuchet ms",verdana,arial,sans-serif;}</style><g/><g transform="translate(225,225)"><circle class="pieOuterCircle" r="186" cy="0" cx="0"/><path class="pieCircle" fill="#ECECFF" d="M0,-185A185,185,0,0,1,149.668,108.74L0,0Z"/><path class="pieCircle" fill="#ffffde" d="M149.668,108.74A185,185,0,0,1,-108.74,149.668L0,0Z"/><path class="pieCircle" fill="hsl(80, 100%, 56.2745098039%)" d="M-108.74,149.668A185,185,0,0,1,-185,0L0,0Z"/><path class="pieCircle" fill="hsl(240, 100%, 86.2745098039%)" d="M-185,0A185,185,0,0,1,-134.859,-126.641L0,0Z"/><path class="pieCircle" fill="hsl(60, 100%, 63.5294117647%)" d="M-134.859,-126.641A185,185,0,0,1,-57.168,-175.945L0,0Z"/><path class="pieCircle" fill="hsl(80, 100%, 76.2745098039%)" d="M-57.168,-175.945A185,185,0,0,1,0,-185L0,0Z"/><text style="text-anchor: middle;" class="slice" transform="translate(123.62715523113604,-62.99118183886211)">35%</text><text style="text-anchor: middle;" class="slice" transform="translate(21.70528202433204,137.04175725757537)">25%</text><text style="text-anchor: middle;" class="slice" transform="translate(-123.62715523113603,62.991181838862126)">15%</text><text style="text-anchor: middle;" class="slice" transform="translate(-129.0064874169949,-51.077281684999)">12%</text><text style="text-anchor: middle;" class="slice" transform="translate(-74.34596780333585,-117.15049966340456)">8%</text><text style="text-anchor: middle;" class="slice" transform="translate(-21.705282024332057,-137.04175725757534)">5%</text><text class="pieTitleText" y="-200" x="0">Chess.com Infrastructure Cost Distribution</text><g transform="translate(216,-66)" class="legend"><rect style="fill: rgb(236, 236, 255); stroke: rgb(236, 236, 255);"  width="18"/><text y="14" x="22">Compute (Game Servers, API)</text></g><g transform="translate(216,-44)" class="legend"><rect style="fill: rgb(255, 255, 222); stroke: rgb(255, 255, 222);" height="18" width="18"/><text y="14" x="22">Database (PostgreSQL, Redis)</text></g><g transform="translate(216,-22)" class="legend"><rect style="fill: rgb(181, 255, 32); stroke: rgb(181, 255, 32);" height="18" width="18"/><text y="14" x="22">Analysis (Stockfish Workers)</text></g><g transform="translate(216,0)" class="legend"><rect style="fill: rgb(185, 185, 255); stroke: rgb(185, 185, 255);" height="18" width="18"/><text y="14" x="22">CDN &amp; Network</text></g><g transform="translate(216,22)" class="legend"><rect style="fill: rgb(255, 255, 69); stroke: rgb(255, 255, 69);" height="18" width="18"/><text y="14" x="22">Storage (Games, Puzzles)</text></g><g transform="translate(216,44)" class="legend"><rect style="fill: rgb(215, 255, 134); stroke: rgb(215, 255, 134);" height="18" width="18"/><text y="14" x="22">Monitoring &amp; Operations</text></g></g></svg>