<svg class="mermaid-svg" aria-roledescription="flowchart-v2" role="graphics-document document" viewBox="0 0 2068.5234375 772.10791015625" style="max-width: 2068.52px; background-color: transparent;" class="flowchart" xmlns:xlink="http://www.w3.org/1999/xlink" xmlns="http://www.w3.org/2000/svg"  id="my-svg"><style>#my-svg{font-family:"trebuchet ms",verdana,arial,sans-serif;font-size:16px;fill:#333;}@keyframes edge-animation-frame{from{stroke-dashoffset:0;}}@keyframes dash{to{stroke-dashoffset:0;}}#my-svg .edge-animation-slow{stroke-dasharray:9,5!important;stroke-dashoffset:900;animation:dash 50s linear infinite;stroke-linecap:round;}#my-svg .edge-animation-fast{stroke-dasharray:9,5!important;stroke-dashoffset:900;animation:dash 20s linear infinite;stroke-linecap:round;}#my-svg .error-icon{fill:#552222;}#my-svg .error-text{fill:#552222;stroke:#552222;}#my-svg .edge-thickness-normal{stroke-width:1px;}#my-svg .edge-thickness-thick{stroke-width:3.5px;}#my-svg .edge-pattern-solid{stroke-dasharray:0;}#my-svg .edge-thickness-invisible{stroke-width:0;fill:none;}#my-svg .edge-pattern-dashed{stroke-dasharray:3;}#my-svg .edge-pattern-dotted{stroke-dasharray:2;}#my-svg .marker{fill:#333333;stroke:#333333;}#my-svg .marker.cross{stroke:#333333;}#my-svg svg{font-family:"trebuchet ms",verdana,arial,sans-serif;font-size:16px;}#my-svg p{margin:0;}#my-svg .label{font-family:"trebuchet ms",verdana,arial,sans-serif;color:#333;}#my-svg .cluster-label text{fill:#333;}#my-svg .cluster-label span{color:#333;}#my-svg .cluster-label span p{background-color:transparent;}#my-svg .label text,#my-svg span{fill:#333;color:#333;}#my-svg .node rect,#my-svg .node circle,#my-svg .node ellipse,#my-svg .node polygon,#my-svg .node path{fill:#ECECFF;stroke:#9370DB;stroke-width:1px;}#my-svg .rough-node .label text,#my-svg .node .label text,#my-svg .image-shape .label,#my-svg .icon-shape .label{text-anchor:middle;}#my-svg .node .katex path{fill:#000;stroke:#000;stroke-width:1px;}#my-svg .rough-node .label,#my-svg .node .label,#my-svg .image-shape .label,#my-svg .icon-shape .label{text-align:center;}#my-svg .node.clickable{cursor:pointer;}#my-svg .root .anchor path{fill:#333333!important;stroke-width:0;stroke:#333333;}#my-svg .arrowheadPath{fill:#333333;}#my-svg .edgePath .path{stroke:#333333;stroke-width:2.0px;}#my-svg .flowchart-link{stroke:#333333;fill:none;}#my-svg .edgeLabel{background-color:rgba(232,232,232, 0.8);text-align:center;}#my-svg .edgeLabel p{background-color:rgba(232,232,232, 0.8);}#my-svg .edgeLabel rect{opacity:0.5;background-color:rgba(232,232,232, 0.8);fill:rgba(232,232,232, 0.8);}#my-svg .labelBkg{background-color:rgba(232, 232, 232, 0.5);}#my-svg .cluster rect{fill:#ffffde;stroke:#aaaa33;stroke-width:1px;}#my-svg .cluster text{fill:#333;}#my-svg .cluster span{color:#333;}#my-svg div.mermaidTooltip{position:absolute;text-align:center;max-width:200px;padding:2px;font-family:"trebuchet ms",verdana,arial,sans-serif;font-size:12px;background:hsl(80, 100%, 96.2745098039%);border:1px solid #aaaa33;border-radius:2px;pointer-events:none;z-index:100;}#my-svg .flowchartTitleText{text-anchor:middle;font-size:18px;fill:#333;}#my-svg rect.text{fill:none;stroke-width:0;}#my-svg .icon-shape,#my-svg .image-shape{background-color:rgba(232,232,232, 0.8);text-align:center;}#my-svg .icon-shape p,#my-svg .image-shape p{background-color:rgba(232,232,232, 0.8);padding:2px;}#my-svg .icon-shape rect,#my-svg .image-shape rect{opacity:0.5;background-color:rgba(232,232,232, 0.8);fill:rgba(232,232,232, 0.8);}#my-svg .label-icon{display:inline-block;height:1em;overflow:visible;vertical-align:-0.125em;}#my-svg .node .label-icon path{fill:currentColor;stroke:revert;stroke-width:revert;}#my-svg :root{--mermaid-font-family:"trebuchet ms",verdana,arial,sans-serif;}</style><g><marker orient="auto" markerHeight="8" markerWidth="8" markerUnits="userSpaceOnUse" refY="5" refX="5" viewBox="0 0 10 10" class="marker flowchart-v2" id="my-svg_flowchart-v2-pointEnd"><path style="stroke-width: 1; stroke-dasharray: 1, 0;" class="arrowMarkerPath" d="M 0 0 L 10 5 L 0 10 z"/></marker><marker orient="auto" markerHeight="8" markerWidth="8" markerUnits="userSpaceOnUse" refY="5" refX="4.5" viewBox="0 0 10 10" class="marker flowchart-v2" id="my-svg_flowchart-v2-pointStart"><path style="stroke-width: 1; stroke-dasharray: 1, 0;" class="arrowMarkerPath" d="M 0 5 L 10 10 L 10 0 z"/></marker><marker orient="auto" markerHeight="11" markerWidth="11" markerUnits="userSpaceOnUse" refY="5" refX="11" viewBox="0 0 10 10" class="marker flowchart-v2" id="my-svg_flowchart-v2-circleEnd"><circle style="stroke-width: 1; stroke-dasharray: 1, 0;" class="arrowMarkerPath" r="5" cy="5" cx="5"/></marker><marker orient="auto" markerHeight="11" markerWidth="11" markerUnits="userSpaceOnUse" refY="5" refX="-1" viewBox="0 0 10 10" class="marker flowchart-v2" id="my-svg_flowchart-v2-circleStart"><circle style="stroke-width: 1; stroke-dasharray: 1, 0;" class="arrowMarkerPath" r="5" cy="5" cx="5"/></marker><marker orient="auto" markerHeight="11" markerWidth="11" markerUnits="userSpaceOnUse" refY="5.2" refX="12" viewBox="0 0 11 11" class="marker cross flowchart-v2" id="my-svg_flowchart-v2-crossEnd"><path style="stroke-width: 2; stroke-dasharray: 1, 0;" class="arrowMarkerPath" d="M 1,1 l 9,9 M 10,1 l -9,9"/></marker><marker orient="auto" markerHeight="11" markerWidth="11" markerUnits="userSpaceOnUse" refY="5.2" refX="-1" viewBox="0 0 11 11" class="marker cross flowchart-v2" id="my-svg_flowchart-v2-crossStart"><path style="stroke-width: 2; stroke-dasharray: 1, 0;" class="arrowMarkerPath" d="M 1,1 l 9,9 M 10,1 l -9,9"/></marker><g class="root"><g class="clusters"><g data-look="classic" id="subGraph4" class="cluster"><rect  width="283.984375" y="234.6309814453125" x="8" style=""/><g transform="translate(81.6796875, 234.6309814453125)" class="cluster-label"><foreignObject height="24" width="136.625"><div style="display: table-cell; white-space: nowrap; line-height: 1.5; max-width: 200px; text-align: center;" xmlns="http://www.w3.org/1999/xhtml"><span class="nodeLabel"><p>Backup &amp; Recovery</p></span></div></foreignObject></g></g><g data-look="classic" id="subGraph3" class="cluster"><rect height="128" width="1229.2890625" y="483.10789489746094" x="338.0234375" style=""/><g transform="translate(858.45703125, 483.10789489746094)" class="cluster-label"><foreignObject height="24" width="188.421875"><div style="display: table-cell; white-space: nowrap; line-height: 1.5; max-width: 200px; text-align: center;" xmlns="http://www.w3.org/1999/xhtml"><span class="nodeLabel"><p>Performance Optimization</p></span></div></foreignObject></g></g><g data-look="classic" id="subGraph2" class="cluster"><rect height="425.10789489746094" width="1748.5390625" y="8" x="311.984375" style=""/><g transform="translate(1122.45703125, 8)" class="cluster-label"><foreignObject height="24" width="127.59375"><div style="display: table-cell; white-space: nowrap; line-height: 1.5; max-width: 200px; text-align: center;" xmlns="http://www.w3.org/1999/xhtml"><span class="nodeLabel"><p>Database Clusters</p></span></div></foreignObject></g></g><g data-look="classic" id="subGraph1" class="cluster"><rect height="148.47691345214844" width="1225.703125" y="259.6309814453125" x="331.984375" style=""/><g transform="translate(891.859375, 259.6309814453125)" class="cluster-label"><foreignObject height="24" width="105.953125"><div style="display: table-cell; white-space: nowrap; line-height: 1.5; max-width: 200px; text-align: center;" xmlns="http://www.w3.org/1999/xhtml"><span class="nodeLabel"><p>Schema Design</p></span></div></foreignObject></g></g><g data-look="classic" id="subGraph0" class="cluster"><rect height="375.10789489746094" width="462.8359375" y="33" x="1577.6875" style=""/><g transform="translate(1753.91796875, 33)" class="cluster-label"><foreignObject height="24" width="110.375"><div style="display: table-cell; white-space: nowrap; line-height: 1.5; max-width: 200px; text-align: center;" xmlns="http://www.w3.org/1999/xhtml"><span class="nodeLabel"><p>Primary Cluster</p></span></div></foreignObject></g></g></g><g class="edgePaths"><path marker-end="url(#my-svg_flowchart-v2-pointEnd)" style="" class="edge-thickness-normal edge-pattern-dotted edge-thickness-normal edge-pattern-solid flowchart-link" id="L_PRIMARY_SYNC_REPLICA_0" d="M1745.826,153.148L1753.41,160.562C1760.993,167.976,1776.161,182.803,1783.744,196.384C1791.328,209.964,1791.328,222.298,1791.328,232.631C1791.328,242.964,1791.328,251.298,1791.328,259.083C1791.328,266.867,1791.328,274.104,1791.328,277.722L1791.328,281.34"/><path marker-end="url(#my-svg_flowchart-v2-pointEnd)" style="" class="edge-thickness-normal edge-pattern-dotted edge-thickness-normal edge-pattern-solid flowchart-link" id="L_PRIMARY_ASYNC_REPLICA_0" d="M1752.75,132.505L1785.529,143.36C1818.307,154.214,1883.865,175.922,1916.643,192.943C1949.422,209.964,1949.422,222.298,1949.422,232.631C1949.422,242.964,1949.422,251.298,1949.422,258.964C1949.422,266.631,1949.422,273.631,1949.422,277.131L1949.422,280.631"/><path marker-end="url(#my-svg_flowchart-v2-pointEnd)" style="" class="edge-thickness-normal edge-pattern-solid edge-thickness-normal edge-pattern-solid flowchart-link" id="L_PRIMARY_USERS_0" d="M1700.15,160.215L1702.245,166.451C1704.34,172.687,1708.529,185.159,1710.624,197.562C1712.719,209.964,1712.719,222.298,1712.719,232.631C1712.719,242.964,1712.719,251.298,1681.691,263.727C1650.663,276.156,1588.608,292.681,1557.58,300.944L1526.553,309.206"/><path marker-end="url(#my-svg_flowchart-v2-pointEnd)" style="" class="edge-thickness-normal edge-pattern-solid edge-thickness-normal edge-pattern-solid flowchart-link" id="L_PRIMARY_DOCUMENTS_0" d="M1652.205,159.311L1648.538,165.698C1644.871,172.084,1637.537,184.858,1633.87,197.411C1630.203,209.964,1630.203,222.298,1630.203,232.631C1630.203,242.964,1630.203,251.298,1453.371,266.741C1276.539,282.185,922.875,304.74,746.043,316.017L569.211,327.294"/><path marker-end="url(#my-svg_flowchart-v2-pointEnd)" style="" class="edge-thickness-normal edge-pattern-solid edge-thickness-normal edge-pattern-solid flowchart-link" id="L_PRIMARY_SIGNATURES_0" d="M1663.826,160.141L1661.555,166.389C1659.285,172.638,1654.744,185.134,1652.474,197.549C1650.203,209.964,1650.203,222.298,1650.203,232.631C1650.203,242.964,1650.203,251.298,1510.628,266.509C1371.053,281.719,1091.903,303.808,952.328,314.852L812.753,325.896"/><path marker-end="url(#my-svg_flowchart-v2-pointEnd)" style="" class="edge-thickness-normal edge-pattern-solid edge-thickness-normal edge-pattern-solid flowchart-link" id="L_PRIMARY_TEMPLATES_0" d="M1688.529,160.585L1689.227,166.76C1689.926,172.934,1691.322,185.282,1692.02,197.623C1692.719,209.964,1692.719,222.298,1692.719,232.631C1692.719,242.964,1692.719,251.298,1627.123,265.171C1561.527,279.045,1430.336,298.46,1364.74,308.167L1299.144,317.874"/><path marker-end="url(#my-svg_flowchart-v2-pointEnd)" style="" class="edge-thickness-normal edge-pattern-solid edge-thickness-normal edge-pattern-solid flowchart-link" id="L_PRIMARY_AUDIT_0" d="M1675.447,160.56L1674.573,166.738C1673.699,172.917,1671.951,185.274,1671.077,197.619C1670.203,209.964,1670.203,222.298,1670.203,232.631C1670.203,242.964,1670.203,251.298,1565.319,266.399C1460.436,281.501,1250.668,303.37,1145.784,314.305L1040.9,325.24"/><path marker-end="url(#my-svg_flowchart-v2-pointEnd)" style="" class="edge-thickness-normal edge-pattern-solid edge-thickness-normal edge-pattern-solid flowchart-link" id="L_DOCUMENTS_PARTITIONING_0" d="M466.102,372.869L466.102,378.743C466.102,384.616,466.102,396.362,466.102,406.401C466.102,416.441,466.102,424.775,466.102,433.108C466.102,441.441,466.102,449.775,466.102,458.108C466.102,466.441,466.102,474.775,466.102,482.441C466.102,490.108,466.102,497.108,466.102,500.608L466.102,504.108"/><path marker-end="url(#my-svg_flowchart-v2-pointEnd)" style="" class="edge-thickness-normal edge-pattern-solid edge-thickness-normal edge-pattern-solid flowchart-link" id="L_SIGNATURES_INDEXING_0" d="M711.992,372.869L711.992,378.743C711.992,384.616,711.992,396.362,711.992,406.401C711.992,416.441,711.992,424.775,711.992,433.108C711.992,441.441,711.992,449.775,711.992,458.108C711.992,466.441,711.992,474.775,711.992,482.441C711.992,490.108,711.992,497.108,711.992,500.608L711.992,504.108"/><path marker-end="url(#my-svg_flowchart-v2-pointEnd)" style="" class="edge-thickness-normal edge-pattern-solid edge-thickness-normal edge-pattern-solid flowchart-link" id="L_AUDIT_MATERIALIZED_VIEWS_0" d="M958.125,372.869L958.125,378.743C958.125,384.616,958.125,396.362,958.125,406.401C958.125,416.441,958.125,424.775,958.125,433.108C958.125,441.441,958.125,449.775,958.125,458.108C958.125,466.441,958.125,474.775,958.125,482.441C958.125,490.108,958.125,497.108,958.125,500.608L958.125,504.108"/><path marker-end="url(#my-svg_flowchart-v2-pointEnd)" style="" class="edge-thickness-normal edge-pattern-solid edge-thickness-normal edge-pattern-solid flowchart-link" id="L_USERS_PGPOOL_0" d="M1433.938,372.869L1433.938,378.743C1433.938,384.616,1433.938,396.362,1433.938,406.401C1433.938,416.441,1433.938,424.775,1433.938,433.108C1433.938,441.441,1433.938,449.775,1433.938,458.108C1433.938,466.441,1433.938,474.775,1433.938,482.441C1433.938,490.108,1433.938,497.108,1433.938,500.608L1433.938,504.108"/><path marker-end="url(#my-svg_flowchart-v2-pointEnd)" style="" class="edge-thickness-normal edge-pattern-solid edge-thickness-normal edge-pattern-solid flowchart-link" id="L_PRIMARY_WAL_ARCHIVE_0" d="M1640.584,157.972L1635.52,164.582C1630.457,171.192,1620.33,184.411,1615.267,197.188C1610.203,209.964,1610.203,222.298,1610.203,232.631C1610.203,242.964,1610.203,251.298,1380.765,267.129C1151.326,282.961,692.45,306.29,463.011,317.955L233.573,329.62"/><path marker-end="url(#my-svg_flowchart-v2-pointEnd)" style="" class="edge-thickness-normal edge-pattern-solid edge-thickness-normal edge-pattern-solid flowchart-link" id="L_WAL_ARCHIVE_SNAPSHOT_0" d="M149.992,372.869L149.992,378.743C149.992,384.616,149.992,396.362,149.992,406.401C149.992,416.441,149.992,424.775,149.992,433.108C149.992,441.441,149.992,449.775,149.992,458.108C149.992,466.441,149.992,474.775,149.992,482.441C149.992,490.108,149.992,497.108,149.992,500.608L149.992,504.108"/><path marker-end="url(#my-svg_flowchart-v2-pointEnd)" style="" class="edge-thickness-normal edge-pattern-solid edge-thickness-normal edge-pattern-solid flowchart-link" id="L_SNAPSHOT_CROSS_REGION_0" d="M149.992,586.108L149.992,590.275C149.992,594.441,149.992,602.775,149.992,611.108C149.992,619.441,149.992,627.775,149.992,635.441C149.992,643.108,149.992,650.108,149.992,653.608L149.992,657.108"/></g><g class="edgeLabels"><g transform="translate(1791.328125, 197.6309814453125)" class="edgeLabel"><g transform="translate(-58.609375, -12)" class="label"><foreignObject height="24" width="117.21875"><div style="display: table-cell; white-space: nowrap; line-height: 1.5; max-width: 200px; text-align: center;" class="labelBkg" xmlns="http://www.w3.org/1999/xhtml"><span class="edgeLabel"><p>Sync Replication</p></span></div></foreignObject></g></g><g transform="translate(1949.421875, 197.6309814453125)" class="edgeLabel"><g transform="translate(-62.71875, -12)" class="label"><foreignObject height="24" width="125.4375"><div style="display: table-cell; white-space: nowrap; line-height: 1.5; max-width: 200px; text-align: center;" class="labelBkg" xmlns="http://www.w3.org/1999/xhtml"><span class="edgeLabel"><p>Async Replication</p></span></div></foreignObject></g></g><g class="edgeLabel"><g transform="translate(0, 0)" class="label"><foreignObject height="0" width="0"><div style="display: table-cell; white-space: nowrap; line-height: 1.5; max-width: 200px; text-align: center;" class="labelBkg" xmlns="http://www.w3.org/1999/xhtml"><span class="edgeLabel"></span></div></foreignObject></g></g><g class="edgeLabel"><g transform="translate(0, 0)" class="label"><foreignObject height="0" width="0"><div style="display: table-cell; white-space: nowrap; line-height: 1.5; max-width: 200px; text-align: center;" class="labelBkg" xmlns="http://www.w3.org/1999/xhtml"><span class="edgeLabel"></span></div></foreignObject></g></g><g class="edgeLabel"><g transform="translate(0, 0)" class="label"><foreignObject height="0" width="0"><div style="display: table-cell; white-space: nowrap; line-height: 1.5; max-width: 200px; text-align: center;" class="labelBkg" xmlns="http://www.w3.org/1999/xhtml"><span class="edgeLabel"></span></div></foreignObject></g></g><g class="edgeLabel"><g transform="translate(0, 0)" class="label"><foreignObject height="0" width="0"><div style="display: table-cell; white-space: nowrap; line-height: 1.5; max-width: 200px; text-align: center;" class="labelBkg" xmlns="http://www.w3.org/1999/xhtml"><span class="edgeLabel"></span></div></foreignObject></g></g><g class="edgeLabel"><g transform="translate(0, 0)" class="label"><foreignObject height="0" width="0"><div style="display: table-cell; white-space: nowrap; line-height: 1.5; max-width: 200px; text-align: center;" class="labelBkg" xmlns="http://www.w3.org/1999/xhtml"><span class="edgeLabel"></span></div></foreignObject></g></g><g class="edgeLabel"><g transform="translate(0, 0)" class="label"><foreignObject height="0" width="0"><div style="display: table-cell; white-space: nowrap; line-height: 1.5; max-width: 200px; text-align: center;" class="labelBkg" xmlns="http://www.w3.org/1999/xhtml"><span class="edgeLabel"></span></div></foreignObject></g></g><g class="edgeLabel"><g transform="translate(0, 0)" class="label"><foreignObject height="0" width="0"><div style="display: table-cell; white-space: nowrap; line-height: 1.5; max-width: 200px; text-align: center;" class="labelBkg" xmlns="http://www.w3.org/1999/xhtml"><span class="edgeLabel"></span></div></foreignObject></g></g><g class="edgeLabel"><g transform="translate(0, 0)" class="label"><foreignObject height="0" width="0"><div style="display: table-cell; white-space: nowrap; line-height: 1.5; max-width: 200px; text-align: center;" class="labelBkg" xmlns="http://www.w3.org/1999/xhtml"><span class="edgeLabel"></span></div></foreignObject></g></g><g class="edgeLabel"><g transform="translate(0, 0)" class="label"><foreignObject height="0" width="0"><div style="display: table-cell; white-space: nowrap; line-height: 1.5; max-width: 200px; text-align: center;" class="labelBkg" xmlns="http://www.w3.org/1999/xhtml"><span class="edgeLabel"></span></div></foreignObject></g></g><g class="edgeLabel"><g transform="translate(0, 0)" class="label"><foreignObject height="0" width="0"><div style="display: table-cell; white-space: nowrap; line-height: 1.5; max-width: 200px; text-align: center;" class="labelBkg" xmlns="http://www.w3.org/1999/xhtml"><span class="edgeLabel"></span></div></foreignObject></g></g><g class="edgeLabel"><g transform="translate(0, 0)" class="label"><foreignObject height="0" width="0"><div style="display: table-cell; white-space: nowrap; line-height: 1.5; max-width: 200px; text-align: center;" class="labelBkg" xmlns="http://www.w3.org/1999/xhtml"><span class="edgeLabel"></span></div></foreignObject></g></g><g class="edgeLabel"><g transform="translate(0, 0)" class="label"><foreignObject height="0" width="0"><div style="display: table-cell; white-space: nowrap; line-height: 1.5; max-width: 200px; text-align: center;" class="labelBkg" xmlns="http://www.w3.org/1999/xhtml"><span class="edgeLabel"></span></div></foreignObject></g></g></g><g class="nodes"><g transform="translate(1682.71875, 109.31549072265625)" id="flowchart-PRIMARY-0" class="node default"><path transform="translate(-70.03125, -51.31549162933271)" style="" class="basic label-container" d="M0,13.210327752888471 a70.03125,13.210327752888471 0,0,0 140.0625,0 a70.03125,13.210327752888471 0,0,0 -140.0625,0 l0,76.21032775288847 a70.03125,13.210327752888471 0,0,0 140.0625,0 l0,-76.21032775288847"/><g transform="translate(-62.53125, -14)" style="" class="label"><rect/><foreignObject height="48" width="125.0625"><div style="display: table-cell; white-space: nowrap; line-height: 1.5; max-width: 200px; text-align: center;" xmlns="http://www.w3.org/1999/xhtml"><span class="nodeLabel"><p>Primary Database<br />Write Operations</p></span></div></foreignObject></g></g><g transform="translate(1791.328125, 333.8694381713867)" id="flowchart-SYNC_REPLICA-1" class="node default"><path transform="translate(-51.9921875, -48.52917093142272)" style="" class="basic label-container" d="M0,11.352780620948481 a51.9921875,11.352780620948481 0,0,0 103.984375,0 a51.9921875,11.352780620948481 0,0,0 -103.984375,0 l0,74.35278062094848 a51.9921875,11.352780620948481 0,0,0 103.984375,0 l0,-74.35278062094848"/><g transform="translate(-44.4921875, -14)" style="" class="label"><rect/><foreignObject height="48" width="88.984375"><div style="display: table-cell; white-space: nowrap; line-height: 1.5; max-width: 200px; text-align: center;" xmlns="http://www.w3.org/1999/xhtml"><span class="nodeLabel"><p>Sync Replica<br />HA Failover</p></span></div></foreignObject></g></g><g transform="translate(1949.421875, 333.8694381713867)" id="flowchart-ASYNC_REPLICA-2" class="node default"><path transform="translate(-56.1015625, -49.23845596469271)" style="" class="basic label-container" d="M0,11.82563730979514 a56.1015625,11.82563730979514 0,0,0 112.203125,0 a56.1015625,11.82563730979514 0,0,0 -112.203125,0 l0,74.82563730979514 a56.1015625,11.82563730979514 0,0,0 112.203125,0 l0,-74.82563730979514"/><g transform="translate(-48.6015625, -14)" style="" class="label"><rect/><foreignObject height="48" width="97.203125"><div style="display: table-cell; white-space: nowrap; line-height: 1.5; max-width: 200px; text-align: center;" xmlns="http://www.w3.org/1999/xhtml"><span class="nodeLabel"><p>Async Replica<br />Read Scaling</p></span></div></foreignObject></g></g><g transform="translate(1433.9375, 333.8694381713867)" id="flowchart-USERS-3" class="node default"><rect height="78" width="177.5" y="-39" x="-88.75" style="" class="basic label-container"/><g transform="translate(-58.75, -24)" style="" class="label"><rect/><foreignObject height="48" width="117.5"><div style="display: table-cell; white-space: nowrap; line-height: 1.5; max-width: 200px; text-align: center;" xmlns="http://www.w3.org/1999/xhtml"><span class="nodeLabel"><p>Users Schema<br />Accounts &amp; Auth</p></span></div></foreignObject></g></g><g transform="translate(466.1015625, 333.8694381713867)" id="flowchart-DOCUMENTS-4" class="node default"><rect height="78" width="198.234375" y="-39" x="-99.1171875" style="" class="basic label-container"/><g transform="translate(-69.1171875, -24)" style="" class="label"><rect/><foreignObject height="48" width="138.234375"><div style="display: table-cell; white-space: nowrap; line-height: 1.5; max-width: 200px; text-align: center;" xmlns="http://www.w3.org/1999/xhtml"><span class="nodeLabel"><p>Documents Schema<br />Metadata &amp; Status</p></span></div></foreignObject></g></g><g transform="translate(711.9921875, 333.8694381713867)" id="flowchart-SIGNATURES-5" class="node default"><rect height="78" width="193.546875" y="-39" x="-96.7734375" style="" class="basic label-container"/><g transform="translate(-66.7734375, -24)" style="" class="label"><rect/><foreignObject height="48" width="133.546875"><div style="display: table-cell; white-space: nowrap; line-height: 1.5; max-width: 200px; text-align: center;" xmlns="http://www.w3.org/1999/xhtml"><span class="nodeLabel"><p>Signatures Schema<br />Signature Records</p></span></div></foreignObject></g></g><g transform="translate(1191.0546875, 333.8694381713867)" id="flowchart-TEMPLATES-6" class="node default"><rect height="78" width="208.265625" y="-39" x="-104.1328125" style="" class="basic label-container"/><g transform="translate(-74.1328125, -24)" style="" class="label"><rect/><foreignObject height="48" width="148.265625"><div style="display: table-cell; white-space: nowrap; line-height: 1.5; max-width: 200px; text-align: center;" xmlns="http://www.w3.org/1999/xhtml"><span class="nodeLabel"><p>Templates Schema<br />Template Definitions</p></span></div></foreignObject></g></g><g transform="translate(958.125, 333.8694381713867)" id="flowchart-AUDIT-7" class="node default"><rect height="78" width="157.59375" y="-39" x="-78.796875" style="" class="basic label-container"/><g transform="translate(-48.796875, -24)" style="" class="label"><rect/><foreignObject height="48" width="97.59375"><div style="display: table-cell; white-space: nowrap; line-height: 1.5; max-width: 200px; text-align: center;" xmlns="http://www.w3.org/1999/xhtml"><span class="nodeLabel"><p>Audit Schema<br />Event Logs</p></span></div></foreignObject></g></g><g transform="translate(466.1015625, 547.1078948974609)" id="flowchart-PARTITIONING-8" class="node default"><rect height="78" width="186.15625" y="-39" x="-93.078125" style="" class="basic label-container"/><g transform="translate(-63.078125, -24)" style="" class="label"><rect/><foreignObject height="48" width="126.15625"><div style="display: table-cell; white-space: nowrap; line-height: 1.5; max-width: 200px; text-align: center;" xmlns="http://www.w3.org/1999/xhtml"><span class="nodeLabel"><p>Table Partitioning<br />Time-based</p></span></div></foreignObject></g></g><g transform="translate(711.9921875, 547.1078948974609)" id="flowchart-INDEXING-9" class="node default"><rect height="78" width="198.125" y="-39" x="-99.0625" style="" class="basic label-container"/><g transform="translate(-69.0625, -24)" style="" class="label"><rect/><foreignObject height="48" width="138.125"><div style="display: table-cell; white-space: nowrap; line-height: 1.5; max-width: 200px; text-align: center;" xmlns="http://www.w3.org/1999/xhtml"><span class="nodeLabel"><p>Strategic Indexing<br />Query Performance</p></span></div></foreignObject></g></g><g transform="translate(958.125, 547.1078948974609)" id="flowchart-MATERIALIZED_VIEWS-10" class="node default"><rect height="78" width="194.140625" y="-39" x="-97.0703125" style="" class="basic label-container"/><g transform="translate(-67.0703125, -24)" style="" class="label"><rect/><foreignObject height="48" width="134.140625"><div style="display: table-cell; white-space: nowrap; line-height: 1.5; max-width: 200px; text-align: center;" xmlns="http://www.w3.org/1999/xhtml"><span class="nodeLabel"><p>Materialized Views<br />Analytics</p></span></div></foreignObject></g></g><g transform="translate(1433.9375, 547.1078948974609)" id="flowchart-PGPOOL-11" class="node default"><rect height="78" width="196.75" y="-39" x="-98.375" style="" class="basic label-container"/><g transform="translate(-68.375, -24)" style="" class="label"><rect/><foreignObject height="48" width="136.75"><div style="display: table-cell; white-space: nowrap; line-height: 1.5; max-width: 200px; text-align: center;" xmlns="http://www.w3.org/1999/xhtml"><span class="nodeLabel"><p>PgBouncer<br />Connection Pooling</p></span></div></foreignObject></g></g><g transform="translate(149.9921875, 333.8694381713867)" id="flowchart-WAL_ARCHIVE-12" class="node default"><rect height="78" width="159.171875" y="-39" x="-79.5859375" style="" class="basic label-container"/><g transform="translate(-49.5859375, -24)" style="" class="label"><rect/><foreignObject height="48" width="99.171875"><div style="display: table-cell; white-space: nowrap; line-height: 1.5; max-width: 200px; text-align: center;" xmlns="http://www.w3.org/1999/xhtml"><span class="nodeLabel"><p>WAL Archiving<br />Point-in-time</p></span></div></foreignObject></g></g><g transform="translate(149.9921875, 547.1078948974609)" id="flowchart-SNAPSHOT-13" class="node default"><rect height="78" width="213.984375" y="-39" x="-106.9921875" style="" class="basic label-container"/><g transform="translate(-76.9921875, -24)" style="" class="label"><rect/><foreignObject height="48" width="153.984375"><div style="display: table-cell; white-space: nowrap; line-height: 1.5; max-width: 200px; text-align: center;" xmlns="http://www.w3.org/1999/xhtml"><span class="nodeLabel"><p>Automated Snapshots<br />Daily Backup</p></span></div></foreignObject></g></g><g transform="translate(149.9921875, 700.1078948974609)" id="flowchart-CROSS_REGION-14" class="node default"><rect height="78" width="204" y="-39" x="-102" style="" class="basic label-container"/><g transform="translate(-72, -24)" style="" class="label"><rect/><foreignObject height="48" width="144"><div style="display: table-cell; white-space: nowrap; line-height: 1.5; max-width: 200px; text-align: center;" xmlns="http://www.w3.org/1999/xhtml"><span class="nodeLabel"><p>Cross-region Backup<br />Disaster Recovery</p></span></div></foreignObject></g></g></g></g></g></svg>