<svg class="mermaid-svg" aria-roledescription="class" role="graphics-document document" viewBox="0 0 683.6484375 668" style="max-width: 683.648px; background-color: transparent;" class="classDiagram" xmlns:xlink="http://www.w3.org/1999/xlink" xmlns="http://www.w3.org/2000/svg"  id="my-svg"><style>#my-svg{font-family:"trebuchet ms",verdana,arial,sans-serif;font-size:16px;fill:#ccc;}@keyframes edge-animation-frame{from{stroke-dashoffset:0;}}@keyframes dash{to{stroke-dashoffset:0;}}#my-svg .edge-animation-slow{stroke-dasharray:9,5!important;stroke-dashoffset:900;animation:dash 50s linear infinite;stroke-linecap:round;}#my-svg .edge-animation-fast{stroke-dasharray:9,5!important;stroke-dashoffset:900;animation:dash 20s linear infinite;stroke-linecap:round;}#my-svg .error-icon{fill:#a44141;}#my-svg .error-text{fill:#ddd;stroke:#ddd;}#my-svg .edge-thickness-normal{stroke-width:1px;}#my-svg .edge-thickness-thick{stroke-width:3.5px;}#my-svg .edge-pattern-solid{stroke-dasharray:0;}#my-svg .edge-thickness-invisible{stroke-width:0;fill:none;}#my-svg .edge-pattern-dashed{stroke-dasharray:3;}#my-svg .edge-pattern-dotted{stroke-dasharray:2;}#my-svg .marker{fill:lightgrey;stroke:lightgrey;}#my-svg .marker.cross{stroke:lightgrey;}#my-svg svg{font-family:"trebuchet ms",verdana,arial,sans-serif;font-size:16px;}#my-svg p{margin:0;}#my-svg g.classGroup text{fill:#ccc;stroke:none;font-family:"trebuchet ms",verdana,arial,sans-serif;font-size:10px;}#my-svg g.classGroup text .title{font-weight:bolder;}#my-svg .nodeLabel,#my-svg .edgeLabel{color:#e0dfdf;}#my-svg .edgeLabel .label rect{fill:#1f2020;}#my-svg .label text{fill:#e0dfdf;}#my-svg .labelBkg{background:#1f2020;}#my-svg .edgeLabel .label span{background:#1f2020;}#my-svg .classTitle{font-weight:bolder;}#my-svg .node rect,#my-svg .node circle,#my-svg .node ellipse,#my-svg .node polygon,#my-svg .node path{fill:#1f2020;stroke:#ccc;stroke-width:1px;}#my-svg .divider{stroke:#ccc;stroke-width:1;}#my-svg g.clickable{cursor:pointer;}#my-svg g.classGroup rect{fill:#1f2020;stroke:#ccc;}#my-svg g.classGroup line{stroke:#ccc;stroke-width:1;}#my-svg .classLabel .box{stroke:none;stroke-width:0;fill:#1f2020;opacity:0.5;}#my-svg .classLabel .label{fill:#ccc;font-size:10px;}#my-svg .relation{stroke:lightgrey;stroke-width:1;fill:none;}#my-svg .dashed-line{stroke-dasharray:3;}#my-svg .dotted-line{stroke-dasharray:1 2;}#my-svg #compositionStart,#my-svg .composition{fill:lightgrey!important;stroke:lightgrey!important;stroke-width:1;}#my-svg #compositionEnd,#my-svg .composition{fill:lightgrey!important;stroke:lightgrey!important;stroke-width:1;}#my-svg #dependencyStart,#my-svg .dependency{fill:lightgrey!important;stroke:lightgrey!important;stroke-width:1;}#my-svg #dependencyStart,#my-svg .dependency{fill:lightgrey!important;stroke:lightgrey!important;stroke-width:1;}#my-svg #extensionStart,#my-svg .extension{fill:transparent!important;stroke:lightgrey!important;stroke-width:1;}#my-svg #extensionEnd,#my-svg .extension{fill:transparent!important;stroke:lightgrey!important;stroke-width:1;}#my-svg #aggregationStart,#my-svg .aggregation{fill:transparent!important;stroke:lightgrey!important;stroke-width:1;}#my-svg #aggregationEnd,#my-svg .aggregation{fill:transparent!important;stroke:lightgrey!important;stroke-width:1;}#my-svg #lollipopStart,#my-svg .lollipop{fill:#1f2020!important;stroke:lightgrey!important;stroke-width:1;}#my-svg #lollipopEnd,#my-svg .lollipop{fill:#1f2020!important;stroke:lightgrey!important;stroke-width:1;}#my-svg .edgeTerminals{font-size:11px;line-height:initial;}#my-svg .classTitleText{text-anchor:middle;font-size:18px;fill:#ccc;}#my-svg .label-icon{display:inline-block;height:1em;overflow:visible;vertical-align:-0.125em;}#my-svg .node .label-icon path{fill:currentColor;stroke:revert;stroke-width:revert;}#my-svg :root{--mermaid-font-family:"trebuchet ms",verdana,arial,sans-serif;}</style><g><defs><marker orient="auto" markerHeight="240" markerWidth="190" refY="7" refX="18" class="marker aggregation class" id="my-svg_class-aggregationStart"><path d="M 18,7 L9,13 L1,7 L9,1 Z"/></marker></defs><defs><marker orient="auto" markerHeight="28" markerWidth="20" refY="7" refX="1" class="marker aggregation class" id="my-svg_class-aggregationEnd"><path d="M 18,7 L9,13 L1,7 L9,1 Z"/></marker></defs><defs><marker orient="auto" markerHeight="240" markerWidth="190" refY="7" refX="18" class="marker extension class" id="my-svg_class-extensionStart"><path d="M 1,7 L18,13 V 1 Z"/></marker></defs><defs><marker orient="auto" markerHeight="28" markerWidth="20" refY="7" refX="1" class="marker extension class" id="my-svg_class-extensionEnd"><path d="M 1,1 V 13 L18,7 Z"/></marker></defs><defs><marker orient="auto" markerHeight="240" markerWidth="190" refY="7" refX="18" class="marker composition class" id="my-svg_class-compositionStart"><path d="M 18,7 L9,13 L1,7 L9,1 Z"/></marker></defs><defs><marker orient="auto" markerHeight="28" markerWidth="20" refY="7" refX="1" class="marker composition class" id="my-svg_class-compositionEnd"><path d="M 18,7 L9,13 L1,7 L9,1 Z"/></marker></defs><defs><marker orient="auto" markerHeight="240" markerWidth="190" refY="7" refX="6" class="marker dependency class" id="my-svg_class-dependencyStart"><path d="M 5,7 L9,13 L1,7 L9,1 Z"/></marker></defs><defs><marker orient="auto" markerHeight="28" markerWidth="20" refY="7" refX="13" class="marker dependency class" id="my-svg_class-dependencyEnd"><path d="M 18,7 L9,13 L14,7 L9,1 Z"/></marker></defs><defs><marker orient="auto" markerHeight="240" markerWidth="190" refY="7" refX="13" class="marker lollipop class" id="my-svg_class-lollipopStart"><circle r="6" cy="7" cx="7" fill="transparent" stroke="black"/></marker></defs><defs><marker orient="auto" markerHeight="240" markerWidth="190" refY="7" refX="1" class="marker lollipop class" id="my-svg_class-lollipopEnd"><circle r="6" cy="7" cx="7" fill="transparent" stroke="black"/></marker></defs><g class="root"><g class="clusters"/><g class="edgePaths"><path marker-start="url(#my-svg_class-aggregationStart)" style="" class="edge-thickness-normal edge-pattern-solid relation" id="id_Game_Board_1" d="M285.993,181.358L264.222,192.632C242.452,203.905,198.912,226.453,177.141,241.893C155.371,257.333,155.371,265.667,155.371,269.833L155.371,274"/><path marker-start="url(#my-svg_class-aggregationStart)" style="" class="edge-thickness-normal edge-pattern-solid relation" id="id_Game_Dice_2" d="M412.203,242L412.203,243.167C412.203,244.333,412.203,246.667,412.203,252C412.203,257.333,412.203,265.667,412.203,269.833L412.203,274"/><path marker-start="url(#my-svg_class-aggregationStart)" style="" class="edge-thickness-normal edge-pattern-solid relation" id="id_Game_Player_3" d="M537.201,203.049L548.198,210.708C559.195,218.366,581.189,233.683,592.186,247.508C603.184,261.333,603.184,273.667,603.184,279.833L603.184,286"/><path marker-start="url(#my-svg_class-aggregationStart)" style="" class="edge-thickness-normal edge-pattern-solid relation" id="id_Board_Snake_4" d="M74.237,480.509L72.953,482.258C71.67,484.006,69.102,487.503,67.819,493.418C66.535,499.333,66.535,507.667,66.535,511.833L66.535,516"/><path marker-start="url(#my-svg_class-aggregationStart)" style="" class="edge-thickness-normal edge-pattern-solid relation" id="id_Board_Ladder_5" d="M236.505,480.509L237.789,482.258C239.072,484.006,241.64,487.503,242.923,493.418C244.207,499.333,244.207,507.667,244.207,511.833L244.207,516"/></g><g class="edgeLabels"><g class="edgeLabel"><g transform="translate(0, -12)" class="label"><foreignObject  width="0"><div class="labelBkg" xmlns="http://www.w3.org/1999/xhtml" style="display: table-cell; white-space: nowrap; line-height: 1.5; max-width: 200px; text-align: center;"><span class="edgeLabel" style=";display: inline-block"></span></div></foreignObject></g></g><g class="edgeLabel"><g transform="translate(0, -12)" class="label"><foreignObject height="24" width="0"><div class="labelBkg" xmlns="http://www.w3.org/1999/xhtml" style="display: table-cell; white-space: nowrap; line-height: 1.5; max-width: 200px; text-align: center;"><span class="edgeLabel" style=";display: inline-block"></span></div></foreignObject></g></g><g class="edgeLabel"><g transform="translate(0, -12)" class="label"><foreignObject height="24" width="0"><div class="labelBkg" xmlns="http://www.w3.org/1999/xhtml" style="display: table-cell; white-space: nowrap; line-height: 1.5; max-width: 200px; text-align: center;"><span class="edgeLabel" style=";display: inline-block"></span></div></foreignObject></g></g><g class="edgeLabel"><g transform="translate(0, -12)" class="label"><foreignObject height="24" width="0"><div class="labelBkg" xmlns="http://www.w3.org/1999/xhtml" style="display: table-cell; white-space: nowrap; line-height: 1.5; max-width: 200px; text-align: center;"><span class="edgeLabel" style=";display: inline-block"></span></div></foreignObject></g></g><g class="edgeLabel"><g transform="translate(0, -12)" class="label"><foreignObject height="24" width="0"><div class="labelBkg" xmlns="http://www.w3.org/1999/xhtml" style="display: table-cell; white-space: nowrap; line-height: 1.5; max-width: 200px; text-align: center;"><span class="edgeLabel" style=";display: inline-block"></span></div></foreignObject></g></g></g><g class="nodes"><g transform="translate(412.203125, 116)" id="classId-Game-0" class="node default"><g class="basic label-container"><path style="" fill="#1f2020" stroke-width="0" stroke="none" d="M-110.2265625 -108 L110.2265625 -108 L110.2265625 108 L-110.2265625 108"/><path style="" stroke-dasharray="0 0" fill="none" stroke-width="1.3" stroke="#ccc" d="M-110.2265625 -108 C-61.559276216095114 -108, -12.891989932190228 -108, 110.2265625 -108 M-110.2265625 -108 C-26.338650723496116 -108, 57.54926105300777 -108, 110.2265625 -108 M110.2265625 -108 C110.2265625 -22.100672926412457, 110.2265625 63.798654147175085, 110.2265625 108 M110.2265625 -108 C110.2265625 -64.37670088551309, 110.2265625 -20.753401771026162, 110.2265625 108 M110.2265625 108 C24.97551195836064 108, -60.27553858327872 108, -110.2265625 108 M110.2265625 108 C39.65459038684048 108, -30.917381726319036 108, -110.2265625 108 M-110.2265625 108 C-110.2265625 29.271598655099936, -110.2265625 -49.45680268980013, -110.2265625 -108 M-110.2265625 108 C-110.2265625 49.092017244457956, -110.2265625 -9.815965511084087, -110.2265625 -108"/></g><g transform="translate(0, -84)" class="annotation-group text"/><g transform="translate(-21.109375, -84)" class="label-group text"><g transform="translate(0,-12)" style="font-weight: bolder" class="label"><foreignObject height="24" width="42.21875"><div style="display: table-cell; white-space: nowrap; line-height: 1.5; max-width: 88px; text-align: center;" xmlns="http://www.w3.org/1999/xhtml"><span style="" class="nodeLabel markdown-node-label"><p>Game</p></span></div></foreignObject></g></g><g transform="translate(-98.2265625, -36)" class="members-group text"><g transform="translate(0,-12)" style="" class="label"><foreignObject height="24" width="98.796875"><div style="display: table-cell; white-space: nowrap; line-height: 1.5; max-width: 144px; text-align: center;" xmlns="http://www.w3.org/1999/xhtml"><span style="" class="nodeLabel markdown-node-label"><p>-board: Board</p></span></div></foreignObject></g><g transform="translate(0,12)" style="" class="label"><foreignObject height="24" width="77.71875"><div style="display: table-cell; white-space: nowrap; line-height: 1.5; max-width: 125px; text-align: center;" xmlns="http://www.w3.org/1999/xhtml"><span style="" class="nodeLabel markdown-node-label"><p>-dice: Dice</p></span></div></foreignObject></g><g transform="translate(0,36)" style="" class="label"><foreignObject height="24" width="175.34375"><div style="display: table-cell; white-space: nowrap; line-height: 1.5; max-width: 252px; text-align: center;" xmlns="http://www.w3.org/1999/xhtml"><span style="" class="nodeLabel markdown-node-label"><p>-players: Queue&lt;Player&gt;</p></span></div></foreignObject></g><g transform="translate(0,60)" style="" class="label"><foreignObject height="24" width="110.359375"><div style="display: table-cell; white-space: nowrap; line-height: 1.5; max-width: 154px; text-align: center;" xmlns="http://www.w3.org/1999/xhtml"><span style="" class="nodeLabel markdown-node-label"><p>-winner: Player</p></span></div></foreignObject></g></g><g transform="translate(-98.2265625, 84)" class="methods-group text"><g transform="translate(0,-12)" style="" class="label"><foreignObject height="24" width="50.078125"><div style="display: table-cell; white-space: nowrap; line-height: 1.5; max-width: 102px; text-align: center;" xmlns="http://www.w3.org/1999/xhtml"><span style="" class="nodeLabel markdown-node-label"><p>+play()</p></span></div></foreignObject></g></g><g style="" class="divider"><path style="" stroke-dasharray="0 0" fill="none" stroke-width="1.3" stroke="#ccc" d="M-110.2265625 -60 C-22.129620043815862 -60, 65.96732241236828 -60, 110.2265625 -60 M-110.2265625 -60 C-60.53449847598478 -60, -10.842434451969567 -60, 110.2265625 -60"/></g><g style="" class="divider"><path style="" stroke-dasharray="0 0" fill="none" stroke-width="1.3" stroke="#ccc" d="M-110.2265625 60 C-45.502752388046616 60, 19.221057723906767 60, 110.2265625 60 M-110.2265625 60 C-24.999205707168258 60, 60.228151085663484 60, 110.2265625 60"/></g></g><g transform="translate(155.37109375, 370)" id="classId-Board-1" class="node default"><g class="basic label-container"><path style="" fill="#1f2020" stroke-width="0" stroke="none" d="M-138.31640625 -96 L138.31640625 -96 L138.31640625 96 L-138.31640625 96"/><path style="" stroke-dasharray="0 0" fill="none" stroke-width="1.3" stroke="#ccc" d="M-138.31640625 -96 C-52.70014537454897 -96, 32.916115500902066 -96, 138.31640625 -96 M-138.31640625 -96 C-70.42268874762455 -96, -2.528971245249096 -96, 138.31640625 -96 M138.31640625 -96 C138.31640625 -51.441841634467444, 138.31640625 -6.883683268934888, 138.31640625 96 M138.31640625 -96 C138.31640625 -41.18197621609066, 138.31640625 13.636047567818679, 138.31640625 96 M138.31640625 96 C54.3500315631657 96, -29.6163431236686 96, -138.31640625 96 M138.31640625 96 C36.39931212015455 96, -65.5177820096909 96, -138.31640625 96 M-138.31640625 96 C-138.31640625 38.61337135451569, -138.31640625 -18.773257290968616, -138.31640625 -96 M-138.31640625 96 C-138.31640625 56.20666521901471, -138.31640625 16.41333043802942, -138.31640625 -96"/></g><g transform="translate(0, -72)" class="annotation-group text"/><g transform="translate(-21.6171875, -72)" class="label-group text"><g transform="translate(0,-12)" style="font-weight: bolder" class="label"><foreignObject height="24" width="43.234375"><div style="display: table-cell; white-space: nowrap; line-height: 1.5; max-width: 89px; text-align: center;" xmlns="http://www.w3.org/1999/xhtml"><span style="" class="nodeLabel markdown-node-label"><p>Board</p></span></div></foreignObject></g></g><g transform="translate(-126.31640625, -24)" class="members-group text"><g transform="translate(0,-12)" style="" class="label"><foreignObject height="24" width="63.578125"><div style="display: table-cell; white-space: nowrap; line-height: 1.5; max-width: 110px; text-align: center;" xmlns="http://www.w3.org/1999/xhtml"><span style="" class="nodeLabel markdown-node-label"><p>-size: int</p></span></div></foreignObject></g><g transform="translate(0,12)" style="" class="label"><foreignObject height="24" width="154.09375"><div style="display: table-cell; white-space: nowrap; line-height: 1.5; max-width: 233px; text-align: center;" xmlns="http://www.w3.org/1999/xhtml"><span style="" class="nodeLabel markdown-node-label"><p>-snakes: Map&lt;int,int&gt;</p></span></div></foreignObject></g><g transform="translate(0,36)" style="" class="label"><foreignObject height="24" width="159.578125"><div style="display: table-cell; white-space: nowrap; line-height: 1.5; max-width: 237px; text-align: center;" xmlns="http://www.w3.org/1999/xhtml"><span style="" class="nodeLabel markdown-node-label"><p>-ladders: Map&lt;int,int&gt;</p></span></div></foreignObject></g></g><g transform="translate(-126.31640625, 72)" class="methods-group text"><g transform="translate(0,-12)" style="" class="label"><foreignObject height="24" width="231.015625"><div style="display: table-cell; white-space: nowrap; line-height: 1.5; max-width: 259px; text-align: center;" xmlns="http://www.w3.org/1999/xhtml"><span style="" class="nodeLabel markdown-node-label"><p>+nextPosition(current, roll) : int</p></span></div></foreignObject></g></g><g style="" class="divider"><path style="" stroke-dasharray="0 0" fill="none" stroke-width="1.3" stroke="#ccc" d="M-138.31640625 -48 C-42.60813346650727 -48, 53.10013931698546 -48, 138.31640625 -48 M-138.31640625 -48 C-36.90196516235912 -48, 64.51247592528176 -48, 138.31640625 -48"/></g><g style="" class="divider"><path style="" stroke-dasharray="0 0" fill="none" stroke-width="1.3" stroke="#ccc" d="M-138.31640625 48 C-36.72378469288509 48, 64.86883686422982 48, 138.31640625 48 M-138.31640625 48 C-36.536410871938884 48, 65.24358450612223 48, 138.31640625 48"/></g></g><g transform="translate(412.203125, 370)" id="classId-Dice-2" class="node default"><g class="basic label-container"><path style="" fill="#1f2020" stroke-width="0" stroke="none" d="M-68.515625 -96 L68.515625 -96 L68.515625 96 L-68.515625 96"/><path style="" stroke-dasharray="0 0" fill="none" stroke-width="1.3" stroke="#ccc" d="M-68.515625 -96 C-30.244860053373394 -96, 8.025904893253212 -96, 68.515625 -96 M-68.515625 -96 C-30.343969543853696 -96, 7.827685912292608 -96, 68.515625 -96 M68.515625 -96 C68.515625 -33.885286035897295, 68.515625 28.22942792820541, 68.515625 96 M68.515625 -96 C68.515625 -37.970280982484766, 68.515625 20.059438035030468, 68.515625 96 M68.515625 96 C35.20266718353614 96, 1.8897093670722853 96, -68.515625 96 M68.515625 96 C25.799747623530052 96, -16.916129752939895 96, -68.515625 96 M-68.515625 96 C-68.515625 55.56484957524094, -68.515625 15.129699150481883, -68.515625 -96 M-68.515625 96 C-68.515625 38.30607589272881, -68.515625 -19.387848214542373, -68.515625 -96"/></g><g transform="translate(0, -72)" class="annotation-group text"/><g transform="translate(-16.21875, -72)" class="label-group text"><g transform="translate(0,-12)" style="font-weight: bolder" class="label"><foreignObject height="24" width="32.4375"><div style="display: table-cell; white-space: nowrap; line-height: 1.5; max-width: 80px; text-align: center;" xmlns="http://www.w3.org/1999/xhtml"><span style="" class="nodeLabel markdown-node-label"><p>Dice</p></span></div></foreignObject></g></g><g transform="translate(-56.515625, -24)" class="members-group text"><g transform="translate(0,-12)" style="" class="label"><foreignObject height="24" width="96.8125"><div style="display: table-cell; white-space: nowrap; line-height: 1.5; max-width: 144px; text-align: center;" xmlns="http://www.w3.org/1999/xhtml"><span style="" class="nodeLabel markdown-node-label"><p>-rng: Random</p></span></div></foreignObject></g><g transform="translate(0,12)" style="" class="label"><foreignObject height="24" width="71.375"><div style="display: table-cell; white-space: nowrap; line-height: 1.5; max-width: 117px; text-align: center;" xmlns="http://www.w3.org/1999/xhtml"><span style="" class="nodeLabel markdown-node-label"><p>-sides: int</p></span></div></foreignObject></g><g transform="translate(0,36)" style="" class="label"><foreignObject height="24" width="76.5625"><div style="display: table-cell; white-space: nowrap; line-height: 1.5; max-width: 121px; text-align: center;" xmlns="http://www.w3.org/1999/xhtml"><span style="" class="nodeLabel markdown-node-label"><p>-count: int</p></span></div></foreignObject></g></g><g transform="translate(-56.515625, 72)" class="methods-group text"><g transform="translate(0,-12)" style="" class="label"><foreignObject height="24" width="79.546875"><div style="display: table-cell; white-space: nowrap; line-height: 1.5; max-width: 126px; text-align: center;" xmlns="http://www.w3.org/1999/xhtml"><span style="" class="nodeLabel markdown-node-label"><p>+roll() : int</p></span></div></foreignObject></g></g><g style="" class="divider"><path style="" stroke-dasharray="0 0" fill="none" stroke-width="1.3" stroke="#ccc" d="M-68.515625 -48 C-22.628242387660777 -48, 23.259140224678447 -48, 68.515625 -48 M-68.515625 -48 C-28.23360733784761 -48, 12.048410324304783 -48, 68.515625 -48"/></g><g style="" class="divider"><path style="" stroke-dasharray="0 0" fill="none" stroke-width="1.3" stroke="#ccc" d="M-68.515625 48 C-35.846622910529085 48, -3.17762082105817 48, 68.515625 48 M-68.515625 48 C-19.321195346078163 48, 29.873234307843674 48, 68.515625 48"/></g></g><g transform="translate(603.18359375, 370)" id="classId-Player-3" class="node default"><g class="basic label-container"><path style="" fill="#1f2020" stroke-width="0" stroke="none" d="M-72.46484375 -84 L72.46484375 -84 L72.46484375 84 L-72.46484375 84"/><path style="" stroke-dasharray="0 0" fill="none" stroke-width="1.3" stroke="#ccc" d="M-72.46484375 -84 C-21.94565109235826 -84, 28.573541565283477 -84, 72.46484375 -84 M-72.46484375 -84 C-39.05610084270316 -84, -5.647357935406319 -84, 72.46484375 -84 M72.46484375 -84 C72.46484375 -22.150927190537423, 72.46484375 39.69814561892515, 72.46484375 84 M72.46484375 -84 C72.46484375 -38.828787417337075, 72.46484375 6.342425165325849, 72.46484375 84 M72.46484375 84 C16.203819198374326 84, -40.05720535325135 84, -72.46484375 84 M72.46484375 84 C36.07616995038433 84, -0.3125038492313337 84, -72.46484375 84 M-72.46484375 84 C-72.46484375 19.360163296557204, -72.46484375 -45.27967340688559, -72.46484375 -84 M-72.46484375 84 C-72.46484375 17.886385661352264, -72.46484375 -48.22722867729547, -72.46484375 -84"/></g><g transform="translate(0, -60)" class="annotation-group text"/><g transform="translate(-23.6015625, -60)" class="label-group text"><g transform="translate(0,-12)" style="font-weight: bolder" class="label"><foreignObject height="24" width="47.203125"><div style="display: table-cell; white-space: nowrap; line-height: 1.5; max-width: 91px; text-align: center;" xmlns="http://www.w3.org/1999/xhtml"><span style="" class="nodeLabel markdown-node-label"><p>Player</p></span></div></foreignObject></g></g><g transform="translate(-60.46484375, -12)" class="members-group text"><g transform="translate(0,-12)" style="" class="label"><foreignObject height="24" width="97.328125"><div style="display: table-cell; white-space: nowrap; line-height: 1.5; max-width: 142px; text-align: center;" xmlns="http://www.w3.org/1999/xhtml"><span style="" class="nodeLabel markdown-node-label"><p>-name: String</p></span></div></foreignObject></g><g transform="translate(0,12)" style="" class="label"><foreignObject height="24" width="93"><div style="display: table-cell; white-space: nowrap; line-height: 1.5; max-width: 137px; text-align: center;" xmlns="http://www.w3.org/1999/xhtml"><span style="" class="nodeLabel markdown-node-label"><p>-position: int</p></span></div></foreignObject></g></g><g transform="translate(-60.46484375, 60)" class="methods-group text"><g transform="translate(0,-12)" style="" class="label"><foreignObject height="24" width="95.515625"><div style="display: table-cell; white-space: nowrap; line-height: 1.5; max-width: 142px; text-align: center;" xmlns="http://www.w3.org/1999/xhtml"><span style="" class="nodeLabel markdown-node-label"><p>+move(steps)</p></span></div></foreignObject></g></g><g style="" class="divider"><path style="" stroke-dasharray="0 0" fill="none" stroke-width="1.3" stroke="#ccc" d="M-72.46484375 -36 C-19.390712856663214 -36, 33.68341803667357 -36, 72.46484375 -36 M-72.46484375 -36 C-25.758301411947357 -36, 20.948240926105285 -36, 72.46484375 -36"/></g><g style="" class="divider"><path style="" stroke-dasharray="0 0" fill="none" stroke-width="1.3" stroke="#ccc" d="M-72.46484375 36 C-20.677741402936157 36, 31.109360944127687 36, 72.46484375 36 M-72.46484375 36 C-28.93046129590565 36, 14.603921158188697 36, 72.46484375 36"/></g></g><g transform="translate(66.53515625, 588)" id="classId-Snake-4" class="node default"><g class="basic label-container"><path style="" fill="#1f2020" stroke-width="0" stroke="none" d="M-58.53515625 -72 L58.53515625 -72 L58.53515625 72 L-58.53515625 72"/><path style="" stroke-dasharray="0 0" fill="none" stroke-width="1.3" stroke="#ccc" d="M-58.53515625 -72 C-22.615700144446507 -72, 13.303755961106987 -72, 58.53515625 -72 M-58.53515625 -72 C-18.913646166603556 -72, 20.70786391679289 -72, 58.53515625 -72 M58.53515625 -72 C58.53515625 -17.38709141293866, 58.53515625 37.22581717412268, 58.53515625 72 M58.53515625 -72 C58.53515625 -32.054694074300976, 58.53515625 7.890611851398049, 58.53515625 72 M58.53515625 72 C12.155163902897627 72, -34.224828444204746 72, -58.53515625 72 M58.53515625 72 C33.096174528542235 72, 7.657192807084471 72, -58.53515625 72 M-58.53515625 72 C-58.53515625 22.56354386876255, -58.53515625 -26.872912262474898, -58.53515625 -72 M-58.53515625 72 C-58.53515625 15.03394588312483, -58.53515625 -41.93210823375034, -58.53515625 -72"/></g><g transform="translate(0, -48)" class="annotation-group text"/><g transform="translate(-22.0546875, -48)" class="label-group text"><g transform="translate(0,-12)" style="font-weight: bolder" class="label"><foreignObject height="24" width="44.109375"><div style="display: table-cell; white-space: nowrap; line-height: 1.5; max-width: 89px; text-align: center;" xmlns="http://www.w3.org/1999/xhtml"><span style="" class="nodeLabel markdown-node-label"><p>Snake</p></span></div></foreignObject></g></g><g transform="translate(-46.53515625, 0)" class="members-group text"><g transform="translate(0,-12)" style="" class="label"><foreignObject height="24" width="71.015625"><div style="display: table-cell; white-space: nowrap; line-height: 1.5; max-width: 115px; text-align: center;" xmlns="http://www.w3.org/1999/xhtml"><span style="" class="nodeLabel markdown-node-label"><p>-head: int</p></span></div></foreignObject></g><g transform="translate(0,12)" style="" class="label"><foreignObject height="24" width="60.25"><div style="display: table-cell; white-space: nowrap; line-height: 1.5; max-width: 106px; text-align: center;" xmlns="http://www.w3.org/1999/xhtml"><span style="" class="nodeLabel markdown-node-label"><p>-tail: int</p></span></div></foreignObject></g></g><g transform="translate(-46.53515625, 72)" class="methods-group text"/><g style="" class="divider"><path style="" stroke-dasharray="0 0" fill="none" stroke-width="1.3" stroke="#ccc" d="M-58.53515625 -24 C-33.26450064646899 -24, -7.99384504293797 -24, 58.53515625 -24 M-58.53515625 -24 C-29.289972096476664 -24, -0.04478794295332733 -24, 58.53515625 -24"/></g><g style="" class="divider"><path style="" stroke-dasharray="0 0" fill="none" stroke-width="1.3" stroke="#ccc" d="M-58.53515625 48 C-12.546263938098747 48, 33.442628373802506 48, 58.53515625 48 M-58.53515625 48 C-34.490501424673084 48, -10.445846599346169 48, 58.53515625 48"/></g></g><g transform="translate(244.20703125, 588)" id="classId-Ladder-5" class="node default"><g class="basic label-container"><path style="" fill="#1f2020" stroke-width="0" stroke="none" d="M-69.13671875 -72 L69.13671875 -72 L69.13671875 72 L-69.13671875 72"/><path style="" stroke-dasharray="0 0" fill="none" stroke-width="1.3" stroke="#ccc" d="M-69.13671875 -72 C-19.251189905219277 -72, 30.634338939561445 -72, 69.13671875 -72 M-69.13671875 -72 C-24.227851810081233 -72, 20.681015129837533 -72, 69.13671875 -72 M69.13671875 -72 C69.13671875 -41.30961991012826, 69.13671875 -10.619239820256531, 69.13671875 72 M69.13671875 -72 C69.13671875 -21.003221890861624, 69.13671875 29.99355621827675, 69.13671875 72 M69.13671875 72 C18.72700033078761 72, -31.682718088424778 72, -69.13671875 72 M69.13671875 72 C15.349896505574193 72, -38.43692573885161 72, -69.13671875 72 M-69.13671875 72 C-69.13671875 41.12146563235381, -69.13671875 10.242931264707622, -69.13671875 -72 M-69.13671875 72 C-69.13671875 18.580002908261548, -69.13671875 -34.839994183476904, -69.13671875 -72"/></g><g transform="translate(0, -48)" class="annotation-group text"/><g transform="translate(-25.9921875, -48)" class="label-group text"><g transform="translate(0,-12)" style="font-weight: bolder" class="label"><foreignObject height="24" width="51.984375"><div style="display: table-cell; white-space: nowrap; line-height: 1.5; max-width: 95px; text-align: center;" xmlns="http://www.w3.org/1999/xhtml"><span style="" class="nodeLabel markdown-node-label"><p>Ladder</p></span></div></foreignObject></g></g><g transform="translate(-57.13671875, 0)" class="members-group text"><g transform="translate(0,-12)" style="" class="label"><foreignObject height="24" width="88.28125"><div style="display: table-cell; white-space: nowrap; line-height: 1.5; max-width: 130px; text-align: center;" xmlns="http://www.w3.org/1999/xhtml"><span style="" class="nodeLabel markdown-node-label"><p>-bottom: int</p></span></div></foreignObject></g><g transform="translate(0,12)" style="" class="label"><foreignObject height="24" width="60.0625"><div style="display: table-cell; white-space: nowrap; line-height: 1.5; max-width: 106px; text-align: center;" xmlns="http://www.w3.org/1999/xhtml"><span style="" class="nodeLabel markdown-node-label"><p>-top: int</p></span></div></foreignObject></g></g><g transform="translate(-57.13671875, 72)" class="methods-group text"/><g style="" class="divider"><path style="" stroke-dasharray="0 0" fill="none" stroke-width="1.3" stroke="#ccc" d="M-69.13671875 -24 C-19.225879048621124 -24, 30.684960652757752 -24, 69.13671875 -24 M-69.13671875 -24 C-28.580903585735058 -24, 11.974911578529884 -24, 69.13671875 -24"/></g><g style="" class="divider"><path style="" stroke-dasharray="0 0" fill="none" stroke-width="1.3" stroke="#ccc" d="M-69.13671875 48 C-33.19408009423986 48, 2.7485585615202837 48, 69.13671875 48 M-69.13671875 48 C-38.516839121406335 48, -7.8969594928126625 48, 69.13671875 48"/></g></g></g></g></g></svg>