<svg class="mermaid-svg" aria-roledescription="class" role="graphics-document document" viewBox="0 0 1055.494140625 524" style="max-width: 1055.49px; background-color: transparent;" class="classDiagram" xmlns:xlink="http://www.w3.org/1999/xlink" xmlns="http://www.w3.org/2000/svg"  id="my-svg"><style>#my-svg{font-family:"trebuchet ms",verdana,arial,sans-serif;font-size:16px;fill:#333;}@keyframes edge-animation-frame{from{stroke-dashoffset:0;}}@keyframes dash{to{stroke-dashoffset:0;}}#my-svg .edge-animation-slow{stroke-dasharray:9,5!important;stroke-dashoffset:900;animation:dash 50s linear infinite;stroke-linecap:round;}#my-svg .edge-animation-fast{stroke-dasharray:9,5!important;stroke-dashoffset:900;animation:dash 20s linear infinite;stroke-linecap:round;}#my-svg .error-icon{fill:#552222;}#my-svg .error-text{fill:#552222;stroke:#552222;}#my-svg .edge-thickness-normal{stroke-width:1px;}#my-svg .edge-thickness-thick{stroke-width:3.5px;}#my-svg .edge-pattern-solid{stroke-dasharray:0;}#my-svg .edge-thickness-invisible{stroke-width:0;fill:none;}#my-svg .edge-pattern-dashed{stroke-dasharray:3;}#my-svg .edge-pattern-dotted{stroke-dasharray:2;}#my-svg .marker{fill:#333333;stroke:#333333;}#my-svg .marker.cross{stroke:#333333;}#my-svg svg{font-family:"trebuchet ms",verdana,arial,sans-serif;font-size:16px;}#my-svg p{margin:0;}#my-svg g.classGroup text{fill:#9370DB;stroke:none;font-family:"trebuchet ms",verdana,arial,sans-serif;font-size:10px;}#my-svg g.classGroup text .title{font-weight:bolder;}#my-svg .nodeLabel,#my-svg .edgeLabel{color:#131300;}#my-svg .edgeLabel .label rect{fill:#ECECFF;}#my-svg .label text{fill:#131300;}#my-svg .labelBkg{background:#ECECFF;}#my-svg .edgeLabel .label span{background:#ECECFF;}#my-svg .classTitle{font-weight:bolder;}#my-svg .node rect,#my-svg .node circle,#my-svg .node ellipse,#my-svg .node polygon,#my-svg .node path{fill:#ECECFF;stroke:#9370DB;stroke-width:1px;}#my-svg .divider{stroke:#9370DB;stroke-width:1;}#my-svg g.clickable{cursor:pointer;}#my-svg g.classGroup rect{fill:#ECECFF;stroke:#9370DB;}#my-svg g.classGroup line{stroke:#9370DB;stroke-width:1;}#my-svg .classLabel .box{stroke:none;stroke-width:0;fill:#ECECFF;opacity:0.5;}#my-svg .classLabel .label{fill:#9370DB;font-size:10px;}#my-svg .relation{stroke:#333333;stroke-width:1;fill:none;}#my-svg .dashed-line{stroke-dasharray:3;}#my-svg .dotted-line{stroke-dasharray:1 2;}#my-svg #compositionStart,#my-svg .composition{fill:#333333!important;stroke:#333333!important;stroke-width:1;}#my-svg #compositionEnd,#my-svg .composition{fill:#333333!important;stroke:#333333!important;stroke-width:1;}#my-svg #dependencyStart,#my-svg .dependency{fill:#333333!important;stroke:#333333!important;stroke-width:1;}#my-svg #dependencyStart,#my-svg .dependency{fill:#333333!important;stroke:#333333!important;stroke-width:1;}#my-svg #extensionStart,#my-svg .extension{fill:transparent!important;stroke:#333333!important;stroke-width:1;}#my-svg #extensionEnd,#my-svg .extension{fill:transparent!important;stroke:#333333!important;stroke-width:1;}#my-svg #aggregationStart,#my-svg .aggregation{fill:transparent!important;stroke:#333333!important;stroke-width:1;}#my-svg #aggregationEnd,#my-svg .aggregation{fill:transparent!important;stroke:#333333!important;stroke-width:1;}#my-svg #lollipopStart,#my-svg .lollipop{fill:#ECECFF!important;stroke:#333333!important;stroke-width:1;}#my-svg #lollipopEnd,#my-svg .lollipop{fill:#ECECFF!important;stroke:#333333!important;stroke-width:1;}#my-svg .edgeTerminals{font-size:11px;line-height:initial;}#my-svg .classTitleText{text-anchor:middle;font-size:18px;fill:#333;}#my-svg .label-icon{display:inline-block;height:1em;overflow:visible;vertical-align:-0.125em;}#my-svg .node .label-icon path{fill:currentColor;stroke:revert;stroke-width:revert;}#my-svg :root{--mermaid-font-family:"trebuchet ms",verdana,arial,sans-serif;}</style><g><defs><marker orient="auto" markerHeight="240" markerWidth="190" refY="7" refX="18" class="marker aggregation class" id="my-svg_class-aggregationStart"><path d="M 18,7 L9,13 L1,7 L9,1 Z"/></marker></defs><defs><marker orient="auto" markerHeight="28" markerWidth="20" refY="7" refX="1" class="marker aggregation class" id="my-svg_class-aggregationEnd"><path d="M 18,7 L9,13 L1,7 L9,1 Z"/></marker></defs><defs><marker orient="auto" markerHeight="240" markerWidth="190" refY="7" refX="18" class="marker extension class" id="my-svg_class-extensionStart"><path d="M 1,7 L18,13 V 1 Z"/></marker></defs><defs><marker orient="auto" markerHeight="28" markerWidth="20" refY="7" refX="1" class="marker extension class" id="my-svg_class-extensionEnd"><path d="M 1,1 V 13 L18,7 Z"/></marker></defs><defs><marker orient="auto" markerHeight="240" markerWidth="190" refY="7" refX="18" class="marker composition class" id="my-svg_class-compositionStart"><path d="M 18,7 L9,13 L1,7 L9,1 Z"/></marker></defs><defs><marker orient="auto" markerHeight="28" markerWidth="20" refY="7" refX="1" class="marker composition class" id="my-svg_class-compositionEnd"><path d="M 18,7 L9,13 L1,7 L9,1 Z"/></marker></defs><defs><marker orient="auto" markerHeight="240" markerWidth="190" refY="7" refX="6" class="marker dependency class" id="my-svg_class-dependencyStart"><path d="M 5,7 L9,13 L1,7 L9,1 Z"/></marker></defs><defs><marker orient="auto" markerHeight="28" markerWidth="20" refY="7" refX="13" class="marker dependency class" id="my-svg_class-dependencyEnd"><path d="M 18,7 L9,13 L14,7 L9,1 Z"/></marker></defs><defs><marker orient="auto" markerHeight="240" markerWidth="190" refY="7" refX="13" class="marker lollipop class" id="my-svg_class-lollipopStart"><circle r="6" cy="7" cx="7" fill="transparent" stroke="black"/></marker></defs><defs><marker orient="auto" markerHeight="240" markerWidth="190" refY="7" refX="1" class="marker lollipop class" id="my-svg_class-lollipopEnd"><circle r="6" cy="7" cx="7" fill="transparent" stroke="black"/></marker></defs><g class="root"><g class="clusters"/><g class="edgePaths"><path marker-start="url(#my-svg_class-extensionStart)" style="" class="edge-thickness-normal edge-pattern-dashed relation" id="id_GUIFactory_WindowsFactory_1" d="M413.007,149.226L384.743,158.855C356.479,168.484,299.951,187.742,271.688,201.538C243.424,215.333,243.424,223.667,243.424,227.833L243.424,232"/><path marker-start="url(#my-svg_class-extensionStart)" style="" class="edge-thickness-normal edge-pattern-dashed relation" id="id_GUIFactory_MacFactory_2" d="M731.369,148.607L760.27,158.339C789.17,168.072,846.971,187.536,875.871,201.435C904.771,215.333,904.771,223.667,904.771,227.833L904.771,232"/><path marker-start="url(#my-svg_class-extensionStart)" style="" class="edge-thickness-normal edge-pattern-dashed relation" id="id_Button_WindowsButton_3" d="M427.988,323.422L368.015,337.352C308.042,351.281,188.095,379.141,128.744,397.237C69.392,415.333,70.636,423.667,71.258,427.833L71.88,432"/><path marker-start="url(#my-svg_class-extensionStart)" style="" class="edge-thickness-normal edge-pattern-dashed relation" id="id_Button_MacButton_4" d="M501.458,378.987L501.637,383.656C501.816,388.324,502.175,397.662,503.598,406.498C505.021,415.333,507.508,423.667,508.752,427.833L509.996,432"/><path marker-start="url(#my-svg_class-extensionStart)" style="" class="edge-thickness-normal edge-pattern-dashed relation" id="id_Checkbox_WindowsCheckbox_5" d="M588.099,322.06L521.568,336.217C455.036,350.373,321.973,378.687,261.086,397.01C200.199,415.333,211.488,423.667,217.132,427.833L222.776,432"/><path marker-start="url(#my-svg_class-extensionStart)" style="" class="edge-thickness-normal edge-pattern-dashed relation" id="id_Checkbox_MacCheckbox_6" d="M658.877,379L658.877,383.667C658.877,388.333,658.877,397.667,689.422,410.656C719.967,423.645,781.057,440.291,811.602,448.614L842.146,456.936"/><path marker-end="url(#my-svg_class-dependencyEnd)" style="" class="edge-thickness-normal edge-pattern-dashed relation" id="id_WindowsFactory_WindowsButton_7" d="M167.853,382L163.654,386.167C159.456,390.333,151.059,398.667,143.542,406.28C136.025,413.893,129.388,420.785,126.07,424.232L122.752,427.678"/><path marker-end="url(#my-svg_class-dependencyEnd)" style="" class="edge-thickness-normal edge-pattern-dashed relation" id="id_WindowsFactory_WindowsCheckbox_8" d="M331.65,382L336.551,386.167C341.453,390.333,351.256,398.667,351.868,406.364C352.48,414.062,343.901,421.124,339.612,424.655L335.323,428.187"/><path marker-end="url(#my-svg_class-dependencyEnd)" style="" class="edge-thickness-normal edge-pattern-dashed relation" id="id_MacFactory_MacButton_9" d="M762.049,351.041L731.825,360.368C701.601,369.694,641.153,388.347,607.967,401.085C574.781,413.823,568.857,420.646,565.895,424.058L562.933,427.469"/><path marker-end="url(#my-svg_class-dependencyEnd)" style="" class="edge-thickness-normal edge-pattern-dashed relation" id="id_MacFactory_MacCheckbox_10" d="M904.771,382L904.771,386.167C904.771,390.333,904.771,398.667,904.771,406C904.771,413.333,904.771,419.667,904.771,422.833L904.771,426"/></g><g class="edgeLabels"><g class="edgeLabel"><g transform="translate(0, -12)" class="label"><foreignObject  width="0"><div class="labelBkg" xmlns="http://www.w3.org/1999/xhtml" style="display: table-cell; white-space: nowrap; line-height: 1.5; max-width: 200px; text-align: center;"><span class="edgeLabel" style=";display: inline-block"></span></div></foreignObject></g></g><g class="edgeLabel"><g transform="translate(0, -12)" class="label"><foreignObject height="24" width="0"><div class="labelBkg" xmlns="http://www.w3.org/1999/xhtml" style="display: table-cell; white-space: nowrap; line-height: 1.5; max-width: 200px; text-align: center;"><span class="edgeLabel" style=";display: inline-block"></span></div></foreignObject></g></g><g class="edgeLabel"><g transform="translate(0, -12)" class="label"><foreignObject height="24" width="0"><div class="labelBkg" xmlns="http://www.w3.org/1999/xhtml" style="display: table-cell; white-space: nowrap; line-height: 1.5; max-width: 200px; text-align: center;"><span class="edgeLabel" style=";display: inline-block"></span></div></foreignObject></g></g><g class="edgeLabel"><g transform="translate(0, -12)" class="label"><foreignObject height="24" width="0"><div class="labelBkg" xmlns="http://www.w3.org/1999/xhtml" style="display: table-cell; white-space: nowrap; line-height: 1.5; max-width: 200px; text-align: center;"><span class="edgeLabel" style=";display: inline-block"></span></div></foreignObject></g></g><g class="edgeLabel"><g transform="translate(0, -12)" class="label"><foreignObject height="24" width="0"><div class="labelBkg" xmlns="http://www.w3.org/1999/xhtml" style="display: table-cell; white-space: nowrap; line-height: 1.5; max-width: 200px; text-align: center;"><span class="edgeLabel" style=";display: inline-block"></span></div></foreignObject></g></g><g class="edgeLabel"><g transform="translate(0, -12)" class="label"><foreignObject height="24" width="0"><div class="labelBkg" xmlns="http://www.w3.org/1999/xhtml" style="display: table-cell; white-space: nowrap; line-height: 1.5; max-width: 200px; text-align: center;"><span class="edgeLabel" style=";display: inline-block"></span></div></foreignObject></g></g><g class="edgeLabel"><g transform="translate(0, -12)" class="label"><foreignObject height="24" width="0"><div class="labelBkg" xmlns="http://www.w3.org/1999/xhtml" style="display: table-cell; white-space: nowrap; line-height: 1.5; max-width: 200px; text-align: center;"><span class="edgeLabel" style=";display: inline-block"></span></div></foreignObject></g></g><g class="edgeLabel"><g transform="translate(0, -12)" class="label"><foreignObject height="24" width="0"><div class="labelBkg" xmlns="http://www.w3.org/1999/xhtml" style="display: table-cell; white-space: nowrap; line-height: 1.5; max-width: 200px; text-align: center;"><span class="edgeLabel" style=";display: inline-block"></span></div></foreignObject></g></g><g class="edgeLabel"><g transform="translate(0, -12)" class="label"><foreignObject height="24" width="0"><div class="labelBkg" xmlns="http://www.w3.org/1999/xhtml" style="display: table-cell; white-space: nowrap; line-height: 1.5; max-width: 200px; text-align: center;"><span class="edgeLabel" style=";display: inline-block"></span></div></foreignObject></g></g><g class="edgeLabel"><g transform="translate(0, -12)" class="label"><foreignObject height="24" width="0"><div class="labelBkg" xmlns="http://www.w3.org/1999/xhtml" style="display: table-cell; white-space: nowrap; line-height: 1.5; max-width: 200px; text-align: center;"><span class="edgeLabel" style=";display: inline-block"></span></div></foreignObject></g></g></g><g class="nodes"><g transform="translate(572.177734375, 95)" id="classId-GUIFactory-0" class="node default"><g class="basic label-container"><path style="" fill="#ECECFF" stroke-width="0" stroke="none" d="M-142.1328125 -87 L142.1328125 -87 L142.1328125 87 L-142.1328125 87"/><path style="" stroke-dasharray="0 0" fill="none" stroke-width="1.3" stroke="#9370DB" d="M-142.1328125 -87 C-38.73828831393705 -87, 64.6562358721259 -87, 142.1328125 -87 M-142.1328125 -87 C-64.92402686975795 -87, 12.284758760484095 -87, 142.1328125 -87 M142.1328125 -87 C142.1328125 -20.49501578362306, 142.1328125 46.00996843275388, 142.1328125 87 M142.1328125 -87 C142.1328125 -19.825679469403326, 142.1328125 47.34864106119335, 142.1328125 87 M142.1328125 87 C30.05838079236736 87, -82.01605091526528 87, -142.1328125 87 M142.1328125 87 C72.74391519955505 87, 3.355017899110095 87, -142.1328125 87 M-142.1328125 87 C-142.1328125 32.4374415050839, -142.1328125 -22.125116989832193, -142.1328125 -87 M-142.1328125 87 C-142.1328125 22.384519691376767, -142.1328125 -42.23096061724647, -142.1328125 -87"/></g><g transform="translate(-41.171875, -63)" class="annotation-group text"><g transform="translate(0,-12)" style="" class="label"><foreignObject height="24" width="82.34375"><div style="display: table-cell; white-space: nowrap; line-height: 1.5; max-width: 122px; text-align: center;" xmlns="http://www.w3.org/1999/xhtml"><span style="" class="nodeLabel markdown-node-label"><p>«interface»</p></span></div></foreignObject></g></g><g transform="translate(-41.0546875, -39)" class="label-group text"><g transform="translate(0,-12)" style="font-weight: bolder" class="label"><foreignObject height="24" width="82.109375"><div style="display: table-cell; white-space: nowrap; line-height: 1.5; max-width: 127px; text-align: center;" xmlns="http://www.w3.org/1999/xhtml"><span style="" class="nodeLabel markdown-node-label"><p>GUIFactory</p></span></div></foreignObject></g></g><g transform="translate(-130.1328125, 9)" class="members-group text"/><g transform="translate(-130.1328125, 39)" class="methods-group text"><g transform="translate(0,-12)" style="" class="label"><foreignObject height="24" width="177.625"><div style="display: table-cell; white-space: nowrap; line-height: 1.5; max-width: 212px; text-align: center;" xmlns="http://www.w3.org/1999/xhtml"><span style="" class="nodeLabel markdown-node-label"><p>+createButton() : Button</p></span></div></foreignObject></g><g transform="translate(0,12)" style="" class="label"><foreignObject height="24" width="219.09375"><div style="display: table-cell; white-space: nowrap; line-height: 1.5; max-width: 255px; text-align: center;" xmlns="http://www.w3.org/1999/xhtml"><span style="" class="nodeLabel markdown-node-label"><p>+createCheckbox() : Checkbox</p></span></div></foreignObject></g></g><g style="" class="divider"><path style="" stroke-dasharray="0 0" fill="none" stroke-width="1.3" stroke="#9370DB" d="M-142.1328125 -15 C-76.31008003482525 -15, -10.487347569650495 -15, 142.1328125 -15 M-142.1328125 -15 C-74.42111587468975 -15, -6.7094192493794935 -15, 142.1328125 -15"/></g><g style="" class="divider"><path style="" stroke-dasharray="0 0" fill="none" stroke-width="1.3" stroke="#9370DB" d="M-142.1328125 9 C-34.28271582917543 9, 73.56738084164914 9, 142.1328125 9 M-142.1328125 9 C-74.34796602946982 9, -6.563119558939633 9, 142.1328125 9"/></g></g><g transform="translate(243.423828125, 307)" id="classId-WindowsFactory-1" class="node default"><g class="basic label-container"><path style="" fill="#ECECFF" stroke-width="0" stroke="none" d="M-152.09765625 -75 L152.09765625 -75 L152.09765625 75 L-152.09765625 75"/><path style="" stroke-dasharray="0 0" fill="none" stroke-width="1.3" stroke="#9370DB" d="M-152.09765625 -75 C-78.61445576908204 -75, -5.131255288164084 -75, 152.09765625 -75 M-152.09765625 -75 C-87.31407977059106 -75, -22.53050329118213 -75, 152.09765625 -75 M152.09765625 -75 C152.09765625 -43.66897802480453, 152.09765625 -12.337956049609062, 152.09765625 75 M152.09765625 -75 C152.09765625 -33.244836032182434, 152.09765625 8.510327935635132, 152.09765625 75 M152.09765625 75 C44.93028202486694 75, -62.23709220026612 75, -152.09765625 75 M152.09765625 75 C76.03376287470432 75, -0.030130500591354803 75, -152.09765625 75 M-152.09765625 75 C-152.09765625 15.331772978787484, -152.09765625 -44.33645404242503, -152.09765625 -75 M-152.09765625 75 C-152.09765625 37.65138087818241, -152.09765625 0.3027617563648164, -152.09765625 -75"/></g><g transform="translate(0, -51)" class="annotation-group text"/><g transform="translate(-61.1015625, -51)" class="label-group text"><g transform="translate(0,-12)" style="font-weight: bolder" class="label"><foreignObject height="24" width="122.203125"><div style="display: table-cell; white-space: nowrap; line-height: 1.5; max-width: 160px; text-align: center;" xmlns="http://www.w3.org/1999/xhtml"><span style="" class="nodeLabel markdown-node-label"><p>WindowsFactory</p></span></div></foreignObject></g></g><g transform="translate(-140.09765625, -3)" class="members-group text"/><g transform="translate(-140.09765625, 27)" class="methods-group text"><g transform="translate(0,-12)" style="" class="label"><foreignObject height="24" width="177.625"><div style="display: table-cell; white-space: nowrap; line-height: 1.5; max-width: 212px; text-align: center;" xmlns="http://www.w3.org/1999/xhtml"><span style="" class="nodeLabel markdown-node-label"><p>+createButton() : Button</p></span></div></foreignObject></g><g transform="translate(0,12)" style="" class="label"><foreignObject height="24" width="219.09375"><div style="display: table-cell; white-space: nowrap; line-height: 1.5; max-width: 255px; text-align: center;" xmlns="http://www.w3.org/1999/xhtml"><span style="" class="nodeLabel markdown-node-label"><p>+createCheckbox() : Checkbox</p></span></div></foreignObject></g></g><g style="" class="divider"><path style="" stroke-dasharray="0 0" fill="none" stroke-width="1.3" stroke="#9370DB" d="M-152.09765625 -27 C-47.71540368538112 -27, 56.66684887923776 -27, 152.09765625 -27 M-152.09765625 -27 C-85.08404532418608 -27, -18.070434398372157 -27, 152.09765625 -27"/></g><g style="" class="divider"><path style="" stroke-dasharray="0 0" fill="none" stroke-width="1.3" stroke="#9370DB" d="M-152.09765625 -3 C-58.35252374551483 -3, 35.39260875897034 -3, 152.09765625 -3 M-152.09765625 -3 C-69.72711134453321 -3, 12.643433560933573 -3, 152.09765625 -3"/></g></g><g transform="translate(904.771484375, 307)" id="classId-MacFactory-2" class="node default"><g class="basic label-container"><path style="" fill="#ECECFF" stroke-width="0" stroke="none" d="M-142.72265625 -75 L142.72265625 -75 L142.72265625 75 L-142.72265625 75"/><path style="" stroke-dasharray="0 0" fill="none" stroke-width="1.3" stroke="#9370DB" d="M-142.72265625 -75 C-67.78043507012288 -75, 7.161786109754246 -75, 142.72265625 -75 M-142.72265625 -75 C-66.73280199349497 -75, 9.257052263010053 -75, 142.72265625 -75 M142.72265625 -75 C142.72265625 -38.23820158028092, 142.72265625 -1.4764031605618442, 142.72265625 75 M142.72265625 -75 C142.72265625 -44.56620736482729, 142.72265625 -14.132414729654577, 142.72265625 75 M142.72265625 75 C84.71849324927874 75, 26.714330248557488 75, -142.72265625 75 M142.72265625 75 C76.59559724423684 75, 10.468538238473684 75, -142.72265625 75 M-142.72265625 75 C-142.72265625 33.58075719773904, -142.72265625 -7.838485604521921, -142.72265625 -75 M-142.72265625 75 C-142.72265625 26.37267043071884, -142.72265625 -22.254659138562317, -142.72265625 -75"/></g><g transform="translate(0, -51)" class="annotation-group text"/><g transform="translate(-42.3515625, -51)" class="label-group text"><g transform="translate(0,-12)" style="font-weight: bolder" class="label"><foreignObject height="24" width="84.703125"><div style="display: table-cell; white-space: nowrap; line-height: 1.5; max-width: 127px; text-align: center;" xmlns="http://www.w3.org/1999/xhtml"><span style="" class="nodeLabel markdown-node-label"><p>MacFactory</p></span></div></foreignObject></g></g><g transform="translate(-130.72265625, -3)" class="members-group text"/><g transform="translate(-130.72265625, 27)" class="methods-group text"><g transform="translate(0,-12)" style="" class="label"><foreignObject height="24" width="177.625"><div style="display: table-cell; white-space: nowrap; line-height: 1.5; max-width: 212px; text-align: center;" xmlns="http://www.w3.org/1999/xhtml"><span style="" class="nodeLabel markdown-node-label"><p>+createButton() : Button</p></span></div></foreignObject></g><g transform="translate(0,12)" style="" class="label"><foreignObject height="24" width="219.09375"><div style="display: table-cell; white-space: nowrap; line-height: 1.5; max-width: 255px; text-align: center;" xmlns="http://www.w3.org/1999/xhtml"><span style="" class="nodeLabel markdown-node-label"><p>+createCheckbox() : Checkbox</p></span></div></foreignObject></g></g><g style="" class="divider"><path style="" stroke-dasharray="0 0" fill="none" stroke-width="1.3" stroke="#9370DB" d="M-142.72265625 -27 C-60.46732310579432 -27, 21.788010038411358 -27, 142.72265625 -27 M-142.72265625 -27 C-38.32286373947727 -27, 66.07692877104546 -27, 142.72265625 -27"/></g><g style="" class="divider"><path style="" stroke-dasharray="0 0" fill="none" stroke-width="1.3" stroke="#9370DB" d="M-142.72265625 -3 C-42.34041543523095 -3, 58.041825379538096 -3, 142.72265625 -3 M-142.72265625 -3 C-74.7479953909534 -3, -6.773334531906812 -3, 142.72265625 -3"/></g></g><g transform="translate(498.693359375, 307)" id="classId-Button-3" class="node default"><g class="basic label-container"><path style="" fill="#ECECFF" stroke-width="0" stroke="none" d="M-53.171875 -54 L53.171875 -54 L53.171875 54 L-53.171875 54"/><path style="" stroke-dasharray="0 0" fill="none" stroke-width="1.3" stroke="#9370DB" d="M-53.171875 -54 C-24.313868211492533 -54, 4.544138577014934 -54, 53.171875 -54 M-53.171875 -54 C-30.595853913906172 -54, -8.019832827812344 -54, 53.171875 -54 M53.171875 -54 C53.171875 -12.40030838197169, 53.171875 29.19938323605662, 53.171875 54 M53.171875 -54 C53.171875 -17.220120122851597, 53.171875 19.559759754296806, 53.171875 54 M53.171875 54 C31.374751624924933 54, 9.577628249849866 54, -53.171875 54 M53.171875 54 C11.579371761114935 54, -30.01313147777013 54, -53.171875 54 M-53.171875 54 C-53.171875 20.01480654079181, -53.171875 -13.97038691841638, -53.171875 -54 M-53.171875 54 C-53.171875 17.9495371394504, -53.171875 -18.100925721099202, -53.171875 -54"/></g><g transform="translate(-41.171875, -30)" class="annotation-group text"><g transform="translate(0,-12)" style="" class="label"><foreignObject height="24" width="82.34375"><div style="display: table-cell; white-space: nowrap; line-height: 1.5; max-width: 122px; text-align: center;" xmlns="http://www.w3.org/1999/xhtml"><span style="" class="nodeLabel markdown-node-label"><p>«interface»</p></span></div></foreignObject></g></g><g transform="translate(-25.0859375, -6)" class="label-group text"><g transform="translate(0,-12)" style="font-weight: bolder" class="label"><foreignObject height="24" width="50.171875"><div style="display: table-cell; white-space: nowrap; line-height: 1.5; max-width: 94px; text-align: center;" xmlns="http://www.w3.org/1999/xhtml"><span style="" class="nodeLabel markdown-node-label"><p>Button</p></span></div></foreignObject></g></g><g transform="translate(-41.171875, 42)" class="members-group text"/><g transform="translate(-41.171875, 72)" class="methods-group text"/><g style="" class="divider"><path style="" stroke-dasharray="0 0" fill="none" stroke-width="1.3" stroke="#9370DB" d="M-53.171875 18 C-20.159499150684304 18, 12.852876698631391 18, 53.171875 18 M-53.171875 18 C-24.96211693301322 18, 3.247641133973559 18, 53.171875 18"/></g><g style="" class="divider"><path style="" stroke-dasharray="0 0" fill="none" stroke-width="1.3" stroke="#9370DB" d="M-53.171875 36 C-12.863806089043578 36, 27.444262821912844 36, 53.171875 36 M-53.171875 36 C-25.64129780941225 36, 1.8892793811754984 36, 53.171875 36"/></g></g><g transform="translate(658.876953125, 307)" id="classId-Checkbox-4" class="node default"><g class="basic label-container"><path style="" fill="#ECECFF" stroke-width="0" stroke="none" d="M-53.171875 -54 L53.171875 -54 L53.171875 54 L-53.171875 54"/><path style="" stroke-dasharray="0 0" fill="none" stroke-width="1.3" stroke="#9370DB" d="M-53.171875 -54 C-25.756941862128777 -54, 1.6579912757424466 -54, 53.171875 -54 M-53.171875 -54 C-14.720710085005983 -54, 23.730454829988034 -54, 53.171875 -54 M53.171875 -54 C53.171875 -15.233527445166118, 53.171875 23.532945109667764, 53.171875 54 M53.171875 -54 C53.171875 -12.027686329380614, 53.171875 29.94462734123877, 53.171875 54 M53.171875 54 C30.670204923453 54, 8.168534846905999 54, -53.171875 54 M53.171875 54 C18.73998922191779 54, -15.691896556164423 54, -53.171875 54 M-53.171875 54 C-53.171875 30.025490202475293, -53.171875 6.050980404950586, -53.171875 -54 M-53.171875 54 C-53.171875 28.73357850431796, -53.171875 3.4671570086359225, -53.171875 -54"/></g><g transform="translate(-41.171875, -30)" class="annotation-group text"><g transform="translate(0,-12)" style="" class="label"><foreignObject height="24" width="82.34375"><div style="display: table-cell; white-space: nowrap; line-height: 1.5; max-width: 122px; text-align: center;" xmlns="http://www.w3.org/1999/xhtml"><span style="" class="nodeLabel markdown-node-label"><p>«interface»</p></span></div></foreignObject></g></g><g transform="translate(-36.3125, -6)" class="label-group text"><g transform="translate(0,-12)" style="font-weight: bolder" class="label"><foreignObject height="24" width="72.625"><div style="display: table-cell; white-space: nowrap; line-height: 1.5; max-width: 115px; text-align: center;" xmlns="http://www.w3.org/1999/xhtml"><span style="" class="nodeLabel markdown-node-label"><p>Checkbox</p></span></div></foreignObject></g></g><g transform="translate(-41.171875, 42)" class="members-group text"/><g transform="translate(-41.171875, 72)" class="methods-group text"/><g style="" class="divider"><path style="" stroke-dasharray="0 0" fill="none" stroke-width="1.3" stroke="#9370DB" d="M-53.171875 18 C-22.4608326875236 18, 8.250209624952802 18, 53.171875 18 M-53.171875 18 C-30.953832679265386 18, -8.735790358530771 18, 53.171875 18"/></g><g style="" class="divider"><path style="" stroke-dasharray="0 0" fill="none" stroke-width="1.3" stroke="#9370DB" d="M-53.171875 36 C-19.597680252389637 36, 13.976514495220727 36, 53.171875 36 M-53.171875 36 C-25.92196270653647 36, 1.3279495869270619 36, 53.171875 36"/></g></g><g transform="translate(78.1484375, 474)" id="classId-WindowsButton-5" class="node default"><g class="basic label-container"><path style="" fill="#ECECFF" stroke-width="0" stroke="none" d="M-70.1484375 -42 L70.1484375 -42 L70.1484375 42 L-70.1484375 42"/><path style="" stroke-dasharray="0 0" fill="none" stroke-width="1.3" stroke="#9370DB" d="M-70.1484375 -42 C-40.4529574818607 -42, -10.7574774637214 -42, 70.1484375 -42 M-70.1484375 -42 C-15.919251706954078 -42, 38.30993408609184 -42, 70.1484375 -42 M70.1484375 -42 C70.1484375 -17.06178820204787, 70.1484375 7.876423595904257, 70.1484375 42 M70.1484375 -42 C70.1484375 -19.584439452359717, 70.1484375 2.831121095280565, 70.1484375 42 M70.1484375 42 C36.446525918550286 42, 2.744614337100572 42, -70.1484375 42 M70.1484375 42 C23.711512664787755 42, -22.72541217042449 42, -70.1484375 42 M-70.1484375 42 C-70.1484375 12.334336362020942, -70.1484375 -17.331327275958117, -70.1484375 -42 M-70.1484375 42 C-70.1484375 9.84465407238634, -70.1484375 -22.31069185522732, -70.1484375 -42"/></g><g transform="translate(0, -18)" class="annotation-group text"/><g transform="translate(-58.1484375, -18)" class="label-group text"><g transform="translate(0,-12)" style="font-weight: bolder" class="label"><foreignObject height="24" width="116.296875"><div style="display: table-cell; white-space: nowrap; line-height: 1.5; max-width: 154px; text-align: center;" xmlns="http://www.w3.org/1999/xhtml"><span style="" class="nodeLabel markdown-node-label"><p>WindowsButton</p></span></div></foreignObject></g></g><g transform="translate(-58.1484375, 30)" class="members-group text"/><g transform="translate(-58.1484375, 60)" class="methods-group text"/><g style="" class="divider"><path style="" stroke-dasharray="0 0" fill="none" stroke-width="1.3" stroke="#9370DB" d="M-70.1484375 6 C-36.62625904006924 6, -3.1040805801384863 6, 70.1484375 6 M-70.1484375 6 C-14.584785800437203 6, 40.978865899125594 6, 70.1484375 6"/></g><g style="" class="divider"><path style="" stroke-dasharray="0 0" fill="none" stroke-width="1.3" stroke="#9370DB" d="M-70.1484375 24 C-41.75849325776298 24, -13.36854901552595 24, 70.1484375 24 M-70.1484375 24 C-19.52108478788535 24, 31.1062679242293 24, 70.1484375 24"/></g></g><g transform="translate(279.671875, 474)" id="classId-WindowsCheckbox-6" class="node default"><g class="basic label-container"><path style="" fill="#ECECFF" stroke-width="0" stroke="none" d="M-81.375 -42 L81.375 -42 L81.375 42 L-81.375 42"/><path style="" stroke-dasharray="0 0" fill="none" stroke-width="1.3" stroke="#9370DB" d="M-81.375 -42 C-41.305232218717286 -42, -1.2354644374345725 -42, 81.375 -42 M-81.375 -42 C-19.89505777357533 -42, 41.58488445284934 -42, 81.375 -42 M81.375 -42 C81.375 -21.711681259988865, 81.375 -1.4233625199777293, 81.375 42 M81.375 -42 C81.375 -11.127339138776808, 81.375 19.745321722446384, 81.375 42 M81.375 42 C33.67862158923463 42, -14.017756821530739 42, -81.375 42 M81.375 42 C31.387834947112815 42, -18.59933010577437 42, -81.375 42 M-81.375 42 C-81.375 20.560526608944144, -81.375 -0.8789467821117114, -81.375 -42 M-81.375 42 C-81.375 13.908976348261312, -81.375 -14.182047303477376, -81.375 -42"/></g><g transform="translate(0, -18)" class="annotation-group text"/><g transform="translate(-69.375, -18)" class="label-group text"><g transform="translate(0,-12)" style="font-weight: bolder" class="label"><foreignObject height="24" width="138.75"><div style="display: table-cell; white-space: nowrap; line-height: 1.5; max-width: 176px; text-align: center;" xmlns="http://www.w3.org/1999/xhtml"><span style="" class="nodeLabel markdown-node-label"><p>WindowsCheckbox</p></span></div></foreignObject></g></g><g transform="translate(-69.375, 30)" class="members-group text"/><g transform="translate(-69.375, 60)" class="methods-group text"/><g style="" class="divider"><path style="" stroke-dasharray="0 0" fill="none" stroke-width="1.3" stroke="#9370DB" d="M-81.375 6 C-43.46076647262961 6, -5.546532945259216 6, 81.375 6 M-81.375 6 C-41.91480185369736 6, -2.4546037073947247 6, 81.375 6"/></g><g style="" class="divider"><path style="" stroke-dasharray="0 0" fill="none" stroke-width="1.3" stroke="#9370DB" d="M-81.375 24 C-31.138979063477173 24, 19.097041873045654 24, 81.375 24 M-81.375 24 C-21.217453376426974 24, 38.94009324714605 24, 81.375 24"/></g></g><g transform="translate(522.533203125, 474)" id="classId-MacButton-7" class="node default"><g class="basic label-container"><path style="" fill="#ECECFF" stroke-width="0" stroke="none" d="M-51.3984375 -42 L51.3984375 -42 L51.3984375 42 L-51.3984375 42"/><path style="" stroke-dasharray="0 0" fill="none" stroke-width="1.3" stroke="#9370DB" d="M-51.3984375 -42 C-22.708497492862325 -42, 5.981442514275351 -42, 51.3984375 -42 M-51.3984375 -42 C-12.457235674218232 -42, 26.483966151563536 -42, 51.3984375 -42 M51.3984375 -42 C51.3984375 -20.20020491226925, 51.3984375 1.5995901754615005, 51.3984375 42 M51.3984375 -42 C51.3984375 -14.461746712054818, 51.3984375 13.076506575890363, 51.3984375 42 M51.3984375 42 C16.695047252768966 42, -18.00834299446207 42, -51.3984375 42 M51.3984375 42 C14.21751330084512 42, -22.96341089830976 42, -51.3984375 42 M-51.3984375 42 C-51.3984375 16.722104249722964, -51.3984375 -8.555791500554072, -51.3984375 -42 M-51.3984375 42 C-51.3984375 24.39718384229266, -51.3984375 6.794367684585318, -51.3984375 -42"/></g><g transform="translate(0, -18)" class="annotation-group text"/><g transform="translate(-39.3984375, -18)" class="label-group text"><g transform="translate(0,-12)" style="font-weight: bolder" class="label"><foreignObject height="24" width="78.796875"><div style="display: table-cell; white-space: nowrap; line-height: 1.5; max-width: 122px; text-align: center;" xmlns="http://www.w3.org/1999/xhtml"><span style="" class="nodeLabel markdown-node-label"><p>MacButton</p></span></div></foreignObject></g></g><g transform="translate(-39.3984375, 30)" class="members-group text"/><g transform="translate(-39.3984375, 60)" class="methods-group text"/><g style="" class="divider"><path style="" stroke-dasharray="0 0" fill="none" stroke-width="1.3" stroke="#9370DB" d="M-51.3984375 6 C-25.550076546177188 6, 0.2982844076456246 6, 51.3984375 6 M-51.3984375 6 C-15.146798367926621 6, 21.104840764146758 6, 51.3984375 6"/></g><g style="" class="divider"><path style="" stroke-dasharray="0 0" fill="none" stroke-width="1.3" stroke="#9370DB" d="M-51.3984375 24 C-25.302961138742422 24, 0.7925152225151564 24, 51.3984375 24 M-51.3984375 24 C-28.80391313169991 24, -6.209388763399822 24, 51.3984375 24"/></g></g><g transform="translate(904.771484375, 474)" id="classId-MacCheckbox-8" class="node default"><g class="basic label-container"><path style="" fill="#ECECFF" stroke-width="0" stroke="none" d="M-62.625 -42 L62.625 -42 L62.625 42 L-62.625 42"/><path style="" stroke-dasharray="0 0" fill="none" stroke-width="1.3" stroke="#9370DB" d="M-62.625 -42 C-24.169124203823436 -42, 14.286751592353127 -42, 62.625 -42 M-62.625 -42 C-30.180971878420763 -42, 2.2630562431584735 -42, 62.625 -42 M62.625 -42 C62.625 -24.868654812779067, 62.625 -7.737309625558133, 62.625 42 M62.625 -42 C62.625 -10.847484634777146, 62.625 20.305030730445708, 62.625 42 M62.625 42 C18.286524138686787 42, -26.051951722626427 42, -62.625 42 M62.625 42 C35.987987493075636 42, 9.350974986151265 42, -62.625 42 M-62.625 42 C-62.625 9.265784365882695, -62.625 -23.46843126823461, -62.625 -42 M-62.625 42 C-62.625 20.86837188028755, -62.625 -0.26325623942489784, -62.625 -42"/></g><g transform="translate(0, -18)" class="annotation-group text"/><g transform="translate(-50.625, -18)" class="label-group text"><g transform="translate(0,-12)" style="font-weight: bolder" class="label"><foreignObject height="24" width="101.25"><div style="display: table-cell; white-space: nowrap; line-height: 1.5; max-width: 143px; text-align: center;" xmlns="http://www.w3.org/1999/xhtml"><span style="" class="nodeLabel markdown-node-label"><p>MacCheckbox</p></span></div></foreignObject></g></g><g transform="translate(-50.625, 30)" class="members-group text"/><g transform="translate(-50.625, 60)" class="methods-group text"/><g style="" class="divider"><path style="" stroke-dasharray="0 0" fill="none" stroke-width="1.3" stroke="#9370DB" d="M-62.625 6 C-22.46368565873768 6, 17.697628682524638 6, 62.625 6 M-62.625 6 C-33.44994353576769 6, -4.274887071535382 6, 62.625 6"/></g><g style="" class="divider"><path style="" stroke-dasharray="0 0" fill="none" stroke-width="1.3" stroke="#9370DB" d="M-62.625 24 C-30.29197153912233 24, 2.0410569217553416 24, 62.625 24 M-62.625 24 C-26.92154519382882 24, 8.78190961234236 24, 62.625 24"/></g></g></g></g></g></svg>