<svg class="mermaid-svg" aria-roledescription="flowchart-v2" role="graphics-document document" viewBox="0 0 1994.546875 433.676513671875" style="max-width: 1994.55px; background-color: transparent;" class="flowchart" xmlns:xlink="http://www.w3.org/1999/xlink" xmlns="http://www.w3.org/2000/svg"  id="my-svg"><style>#my-svg{font-family:"trebuchet ms",verdana,arial,sans-serif;font-size:16px;fill:#333;}@keyframes edge-animation-frame{from{stroke-dashoffset:0;}}@keyframes dash{to{stroke-dashoffset:0;}}#my-svg .edge-animation-slow{stroke-dasharray:9,5!important;stroke-dashoffset:900;animation:dash 50s linear infinite;stroke-linecap:round;}#my-svg .edge-animation-fast{stroke-dasharray:9,5!important;stroke-dashoffset:900;animation:dash 20s linear infinite;stroke-linecap:round;}#my-svg .error-icon{fill:#552222;}#my-svg .error-text{fill:#552222;stroke:#552222;}#my-svg .edge-thickness-normal{stroke-width:1px;}#my-svg .edge-thickness-thick{stroke-width:3.5px;}#my-svg .edge-pattern-solid{stroke-dasharray:0;}#my-svg .edge-thickness-invisible{stroke-width:0;fill:none;}#my-svg .edge-pattern-dashed{stroke-dasharray:3;}#my-svg .edge-pattern-dotted{stroke-dasharray:2;}#my-svg .marker{fill:#333333;stroke:#333333;}#my-svg .marker.cross{stroke:#333333;}#my-svg svg{font-family:"trebuchet ms",verdana,arial,sans-serif;font-size:16px;}#my-svg p{margin:0;}#my-svg .label{font-family:"trebuchet ms",verdana,arial,sans-serif;color:#333;}#my-svg .cluster-label text{fill:#333;}#my-svg .cluster-label span{color:#333;}#my-svg .cluster-label span p{background-color:transparent;}#my-svg .label text,#my-svg span{fill:#333;color:#333;}#my-svg .node rect,#my-svg .node circle,#my-svg .node ellipse,#my-svg .node polygon,#my-svg .node path{fill:#ECECFF;stroke:#9370DB;stroke-width:1px;}#my-svg .rough-node .label text,#my-svg .node .label text,#my-svg .image-shape .label,#my-svg .icon-shape .label{text-anchor:middle;}#my-svg .node .katex path{fill:#000;stroke:#000;stroke-width:1px;}#my-svg .rough-node .label,#my-svg .node .label,#my-svg .image-shape .label,#my-svg .icon-shape .label{text-align:center;}#my-svg .node.clickable{cursor:pointer;}#my-svg .root .anchor path{fill:#333333!important;stroke-width:0;stroke:#333333;}#my-svg .arrowheadPath{fill:#333333;}#my-svg .edgePath .path{stroke:#333333;stroke-width:2.0px;}#my-svg .flowchart-link{stroke:#333333;fill:none;}#my-svg .edgeLabel{background-color:rgba(232,232,232, 0.8);text-align:center;}#my-svg .edgeLabel p{background-color:rgba(232,232,232, 0.8);}#my-svg .edgeLabel rect{opacity:0.5;background-color:rgba(232,232,232, 0.8);fill:rgba(232,232,232, 0.8);}#my-svg .labelBkg{background-color:rgba(232, 232, 232, 0.5);}#my-svg .cluster rect{fill:#ffffde;stroke:#aaaa33;stroke-width:1px;}#my-svg .cluster text{fill:#333;}#my-svg .cluster span{color:#333;}#my-svg div.mermaidTooltip{position:absolute;text-align:center;max-width:200px;padding:2px;font-family:"trebuchet ms",verdana,arial,sans-serif;font-size:12px;background:hsl(80, 100%, 96.2745098039%);border:1px solid #aaaa33;border-radius:2px;pointer-events:none;z-index:100;}#my-svg .flowchartTitleText{text-anchor:middle;font-size:18px;fill:#333;}#my-svg rect.text{fill:none;stroke-width:0;}#my-svg .icon-shape,#my-svg .image-shape{background-color:rgba(232,232,232, 0.8);text-align:center;}#my-svg .icon-shape p,#my-svg .image-shape p{background-color:rgba(232,232,232, 0.8);padding:2px;}#my-svg .icon-shape rect,#my-svg .image-shape rect{opacity:0.5;background-color:rgba(232,232,232, 0.8);fill:rgba(232,232,232, 0.8);}#my-svg .label-icon{display:inline-block;height:1em;overflow:visible;vertical-align:-0.125em;}#my-svg .node .label-icon path{fill:currentColor;stroke:revert;stroke-width:revert;}#my-svg :root{--mermaid-font-family:"trebuchet ms",verdana,arial,sans-serif;}</style><g><marker orient="auto" markerHeight="8" markerWidth="8" markerUnits="userSpaceOnUse" refY="5" refX="5" viewBox="0 0 10 10" class="marker flowchart-v2" id="my-svg_flowchart-v2-pointEnd"><path style="stroke-width: 1; stroke-dasharray: 1, 0;" class="arrowMarkerPath" d="M 0 0 L 10 5 L 0 10 z"/></marker><marker orient="auto" markerHeight="8" markerWidth="8" markerUnits="userSpaceOnUse" refY="5" refX="4.5" viewBox="0 0 10 10" class="marker flowchart-v2" id="my-svg_flowchart-v2-pointStart"><path style="stroke-width: 1; stroke-dasharray: 1, 0;" class="arrowMarkerPath" d="M 0 5 L 10 10 L 10 0 z"/></marker><marker orient="auto" markerHeight="11" markerWidth="11" markerUnits="userSpaceOnUse" refY="5" refX="11" viewBox="0 0 10 10" class="marker flowchart-v2" id="my-svg_flowchart-v2-circleEnd"><circle style="stroke-width: 1; stroke-dasharray: 1, 0;" class="arrowMarkerPath" r="5" cy="5" cx="5"/></marker><marker orient="auto" markerHeight="11" markerWidth="11" markerUnits="userSpaceOnUse" refY="5" refX="-1" viewBox="0 0 10 10" class="marker flowchart-v2" id="my-svg_flowchart-v2-circleStart"><circle style="stroke-width: 1; stroke-dasharray: 1, 0;" class="arrowMarkerPath" r="5" cy="5" cx="5"/></marker><marker orient="auto" markerHeight="11" markerWidth="11" markerUnits="userSpaceOnUse" refY="5.2" refX="12" viewBox="0 0 11 11" class="marker cross flowchart-v2" id="my-svg_flowchart-v2-crossEnd"><path style="stroke-width: 2; stroke-dasharray: 1, 0;" class="arrowMarkerPath" d="M 1,1 l 9,9 M 10,1 l -9,9"/></marker><marker orient="auto" markerHeight="11" markerWidth="11" markerUnits="userSpaceOnUse" refY="5.2" refX="-1" viewBox="0 0 11 11" class="marker cross flowchart-v2" id="my-svg_flowchart-v2-crossStart"><path style="stroke-width: 2; stroke-dasharray: 1, 0;" class="arrowMarkerPath" d="M 1,1 l 9,9 M 10,1 l -9,9"/></marker><g class="root"><g class="clusters"><g data-look="classic" id="subGraph4" class="cluster"><rect  width="641.53125" y="8" x="8" style=""/><g transform="translate(290.2890625, 8)" class="cluster-label"><foreignObject height="24" width="76.953125"><div style="display: table-cell; white-space: nowrap; line-height: 1.5; max-width: 200px; text-align: center;" xmlns="http://www.w3.org/1999/xhtml"><span class="nodeLabel"><p>Data Types</p></span></div></foreignObject></g></g><g data-look="classic" id="subGraph3" class="cluster"><rect height="417.67650604248047" width="1317.015625" y="8" x="669.53125" style=""/><g transform="translate(1241.828125, 8)" class="cluster-label"><foreignObject height="24" width="172.421875"><div style="display: table-cell; white-space: nowrap; line-height: 1.5; max-width: 200px; text-align: center;" xmlns="http://www.w3.org/1999/xhtml"><span class="nodeLabel"><p>PostgreSQL Architecture</p></span></div></foreignObject></g></g><g data-look="classic" id="Sharding" class="cluster"><rect height="150.56317138671875" width="438.890625" y="250.11333465576172" x="689.53125" style=""/><g transform="translate(878.3203125, 250.11333465576172)" class="cluster-label"><foreignObject height="24" width="61.3125"><div style="display: table-cell; white-space: nowrap; line-height: 1.5; max-width: 200px; text-align: center;" xmlns="http://www.w3.org/1999/xhtml"><span class="nodeLabel"><p>Sharding</p></span></div></foreignObject></g></g><g data-look="classic" id="subGraph1" class="cluster"><rect height="150.56317138671875" width="546.265625" y="250.11333465576172" x="1148.421875" style=""/><g transform="translate(1385.953125, 250.11333465576172)" class="cluster-label"><foreignObject height="24" width="71.203125"><div style="display: table-cell; white-space: nowrap; line-height: 1.5; max-width: 200px; text-align: center;" xmlns="http://www.w3.org/1999/xhtml"><span class="nodeLabel"><p>Read Path</p></span></div></foreignObject></g></g><g data-look="classic" id="subGraph0" class="cluster"><rect height="367.67650604248047" width="251.859375" y="33" x="1714.6875" style=""/><g transform="translate(1803.03125, 33)" class="cluster-label"><foreignObject height="24" width="75.171875"><div style="display: table-cell; white-space: nowrap; line-height: 1.5; max-width: 200px; text-align: center;" xmlns="http://www.w3.org/1999/xhtml"><span class="nodeLabel"><p>Write Path</p></span></div></foreignObject></g></g></g><g class="edgePaths"><path marker-end="url(#my-svg_flowchart-v2-pointEnd)" style="" class="edge-thickness-normal edge-pattern-dotted edge-thickness-normal edge-pattern-solid flowchart-link" id="L_PRIMARY_SYNC_0" d="M1852.06,145.944L1855.341,150.972C1858.623,156,1865.187,166.057,1868.468,177.252C1871.75,188.447,1871.75,200.78,1871.75,213.113C1871.75,225.447,1871.75,237.78,1871.75,247.521C1871.75,257.262,1871.75,264.411,1871.75,267.985L1871.75,271.559"/><path marker-end="url(#my-svg_flowchart-v2-pointEnd)" style="" class="edge-thickness-normal edge-pattern-dotted edge-thickness-normal edge-pattern-solid flowchart-link" id="L_PRIMARY_ASYNC1_0" d="M1776.048,144.547L1772.527,149.808C1769.006,155.069,1761.964,165.591,1758.443,177.019C1754.922,188.447,1754.922,200.78,1754.922,213.113C1754.922,225.447,1754.922,237.78,1681.235,254.85C1607.548,271.919,1460.174,293.725,1386.488,304.628L1312.801,315.531"/><path marker-end="url(#my-svg_flowchart-v2-pointEnd)" style="" class="edge-thickness-normal edge-pattern-dotted edge-thickness-normal edge-pattern-solid flowchart-link" id="L_PRIMARY_ASYNC2_0" d="M1815.391,151.113L1815.391,155.28C1815.391,159.447,1815.391,167.78,1815.391,178.113C1815.391,188.447,1815.391,200.78,1815.391,213.113C1815.391,225.447,1815.391,237.78,1760.858,254.371C1706.325,270.961,1597.26,291.809,1542.727,302.233L1488.194,312.657"/><path marker-end="url(#my-svg_flowchart-v2-pointEnd)" style="" class="edge-thickness-normal edge-pattern-solid edge-thickness-normal edge-pattern-solid flowchart-link" id="L_ORDERS_SHARD1_0" d="M120.586,143.557L120.586,148.983C120.586,154.409,120.586,165.261,228.233,176.854C335.88,188.447,551.174,200.78,658.822,213.113C766.469,225.447,766.469,237.78,766.469,248.067C766.469,258.354,766.469,266.595,766.469,270.716L766.469,274.837"/><path marker-end="url(#my-svg_flowchart-v2-pointEnd)" style="" class="edge-thickness-normal edge-pattern-solid edge-thickness-normal edge-pattern-solid flowchart-link" id="L_BALANCES_SHARD2_0" d="M330.695,143.557L330.695,148.983C330.695,154.409,330.695,165.261,425.563,176.854C520.43,188.447,710.164,200.78,805.031,213.113C899.898,225.447,899.898,237.78,899.898,248.083C899.898,258.386,899.898,266.66,899.898,270.796L899.898,274.933"/><path marker-end="url(#my-svg_flowchart-v2-pointEnd)" style="" class="edge-thickness-normal edge-pattern-solid edge-thickness-normal edge-pattern-solid flowchart-link" id="L_LEDGER_SHARD3_0" d="M538.875,143.557L538.875,148.983C538.875,154.409,538.875,165.261,622.797,176.854C706.719,188.447,874.563,200.78,958.484,213.113C1042.406,225.447,1042.406,237.78,1042.406,247.769C1042.406,257.757,1042.406,265.402,1042.406,269.224L1042.406,273.046"/></g><g class="edgeLabels"><g transform="translate(1871.75, 213.11333465576172)" class="edgeLabel"><g transform="translate(-16.125, -12)" class="label"><foreignObject height="24" width="32.25"><div style="display: table-cell; white-space: nowrap; line-height: 1.5; max-width: 200px; text-align: center;" class="labelBkg" xmlns="http://www.w3.org/1999/xhtml"><span class="edgeLabel"><p>Sync</p></span></div></foreignObject></g></g><g transform="translate(1754.921875, 213.11333465576172)" class="edgeLabel"><g transform="translate(-20.234375, -12)" class="label"><foreignObject height="24" width="40.46875"><div style="display: table-cell; white-space: nowrap; line-height: 1.5; max-width: 200px; text-align: center;" class="labelBkg" xmlns="http://www.w3.org/1999/xhtml"><span class="edgeLabel"><p>Async</p></span></div></foreignObject></g></g><g transform="translate(1815.390625, 213.11333465576172)" class="edgeLabel"><g transform="translate(-20.234375, -12)" class="label"><foreignObject height="24" width="40.46875"><div style="display: table-cell; white-space: nowrap; line-height: 1.5; max-width: 200px; text-align: center;" class="labelBkg" xmlns="http://www.w3.org/1999/xhtml"><span class="edgeLabel"><p>Async</p></span></div></foreignObject></g></g><g class="edgeLabel"><g transform="translate(0, 0)" class="label"><foreignObject height="0" width="0"><div style="display: table-cell; white-space: nowrap; line-height: 1.5; max-width: 200px; text-align: center;" class="labelBkg" xmlns="http://www.w3.org/1999/xhtml"><span class="edgeLabel"></span></div></foreignObject></g></g><g class="edgeLabel"><g transform="translate(0, 0)" class="label"><foreignObject height="0" width="0"><div style="display: table-cell; white-space: nowrap; line-height: 1.5; max-width: 200px; text-align: center;" class="labelBkg" xmlns="http://www.w3.org/1999/xhtml"><span class="edgeLabel"></span></div></foreignObject></g></g><g class="edgeLabel"><g transform="translate(0, 0)" class="label"><foreignObject height="0" width="0"><div style="display: table-cell; white-space: nowrap; line-height: 1.5; max-width: 200px; text-align: center;" class="labelBkg" xmlns="http://www.w3.org/1999/xhtml"><span class="edgeLabel"></span></div></foreignObject></g></g></g><g class="nodes"><g transform="translate(1815.390625, 104.55666732788086)" id="flowchart-PRIMARY-0" class="node default"><path transform="translate(-41.9296875, -46.5566694097404)" style="" class="basic label-container" d="M0,10.037779606493602 a41.9296875,10.037779606493602 0,0,0 83.859375,0 a41.9296875,10.037779606493602 0,0,0 -83.859375,0 l0,73.0377796064936 a41.9296875,10.037779606493602 0,0,0 83.859375,0 l0,-73.0377796064936"/><g transform="translate(-34.4296875, -14)" style="" class="label"><rect/><foreignObject height="48" width="68.859375"><div style="display: table-cell; white-space: nowrap; line-height: 1.5; max-width: 200px; text-align: center;" xmlns="http://www.w3.org/1999/xhtml"><span class="nodeLabel"><p>Primary<br />All Writes</p></span></div></foreignObject></g></g><g transform="translate(1871.75, 325.3949203491211)" id="flowchart-SYNC-1" class="node default"><path transform="translate(-59.796875, -49.83556918359525)" style="" class="basic label-container" d="M0,12.223712789063496 a59.796875,12.223712789063496 0,0,0 119.59375,0 a59.796875,12.223712789063496 0,0,0 -119.59375,0 l0,75.2237127890635 a59.796875,12.223712789063496 0,0,0 119.59375,0 l0,-75.2237127890635"/><g transform="translate(-52.296875, -14)" style="" class="label"><rect/><foreignObject height="48" width="104.59375"><div style="display: table-cell; white-space: nowrap; line-height: 1.5; max-width: 200px; text-align: center;" xmlns="http://www.w3.org/1999/xhtml"><span class="nodeLabel"><p>Sync Standby<br />Zero Data Loss</p></span></div></foreignObject></g></g><g transform="translate(1246.1328125, 325.3949203491211)" id="flowchart-ASYNC1-2" class="node default"><path transform="translate(-62.7109375, -50.28158732139515)" style="" class="basic label-container" d="M0,12.521058214263432 a62.7109375,12.521058214263432 0,0,0 125.421875,0 a62.7109375,12.521058214263432 0,0,0 -125.421875,0 l0,75.52105821426343 a62.7109375,12.521058214263432 0,0,0 125.421875,0 l0,-75.52105821426343"/><g transform="translate(-55.2109375, -14)" style="" class="label"><rect/><foreignObject height="48" width="110.421875"><div style="display: table-cell; white-space: nowrap; line-height: 1.5; max-width: 200px; text-align: center;" xmlns="http://www.w3.org/1999/xhtml"><span class="nodeLabel"><p>Async Replica 1<br />API Reads</p></span></div></foreignObject></g></g><g transform="translate(1421.5546875, 325.3949203491211)" id="flowchart-ASYNC2-3" class="node default"><path transform="translate(-62.7109375, -50.28158732139515)" style="" class="basic label-container" d="M0,12.521058214263432 a62.7109375,12.521058214263432 0,0,0 125.421875,0 a62.7109375,12.521058214263432 0,0,0 -125.421875,0 l0,75.52105821426343 a62.7109375,12.521058214263432 0,0,0 125.421875,0 l0,-75.52105821426343"/><g transform="translate(-55.2109375, -14)" style="" class="label"><rect/><foreignObject height="48" width="110.421875"><div style="display: table-cell; white-space: nowrap; line-height: 1.5; max-width: 200px; text-align: center;" xmlns="http://www.w3.org/1999/xhtml"><span class="nodeLabel"><p>Async Replica 2<br />Analytics</p></span></div></foreignObject></g></g><g transform="translate(1596.9765625, 325.3949203491211)" id="flowchart-ASYNC3-4" class="node default"><path transform="translate(-62.7109375, -50.28158732139515)" style="" class="basic label-container" d="M0,12.521058214263432 a62.7109375,12.521058214263432 0,0,0 125.421875,0 a62.7109375,12.521058214263432 0,0,0 -125.421875,0 l0,75.52105821426343 a62.7109375,12.521058214263432 0,0,0 125.421875,0 l0,-75.52105821426343"/><g transform="translate(-55.2109375, -14)" style="" class="label"><rect/><foreignObject height="48" width="110.421875"><div style="display: table-cell; white-space: nowrap; line-height: 1.5; max-width: 200px; text-align: center;" xmlns="http://www.w3.org/1999/xhtml"><span class="nodeLabel"><p>Async Replica 3<br />Reporting</p></span></div></foreignObject></g></g><g transform="translate(766.46875, 325.3949203491211)" id="flowchart-SHARD1-5" class="node default"><path transform="translate(-41.9375, -46.55834829443447)" style="" class="basic label-container" d="M0,10.038898862956312 a41.9375,10.038898862956312 0,0,0 83.875,0 a41.9375,10.038898862956312 0,0,0 -83.875,0 l0,73.03889886295632 a41.9375,10.038898862956312 0,0,0 83.875,0 l0,-73.03889886295632"/><g transform="translate(-34.4375, -14)" style="" class="label"><rect/><foreignObject height="48" width="68.875"><div style="display: table-cell; white-space: nowrap; line-height: 1.5; max-width: 200px; text-align: center;" xmlns="http://www.w3.org/1999/xhtml"><span class="nodeLabel"><p>Shard 1<br />Users A-M</p></span></div></foreignObject></g></g><g transform="translate(899.8984375, 325.3949203491211)" id="flowchart-SHARD2-6" class="node default"><path transform="translate(-41.4921875, -46.4622492675231)" style="" class="basic label-container" d="M0,9.9748328450154 a41.4921875,9.9748328450154 0,0,0 82.984375,0 a41.4921875,9.9748328450154 0,0,0 -82.984375,0 l0,72.9748328450154 a41.4921875,9.9748328450154 0,0,0 82.984375,0 l0,-72.9748328450154"/><g transform="translate(-33.9921875, -14)" style="" class="label"><rect/><foreignObject height="48" width="67.984375"><div style="display: table-cell; white-space: nowrap; line-height: 1.5; max-width: 200px; text-align: center;" xmlns="http://www.w3.org/1999/xhtml"><span class="nodeLabel"><p>Shard 2<br />Users N-Z</p></span></div></foreignObject></g></g><g transform="translate(1042.40625, 325.3949203491211)" id="flowchart-SHARD3-7" class="node default"><path transform="translate(-51.015625, -48.35306262904336)" style="" class="basic label-container" d="M0,11.235375086028904 a51.015625,11.235375086028904 0,0,0 102.03125,0 a51.015625,11.235375086028904 0,0,0 -102.03125,0 l0,74.23537508602891 a51.015625,11.235375086028904 0,0,0 102.03125,0 l0,-74.23537508602891"/><g transform="translate(-43.515625, -14)" style="" class="label"><rect/><foreignObject height="48" width="87.03125"><div style="display: table-cell; white-space: nowrap; line-height: 1.5; max-width: 200px; text-align: center;" xmlns="http://www.w3.org/1999/xhtml"><span class="nodeLabel"><p>Shard 3<br />Institutional</p></span></div></foreignObject></g></g><g transform="translate(120.5859375, 104.55666732788086)" id="flowchart-ORDERS-8" class="node default"><rect height="78" width="155.171875" y="-39" x="-77.5859375" style="" class="basic label-container"/><g transform="translate(-47.5859375, -24)" style="" class="label"><rect/><foreignObject height="48" width="95.171875"><div style="display: table-cell; white-space: nowrap; line-height: 1.5; max-width: 200px; text-align: center;" xmlns="http://www.w3.org/1999/xhtml"><span class="nodeLabel"><p>Orders Table<br />Trade History</p></span></div></foreignObject></g></g><g transform="translate(330.6953125, 104.55666732788086)" id="flowchart-BALANCES-9" class="node default"><rect height="78" width="165.046875" y="-39" x="-82.5234375" style="" class="basic label-container"/><g transform="translate(-52.5234375, -24)" style="" class="label"><rect/><foreignObject height="48" width="105.046875"><div style="display: table-cell; white-space: nowrap; line-height: 1.5; max-width: 200px; text-align: center;" xmlns="http://www.w3.org/1999/xhtml"><span class="nodeLabel"><p>Balances Table<br />User Assets</p></span></div></foreignObject></g></g><g transform="translate(538.875, 104.55666732788086)" id="flowchart-LEDGER-10" class="node default"><rect height="78" width="151.3125" y="-39" x="-75.65625" style="" class="basic label-container"/><g transform="translate(-45.65625, -24)" style="" class="label"><rect/><foreignObject height="48" width="91.3125"><div style="display: table-cell; white-space: nowrap; line-height: 1.5; max-width: 200px; text-align: center;" xmlns="http://www.w3.org/1999/xhtml"><span class="nodeLabel"><p>Ledger Table<br />Transactions</p></span></div></foreignObject></g></g></g></g></g></svg>