<svg class="mermaid-svg" aria-roledescription="pie" role="graphics-document document" style="max-width: 687.172px; background-color: transparent;" viewBox="0 0 687.171875 450" xmlns:xlink="http://www.w3.org/1999/xlink" xmlns="http://www.w3.org/2000/svg"  id="my-svg"><style>#my-svg{font-family:"trebuchet ms",verdana,arial,sans-serif;font-size:16px;fill:#ccc;}@keyframes edge-animation-frame{from{stroke-dashoffset:0;}}@keyframes dash{to{stroke-dashoffset:0;}}#my-svg .edge-animation-slow{stroke-dasharray:9,5!important;stroke-dashoffset:900;animation:dash 50s linear infinite;stroke-linecap:round;}#my-svg .edge-animation-fast{stroke-dasharray:9,5!important;stroke-dashoffset:900;animation:dash 20s linear infinite;stroke-linecap:round;}#my-svg .error-icon{fill:#a44141;}#my-svg .error-text{fill:#ddd;stroke:#ddd;}#my-svg .edge-thickness-normal{stroke-width:1px;}#my-svg .edge-thickness-thick{stroke-width:3.5px;}#my-svg .edge-pattern-solid{stroke-dasharray:0;}#my-svg .edge-thickness-invisible{stroke-width:0;fill:none;}#my-svg .edge-pattern-dashed{stroke-dasharray:3;}#my-svg .edge-pattern-dotted{stroke-dasharray:2;}#my-svg .marker{fill:lightgrey;stroke:lightgrey;}#my-svg .marker.cross{stroke:lightgrey;}#my-svg svg{font-family:"trebuchet ms",verdana,arial,sans-serif;font-size:16px;}#my-svg p{margin:0;}#my-svg .pieCircle{stroke:black;stroke-width:2px;opacity:0.7;}#my-svg .pieOuterCircle{stroke:black;stroke-width:2px;fill:none;}#my-svg .pieTitleText{text-anchor:middle;font-size:25px;fill:hsl(28.5714285714, 17.3553719008%, 86.2745098039%);font-family:"trebuchet ms",verdana,arial,sans-serif;}#my-svg .slice{font-family:"trebuchet ms",verdana,arial,sans-serif;fill:#ccc;font-size:17px;}#my-svg .legend text{fill:hsl(28.5714285714, 17.3553719008%, 86.2745098039%);font-family:"trebuchet ms",verdana,arial,sans-serif;font-size:17px;}#my-svg :root{--mermaid-font-family:"trebuchet ms",verdana,arial,sans-serif;}</style><g/><g transform="translate(225,225)"><circle class="pieOuterCircle" r="186" cy="0" cx="0"/><path class="pieCircle" fill="#0b0000" d="M0,-185A185,185,0,0,1,108.74,149.668L0,0Z"/><path class="pieCircle" fill="#4d1037" d="M108.74,149.668A185,185,0,0,1,-149.668,108.74L0,0Z"/><path class="pieCircle" fill="#3f5258" d="M-149.668,108.74A185,185,0,0,1,-149.668,-108.74L0,0Z"/><path class="pieCircle" fill="#4f2f1b" d="M-149.668,-108.74A185,185,0,0,1,-57.168,-175.945L0,0Z"/><path class="pieCircle" fill="#6e0a0a" d="M-57.168,-175.945A185,185,0,0,1,0,-185L0,0Z"/><text style="text-anchor: middle;" class="slice" transform="translate(131.95909163595255,-42.87610796952395)">40%</text><text style="text-anchor: middle;" class="slice" transform="translate(-21.705282024332025,137.04175725757537)">25%</text><text style="text-anchor: middle;" class="slice" transform="translate(-138.75,1.6991974338169527e-14)">20%</text><text style="text-anchor: middle;" class="slice" transform="translate(-81.55520375558066,-112.25110796952394)">10%</text><text style="text-anchor: middle;" class="slice" transform="translate(-21.705282024332057,-137.04175725757534)">5%</text><text class="pieTitleText" y="-200" x="0">YouTube Infrastructure Cost Distribution</text><g transform="translate(216,-55)" class="legend"><rect style="fill: rgb(11, 0, 0); stroke: rgb(11, 0, 0);"  width="18"/><text y="14" x="22">Storage &amp; CDN</text></g><g transform="translate(216,-33)" class="legend"><rect style="fill: rgb(77, 16, 55); stroke: rgb(77, 16, 55);" height="18" width="18"/><text y="14" x="22">Compute (Transcoding)</text></g><g transform="translate(216,-11)" class="legend"><rect style="fill: rgb(63, 82, 88); stroke: rgb(63, 82, 88);" height="18" width="18"/><text y="14" x="22">ML &amp; Analytics</text></g><g transform="translate(216,11)" class="legend"><rect style="fill: rgb(79, 47, 27); stroke: rgb(79, 47, 27);" height="18" width="18"/><text y="14" x="22">Networking</text></g><g transform="translate(216,33)" class="legend"><rect style="fill: rgb(110, 10, 10); stroke: rgb(110, 10, 10);" height="18" width="18"/><text y="14" x="22">Operations &amp; Support</text></g></g></svg>