<svg class="mermaid-svg" aria-roledescription="flowchart-v2" role="graphics-document document" viewBox="0 0 740 781.4921264648438" style="max-width: 740px; background-color: transparent;" class="flowchart" xmlns:xlink="http://www.w3.org/1999/xlink" xmlns="http://www.w3.org/2000/svg"  id="my-svg"><style>#my-svg{font-family:"trebuchet ms",verdana,arial,sans-serif;font-size:16px;fill:#ccc;}@keyframes edge-animation-frame{from{stroke-dashoffset:0;}}@keyframes dash{to{stroke-dashoffset:0;}}#my-svg .edge-animation-slow{stroke-dasharray:9,5!important;stroke-dashoffset:900;animation:dash 50s linear infinite;stroke-linecap:round;}#my-svg .edge-animation-fast{stroke-dasharray:9,5!important;stroke-dashoffset:900;animation:dash 20s linear infinite;stroke-linecap:round;}#my-svg .error-icon{fill:#a44141;}#my-svg .error-text{fill:#ddd;stroke:#ddd;}#my-svg .edge-thickness-normal{stroke-width:1px;}#my-svg .edge-thickness-thick{stroke-width:3.5px;}#my-svg .edge-pattern-solid{stroke-dasharray:0;}#my-svg .edge-thickness-invisible{stroke-width:0;fill:none;}#my-svg .edge-pattern-dashed{stroke-dasharray:3;}#my-svg .edge-pattern-dotted{stroke-dasharray:2;}#my-svg .marker{fill:lightgrey;stroke:lightgrey;}#my-svg .marker.cross{stroke:lightgrey;}#my-svg svg{font-family:"trebuchet ms",verdana,arial,sans-serif;font-size:16px;}#my-svg p{margin:0;}#my-svg .label{font-family:"trebuchet ms",verdana,arial,sans-serif;color:#ccc;}#my-svg .cluster-label text{fill:#F9FFFE;}#my-svg .cluster-label span{color:#F9FFFE;}#my-svg .cluster-label span p{background-color:transparent;}#my-svg .label text,#my-svg span{fill:#ccc;color:#ccc;}#my-svg .node rect,#my-svg .node circle,#my-svg .node ellipse,#my-svg .node polygon,#my-svg .node path{fill:#1f2020;stroke:#ccc;stroke-width:1px;}#my-svg .rough-node .label text,#my-svg .node .label text,#my-svg .image-shape .label,#my-svg .icon-shape .label{text-anchor:middle;}#my-svg .node .katex path{fill:#000;stroke:#000;stroke-width:1px;}#my-svg .rough-node .label,#my-svg .node .label,#my-svg .image-shape .label,#my-svg .icon-shape .label{text-align:center;}#my-svg .node.clickable{cursor:pointer;}#my-svg .root .anchor path{fill:lightgrey!important;stroke-width:0;stroke:lightgrey;}#my-svg .arrowheadPath{fill:lightgrey;}#my-svg .edgePath .path{stroke:lightgrey;stroke-width:2.0px;}#my-svg .flowchart-link{stroke:lightgrey;fill:none;}#my-svg .edgeLabel{background-color:hsl(0, 0%, 34.4117647059%);text-align:center;}#my-svg .edgeLabel p{background-color:hsl(0, 0%, 34.4117647059%);}#my-svg .edgeLabel rect{opacity:0.5;background-color:hsl(0, 0%, 34.4117647059%);fill:hsl(0, 0%, 34.4117647059%);}#my-svg .labelBkg{background-color:rgba(87.75, 87.75, 87.75, 0.5);}#my-svg .cluster rect{fill:hsl(180, 1.5873015873%, 28.3529411765%);stroke:rgba(255, 255, 255, 0.25);stroke-width:1px;}#my-svg .cluster text{fill:#F9FFFE;}#my-svg .cluster span{color:#F9FFFE;}#my-svg div.mermaidTooltip{position:absolute;text-align:center;max-width:200px;padding:2px;font-family:"trebuchet ms",verdana,arial,sans-serif;font-size:12px;background:hsl(20, 1.5873015873%, 12.3529411765%);border:1px solid rgba(255, 255, 255, 0.25);border-radius:2px;pointer-events:none;z-index:100;}#my-svg .flowchartTitleText{text-anchor:middle;font-size:18px;fill:#ccc;}#my-svg rect.text{fill:none;stroke-width:0;}#my-svg .icon-shape,#my-svg .image-shape{background-color:hsl(0, 0%, 34.4117647059%);text-align:center;}#my-svg .icon-shape p,#my-svg .image-shape p{background-color:hsl(0, 0%, 34.4117647059%);padding:2px;}#my-svg .icon-shape rect,#my-svg .image-shape rect{opacity:0.5;background-color:hsl(0, 0%, 34.4117647059%);fill:hsl(0, 0%, 34.4117647059%);}#my-svg .label-icon{display:inline-block;height:1em;overflow:visible;vertical-align:-0.125em;}#my-svg .node .label-icon path{fill:currentColor;stroke:revert;stroke-width:revert;}#my-svg :root{--mermaid-font-family:"trebuchet ms",verdana,arial,sans-serif;}</style><g><marker orient="auto" markerHeight="8" markerWidth="8" markerUnits="userSpaceOnUse" refY="5" refX="5" viewBox="0 0 10 10" class="marker flowchart-v2" id="my-svg_flowchart-v2-pointEnd"><path style="stroke-width: 1; stroke-dasharray: 1, 0;" class="arrowMarkerPath" d="M 0 0 L 10 5 L 0 10 z"/></marker><marker orient="auto" markerHeight="8" markerWidth="8" markerUnits="userSpaceOnUse" refY="5" refX="4.5" viewBox="0 0 10 10" class="marker flowchart-v2" id="my-svg_flowchart-v2-pointStart"><path style="stroke-width: 1; stroke-dasharray: 1, 0;" class="arrowMarkerPath" d="M 0 5 L 10 10 L 10 0 z"/></marker><marker orient="auto" markerHeight="11" markerWidth="11" markerUnits="userSpaceOnUse" refY="5" refX="11" viewBox="0 0 10 10" class="marker flowchart-v2" id="my-svg_flowchart-v2-circleEnd"><circle style="stroke-width: 1; stroke-dasharray: 1, 0;" class="arrowMarkerPath" r="5" cy="5" cx="5"/></marker><marker orient="auto" markerHeight="11" markerWidth="11" markerUnits="userSpaceOnUse" refY="5" refX="-1" viewBox="0 0 10 10" class="marker flowchart-v2" id="my-svg_flowchart-v2-circleStart"><circle style="stroke-width: 1; stroke-dasharray: 1, 0;" class="arrowMarkerPath" r="5" cy="5" cx="5"/></marker><marker orient="auto" markerHeight="11" markerWidth="11" markerUnits="userSpaceOnUse" refY="5.2" refX="12" viewBox="0 0 11 11" class="marker cross flowchart-v2" id="my-svg_flowchart-v2-crossEnd"><path style="stroke-width: 2; stroke-dasharray: 1, 0;" class="arrowMarkerPath" d="M 1,1 l 9,9 M 10,1 l -9,9"/></marker><marker orient="auto" markerHeight="11" markerWidth="11" markerUnits="userSpaceOnUse" refY="5.2" refX="-1" viewBox="0 0 11 11" class="marker cross flowchart-v2" id="my-svg_flowchart-v2-crossStart"><path style="stroke-width: 2; stroke-dasharray: 1, 0;" class="arrowMarkerPath" d="M 1,1 l 9,9 M 10,1 l -9,9"/></marker><g class="root"><g class="clusters"/><g class="edgePaths"/><g class="edgeLabels"/><g class="nodes"><g transform="translate(0, 0)" class="root"><g class="clusters"><g data-look="classic" id="Multi-repo" class="cluster"><rect  width="208.65625" y="8" x="8" style=""/><g transform="translate(75.3046875, 8)" class="cluster-label"><foreignObject height="24" width="74.046875"><div style="display: table-cell; white-space: nowrap; line-height: 1.5; max-width: 200px; text-align: center;" xmlns="http://www.w3.org/1999/xhtml"><span class="nodeLabel"><p>Multi-repo</p></span></div></foreignObject></g></g></g><g class="edgePaths"/><g class="edgeLabels"/><g class="nodes"><g transform="translate(112.328125, 79.98929977416992)" id="flowchart-R1-13" class="node default"><path transform="translate(-54.6484375, -36.99333111037013)" style="" class="basic label-container" d="M0,11.66222074024675 a54.6484375,11.66222074024675 0,0,0 109.296875,0 a54.6484375,11.66222074024675 0,0,0 -109.296875,0 l0,50.66222074024675 a54.6484375,11.66222074024675 0,0,0 109.296875,0 l0,-50.66222074024675"/><g transform="translate(-47.1484375, -2)" style="" class="label"><rect/><foreignObject height="24" width="94.296875"><div style="display: table-cell; white-space: nowrap; line-height: 1.5; max-width: 200px; text-align: center;" xmlns="http://www.w3.org/1999/xhtml"><span class="nodeLabel"><p>frontend-app</p></span></div></foreignObject></g></g><g transform="translate(112.328125, 203.3699607849121)" id="flowchart-R2-14" class="node default"><path transform="translate(-51.2265625, -36.39135810950059)" style="" class="basic label-container" d="M0,11.260905406333723 a51.2265625,11.260905406333723 0,0,0 102.453125,0 a51.2265625,11.260905406333723 0,0,0 -102.453125,0 l0,50.26090540633372 a51.2265625,11.260905406333723 0,0,0 102.453125,0 l0,-50.26090540633372"/><g transform="translate(-43.7265625, -2)" style="" class="label"><rect/><foreignObject height="24" width="87.453125"><div style="display: table-cell; white-space: nowrap; line-height: 1.5; max-width: 200px; text-align: center;" xmlns="http://www.w3.org/1999/xhtml"><span class="nodeLabel"><p>backend-api</p></span></div></foreignObject></g></g><g transform="translate(112.328125, 325.8501205444336)" id="flowchart-R3-15" class="node default"><path transform="translate(-49.6015625, -36.092619694752244)" style="" class="basic label-container" d="M0,11.061746463168165 a49.6015625,11.061746463168165 0,0,0 99.203125,0 a49.6015625,11.061746463168165 0,0,0 -99.203125,0 l0,50.06174646316816 a49.6015625,11.061746463168165 0,0,0 99.203125,0 l0,-50.06174646316816"/><g transform="translate(-42.1015625, -2)" style="" class="label"><rect/><foreignObject height="24" width="84.203125"><div style="display: table-cell; white-space: nowrap; line-height: 1.5; max-width: 200px; text-align: center;" xmlns="http://www.w3.org/1999/xhtml"><span class="nodeLabel"><p>shared-utils</p></span></div></foreignObject></g></g><g transform="translate(112.328125, 449.84523010253906)" id="flowchart-R4-16" class="node default"><path transform="translate(-60.25, -37.90631364562118)" style="" class="basic label-container" d="M0,12.270875763747453 a60.25,12.270875763747453 0,0,0 120.5,0 a60.25,12.270875763747453 0,0,0 -120.5,0 l0,51.270875763747455 a60.25,12.270875763747453 0,0,0 120.5,0 l0,-51.270875763747455"/><g transform="translate(-52.75, -2)" style="" class="label"><rect/><foreignObject height="24" width="105.5"><div style="display: table-cell; white-space: nowrap; line-height: 1.5; max-width: 200px; text-align: center;" xmlns="http://www.w3.org/1999/xhtml"><span class="nodeLabel"><p>ui-components</p></span></div></foreignObject></g></g><g transform="translate(112.328125, 574.2443313598633)" id="flowchart-R5-17" class="node default"><path transform="translate(-51.7890625, -36.49278829721786)" style="" class="basic label-container" d="M0,11.328525531478569 a51.7890625,11.328525531478569 0,0,0 103.578125,0 a51.7890625,11.328525531478569 0,0,0 -103.578125,0 l0,50.32852553147857 a51.7890625,11.328525531478569 0,0,0 103.578125,0 l0,-50.32852553147857"/><g transform="translate(-44.2890625, -2)" style="" class="label"><rect/><foreignObject height="24" width="88.578125"><div style="display: table-cell; white-space: nowrap; line-height: 1.5; max-width: 200px; text-align: center;" xmlns="http://www.w3.org/1999/xhtml"><span class="nodeLabel"><p>auth-service</p></span></div></foreignObject></g></g><g transform="translate(112.328125, 699.6146125793457)" id="flowchart-R6-18" class="node default"><path transform="translate(-66.828125, -38.87749184487133)" style="" class="basic label-container" d="M0,12.918327896580886 a66.828125,12.918327896580886 0,0,0 133.65625,0 a66.828125,12.918327896580886 0,0,0 -133.65625,0 l0,51.918327896580884 a66.828125,12.918327896580886 0,0,0 133.65625,0 l0,-51.918327896580884"/><g transform="translate(-59.328125, -2)" style="" class="label"><rect/><foreignObject height="24" width="118.65625"><div style="display: table-cell; white-space: nowrap; line-height: 1.5; max-width: 200px; text-align: center;" xmlns="http://www.w3.org/1999/xhtml"><span class="nodeLabel"><p>payment-service</p></span></div></foreignObject></g></g></g></g><g transform="translate(258.65625, 60.746063232421875)" class="root"><g class="clusters"><g data-look="classic" id="Monorepo" class="cluster"><rect height="644" width="465.34375" y="8" x="8" style=""/><g transform="translate(205.8125, 8)" class="cluster-label"><foreignObject height="24" width="69.71875"><div style="display: table-cell; white-space: nowrap; line-height: 1.5; max-width: 200px; text-align: center;" xmlns="http://www.w3.org/1999/xhtml"><span class="nodeLabel"><p>Monorepo</p></span></div></foreignObject></g></g></g><g class="edgePaths"><path marker-end="url(#my-svg_flowchart-v2-pointEnd)" style="" class="edge-thickness-normal edge-pattern-solid edge-thickness-normal edge-pattern-solid flowchart-link" id="L_MR_App1_0" d="M130.105,291.232L145.131,254.36C160.158,217.488,190.212,143.744,212.672,106.872C235.133,70,250,70,257.434,70L264.867,70"/><path marker-end="url(#my-svg_flowchart-v2-pointEnd)" style="" class="edge-thickness-normal edge-pattern-solid edge-thickness-normal edge-pattern-solid flowchart-link" id="L_MR_App2_0" d="M140.752,291.897L154.005,272.248C167.257,252.598,193.761,213.299,215.22,193.65C236.68,174,253.094,174,261.301,174L269.508,174"/><path marker-end="url(#my-svg_flowchart-v2-pointEnd)" style="" class="edge-thickness-normal edge-pattern-solid edge-thickness-normal edge-pattern-solid flowchart-link" id="L_MR_Lib1_0" d="M182.766,309.458L189.016,304.215C195.266,298.972,207.766,288.486,222.272,283.243C236.779,278,253.292,278,261.548,278L269.805,278"/><path marker-end="url(#my-svg_flowchart-v2-pointEnd)" style="" class="edge-thickness-normal edge-pattern-solid edge-thickness-normal edge-pattern-solid flowchart-link" id="L_MR_Lib2_0" d="M182.766,350.542L189.016,355.785C195.266,361.028,207.766,371.514,220.47,376.757C233.174,382,246.083,382,252.538,382L258.992,382"/><path marker-end="url(#my-svg_flowchart-v2-pointEnd)" style="" class="edge-thickness-normal edge-pattern-solid edge-thickness-normal edge-pattern-solid flowchart-link" id="L_MR_Svc1_0" d="M140.752,368.103L154.005,387.752C167.257,407.402,193.761,446.701,214.955,466.35C236.148,486,252.031,486,259.973,486L267.914,486"/><path marker-end="url(#my-svg_flowchart-v2-pointEnd)" style="" class="edge-thickness-normal edge-pattern-solid edge-thickness-normal edge-pattern-solid flowchart-link" id="L_MR_Svc2_0" d="M130.105,368.768L145.131,405.64C160.158,442.512,190.212,516.256,210.822,553.128C231.432,590,242.599,590,248.182,590L253.766,590"/></g><g class="edgeLabels"><g class="edgeLabel"><g transform="translate(0, 0)" class="label"><foreignObject height="0" width="0"><div style="display: table-cell; white-space: nowrap; line-height: 1.5; max-width: 200px; text-align: center;" class="labelBkg" xmlns="http://www.w3.org/1999/xhtml"><span class="edgeLabel"></span></div></foreignObject></g></g><g class="edgeLabel"><g transform="translate(0, 0)" class="label"><foreignObject height="0" width="0"><div style="display: table-cell; white-space: nowrap; line-height: 1.5; max-width: 200px; text-align: center;" class="labelBkg" xmlns="http://www.w3.org/1999/xhtml"><span class="edgeLabel"></span></div></foreignObject></g></g><g class="edgeLabel"><g transform="translate(0, 0)" class="label"><foreignObject height="0" width="0"><div style="display: table-cell; white-space: nowrap; line-height: 1.5; max-width: 200px; text-align: center;" class="labelBkg" xmlns="http://www.w3.org/1999/xhtml"><span class="edgeLabel"></span></div></foreignObject></g></g><g class="edgeLabel"><g transform="translate(0, 0)" class="label"><foreignObject height="0" width="0"><div style="display: table-cell; white-space: nowrap; line-height: 1.5; max-width: 200px; text-align: center;" class="labelBkg" xmlns="http://www.w3.org/1999/xhtml"><span class="edgeLabel"></span></div></foreignObject></g></g><g class="edgeLabel"><g transform="translate(0, 0)" class="label"><foreignObject height="0" width="0"><div style="display: table-cell; white-space: nowrap; line-height: 1.5; max-width: 200px; text-align: center;" class="labelBkg" xmlns="http://www.w3.org/1999/xhtml"><span class="edgeLabel"></span></div></foreignObject></g></g><g class="edgeLabel"><g transform="translate(0, 0)" class="label"><foreignObject height="0" width="0"><div style="display: table-cell; white-space: nowrap; line-height: 1.5; max-width: 200px; text-align: center;" class="labelBkg" xmlns="http://www.w3.org/1999/xhtml"><span class="edgeLabel"></span></div></foreignObject></g></g></g><g class="nodes"><g transform="translate(114.1328125, 330)" id="flowchart-MR-0" class="node default"><path transform="translate(-68.6328125, -39.12689901697945)" style="" class="basic label-container" d="M0,13.084599344652965 a68.6328125,13.084599344652965 0,0,0 137.265625,0 a68.6328125,13.084599344652965 0,0,0 -137.265625,0 l0,52.084599344652965 a68.6328125,13.084599344652965 0,0,0 137.265625,0 l0,-52.084599344652965"/><g transform="translate(-61.1328125, -2)" style="" class="label"><rect/><foreignObject height="24" width="122.265625"><div style="display: table-cell; white-space: nowrap; line-height: 1.5; max-width: 200px; text-align: center;" xmlns="http://www.w3.org/1999/xhtml"><span class="nodeLabel"><p>Single Repository</p></span></div></foreignObject></g></g><g transform="translate(346.8046875, 70)" id="flowchart-App1-2" class="node default"><rect height="54" width="155.875" y="-27" x="-77.9375" style="" class="basic label-container"/><g transform="translate(-47.9375, -12)" style="" class="label"><rect/><foreignObject height="24" width="95.875"><div style="display: table-cell; white-space: nowrap; line-height: 1.5; max-width: 200px; text-align: center;" xmlns="http://www.w3.org/1999/xhtml"><span class="nodeLabel"><p>Frontend App</p></span></div></foreignObject></g></g><g transform="translate(346.8046875, 174)" id="flowchart-App2-4" class="node default"><rect height="54" width="146.59375" y="-27" x="-73.296875" style="" class="basic label-container"/><g transform="translate(-43.296875, -12)" style="" class="label"><rect/><foreignObject height="24" width="86.59375"><div style="display: table-cell; white-space: nowrap; line-height: 1.5; max-width: 200px; text-align: center;" xmlns="http://www.w3.org/1999/xhtml"><span class="nodeLabel"><p>Backend API</p></span></div></foreignObject></g></g><g transform="translate(346.8046875, 278)" id="flowchart-Lib1-6" class="node default"><rect height="54" width="146" y="-27" x="-73" style="" class="basic label-container"/><g transform="translate(-43, -12)" style="" class="label"><rect/><foreignObject height="24" width="86"><div style="display: table-cell; white-space: nowrap; line-height: 1.5; max-width: 200px; text-align: center;" xmlns="http://www.w3.org/1999/xhtml"><span class="nodeLabel"><p>Shared Utils</p></span></div></foreignObject></g></g><g transform="translate(346.8046875, 382)" id="flowchart-Lib2-8" class="node default"><rect height="54" width="167.625" y="-27" x="-83.8125" style="" class="basic label-container"/><g transform="translate(-53.8125, -12)" style="" class="label"><rect/><foreignObject height="24" width="107.625"><div style="display: table-cell; white-space: nowrap; line-height: 1.5; max-width: 200px; text-align: center;" xmlns="http://www.w3.org/1999/xhtml"><span class="nodeLabel"><p>UI Components</p></span></div></foreignObject></g></g><g transform="translate(346.8046875, 486)" id="flowchart-Svc1-10" class="node default"><rect height="54" width="149.78125" y="-27" x="-74.890625" style="" class="basic label-container"/><g transform="translate(-44.890625, -12)" style="" class="label"><rect/><foreignObject height="24" width="89.78125"><div style="display: table-cell; white-space: nowrap; line-height: 1.5; max-width: 200px; text-align: center;" xmlns="http://www.w3.org/1999/xhtml"><span class="nodeLabel"><p>Auth Service</p></span></div></foreignObject></g></g><g transform="translate(346.8046875, 590)" id="flowchart-Svc2-12" class="node default"><rect height="54" width="178.078125" y="-27" x="-89.0390625" style="" class="basic label-container"/><g transform="translate(-59.0390625, -12)" style="" class="label"><rect/><foreignObject height="24" width="118.078125"><div style="display: table-cell; white-space: nowrap; line-height: 1.5; max-width: 200px; text-align: center;" xmlns="http://www.w3.org/1999/xhtml"><span class="nodeLabel"><p>Payment Service</p></span></div></foreignObject></g></g></g></g></g></g></g></svg>