<svg class="mermaid-svg" aria-roledescription="flowchart-v2" role="graphics-document document" viewBox="0 0 879.07421875 572.6804809570312" style="max-width: 879.074px; background-color: transparent;" class="flowchart" xmlns:xlink="http://www.w3.org/1999/xlink" xmlns="http://www.w3.org/2000/svg"  id="my-svg"><style>#my-svg{font-family:"trebuchet ms",verdana,arial,sans-serif;font-size:16px;fill:#333;}@keyframes edge-animation-frame{from{stroke-dashoffset:0;}}@keyframes dash{to{stroke-dashoffset:0;}}#my-svg .edge-animation-slow{stroke-dasharray:9,5!important;stroke-dashoffset:900;animation:dash 50s linear infinite;stroke-linecap:round;}#my-svg .edge-animation-fast{stroke-dasharray:9,5!important;stroke-dashoffset:900;animation:dash 20s linear infinite;stroke-linecap:round;}#my-svg .error-icon{fill:#552222;}#my-svg .error-text{fill:#552222;stroke:#552222;}#my-svg .edge-thickness-normal{stroke-width:1px;}#my-svg .edge-thickness-thick{stroke-width:3.5px;}#my-svg .edge-pattern-solid{stroke-dasharray:0;}#my-svg .edge-thickness-invisible{stroke-width:0;fill:none;}#my-svg .edge-pattern-dashed{stroke-dasharray:3;}#my-svg .edge-pattern-dotted{stroke-dasharray:2;}#my-svg .marker{fill:#333333;stroke:#333333;}#my-svg .marker.cross{stroke:#333333;}#my-svg svg{font-family:"trebuchet ms",verdana,arial,sans-serif;font-size:16px;}#my-svg p{margin:0;}#my-svg .label{font-family:"trebuchet ms",verdana,arial,sans-serif;color:#333;}#my-svg .cluster-label text{fill:#333;}#my-svg .cluster-label span{color:#333;}#my-svg .cluster-label span p{background-color:transparent;}#my-svg .label text,#my-svg span{fill:#333;color:#333;}#my-svg .node rect,#my-svg .node circle,#my-svg .node ellipse,#my-svg .node polygon,#my-svg .node path{fill:#ECECFF;stroke:#9370DB;stroke-width:1px;}#my-svg .rough-node .label text,#my-svg .node .label text,#my-svg .image-shape .label,#my-svg .icon-shape .label{text-anchor:middle;}#my-svg .node .katex path{fill:#000;stroke:#000;stroke-width:1px;}#my-svg .rough-node .label,#my-svg .node .label,#my-svg .image-shape .label,#my-svg .icon-shape .label{text-align:center;}#my-svg .node.clickable{cursor:pointer;}#my-svg .root .anchor path{fill:#333333!important;stroke-width:0;stroke:#333333;}#my-svg .arrowheadPath{fill:#333333;}#my-svg .edgePath .path{stroke:#333333;stroke-width:2.0px;}#my-svg .flowchart-link{stroke:#333333;fill:none;}#my-svg .edgeLabel{background-color:rgba(232,232,232, 0.8);text-align:center;}#my-svg .edgeLabel p{background-color:rgba(232,232,232, 0.8);}#my-svg .edgeLabel rect{opacity:0.5;background-color:rgba(232,232,232, 0.8);fill:rgba(232,232,232, 0.8);}#my-svg .labelBkg{background-color:rgba(232, 232, 232, 0.5);}#my-svg .cluster rect{fill:#ffffde;stroke:#aaaa33;stroke-width:1px;}#my-svg .cluster text{fill:#333;}#my-svg .cluster span{color:#333;}#my-svg div.mermaidTooltip{position:absolute;text-align:center;max-width:200px;padding:2px;font-family:"trebuchet ms",verdana,arial,sans-serif;font-size:12px;background:hsl(80, 100%, 96.2745098039%);border:1px solid #aaaa33;border-radius:2px;pointer-events:none;z-index:100;}#my-svg .flowchartTitleText{text-anchor:middle;font-size:18px;fill:#333;}#my-svg rect.text{fill:none;stroke-width:0;}#my-svg .icon-shape,#my-svg .image-shape{background-color:rgba(232,232,232, 0.8);text-align:center;}#my-svg .icon-shape p,#my-svg .image-shape p{background-color:rgba(232,232,232, 0.8);padding:2px;}#my-svg .icon-shape rect,#my-svg .image-shape rect{opacity:0.5;background-color:rgba(232,232,232, 0.8);fill:rgba(232,232,232, 0.8);}#my-svg .label-icon{display:inline-block;height:1em;overflow:visible;vertical-align:-0.125em;}#my-svg .node .label-icon path{fill:currentColor;stroke:revert;stroke-width:revert;}#my-svg :root{--mermaid-font-family:"trebuchet ms",verdana,arial,sans-serif;}</style><g><marker orient="auto" markerHeight="8" markerWidth="8" markerUnits="userSpaceOnUse" refY="5" refX="5" viewBox="0 0 10 10" class="marker flowchart-v2" id="my-svg_flowchart-v2-pointEnd"><path style="stroke-width: 1; stroke-dasharray: 1, 0;" class="arrowMarkerPath" d="M 0 0 L 10 5 L 0 10 z"/></marker><marker orient="auto" markerHeight="8" markerWidth="8" markerUnits="userSpaceOnUse" refY="5" refX="4.5" viewBox="0 0 10 10" class="marker flowchart-v2" id="my-svg_flowchart-v2-pointStart"><path style="stroke-width: 1; stroke-dasharray: 1, 0;" class="arrowMarkerPath" d="M 0 5 L 10 10 L 10 0 z"/></marker><marker orient="auto" markerHeight="11" markerWidth="11" markerUnits="userSpaceOnUse" refY="5" refX="11" viewBox="0 0 10 10" class="marker flowchart-v2" id="my-svg_flowchart-v2-circleEnd"><circle style="stroke-width: 1; stroke-dasharray: 1, 0;" class="arrowMarkerPath" r="5" cy="5" cx="5"/></marker><marker orient="auto" markerHeight="11" markerWidth="11" markerUnits="userSpaceOnUse" refY="5" refX="-1" viewBox="0 0 10 10" class="marker flowchart-v2" id="my-svg_flowchart-v2-circleStart"><circle style="stroke-width: 1; stroke-dasharray: 1, 0;" class="arrowMarkerPath" r="5" cy="5" cx="5"/></marker><marker orient="auto" markerHeight="11" markerWidth="11" markerUnits="userSpaceOnUse" refY="5.2" refX="12" viewBox="0 0 11 11" class="marker cross flowchart-v2" id="my-svg_flowchart-v2-crossEnd"><path style="stroke-width: 2; stroke-dasharray: 1, 0;" class="arrowMarkerPath" d="M 1,1 l 9,9 M 10,1 l -9,9"/></marker><marker orient="auto" markerHeight="11" markerWidth="11" markerUnits="userSpaceOnUse" refY="5.2" refX="-1" viewBox="0 0 11 11" class="marker cross flowchart-v2" id="my-svg_flowchart-v2-crossStart"><path style="stroke-width: 2; stroke-dasharray: 1, 0;" class="arrowMarkerPath" d="M 1,1 l 9,9 M 10,1 l -9,9"/></marker><g class="root"><g class="clusters"><g data-look="classic" id="subGraph3" class="cluster"><rect  width="771.32421875" y="8" x="8" style=""/><g transform="translate(355.185546875, 8)" class="cluster-label"><foreignObject height="24" width="76.953125"><div style="display: table-cell; white-space: nowrap; line-height: 1.5; max-width: 200px; text-align: center;" xmlns="http://www.w3.org/1999/xhtml"><span class="nodeLabel"><p>Data Types</p></span></div></foreignObject></g></g><g data-look="classic" id="subGraph2" class="cluster"><rect height="402.68048095703125" width="848.23828125" y="162" x="22.8359375" style=""/><g transform="translate(360.744140625, 162)" class="cluster-label"><foreignObject height="24" width="172.421875"><div style="display: table-cell; white-space: nowrap; line-height: 1.5; max-width: 200px; text-align: center;" xmlns="http://www.w3.org/1999/xhtml"><span class="nodeLabel"><p>PostgreSQL Architecture</p></span></div></foreignObject></g></g><g data-look="classic" id="subGraph1" class="cluster"><rect height="152.1169891357422" width="382.203125" y="187" x="42.8359375" style=""/><g transform="translate(171.0390625, 187)" class="cluster-label"><foreignObject height="24" width="125.796875"><div style="display: table-cell; white-space: nowrap; line-height: 1.5; max-width: 200px; text-align: center;" xmlns="http://www.w3.org/1999/xhtml"><span class="nodeLabel"><p>Sharding Strategy</p></span></div></foreignObject></g></g><g data-look="classic" id="Primary-Replica" class="cluster"><rect height="352.68048095703125" width="386.578125" y="187" x="464.49609375" style=""/><g transform="translate(601.51171875, 187)" class="cluster-label"><foreignObject height="24" width="112.546875"><div style="display: table-cell; white-space: nowrap; line-height: 1.5; max-width: 200px; text-align: center;" xmlns="http://www.w3.org/1999/xhtml"><span class="nodeLabel"><p>Primary-Replica</p></span></div></foreignObject></g></g></g><g class="edgePaths"><path marker-end="url(#my-svg_flowchart-v2-pointEnd)" style="" class="edge-thickness-normal edge-pattern-dotted edge-thickness-normal edge-pattern-solid flowchart-link" id="L_PRIMARY_REPLICA1_0" d="M596.597,306.813L591.603,312.197C586.61,317.581,576.623,328.349,571.63,339.9C566.637,351.45,566.637,363.784,566.637,375.45C566.637,387.117,566.637,398.117,566.637,403.617L566.637,409.117"/><path marker-end="url(#my-svg_flowchart-v2-pointEnd)" style="" class="edge-thickness-normal edge-pattern-dotted edge-thickness-normal edge-pattern-solid flowchart-link" id="L_PRIMARY_REPLICA2_0" d="M718.974,306.813L723.967,312.197C728.96,317.581,738.947,328.349,743.94,339.9C748.934,351.45,748.934,363.784,748.934,375.45C748.934,387.117,748.934,398.117,748.934,403.617L748.934,409.117"/><path marker-end="url(#my-svg_flowchart-v2-pointEnd)" style="" class="edge-thickness-normal edge-pattern-solid edge-thickness-normal edge-pattern-solid flowchart-link" id="L_DM_DATA_PRIMARY_0" d="M657.785,87L657.785,91.167C657.785,95.333,657.785,103.667,657.785,112C657.785,120.333,657.785,128.667,657.785,137C657.785,145.333,657.785,153.667,657.785,162C657.785,170.333,657.785,178.667,657.785,186.333C657.785,194,657.785,201,657.785,204.5L657.785,208"/><path marker-end="url(#my-svg_flowchart-v2-pointEnd)" style="" class="edge-thickness-normal edge-pattern-solid edge-thickness-normal edge-pattern-solid flowchart-link" id="L_SETTINGS_SHARD1_0" d="M119.773,87L119.773,91.167C119.773,95.333,119.773,103.667,119.773,112C119.773,120.333,119.773,128.667,119.773,137C119.773,145.333,119.773,153.667,119.773,162C119.773,170.333,119.773,178.667,119.773,187.083C119.773,195.5,119.773,204,119.773,208.25L119.773,212.5"/><path marker-end="url(#my-svg_flowchart-v2-pointEnd)" style="" class="edge-thickness-normal edge-pattern-solid edge-thickness-normal edge-pattern-solid flowchart-link" id="L_AUTH_SHARD2_0" d="M348.547,87L348.547,91.167C348.547,95.333,348.547,103.667,348.547,112C348.547,120.333,348.547,128.667,348.547,137C348.547,145.333,348.547,153.667,348.547,162C348.547,170.333,348.547,178.667,348.547,187.099C348.547,195.532,348.547,204.064,348.547,208.33L348.547,212.596"/></g><g class="edgeLabels"><g transform="translate(566.63671875, 376.1169891357422)" class="edgeLabel"><g transform="translate(-78.4921875, -12)" class="label"><foreignObject height="24" width="156.984375"><div style="display: table-cell; white-space: nowrap; line-height: 1.5; max-width: 200px; text-align: center;" class="labelBkg" xmlns="http://www.w3.org/1999/xhtml"><span class="edgeLabel"><p>Streaming Replication</p></span></div></foreignObject></g></g><g transform="translate(748.93359375, 376.1169891357422)" class="edgeLabel"><g transform="translate(-78.4921875, -12)" class="label"><foreignObject height="24" width="156.984375"><div style="display: table-cell; white-space: nowrap; line-height: 1.5; max-width: 200px; text-align: center;" class="labelBkg" xmlns="http://www.w3.org/1999/xhtml"><span class="edgeLabel"><p>Streaming Replication</p></span></div></foreignObject></g></g><g class="edgeLabel"><g transform="translate(0, 0)" class="label"><foreignObject height="0" width="0"><div style="display: table-cell; white-space: nowrap; line-height: 1.5; max-width: 200px; text-align: center;" class="labelBkg" xmlns="http://www.w3.org/1999/xhtml"><span class="edgeLabel"></span></div></foreignObject></g></g><g class="edgeLabel"><g transform="translate(0, 0)" class="label"><foreignObject height="0" width="0"><div style="display: table-cell; white-space: nowrap; line-height: 1.5; max-width: 200px; text-align: center;" class="labelBkg" xmlns="http://www.w3.org/1999/xhtml"><span class="edgeLabel"></span></div></foreignObject></g></g><g class="edgeLabel"><g transform="translate(0, 0)" class="label"><foreignObject height="0" width="0"><div style="display: table-cell; white-space: nowrap; line-height: 1.5; max-width: 200px; text-align: center;" class="labelBkg" xmlns="http://www.w3.org/1999/xhtml"><span class="edgeLabel"></span></div></foreignObject></g></g></g><g class="nodes"><g transform="translate(657.78515625, 263.0584945678711)" id="flowchart-PRIMARY-0" class="node default"><path transform="translate(-68.1328125, -51.058489324801144)" style="" class="basic label-container" d="M0,13.038992883200766 a68.1328125,13.038992883200766 0,0,0 136.265625,0 a68.1328125,13.038992883200766 0,0,0 -136.265625,0 l0,76.03899288320076 a68.1328125,13.038992883200766 0,0,0 136.265625,0 l0,-76.03899288320076"/><g transform="translate(-60.6328125, -14)" style="" class="label"><rect/><foreignObject height="48" width="121.265625"><div style="display: table-cell; white-space: nowrap; line-height: 1.5; max-width: 200px; text-align: center;" xmlns="http://www.w3.org/1999/xhtml"><span class="nodeLabel"><p>Primary<br />Write Operations</p></span></div></foreignObject></g></g><g transform="translate(566.63671875, 463.8987350463867)" id="flowchart-REPLICA1-1" class="node default"><path transform="translate(-66.1484375, -50.78174530879941)" style="" class="basic label-container" d="M0,12.854496872532943 a66.1484375,12.854496872532943 0,0,0 132.296875,0 a66.1484375,12.854496872532943 0,0,0 -132.296875,0 l0,75.85449687253293 a66.1484375,12.854496872532943 0,0,0 132.296875,0 l0,-75.85449687253293"/><g transform="translate(-58.6484375, -14)" style="" class="label"><rect/><foreignObject height="48" width="117.296875"><div style="display: table-cell; white-space: nowrap; line-height: 1.5; max-width: 200px; text-align: center;" xmlns="http://www.w3.org/1999/xhtml"><span class="nodeLabel"><p>Replica 1<br />Read Operations</p></span></div></foreignObject></g></g><g transform="translate(748.93359375, 463.8987350463867)" id="flowchart-REPLICA2-2" class="node default"><path transform="translate(-66.1484375, -50.78174530879941)" style="" class="basic label-container" d="M0,12.854496872532943 a66.1484375,12.854496872532943 0,0,0 132.296875,0 a66.1484375,12.854496872532943 0,0,0 -132.296875,0 l0,75.85449687253293 a66.1484375,12.854496872532943 0,0,0 132.296875,0 l0,-75.85449687253293"/><g transform="translate(-58.6484375, -14)" style="" class="label"><rect/><foreignObject height="48" width="117.296875"><div style="display: table-cell; white-space: nowrap; line-height: 1.5; max-width: 200px; text-align: center;" xmlns="http://www.w3.org/1999/xhtml"><span class="nodeLabel"><p>Replica 2<br />Read Operations</p></span></div></foreignObject></g></g><g transform="translate(119.7734375, 263.0584945678711)" id="flowchart-SHARD1-3" class="node default"><path transform="translate(-41.9375, -46.55834829443447)" style="" class="basic label-container" d="M0,10.038898862956312 a41.9375,10.038898862956312 0,0,0 83.875,0 a41.9375,10.038898862956312 0,0,0 -83.875,0 l0,73.03889886295632 a41.9375,10.038898862956312 0,0,0 83.875,0 l0,-73.03889886295632"/><g transform="translate(-34.4375, -14)" style="" class="label"><rect/><foreignObject height="48" width="68.875"><div style="display: table-cell; white-space: nowrap; line-height: 1.5; max-width: 200px; text-align: center;" xmlns="http://www.w3.org/1999/xhtml"><span class="nodeLabel"><p>Shard 1<br />Users A-M</p></span></div></foreignObject></g></g><g transform="translate(348.546875, 263.0584945678711)" id="flowchart-SHARD2-4" class="node default"><path transform="translate(-41.4921875, -46.4622492675231)" style="" class="basic label-container" d="M0,9.9748328450154 a41.4921875,9.9748328450154 0,0,0 82.984375,0 a41.4921875,9.9748328450154 0,0,0 -82.984375,0 l0,72.9748328450154 a41.4921875,9.9748328450154 0,0,0 82.984375,0 l0,-72.9748328450154"/><g transform="translate(-33.9921875, -14)" style="" class="label"><rect/><foreignObject height="48" width="67.984375"><div style="display: table-cell; white-space: nowrap; line-height: 1.5; max-width: 200px; text-align: center;" xmlns="http://www.w3.org/1999/xhtml"><span class="nodeLabel"><p>Shard 2<br />Users N-Z</p></span></div></foreignObject></g></g><g transform="translate(657.78515625, 60)" id="flowchart-DM_DATA-5" class="node default"><rect height="54" width="173.078125" y="-27" x="-86.5390625" style="" class="basic label-container"/><g transform="translate(-56.5390625, -12)" style="" class="label"><rect/><foreignObject height="24" width="113.078125"><div style="display: table-cell; white-space: nowrap; line-height: 1.5; max-width: 200px; text-align: center;" xmlns="http://www.w3.org/1999/xhtml"><span class="nodeLabel"><p>Direct Messages</p></span></div></foreignObject></g></g><g transform="translate(119.7734375, 60)" id="flowchart-SETTINGS-6" class="node default"><rect height="54" width="153.546875" y="-27" x="-76.7734375" style="" class="basic label-container"/><g transform="translate(-46.7734375, -12)" style="" class="label"><rect/><foreignObject height="24" width="93.546875"><div style="display: table-cell; white-space: nowrap; line-height: 1.5; max-width: 200px; text-align: center;" xmlns="http://www.w3.org/1999/xhtml"><span class="nodeLabel"><p>User Settings</p></span></div></foreignObject></g></g><g transform="translate(348.546875, 60)" id="flowchart-AUTH-7" class="node default"><rect height="54" width="204" y="-27" x="-102" style="" class="basic label-container"/><g transform="translate(-72, -12)" style="" class="label"><rect/><foreignObject height="24" width="144"><div style="display: table-cell; white-space: nowrap; line-height: 1.5; max-width: 200px; text-align: center;" xmlns="http://www.w3.org/1999/xhtml"><span class="nodeLabel"><p>Authentication Data</p></span></div></foreignObject></g></g></g></g></g></svg>