<svg class="mermaid-svg" aria-roledescription="flowchart-v2" role="graphics-document document" viewBox="0 0 1825.5625 501" style="max-width: 1825.56px; background-color: transparent;" class="flowchart" xmlns:xlink="http://www.w3.org/1999/xlink" xmlns="http://www.w3.org/2000/svg"  id="my-svg"><style>#my-svg{font-family:"trebuchet ms",verdana,arial,sans-serif;font-size:16px;fill:#333;}@keyframes edge-animation-frame{from{stroke-dashoffset:0;}}@keyframes dash{to{stroke-dashoffset:0;}}#my-svg .edge-animation-slow{stroke-dasharray:9,5!important;stroke-dashoffset:900;animation:dash 50s linear infinite;stroke-linecap:round;}#my-svg .edge-animation-fast{stroke-dasharray:9,5!important;stroke-dashoffset:900;animation:dash 20s linear infinite;stroke-linecap:round;}#my-svg .error-icon{fill:#552222;}#my-svg .error-text{fill:#552222;stroke:#552222;}#my-svg .edge-thickness-normal{stroke-width:1px;}#my-svg .edge-thickness-thick{stroke-width:3.5px;}#my-svg .edge-pattern-solid{stroke-dasharray:0;}#my-svg .edge-thickness-invisible{stroke-width:0;fill:none;}#my-svg .edge-pattern-dashed{stroke-dasharray:3;}#my-svg .edge-pattern-dotted{stroke-dasharray:2;}#my-svg .marker{fill:#333333;stroke:#333333;}#my-svg .marker.cross{stroke:#333333;}#my-svg svg{font-family:"trebuchet ms",verdana,arial,sans-serif;font-size:16px;}#my-svg p{margin:0;}#my-svg .label{font-family:"trebuchet ms",verdana,arial,sans-serif;color:#333;}#my-svg .cluster-label text{fill:#333;}#my-svg .cluster-label span{color:#333;}#my-svg .cluster-label span p{background-color:transparent;}#my-svg .label text,#my-svg span{fill:#333;color:#333;}#my-svg .node rect,#my-svg .node circle,#my-svg .node ellipse,#my-svg .node polygon,#my-svg .node path{fill:#ECECFF;stroke:#9370DB;stroke-width:1px;}#my-svg .rough-node .label text,#my-svg .node .label text,#my-svg .image-shape .label,#my-svg .icon-shape .label{text-anchor:middle;}#my-svg .node .katex path{fill:#000;stroke:#000;stroke-width:1px;}#my-svg .rough-node .label,#my-svg .node .label,#my-svg .image-shape .label,#my-svg .icon-shape .label{text-align:center;}#my-svg .node.clickable{cursor:pointer;}#my-svg .root .anchor path{fill:#333333!important;stroke-width:0;stroke:#333333;}#my-svg .arrowheadPath{fill:#333333;}#my-svg .edgePath .path{stroke:#333333;stroke-width:2.0px;}#my-svg .flowchart-link{stroke:#333333;fill:none;}#my-svg .edgeLabel{background-color:rgba(232,232,232, 0.8);text-align:center;}#my-svg .edgeLabel p{background-color:rgba(232,232,232, 0.8);}#my-svg .edgeLabel rect{opacity:0.5;background-color:rgba(232,232,232, 0.8);fill:rgba(232,232,232, 0.8);}#my-svg .labelBkg{background-color:rgba(232, 232, 232, 0.5);}#my-svg .cluster rect{fill:#ffffde;stroke:#aaaa33;stroke-width:1px;}#my-svg .cluster text{fill:#333;}#my-svg .cluster span{color:#333;}#my-svg div.mermaidTooltip{position:absolute;text-align:center;max-width:200px;padding:2px;font-family:"trebuchet ms",verdana,arial,sans-serif;font-size:12px;background:hsl(80, 100%, 96.2745098039%);border:1px solid #aaaa33;border-radius:2px;pointer-events:none;z-index:100;}#my-svg .flowchartTitleText{text-anchor:middle;font-size:18px;fill:#333;}#my-svg rect.text{fill:none;stroke-width:0;}#my-svg .icon-shape,#my-svg .image-shape{background-color:rgba(232,232,232, 0.8);text-align:center;}#my-svg .icon-shape p,#my-svg .image-shape p{background-color:rgba(232,232,232, 0.8);padding:2px;}#my-svg .icon-shape rect,#my-svg .image-shape rect{opacity:0.5;background-color:rgba(232,232,232, 0.8);fill:rgba(232,232,232, 0.8);}#my-svg .label-icon{display:inline-block;height:1em;overflow:visible;vertical-align:-0.125em;}#my-svg .node .label-icon path{fill:currentColor;stroke:revert;stroke-width:revert;}#my-svg :root{--mermaid-font-family:"trebuchet ms",verdana,arial,sans-serif;}</style><g><marker orient="auto" markerHeight="8" markerWidth="8" markerUnits="userSpaceOnUse" refY="5" refX="5" viewBox="0 0 10 10" class="marker flowchart-v2" id="my-svg_flowchart-v2-pointEnd"><path style="stroke-width: 1; stroke-dasharray: 1, 0;" class="arrowMarkerPath" d="M 0 0 L 10 5 L 0 10 z"/></marker><marker orient="auto" markerHeight="8" markerWidth="8" markerUnits="userSpaceOnUse" refY="5" refX="4.5" viewBox="0 0 10 10" class="marker flowchart-v2" id="my-svg_flowchart-v2-pointStart"><path style="stroke-width: 1; stroke-dasharray: 1, 0;" class="arrowMarkerPath" d="M 0 5 L 10 10 L 10 0 z"/></marker><marker orient="auto" markerHeight="11" markerWidth="11" markerUnits="userSpaceOnUse" refY="5" refX="11" viewBox="0 0 10 10" class="marker flowchart-v2" id="my-svg_flowchart-v2-circleEnd"><circle style="stroke-width: 1; stroke-dasharray: 1, 0;" class="arrowMarkerPath" r="5" cy="5" cx="5"/></marker><marker orient="auto" markerHeight="11" markerWidth="11" markerUnits="userSpaceOnUse" refY="5" refX="-1" viewBox="0 0 10 10" class="marker flowchart-v2" id="my-svg_flowchart-v2-circleStart"><circle style="stroke-width: 1; stroke-dasharray: 1, 0;" class="arrowMarkerPath" r="5" cy="5" cx="5"/></marker><marker orient="auto" markerHeight="11" markerWidth="11" markerUnits="userSpaceOnUse" refY="5.2" refX="12" viewBox="0 0 11 11" class="marker cross flowchart-v2" id="my-svg_flowchart-v2-crossEnd"><path style="stroke-width: 2; stroke-dasharray: 1, 0;" class="arrowMarkerPath" d="M 1,1 l 9,9 M 10,1 l -9,9"/></marker><marker orient="auto" markerHeight="11" markerWidth="11" markerUnits="userSpaceOnUse" refY="5.2" refX="-1" viewBox="0 0 11 11" class="marker cross flowchart-v2" id="my-svg_flowchart-v2-crossStart"><path style="stroke-width: 2; stroke-dasharray: 1, 0;" class="arrowMarkerPath" d="M 1,1 l 9,9 M 10,1 l -9,9"/></marker><g class="root"><g class="clusters"><g data-look="classic" id="subGraph3" class="cluster"><rect  width="879.390625" y="8" x="938.171875" style=""/><g transform="translate(1339.390625, 8)" class="cluster-label"><foreignObject height="24" width="76.953125"><div style="display: table-cell; white-space: nowrap; line-height: 1.5; max-width: 200px; text-align: center;" xmlns="http://www.w3.org/1999/xhtml"><span class="nodeLabel"><p>Data Types</p></span></div></foreignObject></g></g><g data-look="classic" id="Processing" class="cluster"><rect height="104" width="678.671875" y="389" x="8" style=""/><g transform="translate(310.375, 389)" class="cluster-label"><foreignObject height="24" width="73.921875"><div style="display: table-cell; white-space: nowrap; line-height: 1.5; max-width: 200px; text-align: center;" xmlns="http://www.w3.org/1999/xhtml"><span class="nodeLabel"><p>Processing</p></span></div></foreignObject></g></g><g data-look="classic" id="subGraph1" class="cluster"><rect height="331" width="909.234375" y="8" x="8.9375" style=""/><g transform="translate(398.4453125, 8)" class="cluster-label"><foreignObject height="24" width="130.21875"><div style="display: table-cell; white-space: nowrap; line-height: 1.5; max-width: 200px; text-align: center;" xmlns="http://www.w3.org/1999/xhtml"><span class="nodeLabel"><p>HDFS Architecture</p></span></div></foreignObject></g></g><g data-look="classic" id="DataNodes" class="cluster"><rect height="128" width="869.234375" y="186" x="28.9375" style=""/><g transform="translate(425.609375, 186)" class="cluster-label"><foreignObject height="24" width="75.890625"><div style="display: table-cell; white-space: nowrap; line-height: 1.5; max-width: 200px; text-align: center;" xmlns="http://www.w3.org/1999/xhtml"><span class="nodeLabel"><p>DataNodes</p></span></div></foreignObject></g></g></g><g class="edgePaths"><path marker-end="url(#my-svg_flowchart-v2-pointEnd)" style="" class="edge-thickness-normal edge-pattern-solid edge-thickness-normal edge-pattern-solid flowchart-link" id="L_NN_DN1_0" d="M311.672,87.98L277.349,95.983C243.026,103.987,174.38,119.993,140.057,132.163C105.734,144.333,105.734,152.667,105.734,161C105.734,169.333,105.734,177.667,107.798,185.422C109.861,193.177,113.988,200.355,116.051,203.944L118.114,207.532"/><path marker-end="url(#my-svg_flowchart-v2-pointEnd)" style="" class="edge-thickness-normal edge-pattern-solid edge-thickness-normal edge-pattern-solid flowchart-link" id="L_NN_DN2_0" d="M311.672,110.529L304.121,114.774C296.57,119.019,281.469,127.51,273.918,135.922C266.367,144.333,266.367,152.667,266.367,161C266.367,169.333,266.367,177.667,272.56,185.65C278.752,193.634,291.138,201.267,297.33,205.084L303.523,208.901"/><path marker-end="url(#my-svg_flowchart-v2-pointEnd)" style="" class="edge-thickness-normal edge-pattern-solid edge-thickness-normal edge-pattern-solid flowchart-link" id="L_NN_DN3_0" d="M443.331,111L450.075,115.167C456.819,119.333,470.308,127.667,477.052,136C483.797,144.333,483.797,152.667,483.797,161C483.797,169.333,483.797,177.667,489.34,185.624C494.883,193.581,505.969,201.161,511.512,204.952L517.055,208.742"/><path marker-end="url(#my-svg_flowchart-v2-pointEnd)" style="" class="edge-thickness-normal edge-pattern-solid edge-thickness-normal edge-pattern-solid flowchart-link" id="L_NN_DN4_0" d="M448.734,86.113L489.109,94.427C529.484,102.742,610.234,119.371,650.609,131.852C690.984,144.333,690.984,152.667,690.984,161C690.984,169.333,690.984,177.667,696.527,185.624C702.07,193.581,713.157,201.161,718.7,204.952L724.243,208.742"/><path marker-end="url(#my-svg_flowchart-v2-pointEnd)" style="" class="edge-thickness-normal edge-pattern-solid edge-thickness-normal edge-pattern-solid flowchart-link" id="L_DN1_HADOOP_0" d="M142.531,289L142.531,293.167C142.531,297.333,142.531,305.667,142.531,314C142.531,322.333,142.531,330.667,142.531,339C142.531,347.333,142.531,355.667,142.531,364C142.531,372.333,142.531,380.667,142.531,388.333C142.531,396,142.531,403,142.531,406.5L142.531,410"/><path marker-end="url(#my-svg_flowchart-v2-pointEnd)" style="" class="edge-thickness-normal edge-pattern-solid edge-thickness-normal edge-pattern-solid flowchart-link" id="L_DN2_SPARK_0" d="M370.203,289L370.203,293.167C370.203,297.333,370.203,305.667,370.203,314C370.203,322.333,370.203,330.667,370.203,339C370.203,347.333,370.203,355.667,370.203,364C370.203,372.333,370.203,380.667,370.203,388.333C370.203,396,370.203,403,370.203,406.5L370.203,410"/><path marker-end="url(#my-svg_flowchart-v2-pointEnd)" style="" class="edge-thickness-normal edge-pattern-solid edge-thickness-normal edge-pattern-solid flowchart-link" id="L_DN3_HIVE_0" d="M577.391,289L577.391,293.167C577.391,297.333,577.391,305.667,577.391,314C577.391,322.333,577.391,330.667,577.391,339C577.391,347.333,577.391,355.667,577.391,364C577.391,372.333,577.391,380.667,577.391,388.333C577.391,396,577.391,403,577.391,406.5L577.391,410"/><path marker-end="url(#my-svg_flowchart-v2-pointEnd)" style="" class="edge-thickness-normal edge-pattern-solid edge-thickness-normal edge-pattern-solid flowchart-link" id="L_RAW_DN1_0" d="M1060.539,99L1060.539,105.167C1060.539,111.333,1060.539,123.667,924.844,134C789.148,144.333,517.758,152.667,382.063,161C246.367,169.333,246.367,177.667,240.175,185.65C233.982,193.634,221.597,201.267,215.404,205.084L209.211,208.901"/><path marker-end="url(#my-svg_flowchart-v2-pointEnd)" style="" class="edge-thickness-normal edge-pattern-solid edge-thickness-normal edge-pattern-solid flowchart-link" id="L_LOGS_DN2_0" d="M1271.125,99L1271.125,105.167C1271.125,111.333,1271.125,123.667,1136.57,134C1002.016,144.333,732.906,152.667,598.352,161C463.797,169.333,463.797,177.667,458.254,185.624C452.711,193.581,441.625,201.161,436.082,204.952L430.539,208.742"/><path marker-end="url(#my-svg_flowchart-v2-pointEnd)" style="" class="edge-thickness-normal edge-pattern-solid edge-thickness-normal edge-pattern-solid flowchart-link" id="L_ANALYTICS_DN3_0" d="M1474.461,99L1474.461,105.167C1474.461,111.333,1474.461,123.667,1340.548,134C1206.635,144.333,938.81,152.667,804.897,161C670.984,169.333,670.984,177.667,665.441,185.624C659.898,193.581,648.812,201.161,643.269,204.952L637.726,208.742"/><path marker-end="url(#my-svg_flowchart-v2-pointEnd)" style="" class="edge-thickness-normal edge-pattern-solid edge-thickness-normal edge-pattern-solid flowchart-link" id="L_ML_DATA_DN4_0" d="M1693.57,99L1693.57,105.167C1693.57,111.333,1693.57,123.667,1549.871,134C1406.172,144.333,1118.773,152.667,975.074,161C831.375,169.333,831.375,177.667,828.722,185.462C826.069,193.257,820.762,200.514,818.109,204.143L815.456,207.771"/></g><g class="edgeLabels"><g class="edgeLabel"><g transform="translate(0, 0)" class="label"><foreignObject height="0" width="0"><div style="display: table-cell; white-space: nowrap; line-height: 1.5; max-width: 200px; text-align: center;" class="labelBkg" xmlns="http://www.w3.org/1999/xhtml"><span class="edgeLabel"></span></div></foreignObject></g></g><g class="edgeLabel"><g transform="translate(0, 0)" class="label"><foreignObject height="0" width="0"><div style="display: table-cell; white-space: nowrap; line-height: 1.5; max-width: 200px; text-align: center;" class="labelBkg" xmlns="http://www.w3.org/1999/xhtml"><span class="edgeLabel"></span></div></foreignObject></g></g><g class="edgeLabel"><g transform="translate(0, 0)" class="label"><foreignObject height="0" width="0"><div style="display: table-cell; white-space: nowrap; line-height: 1.5; max-width: 200px; text-align: center;" class="labelBkg" xmlns="http://www.w3.org/1999/xhtml"><span class="edgeLabel"></span></div></foreignObject></g></g><g class="edgeLabel"><g transform="translate(0, 0)" class="label"><foreignObject height="0" width="0"><div style="display: table-cell; white-space: nowrap; line-height: 1.5; max-width: 200px; text-align: center;" class="labelBkg" xmlns="http://www.w3.org/1999/xhtml"><span class="edgeLabel"></span></div></foreignObject></g></g><g class="edgeLabel"><g transform="translate(0, 0)" class="label"><foreignObject height="0" width="0"><div style="display: table-cell; white-space: nowrap; line-height: 1.5; max-width: 200px; text-align: center;" class="labelBkg" xmlns="http://www.w3.org/1999/xhtml"><span class="edgeLabel"></span></div></foreignObject></g></g><g class="edgeLabel"><g transform="translate(0, 0)" class="label"><foreignObject height="0" width="0"><div style="display: table-cell; white-space: nowrap; line-height: 1.5; max-width: 200px; text-align: center;" class="labelBkg" xmlns="http://www.w3.org/1999/xhtml"><span class="edgeLabel"></span></div></foreignObject></g></g><g class="edgeLabel"><g transform="translate(0, 0)" class="label"><foreignObject height="0" width="0"><div style="display: table-cell; white-space: nowrap; line-height: 1.5; max-width: 200px; text-align: center;" class="labelBkg" xmlns="http://www.w3.org/1999/xhtml"><span class="edgeLabel"></span></div></foreignObject></g></g><g class="edgeLabel"><g transform="translate(0, 0)" class="label"><foreignObject height="0" width="0"><div style="display: table-cell; white-space: nowrap; line-height: 1.5; max-width: 200px; text-align: center;" class="labelBkg" xmlns="http://www.w3.org/1999/xhtml"><span class="edgeLabel"></span></div></foreignObject></g></g><g class="edgeLabel"><g transform="translate(0, 0)" class="label"><foreignObject height="0" width="0"><div style="display: table-cell; white-space: nowrap; line-height: 1.5; max-width: 200px; text-align: center;" class="labelBkg" xmlns="http://www.w3.org/1999/xhtml"><span class="edgeLabel"></span></div></foreignObject></g></g><g class="edgeLabel"><g transform="translate(0, 0)" class="label"><foreignObject height="0" width="0"><div style="display: table-cell; white-space: nowrap; line-height: 1.5; max-width: 200px; text-align: center;" class="labelBkg" xmlns="http://www.w3.org/1999/xhtml"><span class="edgeLabel"></span></div></foreignObject></g></g><g class="edgeLabel"><g transform="translate(0, 0)" class="label"><foreignObject height="0" width="0"><div style="display: table-cell; white-space: nowrap; line-height: 1.5; max-width: 200px; text-align: center;" class="labelBkg" xmlns="http://www.w3.org/1999/xhtml"><span class="edgeLabel"></span></div></foreignObject></g></g></g><g class="nodes"><g transform="translate(380.203125, 72)" id="flowchart-NN-0" class="node default"><rect height="78" width="137.0625" y="-39" x="-68.53125" style="" class="basic label-container"/><g transform="translate(-38.53125, -24)" style="" class="label"><rect/><foreignObject height="48" width="77.0625"><div style="display: table-cell; white-space: nowrap; line-height: 1.5; max-width: 200px; text-align: center;" xmlns="http://www.w3.org/1999/xhtml"><span class="nodeLabel"><p>NameNode<br />Metadata</p></span></div></foreignObject></g></g><g transform="translate(142.53125, 250)" id="flowchart-DN1-1" class="node default"><rect height="78" width="157.1875" y="-39" x="-78.59375" style="" class="basic label-container"/><g transform="translate(-48.59375, -24)" style="" class="label"><rect/><foreignObject height="48" width="97.1875"><div style="display: table-cell; white-space: nowrap; line-height: 1.5; max-width: 200px; text-align: center;" xmlns="http://www.w3.org/1999/xhtml"><span class="nodeLabel"><p>DataNode 1<br />Block Storage</p></span></div></foreignObject></g></g><g transform="translate(370.203125, 250)" id="flowchart-DN2-2" class="node default"><rect height="78" width="157.1875" y="-39" x="-78.59375" style="" class="basic label-container"/><g transform="translate(-48.59375, -24)" style="" class="label"><rect/><foreignObject height="48" width="97.1875"><div style="display: table-cell; white-space: nowrap; line-height: 1.5; max-width: 200px; text-align: center;" xmlns="http://www.w3.org/1999/xhtml"><span class="nodeLabel"><p>DataNode 2<br />Block Storage</p></span></div></foreignObject></g></g><g transform="translate(577.390625, 250)" id="flowchart-DN3-3" class="node default"><rect height="78" width="157.1875" y="-39" x="-78.59375" style="" class="basic label-container"/><g transform="translate(-48.59375, -24)" style="" class="label"><rect/><foreignObject height="48" width="97.1875"><div style="display: table-cell; white-space: nowrap; line-height: 1.5; max-width: 200px; text-align: center;" xmlns="http://www.w3.org/1999/xhtml"><span class="nodeLabel"><p>DataNode 3<br />Block Storage</p></span></div></foreignObject></g></g><g transform="translate(784.578125, 250)" id="flowchart-DN4-4" class="node default"><rect height="78" width="157.1875" y="-39" x="-78.59375" style="" class="basic label-container"/><g transform="translate(-48.59375, -24)" style="" class="label"><rect/><foreignObject height="48" width="97.1875"><div style="display: table-cell; white-space: nowrap; line-height: 1.5; max-width: 200px; text-align: center;" xmlns="http://www.w3.org/1999/xhtml"><span class="nodeLabel"><p>DataNode N<br />Block Storage</p></span></div></foreignObject></g></g><g transform="translate(142.53125, 441)" id="flowchart-HADOOP-5" class="node default"><rect height="54" width="199.0625" y="-27" x="-99.53125" style="" class="basic label-container"/><g transform="translate(-69.53125, -12)" style="" class="label"><rect/><foreignObject height="24" width="139.0625"><div style="display: table-cell; white-space: nowrap; line-height: 1.5; max-width: 200px; text-align: center;" xmlns="http://www.w3.org/1999/xhtml"><span class="nodeLabel"><p>Hadoop MapReduce</p></span></div></foreignObject></g></g><g transform="translate(370.203125, 441)" id="flowchart-SPARK-6" class="node default"><rect height="54" width="156.28125" y="-27" x="-78.140625" style="" class="basic label-container"/><g transform="translate(-48.140625, -12)" style="" class="label"><rect/><foreignObject height="24" width="96.28125"><div style="display: table-cell; white-space: nowrap; line-height: 1.5; max-width: 200px; text-align: center;" xmlns="http://www.w3.org/1999/xhtml"><span class="nodeLabel"><p>Apache Spark</p></span></div></foreignObject></g></g><g transform="translate(577.390625, 441)" id="flowchart-HIVE-7" class="node default"><rect height="54" width="148.5625" y="-27" x="-74.28125" style="" class="basic label-container"/><g transform="translate(-44.28125, -12)" style="" class="label"><rect/><foreignObject height="24" width="88.5625"><div style="display: table-cell; white-space: nowrap; line-height: 1.5; max-width: 200px; text-align: center;" xmlns="http://www.w3.org/1999/xhtml"><span class="nodeLabel"><p>Apache Hive</p></span></div></foreignObject></g></g><g transform="translate(1060.5390625, 72)" id="flowchart-RAW-8" class="node default"><rect height="54" width="174.734375" y="-27" x="-87.3671875" style="" class="basic label-container"/><g transform="translate(-57.3671875, -12)" style="" class="label"><rect/><foreignObject height="24" width="114.734375"><div style="display: table-cell; white-space: nowrap; line-height: 1.5; max-width: 200px; text-align: center;" xmlns="http://www.w3.org/1999/xhtml"><span class="nodeLabel"><p>Raw Tweet Data</p></span></div></foreignObject></g></g><g transform="translate(1271.125, 72)" id="flowchart-LOGS-9" class="node default"><rect height="54" width="146.4375" y="-27" x="-73.21875" style="" class="basic label-container"/><g transform="translate(-43.21875, -12)" style="" class="label"><rect/><foreignObject height="24" width="86.4375"><div style="display: table-cell; white-space: nowrap; line-height: 1.5; max-width: 200px; text-align: center;" xmlns="http://www.w3.org/1999/xhtml"><span class="nodeLabel"><p>System Logs</p></span></div></foreignObject></g></g><g transform="translate(1474.4609375, 72)" id="flowchart-ANALYTICS-10" class="node default"><rect height="54" width="160.234375" y="-27" x="-80.1171875" style="" class="basic label-container"/><g transform="translate(-50.1171875, -12)" style="" class="label"><rect/><foreignObject height="24" width="100.234375"><div style="display: table-cell; white-space: nowrap; line-height: 1.5; max-width: 200px; text-align: center;" xmlns="http://www.w3.org/1999/xhtml"><span class="nodeLabel"><p>User Analytics</p></span></div></foreignObject></g></g><g transform="translate(1693.5703125, 72)" id="flowchart-ML_DATA-11" class="node default"><rect height="54" width="177.984375" y="-27" x="-88.9921875" style="" class="basic label-container"/><g transform="translate(-58.9921875, -12)" style="" class="label"><rect/><foreignObject height="24" width="117.984375"><div style="display: table-cell; white-space: nowrap; line-height: 1.5; max-width: 200px; text-align: center;" xmlns="http://www.w3.org/1999/xhtml"><span class="nodeLabel"><p>ML Training Data</p></span></div></foreignObject></g></g></g></g></g></svg>