<svg class="mermaid-svg" aria-roledescription="class" role="graphics-document document" viewBox="0 0 1585.40625 626" style="max-width: 1585.41px; background-color: transparent;" class="classDiagram" xmlns:xlink="http://www.w3.org/1999/xlink" xmlns="http://www.w3.org/2000/svg"  id="my-svg"><style>#my-svg{font-family:"trebuchet ms",verdana,arial,sans-serif;font-size:16px;fill:#ccc;}@keyframes edge-animation-frame{from{stroke-dashoffset:0;}}@keyframes dash{to{stroke-dashoffset:0;}}#my-svg .edge-animation-slow{stroke-dasharray:9,5!important;stroke-dashoffset:900;animation:dash 50s linear infinite;stroke-linecap:round;}#my-svg .edge-animation-fast{stroke-dasharray:9,5!important;stroke-dashoffset:900;animation:dash 20s linear infinite;stroke-linecap:round;}#my-svg .error-icon{fill:#a44141;}#my-svg .error-text{fill:#ddd;stroke:#ddd;}#my-svg .edge-thickness-normal{stroke-width:1px;}#my-svg .edge-thickness-thick{stroke-width:3.5px;}#my-svg .edge-pattern-solid{stroke-dasharray:0;}#my-svg .edge-thickness-invisible{stroke-width:0;fill:none;}#my-svg .edge-pattern-dashed{stroke-dasharray:3;}#my-svg .edge-pattern-dotted{stroke-dasharray:2;}#my-svg .marker{fill:lightgrey;stroke:lightgrey;}#my-svg .marker.cross{stroke:lightgrey;}#my-svg svg{font-family:"trebuchet ms",verdana,arial,sans-serif;font-size:16px;}#my-svg p{margin:0;}#my-svg g.classGroup text{fill:#ccc;stroke:none;font-family:"trebuchet ms",verdana,arial,sans-serif;font-size:10px;}#my-svg g.classGroup text .title{font-weight:bolder;}#my-svg .nodeLabel,#my-svg .edgeLabel{color:#e0dfdf;}#my-svg .edgeLabel .label rect{fill:#1f2020;}#my-svg .label text{fill:#e0dfdf;}#my-svg .labelBkg{background:#1f2020;}#my-svg .edgeLabel .label span{background:#1f2020;}#my-svg .classTitle{font-weight:bolder;}#my-svg .node rect,#my-svg .node circle,#my-svg .node ellipse,#my-svg .node polygon,#my-svg .node path{fill:#1f2020;stroke:#ccc;stroke-width:1px;}#my-svg .divider{stroke:#ccc;stroke-width:1;}#my-svg g.clickable{cursor:pointer;}#my-svg g.classGroup rect{fill:#1f2020;stroke:#ccc;}#my-svg g.classGroup line{stroke:#ccc;stroke-width:1;}#my-svg .classLabel .box{stroke:none;stroke-width:0;fill:#1f2020;opacity:0.5;}#my-svg .classLabel .label{fill:#ccc;font-size:10px;}#my-svg .relation{stroke:lightgrey;stroke-width:1;fill:none;}#my-svg .dashed-line{stroke-dasharray:3;}#my-svg .dotted-line{stroke-dasharray:1 2;}#my-svg #compositionStart,#my-svg .composition{fill:lightgrey!important;stroke:lightgrey!important;stroke-width:1;}#my-svg #compositionEnd,#my-svg .composition{fill:lightgrey!important;stroke:lightgrey!important;stroke-width:1;}#my-svg #dependencyStart,#my-svg .dependency{fill:lightgrey!important;stroke:lightgrey!important;stroke-width:1;}#my-svg #dependencyStart,#my-svg .dependency{fill:lightgrey!important;stroke:lightgrey!important;stroke-width:1;}#my-svg #extensionStart,#my-svg .extension{fill:transparent!important;stroke:lightgrey!important;stroke-width:1;}#my-svg #extensionEnd,#my-svg .extension{fill:transparent!important;stroke:lightgrey!important;stroke-width:1;}#my-svg #aggregationStart,#my-svg .aggregation{fill:transparent!important;stroke:lightgrey!important;stroke-width:1;}#my-svg #aggregationEnd,#my-svg .aggregation{fill:transparent!important;stroke:lightgrey!important;stroke-width:1;}#my-svg #lollipopStart,#my-svg .lollipop{fill:#1f2020!important;stroke:lightgrey!important;stroke-width:1;}#my-svg #lollipopEnd,#my-svg .lollipop{fill:#1f2020!important;stroke:lightgrey!important;stroke-width:1;}#my-svg .edgeTerminals{font-size:11px;line-height:initial;}#my-svg .classTitleText{text-anchor:middle;font-size:18px;fill:#ccc;}#my-svg .label-icon{display:inline-block;height:1em;overflow:visible;vertical-align:-0.125em;}#my-svg .node .label-icon path{fill:currentColor;stroke:revert;stroke-width:revert;}#my-svg :root{--mermaid-font-family:"trebuchet ms",verdana,arial,sans-serif;}</style><g><defs><marker orient="auto" markerHeight="240" markerWidth="190" refY="7" refX="18" class="marker aggregation class" id="my-svg_class-aggregationStart"><path d="M 18,7 L9,13 L1,7 L9,1 Z"/></marker></defs><defs><marker orient="auto" markerHeight="28" markerWidth="20" refY="7" refX="1" class="marker aggregation class" id="my-svg_class-aggregationEnd"><path d="M 18,7 L9,13 L1,7 L9,1 Z"/></marker></defs><defs><marker orient="auto" markerHeight="240" markerWidth="190" refY="7" refX="18" class="marker extension class" id="my-svg_class-extensionStart"><path d="M 1,7 L18,13 V 1 Z"/></marker></defs><defs><marker orient="auto" markerHeight="28" markerWidth="20" refY="7" refX="1" class="marker extension class" id="my-svg_class-extensionEnd"><path d="M 1,1 V 13 L18,7 Z"/></marker></defs><defs><marker orient="auto" markerHeight="240" markerWidth="190" refY="7" refX="18" class="marker composition class" id="my-svg_class-compositionStart"><path d="M 18,7 L9,13 L1,7 L9,1 Z"/></marker></defs><defs><marker orient="auto" markerHeight="28" markerWidth="20" refY="7" refX="1" class="marker composition class" id="my-svg_class-compositionEnd"><path d="M 18,7 L9,13 L1,7 L9,1 Z"/></marker></defs><defs><marker orient="auto" markerHeight="240" markerWidth="190" refY="7" refX="6" class="marker dependency class" id="my-svg_class-dependencyStart"><path d="M 5,7 L9,13 L1,7 L9,1 Z"/></marker></defs><defs><marker orient="auto" markerHeight="28" markerWidth="20" refY="7" refX="13" class="marker dependency class" id="my-svg_class-dependencyEnd"><path d="M 18,7 L9,13 L14,7 L9,1 Z"/></marker></defs><defs><marker orient="auto" markerHeight="240" markerWidth="190" refY="7" refX="13" class="marker lollipop class" id="my-svg_class-lollipopStart"><circle r="6" cy="7" cx="7" fill="transparent" stroke="black"/></marker></defs><defs><marker orient="auto" markerHeight="240" markerWidth="190" refY="7" refX="1" class="marker lollipop class" id="my-svg_class-lollipopEnd"><circle r="6" cy="7" cx="7" fill="transparent" stroke="black"/></marker></defs><g class="root"><g class="clusters"/><g class="edgePaths"><path marker-start="url(#my-svg_class-aggregationStart)" style="" class="edge-thickness-normal edge-pattern-solid relation" id="id_Hotel_Room_1" d="M550.328,427L550.328,430.667C550.328,434.333,550.328,441.667,553.571,449.5C556.814,457.333,563.301,465.667,566.544,469.833L569.787,474"/><path style="" class="edge-thickness-normal edge-pattern-solid relation" id="id_Reservation_Guest_2" d="M469.766,171.361L433.288,184.3C396.81,197.24,323.854,223.12,287.376,242.727C250.898,262.333,250.898,275.667,250.898,282.333L250.898,289"/><path style="" class="edge-thickness-normal edge-pattern-solid relation" id="id_Reservation_Hotel_3" d="M564.52,224L562.155,228.167C559.789,232.333,555.059,240.667,552.693,251.5C550.328,262.333,550.328,275.667,550.328,282.333L550.328,289"/><path style="" class="edge-thickness-normal edge-pattern-solid relation" id="id_Reservation_Room_4" d="M763.023,224L768.316,228.167C773.609,232.333,784.195,240.667,789.488,261.5C794.781,282.333,794.781,315.667,794.781,349C794.781,382.333,794.781,415.667,787.524,436.5C780.266,457.333,765.752,465.667,758.494,469.833L751.237,474"/><path marker-end="url(#my-svg_class-dependencyEnd)" style="" class="edge-thickness-normal edge-pattern-dashed relation" id="id_HotelService_Inventory_5" d="M1138.508,185.438L1120.199,196.032C1101.891,206.626,1065.273,227.813,1046.965,241.573C1028.656,255.333,1028.656,261.667,1028.656,264.833L1028.656,268"/><path marker-end="url(#my-svg_class-dependencyEnd)" style="" class="edge-thickness-normal edge-pattern-dashed relation" id="id_HotelService_PricingStrategy_6" d="M1378.523,210.47L1386.681,216.892C1394.839,223.313,1411.154,236.157,1419.311,245.745C1427.469,255.333,1427.469,261.667,1427.469,264.833L1427.469,268"/></g><g class="edgeLabels"><g class="edgeLabel"><g transform="translate(0, -12)" class="label"><foreignObject  width="0"><div class="labelBkg" xmlns="http://www.w3.org/1999/xhtml" style="display: table-cell; white-space: nowrap; line-height: 1.5; max-width: 200px; text-align: center;"><span class="edgeLabel" style=";display: inline-block"></span></div></foreignObject></g></g><g class="edgeLabel"><g transform="translate(0, -12)" class="label"><foreignObject height="24" width="0"><div class="labelBkg" xmlns="http://www.w3.org/1999/xhtml" style="display: table-cell; white-space: nowrap; line-height: 1.5; max-width: 200px; text-align: center;"><span class="edgeLabel" style=";display: inline-block"></span></div></foreignObject></g></g><g class="edgeLabel"><g transform="translate(0, -12)" class="label"><foreignObject height="24" width="0"><div class="labelBkg" xmlns="http://www.w3.org/1999/xhtml" style="display: table-cell; white-space: nowrap; line-height: 1.5; max-width: 200px; text-align: center;"><span class="edgeLabel" style=";display: inline-block"></span></div></foreignObject></g></g><g class="edgeLabel"><g transform="translate(0, -12)" class="label"><foreignObject height="24" width="0"><div class="labelBkg" xmlns="http://www.w3.org/1999/xhtml" style="display: table-cell; white-space: nowrap; line-height: 1.5; max-width: 200px; text-align: center;"><span class="edgeLabel" style=";display: inline-block"></span></div></foreignObject></g></g><g class="edgeLabel"><g transform="translate(0, -12)" class="label"><foreignObject height="24" width="0"><div class="labelBkg" xmlns="http://www.w3.org/1999/xhtml" style="display: table-cell; white-space: nowrap; line-height: 1.5; max-width: 200px; text-align: center;"><span class="edgeLabel" style=";display: inline-block"></span></div></foreignObject></g></g><g class="edgeLabel"><g transform="translate(0, -12)" class="label"><foreignObject height="24" width="0"><div class="labelBkg" xmlns="http://www.w3.org/1999/xhtml" style="display: table-cell; white-space: nowrap; line-height: 1.5; max-width: 200px; text-align: center;"><span class="edgeLabel" style=";display: inline-block"></span></div></foreignObject></g></g></g><g class="nodes"><g transform="translate(550.328125, 349)" id="classId-Hotel-0" class="node default"><g class="basic label-container"><path style="" fill="#1f2020" stroke-width="0" stroke="none" d="M-116 -60 L116 -60 L116 60 L-116 60"/><path style="" stroke-dasharray="0 0" fill="none" stroke-width="1.3" stroke="#ccc" d="M-116 -60 C-47.408090754350496 -60, 21.183818491299007 -60, 116 -60 M-116 -60 C-63.76953896061762 -60, -11.539077921235247 -60, 116 -60 M116 -60 C116 -13.517383366151755, 116 32.96523326769649, 116 60 M116 -60 C116 -25.937336200727607, 116 8.125327598544786, 116 60 M116 60 C66.34249569308892 60, 16.684991386177856 60, -116 60 M116 60 C45.8268157958407 60, -24.346368408318597 60, -116 60 M-116 60 C-116 22.733639509118888, -116 -14.532720981762225, -116 -60 M-116 60 C-116 34.50695435050531, -116 9.013908701010628, -116 -60"/></g><g transform="translate(0, -36)" class="annotation-group text"/><g transform="translate(-20.125, -36)" class="label-group text"><g transform="translate(0,-12)" style="font-weight: bolder" class="label"><foreignObject height="24" width="40.25"><div style="display: table-cell; white-space: nowrap; line-height: 1.5; max-width: 86px; text-align: center;" xmlns="http://www.w3.org/1999/xhtml"><span style="" class="nodeLabel markdown-node-label"><p>Hotel</p></span></div></foreignObject></g></g><g transform="translate(-104, 12)" class="members-group text"><g transform="translate(0,-12)" style="" class="label"><foreignObject height="24" width="187.875"><div style="display: table-cell; white-space: nowrap; line-height: 1.5; max-width: 219px; text-align: center;" xmlns="http://www.w3.org/1999/xhtml"><span style="" class="nodeLabel markdown-node-label"><p>-id, name, address, rooms</p></span></div></foreignObject></g></g><g transform="translate(-104, 60)" class="methods-group text"/><g style="" class="divider"><path style="" stroke-dasharray="0 0" fill="none" stroke-width="1.3" stroke="#ccc" d="M-116 -12 C-55.092992888391905 -12, 5.814014223216191 -12, 116 -12 M-116 -12 C-41.29676036288038 -12, 33.406479274239246 -12, 116 -12"/></g><g style="" class="divider"><path style="" stroke-dasharray="0 0" fill="none" stroke-width="1.3" stroke="#ccc" d="M-116 36 C-44.58542412243543 36, 26.829151755129146 36, 116 36 M-116 36 C-29.452692261106108 36, 57.094615477787784 36, 116 36"/></g></g><g transform="translate(76.046875, 116)" id="classId-RoomType-1" class="node default"><g class="basic label-container"><path style="" fill="#1f2020" stroke-width="0" stroke="none" d="M-68.046875 -96 L68.046875 -96 L68.046875 96 L-68.046875 96"/><path style="" stroke-dasharray="0 0" fill="none" stroke-width="1.3" stroke="#ccc" d="M-68.046875 -96 C-38.77177283620386 -96, -9.496670672407717 -96, 68.046875 -96 M-68.046875 -96 C-37.404382942808276 -96, -6.761890885616552 -96, 68.046875 -96 M68.046875 -96 C68.046875 -45.25243857939875, 68.046875 5.495122841202502, 68.046875 96 M68.046875 -96 C68.046875 -22.175860432183725, 68.046875 51.64827913563255, 68.046875 96 M68.046875 96 C16.363583574557843 96, -35.31970785088431 96, -68.046875 96 M68.046875 96 C26.576941014553654 96, -14.892992970892692 96, -68.046875 96 M-68.046875 96 C-68.046875 51.17996159453327, -68.046875 6.359923189066535, -68.046875 -96 M-68.046875 96 C-68.046875 51.49839567162594, -68.046875 6.996791343251886, -68.046875 -96"/></g><g transform="translate(-28.140625, -72)" class="annotation-group text"><g transform="translate(0,-12)" style="" class="label"><foreignObject height="24" width="56.28125"><div style="display: table-cell; white-space: nowrap; line-height: 1.5; max-width: 102px; text-align: center;" xmlns="http://www.w3.org/1999/xhtml"><span style="" class="nodeLabel markdown-node-label"><p>«enum»</p></span></div></foreignObject></g></g><g transform="translate(-38.640625, -48)" class="label-group text"><g transform="translate(0,-12)" style="font-weight: bolder" class="label"><foreignObject height="24" width="77.28125"><div style="display: table-cell; white-space: nowrap; line-height: 1.5; max-width: 121px; text-align: center;" xmlns="http://www.w3.org/1999/xhtml"><span style="" class="nodeLabel markdown-node-label"><p>RoomType</p></span></div></foreignObject></g></g><g transform="translate(-56.046875, 0)" class="members-group text"><g transform="translate(0,-12)" style="" class="label"><foreignObject height="24" width="73.453125"><div style="display: table-cell; white-space: nowrap; line-height: 1.5; max-width: 136px; text-align: center;" xmlns="http://www.w3.org/1999/xhtml"><span style="" class="nodeLabel markdown-node-label"><p>STANDARD</p></span></div></foreignObject></g><g transform="translate(0,12)" style="" class="label"><foreignObject height="24" width="54.34375"><div style="display: table-cell; white-space: nowrap; line-height: 1.5; max-width: 114px; text-align: center;" xmlns="http://www.w3.org/1999/xhtml"><span style="" class="nodeLabel markdown-node-label"><p>DELUXE</p></span></div></foreignObject></g><g transform="translate(0,36)" style="" class="label"><foreignObject height="24" width="40.390625"><div style="display: table-cell; white-space: nowrap; line-height: 1.5; max-width: 95px; text-align: center;" xmlns="http://www.w3.org/1999/xhtml"><span style="" class="nodeLabel markdown-node-label"><p>SUITE</p></span></div></foreignObject></g></g><g transform="translate(-56.046875, 96)" class="methods-group text"/><g style="" class="divider"><path style="" stroke-dasharray="0 0" fill="none" stroke-width="1.3" stroke="#ccc" d="M-68.046875 -24 C-38.55456699805394 -24, -9.062258996107886 -24, 68.046875 -24 M-68.046875 -24 C-29.18478100981789 -24, 9.67731298036422 -24, 68.046875 -24"/></g><g style="" class="divider"><path style="" stroke-dasharray="0 0" fill="none" stroke-width="1.3" stroke="#ccc" d="M-68.046875 72 C-39.32054709192159 72, -10.59421918384318 72, 68.046875 72 M-68.046875 72 C-38.5802126563396 72, -9.113550312679202 72, 68.046875 72"/></g></g><g transform="translate(625.828125, 546)" id="classId-Room-2" class="node default"><g class="basic label-container"><path style="" fill="#1f2020" stroke-width="0" stroke="none" d="M-142.52734375 -72 L142.52734375 -72 L142.52734375 72 L-142.52734375 72"/><path style="" stroke-dasharray="0 0" fill="none" stroke-width="1.3" stroke="#ccc" d="M-142.52734375 -72 C-60.46230366516738 -72, 21.602736419665234 -72, 142.52734375 -72 M-142.52734375 -72 C-65.86206369863791 -72, 10.803216352724178 -72, 142.52734375 -72 M142.52734375 -72 C142.52734375 -21.464243401669314, 142.52734375 29.07151319666137, 142.52734375 72 M142.52734375 -72 C142.52734375 -32.91304548085367, 142.52734375 6.173909038292663, 142.52734375 72 M142.52734375 72 C44.32025178335948 72, -53.88684018328104 72, -142.52734375 72 M142.52734375 72 C60.67165217661548 72, -21.184039396769037 72, -142.52734375 72 M-142.52734375 72 C-142.52734375 37.432686210939906, -142.52734375 2.865372421879812, -142.52734375 -72 M-142.52734375 72 C-142.52734375 22.651059691226678, -142.52734375 -26.697880617546645, -142.52734375 -72"/></g><g transform="translate(0, -48)" class="annotation-group text"/><g transform="translate(-20.8203125, -48)" class="label-group text"><g transform="translate(0,-12)" style="font-weight: bolder" class="label"><foreignObject height="24" width="41.640625"><div style="display: table-cell; white-space: nowrap; line-height: 1.5; max-width: 89px; text-align: center;" xmlns="http://www.w3.org/1999/xhtml"><span style="" class="nodeLabel markdown-node-label"><p>Room</p></span></div></foreignObject></g></g><g transform="translate(-130.52734375, 0)" class="members-group text"><g transform="translate(0,-12)" style="" class="label"><foreignObject height="24" width="240.234375"><div style="display: table-cell; white-space: nowrap; line-height: 1.5; max-width: 265px; text-align: center;" xmlns="http://www.w3.org/1999/xhtml"><span style="" class="nodeLabel markdown-node-label"><p>-roomNumber, type, hotel, status</p></span></div></foreignObject></g><g transform="translate(0,12)" style="" class="label"><foreignObject height="24" width="191"><div style="display: table-cell; white-space: nowrap; line-height: 1.5; max-width: 233px; text-align: center;" xmlns="http://www.w3.org/1999/xhtml"><span style="" class="nodeLabel markdown-node-label"><p>-basePricePerNight: Money</p></span></div></foreignObject></g></g><g transform="translate(-130.52734375, 72)" class="methods-group text"/><g style="" class="divider"><path style="" stroke-dasharray="0 0" fill="none" stroke-width="1.3" stroke="#ccc" d="M-142.52734375 -24 C-68.42078306030729 -24, 5.685777629385427 -24, 142.52734375 -24 M-142.52734375 -24 C-60.80014531685815 -24, 20.9270531162837 -24, 142.52734375 -24"/></g><g style="" class="divider"><path style="" stroke-dasharray="0 0" fill="none" stroke-width="1.3" stroke="#ccc" d="M-142.52734375 48 C-45.66071613170773 48, 51.20591148658454 48, 142.52734375 48 M-142.52734375 48 C-51.12752426655602 48, 40.272295216887954 48, 142.52734375 48"/></g></g><g transform="translate(306.9296875, 116)" id="classId-RoomStatus-3" class="node default"><g class="basic label-container"><path style="" fill="#1f2020" stroke-width="0" stroke="none" d="M-112.8359375 -96 L112.8359375 -96 L112.8359375 96 L-112.8359375 96"/><path style="" stroke-dasharray="0 0" fill="none" stroke-width="1.3" stroke="#ccc" d="M-112.8359375 -96 C-31.684483210119026 -96, 49.46697107976195 -96, 112.8359375 -96 M-112.8359375 -96 C-48.737347480333156 -96, 15.361242539333688 -96, 112.8359375 -96 M112.8359375 -96 C112.8359375 -24.81348108402699, 112.8359375 46.37303783194602, 112.8359375 96 M112.8359375 -96 C112.8359375 -48.20256238833264, 112.8359375 -0.405124776665275, 112.8359375 96 M112.8359375 96 C31.455559708224584 96, -49.92481808355083 96, -112.8359375 96 M112.8359375 96 C63.48580928490053 96, 14.135681069801066 96, -112.8359375 96 M-112.8359375 96 C-112.8359375 28.196593644429115, -112.8359375 -39.60681271114177, -112.8359375 -96 M-112.8359375 96 C-112.8359375 31.314239189554883, -112.8359375 -33.371521620890235, -112.8359375 -96"/></g><g transform="translate(-28.140625, -72)" class="annotation-group text"><g transform="translate(0,-12)" style="" class="label"><foreignObject height="24" width="56.28125"><div style="display: table-cell; white-space: nowrap; line-height: 1.5; max-width: 102px; text-align: center;" xmlns="http://www.w3.org/1999/xhtml"><span style="" class="nodeLabel markdown-node-label"><p>«enum»</p></span></div></foreignObject></g></g><g transform="translate(-43.6875, -48)" class="label-group text"><g transform="translate(0,-12)" style="font-weight: bolder" class="label"><foreignObject height="24" width="87.375"><div style="display: table-cell; white-space: nowrap; line-height: 1.5; max-width: 128px; text-align: center;" xmlns="http://www.w3.org/1999/xhtml"><span style="" class="nodeLabel markdown-node-label"><p>RoomStatus</p></span></div></foreignObject></g></g><g transform="translate(-100.8359375, 0)" class="members-group text"><g transform="translate(0,-12)" style="" class="label"><foreignObject height="24" width="72.953125"><div style="display: table-cell; white-space: nowrap; line-height: 1.5; max-width: 137px; text-align: center;" xmlns="http://www.w3.org/1999/xhtml"><span style="" class="nodeLabel markdown-node-label"><p>AVAILABLE</p></span></div></foreignObject></g><g transform="translate(0,12)" style="" class="label"><foreignObject height="24" width="72.0625"><div style="display: table-cell; white-space: nowrap; line-height: 1.5; max-width: 130px; text-align: center;" xmlns="http://www.w3.org/1999/xhtml"><span style="" class="nodeLabel markdown-node-label"><p>OCCUPIED</p></span></div></foreignObject></g><g transform="translate(0,36)" style="" class="label"><foreignObject height="24" width="157.984375"><div style="display: table-cell; white-space: nowrap; line-height: 1.5; max-width: 230px; text-align: center;" xmlns="http://www.w3.org/1999/xhtml"><span style="" class="nodeLabel markdown-node-label"><p>UNDER_MAINTENANCE</p></span></div></foreignObject></g></g><g transform="translate(-100.8359375, 96)" class="methods-group text"/><g style="" class="divider"><path style="" stroke-dasharray="0 0" fill="none" stroke-width="1.3" stroke="#ccc" d="M-112.8359375 -24 C-36.66886558340428 -24, 39.49820633319143 -24, 112.8359375 -24 M-112.8359375 -24 C-50.341212530960284 -24, 12.153512438079431 -24, 112.8359375 -24"/></g><g style="" class="divider"><path style="" stroke-dasharray="0 0" fill="none" stroke-width="1.3" stroke="#ccc" d="M-112.8359375 72 C-25.840731254876246 72, 61.15447499024751 72, 112.8359375 72 M-112.8359375 72 C-35.46843377945656 72, 41.89906994108688 72, 112.8359375 72"/></g></g><g transform="translate(250.8984375, 349)" id="classId-Guest-4" class="node default"><g class="basic label-container"><path style="" fill="#1f2020" stroke-width="0" stroke="none" d="M-133.4296875 -60 L133.4296875 -60 L133.4296875 60 L-133.4296875 60"/><path style="" stroke-dasharray="0 0" fill="none" stroke-width="1.3" stroke="#ccc" d="M-133.4296875 -60 C-56.35704931889401 -60, 20.715588862211973 -60, 133.4296875 -60 M-133.4296875 -60 C-44.37325823611026 -60, 44.68317102777948 -60, 133.4296875 -60 M133.4296875 -60 C133.4296875 -33.91006145034226, 133.4296875 -7.820122900684524, 133.4296875 60 M133.4296875 -60 C133.4296875 -15.769405828078689, 133.4296875 28.461188343842622, 133.4296875 60 M133.4296875 60 C70.26512610216403 60, 7.10056470432805 60, -133.4296875 60 M133.4296875 60 C33.623755199108274 60, -66.18217710178345 60, -133.4296875 60 M-133.4296875 60 C-133.4296875 29.958194640443136, -133.4296875 -0.08361071911372875, -133.4296875 -60 M-133.4296875 60 C-133.4296875 14.305326854239944, -133.4296875 -31.389346291520113, -133.4296875 -60"/></g><g transform="translate(0, -36)" class="annotation-group text"/><g transform="translate(-21.3125, -36)" class="label-group text"><g transform="translate(0,-12)" style="font-weight: bolder" class="label"><foreignObject height="24" width="42.625"><div style="display: table-cell; white-space: nowrap; line-height: 1.5; max-width: 87px; text-align: center;" xmlns="http://www.w3.org/1999/xhtml"><span style="" class="nodeLabel markdown-node-label"><p>Guest</p></span></div></foreignObject></g></g><g transform="translate(-121.4296875, 12)" class="members-group text"><g transform="translate(0,-12)" style="" class="label"><foreignObject height="24" width="221.546875"><div style="display: table-cell; white-space: nowrap; line-height: 1.5; max-width: 248px; text-align: center;" xmlns="http://www.w3.org/1999/xhtml"><span style="" class="nodeLabel markdown-node-label"><p>-id, name, contact, loyaltyTier</p></span></div></foreignObject></g></g><g transform="translate(-121.4296875, 60)" class="methods-group text"/><g style="" class="divider"><path style="" stroke-dasharray="0 0" fill="none" stroke-width="1.3" stroke="#ccc" d="M-133.4296875 -12 C-27.63182227076679 -12, 78.16604295846642 -12, 133.4296875 -12 M-133.4296875 -12 C-50.059745850251446 -12, 33.31019579949711 -12, 133.4296875 -12"/></g><g style="" class="divider"><path style="" stroke-dasharray="0 0" fill="none" stroke-width="1.3" stroke="#ccc" d="M-133.4296875 36 C-46.69072440879242 36, 40.04823868241516 36, 133.4296875 36 M-133.4296875 36 C-49.96502882899327 36, 33.49962984201346 36, 133.4296875 36"/></g></g><g transform="translate(625.828125, 116)" id="classId-Reservation-5" class="node default"><g class="basic label-container"><path style="" fill="#1f2020" stroke-width="0" stroke="none" d="M-156.0625 -108 L156.0625 -108 L156.0625 108 L-156.0625 108"/><path style="" stroke-dasharray="0 0" fill="none" stroke-width="1.3" stroke="#ccc" d="M-156.0625 -108 C-57.18002138017404 -108, 41.70245723965192 -108, 156.0625 -108 M-156.0625 -108 C-81.52670869364496 -108, -6.990917387289926 -108, 156.0625 -108 M156.0625 -108 C156.0625 -32.359171503966465, 156.0625 43.28165699206707, 156.0625 108 M156.0625 -108 C156.0625 -48.255491465673245, 156.0625 11.48901706865351, 156.0625 108 M156.0625 108 C49.012964233111006 108, -58.03657153377799 108, -156.0625 108 M156.0625 108 C92.2424067453318 108, 28.422313490663626 108, -156.0625 108 M-156.0625 108 C-156.0625 43.83317786990044, -156.0625 -20.333644260199122, -156.0625 -108 M-156.0625 108 C-156.0625 59.10223504428918, -156.0625 10.204470088578361, -156.0625 -108"/></g><g transform="translate(0, -84)" class="annotation-group text"/><g transform="translate(-44.234375, -84)" class="label-group text"><g transform="translate(0,-12)" style="font-weight: bolder" class="label"><foreignObject height="24" width="88.46875"><div style="display: table-cell; white-space: nowrap; line-height: 1.5; max-width: 126px; text-align: center;" xmlns="http://www.w3.org/1999/xhtml"><span style="" class="nodeLabel markdown-node-label"><p>Reservation</p></span></div></foreignObject></g></g><g transform="translate(-144.0625, -36)" class="members-group text"><g transform="translate(0,-12)" style="" class="label"><foreignObject height="24" width="243.890625"><div style="display: table-cell; white-space: nowrap; line-height: 1.5; max-width: 269px; text-align: center;" xmlns="http://www.w3.org/1999/xhtml"><span style="" class="nodeLabel markdown-node-label"><p>-id, guest, hotel, roomType, room</p></span></div></foreignObject></g><g transform="translate(0,12)" style="" class="label"><foreignObject height="24" width="142.171875"><div style="display: table-cell; white-space: nowrap; line-height: 1.5; max-width: 185px; text-align: center;" xmlns="http://www.w3.org/1999/xhtml"><span style="" class="nodeLabel markdown-node-label"><p>-checkIn: LocalDate</p></span></div></foreignObject></g><g transform="translate(0,36)" style="" class="label"><foreignObject height="24" width="154.84375"><div style="display: table-cell; white-space: nowrap; line-height: 1.5; max-width: 196px; text-align: center;" xmlns="http://www.w3.org/1999/xhtml"><span style="" class="nodeLabel markdown-node-label"><p>-checkOut: LocalDate</p></span></div></foreignObject></g><g transform="translate(0,60)" style="" class="label"><foreignObject height="24" width="186.65625"><div style="display: table-cell; white-space: nowrap; line-height: 1.5; max-width: 220px; text-align: center;" xmlns="http://www.w3.org/1999/xhtml"><span style="" class="nodeLabel markdown-node-label"><p>-status: ReservationStatus</p></span></div></foreignObject></g><g transform="translate(0,84)" style="" class="label"><foreignObject height="24" width="81.015625"><div style="display: table-cell; white-space: nowrap; line-height: 1.5; max-width: 125px; text-align: center;" xmlns="http://www.w3.org/1999/xhtml"><span style="" class="nodeLabel markdown-node-label"><p>-guests: int</p></span></div></foreignObject></g></g><g transform="translate(-144.0625, 108)" class="methods-group text"/><g style="" class="divider"><path style="" stroke-dasharray="0 0" fill="none" stroke-width="1.3" stroke="#ccc" d="M-156.0625 -60 C-53.88509300093072 -60, 48.29231399813855 -60, 156.0625 -60 M-156.0625 -60 C-51.25310910460354 -60, 53.55628179079292 -60, 156.0625 -60"/></g><g style="" class="divider"><path style="" stroke-dasharray="0 0" fill="none" stroke-width="1.3" stroke="#ccc" d="M-156.0625 84 C-53.98990628222646 84, 48.082687435547086 84, 156.0625 84 M-156.0625 84 C-41.61642257434819 84, 72.82965485130362 84, 156.0625 84"/></g></g><g transform="translate(929.74609375, 116)" id="classId-ReservationStatus-6" class="node default"><g class="basic label-container"><path style="" fill="#1f2020" stroke-width="0" stroke="none" d="M-97.85546875 -108 L97.85546875 -108 L97.85546875 108 L-97.85546875 108"/><path style="" stroke-dasharray="0 0" fill="none" stroke-width="1.3" stroke="#ccc" d="M-97.85546875 -108 C-28.643494347225058 -108, 40.568480055549884 -108, 97.85546875 -108 M-97.85546875 -108 C-45.7378844800995 -108, 6.379699789800995 -108, 97.85546875 -108 M97.85546875 -108 C97.85546875 -55.247265181955456, 97.85546875 -2.4945303639109113, 97.85546875 108 M97.85546875 -108 C97.85546875 -42.278135044622985, 97.85546875 23.44372991075403, 97.85546875 108 M97.85546875 108 C39.199148180505105 108, -19.45717238898979 108, -97.85546875 108 M97.85546875 108 C57.03186439232948 108, 16.208260034658963 108, -97.85546875 108 M-97.85546875 108 C-97.85546875 41.41499758622798, -97.85546875 -25.170004827544034, -97.85546875 -108 M-97.85546875 108 C-97.85546875 34.00844204927738, -97.85546875 -39.983115901445245, -97.85546875 -108"/></g><g transform="translate(-28.140625, -84)" class="annotation-group text"><g transform="translate(0,-12)" style="" class="label"><foreignObject height="24" width="56.28125"><div style="display: table-cell; white-space: nowrap; line-height: 1.5; max-width: 102px; text-align: center;" xmlns="http://www.w3.org/1999/xhtml"><span style="" class="nodeLabel markdown-node-label"><p>«enum»</p></span></div></foreignObject></g></g><g transform="translate(-67.1015625, -60)" class="label-group text"><g transform="translate(0,-12)" style="font-weight: bolder" class="label"><foreignObject height="24" width="134.203125"><div style="display: table-cell; white-space: nowrap; line-height: 1.5; max-width: 166px; text-align: center;" xmlns="http://www.w3.org/1999/xhtml"><span style="" class="nodeLabel markdown-node-label"><p>ReservationStatus</p></span></div></foreignObject></g></g><g transform="translate(-85.85546875, -12)" class="members-group text"><g transform="translate(0,-12)" style="" class="label"><foreignObject height="24" width="82.46875"><div style="display: table-cell; white-space: nowrap; line-height: 1.5; max-width: 144px; text-align: center;" xmlns="http://www.w3.org/1999/xhtml"><span style="" class="nodeLabel markdown-node-label"><p>CONFIRMED</p></span></div></foreignObject></g><g transform="translate(0,12)" style="" class="label"><foreignObject height="24" width="88.828125"><div style="display: table-cell; white-space: nowrap; line-height: 1.5; max-width: 150px; text-align: center;" xmlns="http://www.w3.org/1999/xhtml"><span style="" class="nodeLabel markdown-node-label"><p>CHECKED_IN</p></span></div></foreignObject></g><g transform="translate(0,36)" style="" class="label"><foreignObject height="24" width="104.609375"><div style="display: table-cell; white-space: nowrap; line-height: 1.5; max-width: 166px; text-align: center;" xmlns="http://www.w3.org/1999/xhtml"><span style="" class="nodeLabel markdown-node-label"><p>CHECKED_OUT</p></span></div></foreignObject></g><g transform="translate(0,60)" style="" class="label"><foreignObject height="24" width="81.953125"><div style="display: table-cell; white-space: nowrap; line-height: 1.5; max-width: 145px; text-align: center;" xmlns="http://www.w3.org/1999/xhtml"><span style="" class="nodeLabel markdown-node-label"><p>CANCELLED</p></span></div></foreignObject></g></g><g transform="translate(-85.85546875, 108)" class="methods-group text"/><g style="" class="divider"><path style="" stroke-dasharray="0 0" fill="none" stroke-width="1.3" stroke="#ccc" d="M-97.85546875 -36 C-55.860678913286 -36, -13.865889076572003 -36, 97.85546875 -36 M-97.85546875 -36 C-46.36048348561926 -36, 5.134501778761475 -36, 97.85546875 -36"/></g><g style="" class="divider"><path style="" stroke-dasharray="0 0" fill="none" stroke-width="1.3" stroke="#ccc" d="M-97.85546875 84 C-55.736333759760555 84, -13.61719876952111 84, 97.85546875 84 M-97.85546875 84 C-23.693944538393467 84, 50.467579673213066 84, 97.85546875 84"/></g></g><g transform="translate(1028.65625, 349)" id="classId-Inventory-7" class="node default"><g class="basic label-container"><path style="" fill="#1f2020" stroke-width="0" stroke="none" d="M-198.875 -75 L198.875 -75 L198.875 75 L-198.875 75"/><path style="" stroke-dasharray="0 0" fill="none" stroke-width="1.3" stroke="#ccc" d="M-198.875 -75 C-82.07264676781793 -75, 34.72970646436414 -75, 198.875 -75 M-198.875 -75 C-96.85293695275065 -75, 5.169126094498694 -75, 198.875 -75 M198.875 -75 C198.875 -34.222811709533, 198.875 6.554376580934004, 198.875 75 M198.875 -75 C198.875 -21.159910067655545, 198.875 32.68017986468891, 198.875 75 M198.875 75 C93.01415175491383 75, -12.846696490172349 75, -198.875 75 M198.875 75 C91.53214654953938 75, -15.810706900921247 75, -198.875 75 M-198.875 75 C-198.875 36.72004431512983, -198.875 -1.559911369740334, -198.875 -75 M-198.875 75 C-198.875 28.621343190952302, -198.875 -17.757313618095395, -198.875 -75"/></g><g transform="translate(0, -51)" class="annotation-group text"/><g transform="translate(-35.875, -51)" class="label-group text"><g transform="translate(0,-12)" style="font-weight: bolder" class="label"><foreignObject height="24" width="71.75"><div style="display: table-cell; white-space: nowrap; line-height: 1.5; max-width: 112px; text-align: center;" xmlns="http://www.w3.org/1999/xhtml"><span style="" class="nodeLabel markdown-node-label"><p>Inventory</p></span></div></foreignObject></g></g><g transform="translate(-186.875, -3)" class="members-group text"/><g transform="translate(-186.875, 27)" class="methods-group text"><g transform="translate(0,-12)" style="" class="label"><foreignObject height="24" width="326.484375"><div style="display: table-cell; white-space: nowrap; line-height: 1.5; max-width: 343px; text-align: center;" xmlns="http://www.w3.org/1999/xhtml"><span style="" class="nodeLabel markdown-node-label"><p>+countAvailable(hotel, type, dateRange) : int</p></span></div></foreignObject></g><g transform="translate(0,12)" style="" class="label"><foreignObject height="24" width="337.875"><div style="display: table-cell; white-space: nowrap; line-height: 1.5; max-width: 352px; text-align: center;" xmlns="http://www.w3.org/1999/xhtml"><span style="" class="nodeLabel markdown-node-label"><p>+reserve(hotel, type, dateRange) : Reservation</p></span></div></foreignObject></g></g><g style="" class="divider"><path style="" stroke-dasharray="0 0" fill="none" stroke-width="1.3" stroke="#ccc" d="M-198.875 -27 C-42.707011708939945 -27, 113.46097658212011 -27, 198.875 -27 M-198.875 -27 C-69.92553935149337 -27, 59.02392129701326 -27, 198.875 -27"/></g><g style="" class="divider"><path style="" stroke-dasharray="0 0" fill="none" stroke-width="1.3" stroke="#ccc" d="M-198.875 -3 C-47.34022005836346 -3, 104.19455988327309 -3, 198.875 -3 M-198.875 -3 C-96.20745984572675 -3, 6.460080308546509 -3, 198.875 -3"/></g></g><g transform="translate(1427.46875, 349)" id="classId-PricingStrategy-8" class="node default"><g class="basic label-container"><path style="" fill="#1f2020" stroke-width="0" stroke="none" d="M-149.9375 -75 L149.9375 -75 L149.9375 75 L-149.9375 75"/><path style="" stroke-dasharray="0 0" fill="none" stroke-width="1.3" stroke="#ccc" d="M-149.9375 -75 C-36.903844230981974 -75, 76.12981153803605 -75, 149.9375 -75 M-149.9375 -75 C-83.20881834286267 -75, -16.48013668572534 -75, 149.9375 -75 M149.9375 -75 C149.9375 -24.156196004723064, 149.9375 26.68760799055387, 149.9375 75 M149.9375 -75 C149.9375 -36.58439516170968, 149.9375 1.8312096765806416, 149.9375 75 M149.9375 75 C46.06323813745175 75, -57.811023725096504 75, -149.9375 75 M149.9375 75 C46.075733602636134 75, -57.78603279472773 75, -149.9375 75 M-149.9375 75 C-149.9375 26.93187151137907, -149.9375 -21.136256977241857, -149.9375 -75 M-149.9375 75 C-149.9375 23.47438907081792, -149.9375 -28.05122185836416, -149.9375 -75"/></g><g transform="translate(-41.171875, -51)" class="annotation-group text"><g transform="translate(0,-12)" style="" class="label"><foreignObject height="24" width="82.34375"><div style="display: table-cell; white-space: nowrap; line-height: 1.5; max-width: 122px; text-align: center;" xmlns="http://www.w3.org/1999/xhtml"><span style="" class="nodeLabel markdown-node-label"><p>«interface»</p></span></div></foreignObject></g></g><g transform="translate(-56.46875, -27)" class="label-group text"><g transform="translate(0,-12)" style="font-weight: bolder" class="label"><foreignObject height="24" width="112.9375"><div style="display: table-cell; white-space: nowrap; line-height: 1.5; max-width: 150px; text-align: center;" xmlns="http://www.w3.org/1999/xhtml"><span style="" class="nodeLabel markdown-node-label"><p>PricingStrategy</p></span></div></foreignObject></g></g><g transform="translate(-137.9375, 21)" class="members-group text"/><g transform="translate(-137.9375, 51)" class="methods-group text"><g transform="translate(0,-12)" style="" class="label"><foreignObject height="24" width="219.40625"><div style="display: table-cell; white-space: nowrap; line-height: 1.5; max-width: 254px; text-align: center;" xmlns="http://www.w3.org/1999/xhtml"><span style="" class="nodeLabel markdown-node-label"><p>+totalFor(reservation) : Money</p></span></div></foreignObject></g></g><g style="" class="divider"><path style="" stroke-dasharray="0 0" fill="none" stroke-width="1.3" stroke="#ccc" d="M-149.9375 -3 C-85.70898483348064 -3, -21.480469666961284 -3, 149.9375 -3 M-149.9375 -3 C-47.83601853809587 -3, 54.26546292380826 -3, 149.9375 -3"/></g><g style="" class="divider"><path style="" stroke-dasharray="0 0" fill="none" stroke-width="1.3" stroke="#ccc" d="M-149.9375 21 C-30.80370830667033 21, 88.33008338665934 21, 149.9375 21 M-149.9375 21 C-83.0996742062849 21, -16.261848412569805 21, 149.9375 21"/></g></g><g transform="translate(1258.515625, 116)" id="classId-HotelService-9" class="node default"><g class="basic label-container"><path style="" fill="#1f2020" stroke-width="0" stroke="none" d="M-120.0078125 -99 L120.0078125 -99 L120.0078125 99 L-120.0078125 99"/><path style="" stroke-dasharray="0 0" fill="none" stroke-width="1.3" stroke="#ccc" d="M-120.0078125 -99 C-48.67010100861563 -99, 22.667610482768737 -99, 120.0078125 -99 M-120.0078125 -99 C-63.77247932254928 -99, -7.537146145098561 -99, 120.0078125 -99 M120.0078125 -99 C120.0078125 -54.711649080014446, 120.0078125 -10.423298160028892, 120.0078125 99 M120.0078125 -99 C120.0078125 -22.301890668318705, 120.0078125 54.39621866336259, 120.0078125 99 M120.0078125 99 C63.28088359226383 99, 6.553954684527653 99, -120.0078125 99 M120.0078125 99 C41.99179950144848 99, -36.024213497103034 99, -120.0078125 99 M-120.0078125 99 C-120.0078125 28.360157099717043, -120.0078125 -42.279685800565915, -120.0078125 -99 M-120.0078125 99 C-120.0078125 53.41624290575165, -120.0078125 7.832485811503304, -120.0078125 -99"/></g><g transform="translate(0, -75)" class="annotation-group text"/><g transform="translate(-47.78125, -75)" class="label-group text"><g transform="translate(0,-12)" style="font-weight: bolder" class="label"><foreignObject height="24" width="95.5625"><div style="display: table-cell; white-space: nowrap; line-height: 1.5; max-width: 134px; text-align: center;" xmlns="http://www.w3.org/1999/xhtml"><span style="" class="nodeLabel markdown-node-label"><p>HotelService</p></span></div></foreignObject></g></g><g transform="translate(-108.0078125, -27)" class="members-group text"/><g transform="translate(-108.0078125, 3)" class="methods-group text"><g transform="translate(0,-12)" style="" class="label"><foreignObject height="24" width="119.59375"><div style="display: table-cell; white-space: nowrap; line-height: 1.5; max-width: 160px; text-align: center;" xmlns="http://www.w3.org/1999/xhtml"><span style="" class="nodeLabel markdown-node-label"><p>+search(criteria)</p></span></div></foreignObject></g><g transform="translate(0,12)" style="" class="label"><foreignObject height="24" width="107.265625"><div style="display: table-cell; white-space: nowrap; line-height: 1.5; max-width: 151px; text-align: center;" xmlns="http://www.w3.org/1999/xhtml"><span style="" class="nodeLabel markdown-node-label"><p>+book(criteria)</p></span></div></foreignObject></g><g transform="translate(0,36)" style="" class="label"><foreignObject height="24" width="155.5625"><div style="display: table-cell; white-space: nowrap; line-height: 1.5; max-width: 196px; text-align: center;" xmlns="http://www.w3.org/1999/xhtml"><span style="" class="nodeLabel markdown-node-label"><p>+checkIn(reservation)</p></span></div></foreignObject></g><g transform="translate(0,60)" style="" class="label"><foreignObject height="24" width="168.234375"><div style="display: table-cell; white-space: nowrap; line-height: 1.5; max-width: 207px; text-align: center;" xmlns="http://www.w3.org/1999/xhtml"><span style="" class="nodeLabel markdown-node-label"><p>+checkOut(reservation)</p></span></div></foreignObject></g></g><g style="" class="divider"><path style="" stroke-dasharray="0 0" fill="none" stroke-width="1.3" stroke="#ccc" d="M-120.0078125 -51 C-70.61419095363362 -51, -21.220569407267263 -51, 120.0078125 -51 M-120.0078125 -51 C-45.307374278903325 -51, 29.39306394219335 -51, 120.0078125 -51"/></g><g style="" class="divider"><path style="" stroke-dasharray="0 0" fill="none" stroke-width="1.3" stroke="#ccc" d="M-120.0078125 -27 C-54.67848045673996 -27, 10.650851586520076 -27, 120.0078125 -27 M-120.0078125 -27 C-71.65820589665273 -27, -23.308599293305463 -27, 120.0078125 -27"/></g></g></g></g></g></svg>