<svg class="mermaid-svg" aria-roledescription="flowchart-v2" role="graphics-document document" viewBox="0 0 1091.0859375 678" style="max-width: 1091.09px; background-color: transparent;" class="flowchart" xmlns:xlink="http://www.w3.org/1999/xlink" xmlns="http://www.w3.org/2000/svg"  id="my-svg"><style>#my-svg{font-family:"trebuchet ms",verdana,arial,sans-serif;font-size:16px;fill:#333;}@keyframes edge-animation-frame{from{stroke-dashoffset:0;}}@keyframes dash{to{stroke-dashoffset:0;}}#my-svg .edge-animation-slow{stroke-dasharray:9,5!important;stroke-dashoffset:900;animation:dash 50s linear infinite;stroke-linecap:round;}#my-svg .edge-animation-fast{stroke-dasharray:9,5!important;stroke-dashoffset:900;animation:dash 20s linear infinite;stroke-linecap:round;}#my-svg .error-icon{fill:#552222;}#my-svg .error-text{fill:#552222;stroke:#552222;}#my-svg .edge-thickness-normal{stroke-width:1px;}#my-svg .edge-thickness-thick{stroke-width:3.5px;}#my-svg .edge-pattern-solid{stroke-dasharray:0;}#my-svg .edge-thickness-invisible{stroke-width:0;fill:none;}#my-svg .edge-pattern-dashed{stroke-dasharray:3;}#my-svg .edge-pattern-dotted{stroke-dasharray:2;}#my-svg .marker{fill:#333333;stroke:#333333;}#my-svg .marker.cross{stroke:#333333;}#my-svg svg{font-family:"trebuchet ms",verdana,arial,sans-serif;font-size:16px;}#my-svg p{margin:0;}#my-svg .label{font-family:"trebuchet ms",verdana,arial,sans-serif;color:#333;}#my-svg .cluster-label text{fill:#333;}#my-svg .cluster-label span{color:#333;}#my-svg .cluster-label span p{background-color:transparent;}#my-svg .label text,#my-svg span{fill:#333;color:#333;}#my-svg .node rect,#my-svg .node circle,#my-svg .node ellipse,#my-svg .node polygon,#my-svg .node path{fill:#ECECFF;stroke:#9370DB;stroke-width:1px;}#my-svg .rough-node .label text,#my-svg .node .label text,#my-svg .image-shape .label,#my-svg .icon-shape .label{text-anchor:middle;}#my-svg .node .katex path{fill:#000;stroke:#000;stroke-width:1px;}#my-svg .rough-node .label,#my-svg .node .label,#my-svg .image-shape .label,#my-svg .icon-shape .label{text-align:center;}#my-svg .node.clickable{cursor:pointer;}#my-svg .root .anchor path{fill:#333333!important;stroke-width:0;stroke:#333333;}#my-svg .arrowheadPath{fill:#333333;}#my-svg .edgePath .path{stroke:#333333;stroke-width:2.0px;}#my-svg .flowchart-link{stroke:#333333;fill:none;}#my-svg .edgeLabel{background-color:rgba(232,232,232, 0.8);text-align:center;}#my-svg .edgeLabel p{background-color:rgba(232,232,232, 0.8);}#my-svg .edgeLabel rect{opacity:0.5;background-color:rgba(232,232,232, 0.8);fill:rgba(232,232,232, 0.8);}#my-svg .labelBkg{background-color:rgba(232, 232, 232, 0.5);}#my-svg .cluster rect{fill:#ffffde;stroke:#aaaa33;stroke-width:1px;}#my-svg .cluster text{fill:#333;}#my-svg .cluster span{color:#333;}#my-svg div.mermaidTooltip{position:absolute;text-align:center;max-width:200px;padding:2px;font-family:"trebuchet ms",verdana,arial,sans-serif;font-size:12px;background:hsl(80, 100%, 96.2745098039%);border:1px solid #aaaa33;border-radius:2px;pointer-events:none;z-index:100;}#my-svg .flowchartTitleText{text-anchor:middle;font-size:18px;fill:#333;}#my-svg rect.text{fill:none;stroke-width:0;}#my-svg .icon-shape,#my-svg .image-shape{background-color:rgba(232,232,232, 0.8);text-align:center;}#my-svg .icon-shape p,#my-svg .image-shape p{background-color:rgba(232,232,232, 0.8);padding:2px;}#my-svg .icon-shape rect,#my-svg .image-shape rect{opacity:0.5;background-color:rgba(232,232,232, 0.8);fill:rgba(232,232,232, 0.8);}#my-svg .label-icon{display:inline-block;height:1em;overflow:visible;vertical-align:-0.125em;}#my-svg .node .label-icon path{fill:currentColor;stroke:revert;stroke-width:revert;}#my-svg :root{--mermaid-font-family:"trebuchet ms",verdana,arial,sans-serif;}</style><g><marker orient="auto" markerHeight="8" markerWidth="8" markerUnits="userSpaceOnUse" refY="5" refX="5" viewBox="0 0 10 10" class="marker flowchart-v2" id="my-svg_flowchart-v2-pointEnd"><path style="stroke-width: 1; stroke-dasharray: 1, 0;" class="arrowMarkerPath" d="M 0 0 L 10 5 L 0 10 z"/></marker><marker orient="auto" markerHeight="8" markerWidth="8" markerUnits="userSpaceOnUse" refY="5" refX="4.5" viewBox="0 0 10 10" class="marker flowchart-v2" id="my-svg_flowchart-v2-pointStart"><path style="stroke-width: 1; stroke-dasharray: 1, 0;" class="arrowMarkerPath" d="M 0 5 L 10 10 L 10 0 z"/></marker><marker orient="auto" markerHeight="11" markerWidth="11" markerUnits="userSpaceOnUse" refY="5" refX="11" viewBox="0 0 10 10" class="marker flowchart-v2" id="my-svg_flowchart-v2-circleEnd"><circle style="stroke-width: 1; stroke-dasharray: 1, 0;" class="arrowMarkerPath" r="5" cy="5" cx="5"/></marker><marker orient="auto" markerHeight="11" markerWidth="11" markerUnits="userSpaceOnUse" refY="5" refX="-1" viewBox="0 0 10 10" class="marker flowchart-v2" id="my-svg_flowchart-v2-circleStart"><circle style="stroke-width: 1; stroke-dasharray: 1, 0;" class="arrowMarkerPath" r="5" cy="5" cx="5"/></marker><marker orient="auto" markerHeight="11" markerWidth="11" markerUnits="userSpaceOnUse" refY="5.2" refX="12" viewBox="0 0 11 11" class="marker cross flowchart-v2" id="my-svg_flowchart-v2-crossEnd"><path style="stroke-width: 2; stroke-dasharray: 1, 0;" class="arrowMarkerPath" d="M 1,1 l 9,9 M 10,1 l -9,9"/></marker><marker orient="auto" markerHeight="11" markerWidth="11" markerUnits="userSpaceOnUse" refY="5.2" refX="-1" viewBox="0 0 11 11" class="marker cross flowchart-v2" id="my-svg_flowchart-v2-crossStart"><path style="stroke-width: 2; stroke-dasharray: 1, 0;" class="arrowMarkerPath" d="M 1,1 l 9,9 M 10,1 l -9,9"/></marker><g class="root"><g class="clusters"><g data-look="classic" id="subGraph3" class="cluster"><rect  width="1055.53125" y="542" x="27.5546875" style=""/><g transform="translate(494.2421875, 542)" class="cluster-label"><foreignObject height="24" width="122.15625"><div style="display: table-cell; white-space: nowrap; line-height: 1.5; max-width: 200px; text-align: center;" xmlns="http://www.w3.org/1999/xhtml"><span class="nodeLabel"><p>Fraud Prevention</p></span></div></foreignObject></g></g><g data-look="classic" id="subGraph2" class="cluster"><rect height="128" width="1018.5859375" y="364" x="36.578125" style=""/><g transform="translate(497.92578125, 364)" class="cluster-label"><foreignObject height="24" width="95.890625"><div style="display: table-cell; white-space: nowrap; line-height: 1.5; max-width: 200px; text-align: center;" xmlns="http://www.w3.org/1999/xhtml"><span class="nodeLabel"><p>Data Security</p></span></div></foreignObject></g></g><g data-look="classic" id="subGraph1" class="cluster"><rect height="128" width="1034.9609375" y="186" x="32.65625" style=""/><g transform="translate(488.63671875, 186)" class="cluster-label"><foreignObject height="24" width="123"><div style="display: table-cell; white-space: nowrap; line-height: 1.5; max-width: 200px; text-align: center;" xmlns="http://www.w3.org/1999/xhtml"><span class="nodeLabel"><p>Identity &amp; Access</p></span></div></foreignObject></g></g><g data-look="classic" id="subGraph0" class="cluster"><rect height="128" width="1054.7421875" y="8" x="8" style=""/><g transform="translate(473.87890625, 8)" class="cluster-label"><foreignObject height="24" width="122.984375"><div style="display: table-cell; white-space: nowrap; line-height: 1.5; max-width: 200px; text-align: center;" xmlns="http://www.w3.org/1999/xhtml"><span class="nodeLabel"><p>Network Security</p></span></div></foreignObject></g></g></g><g class="edgePaths"><path marker-end="url(#my-svg_flowchart-v2-pointEnd)" style="" class="edge-thickness-normal edge-pattern-solid edge-thickness-normal edge-pattern-solid flowchart-link" id="L_WAF_SEC_COGNITO_0" d="M162.031,111L162.031,115.167C162.031,119.333,162.031,127.667,162.031,136C162.031,144.333,162.031,152.667,162.031,161C162.031,169.333,162.031,177.667,162.031,185.333C162.031,193,162.031,200,162.031,203.5L162.031,207"/><path marker-end="url(#my-svg_flowchart-v2-pointEnd)" style="" class="edge-thickness-normal edge-pattern-solid edge-thickness-normal edge-pattern-solid flowchart-link" id="L_SHIELD_IAM_0" d="M418.531,111L418.531,115.167C418.531,119.333,418.531,127.667,418.531,136C418.531,144.333,418.531,152.667,418.531,161C418.531,169.333,418.531,177.667,418.531,185.333C418.531,193,418.531,200,418.531,203.5L418.531,207"/><path marker-end="url(#my-svg_flowchart-v2-pointEnd)" style="" class="edge-thickness-normal edge-pattern-solid edge-thickness-normal edge-pattern-solid flowchart-link" id="L_VPC_SSO_0" d="M673.086,111L673.086,115.167C673.086,119.333,673.086,127.667,673.086,136C673.086,144.333,673.086,152.667,673.086,161C673.086,169.333,673.086,177.667,673.086,185.333C673.086,193,673.086,200,673.086,203.5L673.086,207"/><path marker-end="url(#my-svg_flowchart-v2-pointEnd)" style="" class="edge-thickness-normal edge-pattern-solid edge-thickness-normal edge-pattern-solid flowchart-link" id="L_PRIVATE_LINK_MFA_0" d="M934.563,111L934.563,115.167C934.563,119.333,934.563,127.667,934.563,136C934.563,144.333,934.563,152.667,934.563,161C934.563,169.333,934.563,177.667,934.563,185.333C934.563,193,934.563,200,934.563,203.5L934.563,207"/><path marker-end="url(#my-svg_flowchart-v2-pointEnd)" style="" class="edge-thickness-normal edge-pattern-solid edge-thickness-normal edge-pattern-solid flowchart-link" id="L_COGNITO_KMS_0" d="M162.031,289L162.031,293.167C162.031,297.333,162.031,305.667,162.031,314C162.031,322.333,162.031,330.667,162.031,339C162.031,347.333,162.031,355.667,162.031,363.333C162.031,371,162.031,378,162.031,381.5L162.031,385"/><path marker-end="url(#my-svg_flowchart-v2-pointEnd)" style="" class="edge-thickness-normal edge-pattern-solid edge-thickness-normal edge-pattern-solid flowchart-link" id="L_IAM_ENCRYPTION_0" d="M418.531,289L418.531,293.167C418.531,297.333,418.531,305.667,418.531,314C418.531,322.333,418.531,330.667,418.531,339C418.531,347.333,418.531,355.667,418.531,363.333C418.531,371,418.531,378,418.531,381.5L418.531,385"/><path marker-end="url(#my-svg_flowchart-v2-pointEnd)" style="" class="edge-thickness-normal edge-pattern-solid edge-thickness-normal edge-pattern-solid flowchart-link" id="L_SSO_TLS_0" d="M673.086,289L673.086,293.167C673.086,297.333,673.086,305.667,673.086,314C673.086,322.333,673.086,330.667,673.086,339C673.086,347.333,673.086,355.667,673.086,363.333C673.086,371,673.086,378,673.086,381.5L673.086,385"/><path marker-end="url(#my-svg_flowchart-v2-pointEnd)" style="" class="edge-thickness-normal edge-pattern-solid edge-thickness-normal edge-pattern-solid flowchart-link" id="L_MFA_TOKENIZATION_0" d="M934.563,289L934.563,293.167C934.563,297.333,934.563,305.667,934.563,314C934.563,322.333,934.563,330.667,934.563,339C934.563,347.333,934.563,355.667,934.563,363.333C934.563,371,934.563,378,934.563,381.5L934.563,385"/><path marker-end="url(#my-svg_flowchart-v2-pointEnd)" style="" class="edge-thickness-normal edge-pattern-solid edge-thickness-normal edge-pattern-solid flowchart-link" id="L_KMS_ML_FRAUD_0" d="M162.031,467L162.031,471.167C162.031,475.333,162.031,483.667,162.031,492C162.031,500.333,162.031,508.667,162.031,517C162.031,525.333,162.031,533.667,162.031,541.333C162.031,549,162.031,556,162.031,559.5L162.031,563"/><path marker-end="url(#my-svg_flowchart-v2-pointEnd)" style="" class="edge-thickness-normal edge-pattern-solid edge-thickness-normal edge-pattern-solid flowchart-link" id="L_ENCRYPTION_DEVICE_FP_0" d="M418.531,467L418.531,471.167C418.531,475.333,418.531,483.667,418.531,492C418.531,500.333,418.531,508.667,418.531,517C418.531,525.333,418.531,533.667,418.531,541.333C418.531,549,418.531,556,418.531,559.5L418.531,563"/><path marker-end="url(#my-svg_flowchart-v2-pointEnd)" style="" class="edge-thickness-normal edge-pattern-solid edge-thickness-normal edge-pattern-solid flowchart-link" id="L_TLS_BEHAVIOR_0" d="M673.086,467L673.086,471.167C673.086,475.333,673.086,483.667,673.086,492C673.086,500.333,673.086,508.667,673.086,517C673.086,525.333,673.086,533.667,673.086,541.333C673.086,549,673.086,556,673.086,559.5L673.086,563"/><path marker-end="url(#my-svg_flowchart-v2-pointEnd)" style="" class="edge-thickness-normal edge-pattern-solid edge-thickness-normal edge-pattern-solid flowchart-link" id="L_TOKENIZATION_RISK_SCORE_0" d="M934.563,467L934.563,471.167C934.563,475.333,934.563,483.667,934.563,492C934.563,500.333,934.563,508.667,934.563,517C934.563,525.333,934.563,533.667,934.563,541.333C934.563,549,934.563,556,934.563,559.5L934.563,563"/></g><g class="edgeLabels"><g class="edgeLabel"><g transform="translate(0, 0)" class="label"><foreignObject height="0" width="0"><div style="display: table-cell; white-space: nowrap; line-height: 1.5; max-width: 200px; text-align: center;" class="labelBkg" xmlns="http://www.w3.org/1999/xhtml"><span class="edgeLabel"></span></div></foreignObject></g></g><g class="edgeLabel"><g transform="translate(0, 0)" class="label"><foreignObject height="0" width="0"><div style="display: table-cell; white-space: nowrap; line-height: 1.5; max-width: 200px; text-align: center;" class="labelBkg" xmlns="http://www.w3.org/1999/xhtml"><span class="edgeLabel"></span></div></foreignObject></g></g><g class="edgeLabel"><g transform="translate(0, 0)" class="label"><foreignObject height="0" width="0"><div style="display: table-cell; white-space: nowrap; line-height: 1.5; max-width: 200px; text-align: center;" class="labelBkg" xmlns="http://www.w3.org/1999/xhtml"><span class="edgeLabel"></span></div></foreignObject></g></g><g class="edgeLabel"><g transform="translate(0, 0)" class="label"><foreignObject height="0" width="0"><div style="display: table-cell; white-space: nowrap; line-height: 1.5; max-width: 200px; text-align: center;" class="labelBkg" xmlns="http://www.w3.org/1999/xhtml"><span class="edgeLabel"></span></div></foreignObject></g></g><g class="edgeLabel"><g transform="translate(0, 0)" class="label"><foreignObject height="0" width="0"><div style="display: table-cell; white-space: nowrap; line-height: 1.5; max-width: 200px; text-align: center;" class="labelBkg" xmlns="http://www.w3.org/1999/xhtml"><span class="edgeLabel"></span></div></foreignObject></g></g><g class="edgeLabel"><g transform="translate(0, 0)" class="label"><foreignObject height="0" width="0"><div style="display: table-cell; white-space: nowrap; line-height: 1.5; max-width: 200px; text-align: center;" class="labelBkg" xmlns="http://www.w3.org/1999/xhtml"><span class="edgeLabel"></span></div></foreignObject></g></g><g class="edgeLabel"><g transform="translate(0, 0)" class="label"><foreignObject height="0" width="0"><div style="display: table-cell; white-space: nowrap; line-height: 1.5; max-width: 200px; text-align: center;" class="labelBkg" xmlns="http://www.w3.org/1999/xhtml"><span class="edgeLabel"></span></div></foreignObject></g></g><g class="edgeLabel"><g transform="translate(0, 0)" class="label"><foreignObject height="0" width="0"><div style="display: table-cell; white-space: nowrap; line-height: 1.5; max-width: 200px; text-align: center;" class="labelBkg" xmlns="http://www.w3.org/1999/xhtml"><span class="edgeLabel"></span></div></foreignObject></g></g><g class="edgeLabel"><g transform="translate(0, 0)" class="label"><foreignObject height="0" width="0"><div style="display: table-cell; white-space: nowrap; line-height: 1.5; max-width: 200px; text-align: center;" class="labelBkg" xmlns="http://www.w3.org/1999/xhtml"><span class="edgeLabel"></span></div></foreignObject></g></g><g class="edgeLabel"><g transform="translate(0, 0)" class="label"><foreignObject height="0" width="0"><div style="display: table-cell; white-space: nowrap; line-height: 1.5; max-width: 200px; text-align: center;" class="labelBkg" xmlns="http://www.w3.org/1999/xhtml"><span class="edgeLabel"></span></div></foreignObject></g></g><g class="edgeLabel"><g transform="translate(0, 0)" class="label"><foreignObject height="0" width="0"><div style="display: table-cell; white-space: nowrap; line-height: 1.5; max-width: 200px; text-align: center;" class="labelBkg" xmlns="http://www.w3.org/1999/xhtml"><span class="edgeLabel"></span></div></foreignObject></g></g><g class="edgeLabel"><g transform="translate(0, 0)" class="label"><foreignObject height="0" width="0"><div style="display: table-cell; white-space: nowrap; line-height: 1.5; max-width: 200px; text-align: center;" class="labelBkg" xmlns="http://www.w3.org/1999/xhtml"><span class="edgeLabel"></span></div></foreignObject></g></g></g><g class="nodes"><g transform="translate(162.03125, 72)" id="flowchart-WAF_SEC-0" class="node default"><rect height="78" width="238.0625" y="-39" x="-119.03125" style="" class="basic label-container"/><g transform="translate(-89.03125, -24)" style="" class="label"><rect/><foreignObject height="48" width="178.0625"><div style="display: table-cell; white-space: nowrap; line-height: 1.5; max-width: 200px; text-align: center;" xmlns="http://www.w3.org/1999/xhtml"><span class="nodeLabel"><p>AWS WAF<br />Web Application Firewall</p></span></div></foreignObject></g></g><g transform="translate(418.53125, 72)" id="flowchart-SHIELD-1" class="node default"><rect height="78" width="174.9375" y="-39" x="-87.46875" style="" class="basic label-container"/><g transform="translate(-57.46875, -24)" style="" class="label"><rect/><foreignObject height="48" width="114.9375"><div style="display: table-cell; white-space: nowrap; line-height: 1.5; max-width: 200px; text-align: center;" xmlns="http://www.w3.org/1999/xhtml"><span class="nodeLabel"><p>AWS Shield<br />DDoS Protection</p></span></div></foreignObject></g></g><g transform="translate(673.0859375, 72)" id="flowchart-VPC-2" class="node default"><rect height="78" width="185.765625" y="-39" x="-92.8828125" style="" class="basic label-container"/><g transform="translate(-62.8828125, -24)" style="" class="label"><rect/><foreignObject height="48" width="125.765625"><div style="display: table-cell; white-space: nowrap; line-height: 1.5; max-width: 200px; text-align: center;" xmlns="http://www.w3.org/1999/xhtml"><span class="nodeLabel"><p>VPC<br />Network Isolation</p></span></div></foreignObject></g></g><g transform="translate(934.5625, 72)" id="flowchart-PRIVATE_LINK-3" class="node default"><rect height="78" width="186.359375" y="-39" x="-93.1796875" style="" class="basic label-container"/><g transform="translate(-63.1796875, -24)" style="" class="label"><rect/><foreignObject height="48" width="126.359375"><div style="display: table-cell; white-space: nowrap; line-height: 1.5; max-width: 200px; text-align: center;" xmlns="http://www.w3.org/1999/xhtml"><span class="nodeLabel"><p>PrivateLink<br />Service Endpoints</p></span></div></foreignObject></g></g><g transform="translate(162.03125, 250)" id="flowchart-COGNITO-4" class="node default"><rect height="78" width="188.75" y="-39" x="-94.375" style="" class="basic label-container"/><g transform="translate(-64.375, -24)" style="" class="label"><rect/><foreignObject height="48" width="128.75"><div style="display: table-cell; white-space: nowrap; line-height: 1.5; max-width: 200px; text-align: center;" xmlns="http://www.w3.org/1999/xhtml"><span class="nodeLabel"><p>Cognito<br />Customer Identity</p></span></div></foreignObject></g></g><g transform="translate(418.53125, 250)" id="flowchart-IAM-5" class="node default"><rect height="78" width="153.6875" y="-39" x="-76.84375" style="" class="basic label-container"/><g transform="translate(-46.84375, -24)" style="" class="label"><rect/><foreignObject height="48" width="93.6875"><div style="display: table-cell; white-space: nowrap; line-height: 1.5; max-width: 200px; text-align: center;" xmlns="http://www.w3.org/1999/xhtml"><span class="nodeLabel"><p>IAM<br />Service Roles</p></span></div></foreignObject></g></g><g transform="translate(673.0859375, 250)" id="flowchart-SSO-6" class="node default"><rect height="78" width="180.3125" y="-39" x="-90.15625" style="" class="basic label-container"/><g transform="translate(-60.15625, -24)" style="" class="label"><rect/><foreignObject height="48" width="120.3125"><div style="display: table-cell; white-space: nowrap; line-height: 1.5; max-width: 200px; text-align: center;" xmlns="http://www.w3.org/1999/xhtml"><span class="nodeLabel"><p>AWS SSO<br />Employee Access</p></span></div></foreignObject></g></g><g transform="translate(934.5625, 250)" id="flowchart-MFA-7" class="node default"><rect height="78" width="196.109375" y="-39" x="-98.0546875" style="" class="basic label-container"/><g transform="translate(-68.0546875, -24)" style="" class="label"><rect/><foreignObject height="48" width="136.109375"><div style="display: table-cell; white-space: nowrap; line-height: 1.5; max-width: 200px; text-align: center;" xmlns="http://www.w3.org/1999/xhtml"><span class="nodeLabel"><p>Multi-Factor Auth<br />Additional Security</p></span></div></foreignObject></g></g><g transform="translate(162.03125, 428)" id="flowchart-KMS-8" class="node default"><rect height="78" width="180.90625" y="-39" x="-90.453125" style="" class="basic label-container"/><g transform="translate(-60.453125, -24)" style="" class="label"><rect/><foreignObject height="48" width="120.90625"><div style="display: table-cell; white-space: nowrap; line-height: 1.5; max-width: 200px; text-align: center;" xmlns="http://www.w3.org/1999/xhtml"><span class="nodeLabel"><p>AWS KMS<br />Key Management</p></span></div></foreignObject></g></g><g transform="translate(418.53125, 428)" id="flowchart-ENCRYPTION-9" class="node default"><rect height="78" width="191.09375" y="-39" x="-95.546875" style="" class="basic label-container"/><g transform="translate(-65.546875, -24)" style="" class="label"><rect/><foreignObject height="48" width="131.09375"><div style="display: table-cell; white-space: nowrap; line-height: 1.5; max-width: 200px; text-align: center;" xmlns="http://www.w3.org/1999/xhtml"><span class="nodeLabel"><p>Encryption at Rest<br />AES-256</p></span></div></foreignObject></g></g><g transform="translate(673.0859375, 428)" id="flowchart-TLS-10" class="node default"><rect height="78" width="126.015625" y="-39" x="-63.0078125" style="" class="basic label-container"/><g transform="translate(-33.0078125, -24)" style="" class="label"><rect/><foreignObject height="48" width="66.015625"><div style="display: table-cell; white-space: nowrap; line-height: 1.5; max-width: 200px; text-align: center;" xmlns="http://www.w3.org/1999/xhtml"><span class="nodeLabel"><p>TLS 1.3<br />In Transit</p></span></div></foreignObject></g></g><g transform="translate(934.5625, 428)" id="flowchart-TOKENIZATION-11" class="node default"><rect height="78" width="171.203125" y="-39" x="-85.6015625" style="" class="basic label-container"/><g transform="translate(-55.6015625, -24)" style="" class="label"><rect/><foreignObject height="48" width="111.203125"><div style="display: table-cell; white-space: nowrap; line-height: 1.5; max-width: 200px; text-align: center;" xmlns="http://www.w3.org/1999/xhtml"><span class="nodeLabel"><p>Tokenization<br />PCI Compliance</p></span></div></foreignObject></g></g><g transform="translate(162.03125, 606)" id="flowchart-ML_FRAUD-12" class="node default"><rect height="78" width="198.953125" y="-39" x="-99.4765625" style="" class="basic label-container"/><g transform="translate(-69.4765625, -24)" style="" class="label"><rect/><foreignObject height="48" width="138.953125"><div style="display: table-cell; white-space: nowrap; line-height: 1.5; max-width: 200px; text-align: center;" xmlns="http://www.w3.org/1999/xhtml"><span class="nodeLabel"><p>ML Fraud Detection<br />Real-time Analysis</p></span></div></foreignObject></g></g><g transform="translate(418.53125, 606)" id="flowchart-DEVICE_FP-13" class="node default"><rect height="78" width="213.203125" y="-39" x="-106.6015625" style="" class="basic label-container"/><g transform="translate(-76.6015625, -24)" style="" class="label"><rect/><foreignObject height="48" width="153.203125"><div style="display: table-cell; white-space: nowrap; line-height: 1.5; max-width: 200px; text-align: center;" xmlns="http://www.w3.org/1999/xhtml"><span class="nodeLabel"><p>Device Fingerprinting<br />Bot Detection</p></span></div></foreignObject></g></g><g transform="translate(673.0859375, 606)" id="flowchart-BEHAVIOR-14" class="node default"><rect height="78" width="195.90625" y="-39" x="-97.953125" style="" class="basic label-container"/><g transform="translate(-67.953125, -24)" style="" class="label"><rect/><foreignObject height="48" width="135.90625"><div style="display: table-cell; white-space: nowrap; line-height: 1.5; max-width: 200px; text-align: center;" xmlns="http://www.w3.org/1999/xhtml"><span class="nodeLabel"><p>Behavioral Analysis<br />Anomaly Detection</p></span></div></foreignObject></g></g><g transform="translate(934.5625, 606)" id="flowchart-RISK_SCORE-15" class="node default"><rect height="78" width="227.046875" y="-39" x="-113.5234375" style="" class="basic label-container"/><g transform="translate(-83.5234375, -24)" style="" class="label"><rect/><foreignObject height="48" width="167.046875"><div style="display: table-cell; white-space: nowrap; line-height: 1.5; max-width: 200px; text-align: center;" xmlns="http://www.w3.org/1999/xhtml"><span class="nodeLabel"><p>Risk Scoring<br />Transaction Assessment</p></span></div></foreignObject></g></g></g></g></g></svg>