<svg class="mermaid-svg" aria-roledescription="flowchart-v2" role="graphics-document document" viewBox="0 0 1776.328125 1246.7286376953125" style="max-width: 1776.33px; background-color: transparent;" class="flowchart" xmlns:xlink="http://www.w3.org/1999/xlink" xmlns="http://www.w3.org/2000/svg"  id="my-svg"><style>#my-svg{font-family:"trebuchet ms",verdana,arial,sans-serif;font-size:16px;fill:#ccc;}@keyframes edge-animation-frame{from{stroke-dashoffset:0;}}@keyframes dash{to{stroke-dashoffset:0;}}#my-svg .edge-animation-slow{stroke-dasharray:9,5!important;stroke-dashoffset:900;animation:dash 50s linear infinite;stroke-linecap:round;}#my-svg .edge-animation-fast{stroke-dasharray:9,5!important;stroke-dashoffset:900;animation:dash 20s linear infinite;stroke-linecap:round;}#my-svg .error-icon{fill:#a44141;}#my-svg .error-text{fill:#ddd;stroke:#ddd;}#my-svg .edge-thickness-normal{stroke-width:1px;}#my-svg .edge-thickness-thick{stroke-width:3.5px;}#my-svg .edge-pattern-solid{stroke-dasharray:0;}#my-svg .edge-thickness-invisible{stroke-width:0;fill:none;}#my-svg .edge-pattern-dashed{stroke-dasharray:3;}#my-svg .edge-pattern-dotted{stroke-dasharray:2;}#my-svg .marker{fill:lightgrey;stroke:lightgrey;}#my-svg .marker.cross{stroke:lightgrey;}#my-svg svg{font-family:"trebuchet ms",verdana,arial,sans-serif;font-size:16px;}#my-svg p{margin:0;}#my-svg .label{font-family:"trebuchet ms",verdana,arial,sans-serif;color:#ccc;}#my-svg .cluster-label text{fill:#F9FFFE;}#my-svg .cluster-label span{color:#F9FFFE;}#my-svg .cluster-label span p{background-color:transparent;}#my-svg .label text,#my-svg span{fill:#ccc;color:#ccc;}#my-svg .node rect,#my-svg .node circle,#my-svg .node ellipse,#my-svg .node polygon,#my-svg .node path{fill:#1f2020;stroke:#ccc;stroke-width:1px;}#my-svg .rough-node .label text,#my-svg .node .label text,#my-svg .image-shape .label,#my-svg .icon-shape .label{text-anchor:middle;}#my-svg .node .katex path{fill:#000;stroke:#000;stroke-width:1px;}#my-svg .rough-node .label,#my-svg .node .label,#my-svg .image-shape .label,#my-svg .icon-shape .label{text-align:center;}#my-svg .node.clickable{cursor:pointer;}#my-svg .root .anchor path{fill:lightgrey!important;stroke-width:0;stroke:lightgrey;}#my-svg .arrowheadPath{fill:lightgrey;}#my-svg .edgePath .path{stroke:lightgrey;stroke-width:2.0px;}#my-svg .flowchart-link{stroke:lightgrey;fill:none;}#my-svg .edgeLabel{background-color:hsl(0, 0%, 34.4117647059%);text-align:center;}#my-svg .edgeLabel p{background-color:hsl(0, 0%, 34.4117647059%);}#my-svg .edgeLabel rect{opacity:0.5;background-color:hsl(0, 0%, 34.4117647059%);fill:hsl(0, 0%, 34.4117647059%);}#my-svg .labelBkg{background-color:rgba(87.75, 87.75, 87.75, 0.5);}#my-svg .cluster rect{fill:hsl(180, 1.5873015873%, 28.3529411765%);stroke:rgba(255, 255, 255, 0.25);stroke-width:1px;}#my-svg .cluster text{fill:#F9FFFE;}#my-svg .cluster span{color:#F9FFFE;}#my-svg div.mermaidTooltip{position:absolute;text-align:center;max-width:200px;padding:2px;font-family:"trebuchet ms",verdana,arial,sans-serif;font-size:12px;background:hsl(20, 1.5873015873%, 12.3529411765%);border:1px solid rgba(255, 255, 255, 0.25);border-radius:2px;pointer-events:none;z-index:100;}#my-svg .flowchartTitleText{text-anchor:middle;font-size:18px;fill:#ccc;}#my-svg rect.text{fill:none;stroke-width:0;}#my-svg .icon-shape,#my-svg .image-shape{background-color:hsl(0, 0%, 34.4117647059%);text-align:center;}#my-svg .icon-shape p,#my-svg .image-shape p{background-color:hsl(0, 0%, 34.4117647059%);padding:2px;}#my-svg .icon-shape rect,#my-svg .image-shape rect{opacity:0.5;background-color:hsl(0, 0%, 34.4117647059%);fill:hsl(0, 0%, 34.4117647059%);}#my-svg .label-icon{display:inline-block;height:1em;overflow:visible;vertical-align:-0.125em;}#my-svg .node .label-icon path{fill:currentColor;stroke:revert;stroke-width:revert;}#my-svg :root{--mermaid-font-family:"trebuchet ms",verdana,arial,sans-serif;}</style><g><marker orient="auto" markerHeight="8" markerWidth="8" markerUnits="userSpaceOnUse" refY="5" refX="5" viewBox="0 0 10 10" class="marker flowchart-v2" id="my-svg_flowchart-v2-pointEnd"><path style="stroke-width: 1; stroke-dasharray: 1, 0;" class="arrowMarkerPath" d="M 0 0 L 10 5 L 0 10 z"/></marker><marker orient="auto" markerHeight="8" markerWidth="8" markerUnits="userSpaceOnUse" refY="5" refX="4.5" viewBox="0 0 10 10" class="marker flowchart-v2" id="my-svg_flowchart-v2-pointStart"><path style="stroke-width: 1; stroke-dasharray: 1, 0;" class="arrowMarkerPath" d="M 0 5 L 10 10 L 10 0 z"/></marker><marker orient="auto" markerHeight="11" markerWidth="11" markerUnits="userSpaceOnUse" refY="5" refX="11" viewBox="0 0 10 10" class="marker flowchart-v2" id="my-svg_flowchart-v2-circleEnd"><circle style="stroke-width: 1; stroke-dasharray: 1, 0;" class="arrowMarkerPath" r="5" cy="5" cx="5"/></marker><marker orient="auto" markerHeight="11" markerWidth="11" markerUnits="userSpaceOnUse" refY="5" refX="-1" viewBox="0 0 10 10" class="marker flowchart-v2" id="my-svg_flowchart-v2-circleStart"><circle style="stroke-width: 1; stroke-dasharray: 1, 0;" class="arrowMarkerPath" r="5" cy="5" cx="5"/></marker><marker orient="auto" markerHeight="11" markerWidth="11" markerUnits="userSpaceOnUse" refY="5.2" refX="12" viewBox="0 0 11 11" class="marker cross flowchart-v2" id="my-svg_flowchart-v2-crossEnd"><path style="stroke-width: 2; stroke-dasharray: 1, 0;" class="arrowMarkerPath" d="M 1,1 l 9,9 M 10,1 l -9,9"/></marker><marker orient="auto" markerHeight="11" markerWidth="11" markerUnits="userSpaceOnUse" refY="5.2" refX="-1" viewBox="0 0 11 11" class="marker cross flowchart-v2" id="my-svg_flowchart-v2-crossStart"><path style="stroke-width: 2; stroke-dasharray: 1, 0;" class="arrowMarkerPath" d="M 1,1 l 9,9 M 10,1 l -9,9"/></marker><g class="root"><g class="clusters"><g data-look="classic" id="subGraph4" class="cluster"><rect  width="1209.21875" y="1111" x="8" style=""/><g transform="translate(574.0390625, 1111)" class="cluster-label"><foreignObject height="24" width="77.140625"><div style="display: table-cell; white-space: nowrap; line-height: 1.5; max-width: 200px; text-align: center;" xmlns="http://www.w3.org/1999/xhtml"><span class="nodeLabel"><p>Data Layer</p></span></div></foreignObject></g></g><g data-look="classic" id="subGraph3" class="cluster"><rect height="256" width="1232.69140625" y="805" x="23.94140625" style=""/><g transform="translate(592.240234375, 805)" class="cluster-label"><foreignObject height="24" width="96.09375"><div style="display: table-cell; white-space: nowrap; line-height: 1.5; max-width: 200px; text-align: center;" xmlns="http://www.w3.org/1999/xhtml"><span class="nodeLabel"><p>Core Services</p></span></div></foreignObject></g></g><g data-look="classic" id="subGraph2" class="cluster"><rect height="537" width="298.41015625" y="524" x="1276.6328125" style=""/><g transform="translate(1369.103515625, 524)" class="cluster-label"><foreignObject height="24" width="113.46875"><div style="display: table-cell; white-space: nowrap; line-height: 1.5; max-width: 200px; text-align: center;" xmlns="http://www.w3.org/1999/xhtml"><span class="nodeLabel"><p>Real-time Layer</p></span></div></foreignObject></g></g><g data-look="classic" id="subGraph1" class="cluster"><rect height="312" width="650.953125" y="162" x="1069.859375" style=""/><g transform="translate(1352.9453125, 162)" class="cluster-label"><foreignObject height="24" width="84.78125"><div style="display: table-cell; white-space: nowrap; line-height: 1.5; max-width: 200px; text-align: center;" xmlns="http://www.w3.org/1999/xhtml"><span class="nodeLabel"><p>CDN &amp; Edge</p></span></div></foreignObject></g></g><g data-look="classic" id="subGraph0" class="cluster"><rect height="104" width="754.34375" y="8" x="1013.984375" style=""/><g transform="translate(1347.7421875, 8)" class="cluster-label"><foreignObject height="24" width="86.828125"><div style="display: table-cell; white-space: nowrap; line-height: 1.5; max-width: 200px; text-align: center;" xmlns="http://www.w3.org/1999/xhtml"><span class="nodeLabel"><p>Client Layer</p></span></div></foreignObject></g></g></g><g class="edgePaths"><path marker-end="url(#my-svg_flowchart-v2-pointEnd)" style="" class="edge-thickness-normal edge-pattern-solid edge-thickness-normal edge-pattern-solid flowchart-link" id="L_WEB_GOOGLE_CDN_0" d="M1109.859,87L1109.859,91.167C1109.859,95.333,1109.859,103.667,1109.859,112C1109.859,120.333,1109.859,128.667,1109.859,137C1109.859,145.333,1109.859,153.667,1149.199,164.391C1188.539,175.116,1267.219,188.232,1306.558,194.791L1345.898,201.349"/><path marker-end="url(#my-svg_flowchart-v2-pointEnd)" style="" class="edge-thickness-normal edge-pattern-solid edge-thickness-normal edge-pattern-solid flowchart-link" id="L_IOS_GOOGLE_CDN_0" d="M1277.859,87L1277.859,91.167C1277.859,95.333,1277.859,103.667,1277.859,112C1277.859,120.333,1277.859,128.667,1277.859,137C1277.859,145.333,1277.859,153.667,1289.23,161.941C1300.6,170.216,1323.341,178.432,1334.711,182.54L1346.082,186.648"/><path marker-end="url(#my-svg_flowchart-v2-pointEnd)" style="" class="edge-thickness-normal edge-pattern-solid edge-thickness-normal edge-pattern-solid flowchart-link" id="L_ANDROID_GOOGLE_CDN_0" d="M1458.273,87L1458.273,91.167C1458.273,95.333,1458.273,103.667,1458.273,112C1458.273,120.333,1458.273,128.667,1458.273,137C1458.273,145.333,1458.273,153.667,1455.733,161.454C1453.192,169.242,1448.111,176.484,1445.571,180.105L1443.03,183.726"/><path marker-end="url(#my-svg_flowchart-v2-pointEnd)" style="" class="edge-thickness-normal edge-pattern-solid edge-thickness-normal edge-pattern-solid flowchart-link" id="L_OFFLINE_GOOGLE_CDN_0" d="M1657.445,87L1657.445,91.167C1657.445,95.333,1657.445,103.667,1657.445,112C1657.445,120.333,1657.445,128.667,1657.445,137C1657.445,145.333,1657.445,153.667,1630.811,163.71C1604.177,173.754,1550.909,185.508,1524.275,191.386L1497.64,197.263"/><path marker-end="url(#my-svg_flowchart-v2-pointEnd)" style="" class="edge-thickness-normal edge-pattern-solid edge-thickness-normal edge-pattern-solid flowchart-link" id="L_GOOGLE_CDN_EDGE_CACHE_0" d="M1421.789,241L1421.789,245.167C1421.789,249.333,1421.789,257.667,1421.789,265.333C1421.789,273,1421.789,280,1421.789,283.5L1421.789,287"/><path marker-end="url(#my-svg_flowchart-v2-pointEnd)" style="" class="edge-thickness-normal edge-pattern-solid edge-thickness-normal edge-pattern-solid flowchart-link" id="L_EDGE_CACHE_LOAD_BALANCER_0" d="M1421.789,345L1421.789,349.167C1421.789,353.333,1421.789,361.667,1421.789,369.333C1421.789,377,1421.789,384,1421.789,387.5L1421.789,391"/><path marker-end="url(#my-svg_flowchart-v2-pointEnd)" style="" class="edge-thickness-normal edge-pattern-solid edge-thickness-normal edge-pattern-solid flowchart-link" id="L_LOAD_BALANCER_REALTIME_API_0" d="M1421.789,449L1421.789,453.167C1421.789,457.333,1421.789,465.667,1421.789,474C1421.789,482.333,1421.789,490.667,1421.789,499C1421.789,507.333,1421.789,515.667,1421.789,523.333C1421.789,531,1421.789,538,1421.789,541.5L1421.789,545"/><path marker-end="url(#my-svg_flowchart-v2-pointEnd)" style="" class="edge-thickness-normal edge-pattern-solid edge-thickness-normal edge-pattern-solid flowchart-link" id="L_REALTIME_API_OT_SERVER_0" d="M1421.789,627L1421.789,631.167C1421.789,635.333,1421.789,643.667,1421.789,651.333C1421.789,659,1421.789,666,1421.789,669.5L1421.789,673"/><path marker-end="url(#my-svg_flowchart-v2-pointEnd)" style="" class="edge-thickness-normal edge-pattern-solid edge-thickness-normal edge-pattern-solid flowchart-link" id="L_OT_SERVER_PRESENCE_0" d="M1427.883,755L1428.534,759.167C1429.185,763.333,1430.487,771.667,1431.138,780C1431.789,788.333,1431.789,796.667,1431.789,804.333C1431.789,812,1431.789,819,1431.789,822.5L1431.789,826"/><path marker-end="url(#my-svg_flowchart-v2-pointEnd)" style="" class="edge-thickness-normal edge-pattern-solid edge-thickness-normal edge-pattern-solid flowchart-link" id="L_PRESENCE_CURSOR_0" d="M1431.789,908L1431.789,912.167C1431.789,916.333,1431.789,924.667,1431.789,932.333C1431.789,940,1431.789,947,1431.789,950.5L1431.789,954"/><path marker-end="url(#my-svg_flowchart-v2-pointEnd)" style="" class="edge-thickness-normal edge-pattern-solid edge-thickness-normal edge-pattern-solid flowchart-link" id="L_OT_SERVER_DOC_SERVICE_0" d="M1383.656,755L1379.581,759.167C1375.507,763.333,1367.359,771.667,1363.285,780C1359.211,788.333,1359.211,796.667,1241.2,810.199C1123.189,823.732,887.166,842.464,769.155,851.83L651.144,861.196"/><path marker-end="url(#my-svg_flowchart-v2-pointEnd)" style="" class="edge-thickness-normal edge-pattern-solid edge-thickness-normal edge-pattern-solid flowchart-link" id="L_DOC_SERVICE_AUTH_0" d="M458.484,887.454L419.681,895.045C380.878,902.636,303.271,917.818,264.467,930.909C225.664,944,225.664,955,225.664,960.5L225.664,966"/><path marker-end="url(#my-svg_flowchart-v2-pointEnd)" style="" class="edge-thickness-normal edge-pattern-solid edge-thickness-normal edge-pattern-solid flowchart-link" id="L_DOC_SERVICE_SHARE_0" d="M647.156,879.332L728.827,888.277C810.497,897.221,973.839,915.111,1055.509,929.555C1137.18,944,1137.18,955,1137.18,960.5L1137.18,966"/><path marker-end="url(#my-svg_flowchart-v2-pointEnd)" style="" class="edge-thickness-normal edge-pattern-solid edge-thickness-normal edge-pattern-solid flowchart-link" id="L_DOC_SERVICE_REVISION_0" d="M504.334,896L493.26,902.167C482.186,908.333,460.039,920.667,448.965,932.333C437.891,944,437.891,955,437.891,960.5L437.891,966"/><path marker-end="url(#my-svg_flowchart-v2-pointEnd)" style="" class="edge-thickness-normal edge-pattern-solid edge-thickness-normal edge-pattern-solid flowchart-link" id="L_DOC_SERVICE_COMMENT_0" d="M601.306,896L612.38,902.167C623.454,908.333,645.602,920.667,656.676,932.333C667.75,944,667.75,955,667.75,960.5L667.75,966"/><path marker-end="url(#my-svg_flowchart-v2-pointEnd)" style="" class="edge-thickness-normal edge-pattern-solid edge-thickness-normal edge-pattern-solid flowchart-link" id="L_DOC_SERVICE_SUGGEST_0" d="M647.156,886.071L690.38,893.892C733.604,901.714,820.052,917.357,863.276,930.678C906.5,944,906.5,955,906.5,960.5L906.5,966"/><path marker-end="url(#my-svg_flowchart-v2-pointEnd)" style="" class="edge-thickness-normal edge-pattern-solid edge-thickness-normal edge-pattern-solid flowchart-link" id="L_DOC_SERVICE_BIGTABLE_0" d="M458.484,881.766L395.384,890.305C332.284,898.844,206.083,915.922,142.983,935.128C79.883,954.333,79.883,975.667,79.883,997C79.883,1018.333,79.883,1039.667,79.883,1054.5C79.883,1069.333,79.883,1077.667,79.883,1086C79.883,1094.333,79.883,1102.667,79.883,1111.241C79.883,1119.816,79.883,1128.632,79.883,1133.039L79.883,1137.447"/><path marker-end="url(#my-svg_flowchart-v2-pointEnd)" style="" class="edge-thickness-normal edge-pattern-solid edge-thickness-normal edge-pattern-solid flowchart-link" id="L_AUTH_SPANNER_0" d="M225.664,1024L225.664,1030.167C225.664,1036.333,225.664,1048.667,225.664,1059C225.664,1069.333,225.664,1077.667,225.664,1086C225.664,1094.333,225.664,1102.667,225.664,1110.528C225.664,1118.39,225.664,1125.78,225.664,1129.476L225.664,1133.171"/><path marker-end="url(#my-svg_flowchart-v2-pointEnd)" style="" class="edge-thickness-normal edge-pattern-solid edge-thickness-normal edge-pattern-solid flowchart-link" id="L_REVISION_COLOSSUS_0" d="M437.891,1024L437.891,1030.167C437.891,1036.333,437.891,1048.667,437.891,1059C437.891,1069.333,437.891,1077.667,437.891,1086C437.891,1094.333,437.891,1102.667,437.891,1110.333C437.891,1118,437.891,1125,437.891,1128.5L437.891,1132"/><path marker-end="url(#my-svg_flowchart-v2-pointEnd)" style="" class="edge-thickness-normal edge-pattern-solid edge-thickness-normal edge-pattern-solid flowchart-link" id="L_SHARE_MEMCACHE_0" d="M1137.18,1024L1137.18,1030.167C1137.18,1036.333,1137.18,1048.667,1137.18,1059C1137.18,1069.333,1137.18,1077.667,1137.18,1086C1137.18,1094.333,1137.18,1102.667,1137.18,1110.944C1137.18,1119.221,1137.18,1127.442,1137.18,1131.552L1137.18,1135.662"/></g><g class="edgeLabels"><g class="edgeLabel"><g transform="translate(0, 0)" class="label"><foreignObject height="0" width="0"><div style="display: table-cell; white-space: nowrap; line-height: 1.5; max-width: 200px; text-align: center;" class="labelBkg" xmlns="http://www.w3.org/1999/xhtml"><span class="edgeLabel"></span></div></foreignObject></g></g><g class="edgeLabel"><g transform="translate(0, 0)" class="label"><foreignObject height="0" width="0"><div style="display: table-cell; white-space: nowrap; line-height: 1.5; max-width: 200px; text-align: center;" class="labelBkg" xmlns="http://www.w3.org/1999/xhtml"><span class="edgeLabel"></span></div></foreignObject></g></g><g class="edgeLabel"><g transform="translate(0, 0)" class="label"><foreignObject height="0" width="0"><div style="display: table-cell; white-space: nowrap; line-height: 1.5; max-width: 200px; text-align: center;" class="labelBkg" xmlns="http://www.w3.org/1999/xhtml"><span class="edgeLabel"></span></div></foreignObject></g></g><g class="edgeLabel"><g transform="translate(0, 0)" class="label"><foreignObject height="0" width="0"><div style="display: table-cell; white-space: nowrap; line-height: 1.5; max-width: 200px; text-align: center;" class="labelBkg" xmlns="http://www.w3.org/1999/xhtml"><span class="edgeLabel"></span></div></foreignObject></g></g><g class="edgeLabel"><g transform="translate(0, 0)" class="label"><foreignObject height="0" width="0"><div style="display: table-cell; white-space: nowrap; line-height: 1.5; max-width: 200px; text-align: center;" class="labelBkg" xmlns="http://www.w3.org/1999/xhtml"><span class="edgeLabel"></span></div></foreignObject></g></g><g class="edgeLabel"><g transform="translate(0, 0)" class="label"><foreignObject height="0" width="0"><div style="display: table-cell; white-space: nowrap; line-height: 1.5; max-width: 200px; text-align: center;" class="labelBkg" xmlns="http://www.w3.org/1999/xhtml"><span class="edgeLabel"></span></div></foreignObject></g></g><g class="edgeLabel"><g transform="translate(0, 0)" class="label"><foreignObject height="0" width="0"><div style="display: table-cell; white-space: nowrap; line-height: 1.5; max-width: 200px; text-align: center;" class="labelBkg" xmlns="http://www.w3.org/1999/xhtml"><span class="edgeLabel"></span></div></foreignObject></g></g><g class="edgeLabel"><g transform="translate(0, 0)" class="label"><foreignObject height="0" width="0"><div style="display: table-cell; white-space: nowrap; line-height: 1.5; max-width: 200px; text-align: center;" class="labelBkg" xmlns="http://www.w3.org/1999/xhtml"><span class="edgeLabel"></span></div></foreignObject></g></g><g class="edgeLabel"><g transform="translate(0, 0)" class="label"><foreignObject height="0" width="0"><div style="display: table-cell; white-space: nowrap; line-height: 1.5; max-width: 200px; text-align: center;" class="labelBkg" xmlns="http://www.w3.org/1999/xhtml"><span class="edgeLabel"></span></div></foreignObject></g></g><g class="edgeLabel"><g transform="translate(0, 0)" class="label"><foreignObject height="0" width="0"><div style="display: table-cell; white-space: nowrap; line-height: 1.5; max-width: 200px; text-align: center;" class="labelBkg" xmlns="http://www.w3.org/1999/xhtml"><span class="edgeLabel"></span></div></foreignObject></g></g><g class="edgeLabel"><g transform="translate(0, 0)" class="label"><foreignObject height="0" width="0"><div style="display: table-cell; white-space: nowrap; line-height: 1.5; max-width: 200px; text-align: center;" class="labelBkg" xmlns="http://www.w3.org/1999/xhtml"><span class="edgeLabel"></span></div></foreignObject></g></g><g class="edgeLabel"><g transform="translate(0, 0)" class="label"><foreignObject height="0" width="0"><div style="display: table-cell; white-space: nowrap; line-height: 1.5; max-width: 200px; text-align: center;" class="labelBkg" xmlns="http://www.w3.org/1999/xhtml"><span class="edgeLabel"></span></div></foreignObject></g></g><g class="edgeLabel"><g transform="translate(0, 0)" class="label"><foreignObject height="0" width="0"><div style="display: table-cell; white-space: nowrap; line-height: 1.5; max-width: 200px; text-align: center;" class="labelBkg" xmlns="http://www.w3.org/1999/xhtml"><span class="edgeLabel"></span></div></foreignObject></g></g><g class="edgeLabel"><g transform="translate(0, 0)" class="label"><foreignObject height="0" width="0"><div style="display: table-cell; white-space: nowrap; line-height: 1.5; max-width: 200px; text-align: center;" class="labelBkg" xmlns="http://www.w3.org/1999/xhtml"><span class="edgeLabel"></span></div></foreignObject></g></g><g class="edgeLabel"><g transform="translate(0, 0)" class="label"><foreignObject height="0" width="0"><div style="display: table-cell; white-space: nowrap; line-height: 1.5; max-width: 200px; text-align: center;" class="labelBkg" xmlns="http://www.w3.org/1999/xhtml"><span class="edgeLabel"></span></div></foreignObject></g></g><g class="edgeLabel"><g transform="translate(0, 0)" class="label"><foreignObject height="0" width="0"><div style="display: table-cell; white-space: nowrap; line-height: 1.5; max-width: 200px; text-align: center;" class="labelBkg" xmlns="http://www.w3.org/1999/xhtml"><span class="edgeLabel"></span></div></foreignObject></g></g><g class="edgeLabel"><g transform="translate(0, 0)" class="label"><foreignObject height="0" width="0"><div style="display: table-cell; white-space: nowrap; line-height: 1.5; max-width: 200px; text-align: center;" class="labelBkg" xmlns="http://www.w3.org/1999/xhtml"><span class="edgeLabel"></span></div></foreignObject></g></g><g class="edgeLabel"><g transform="translate(0, 0)" class="label"><foreignObject height="0" width="0"><div style="display: table-cell; white-space: nowrap; line-height: 1.5; max-width: 200px; text-align: center;" class="labelBkg" xmlns="http://www.w3.org/1999/xhtml"><span class="edgeLabel"></span></div></foreignObject></g></g><g class="edgeLabel"><g transform="translate(0, 0)" class="label"><foreignObject height="0" width="0"><div style="display: table-cell; white-space: nowrap; line-height: 1.5; max-width: 200px; text-align: center;" class="labelBkg" xmlns="http://www.w3.org/1999/xhtml"><span class="edgeLabel"></span></div></foreignObject></g></g><g class="edgeLabel"><g transform="translate(0, 0)" class="label"><foreignObject height="0" width="0"><div style="display: table-cell; white-space: nowrap; line-height: 1.5; max-width: 200px; text-align: center;" class="labelBkg" xmlns="http://www.w3.org/1999/xhtml"><span class="edgeLabel"></span></div></foreignObject></g></g></g><g class="nodes"><g transform="translate(1109.859375, 60)" id="flowchart-WEB-0" class="node default"><rect height="54" width="121.75" y="-27" x="-60.875" style="" class="basic label-container"/><g transform="translate(-30.875, -12)" style="" class="label"><rect/><foreignObject height="24" width="61.75"><div style="display: table-cell; white-space: nowrap; line-height: 1.5; max-width: 200px; text-align: center;" xmlns="http://www.w3.org/1999/xhtml"><span class="nodeLabel"><p>Web App</p></span></div></foreignObject></g></g><g transform="translate(1277.859375, 60)" id="flowchart-IOS-1" class="node default"><rect height="54" width="114.25" y="-27" x="-57.125" style="" class="basic label-container"/><g transform="translate(-27.125, -12)" style="" class="label"><rect/><foreignObject height="24" width="54.25"><div style="display: table-cell; white-space: nowrap; line-height: 1.5; max-width: 200px; text-align: center;" xmlns="http://www.w3.org/1999/xhtml"><span class="nodeLabel"><p>iOS App</p></span></div></foreignObject></g></g><g transform="translate(1458.2734375, 60)" id="flowchart-ANDROID-2" class="node default"><rect height="54" width="146.578125" y="-27" x="-73.2890625" style="" class="basic label-container"/><g transform="translate(-43.2890625, -12)" style="" class="label"><rect/><foreignObject height="24" width="86.578125"><div style="display: table-cell; white-space: nowrap; line-height: 1.5; max-width: 200px; text-align: center;" xmlns="http://www.w3.org/1999/xhtml"><span class="nodeLabel"><p>Android App</p></span></div></foreignObject></g></g><g transform="translate(1657.4453125, 60)" id="flowchart-OFFLINE-3" class="node default"><rect height="54" width="151.765625" y="-27" x="-75.8828125" style="" class="basic label-container"/><g transform="translate(-45.8828125, -12)" style="" class="label"><rect/><foreignObject height="24" width="91.765625"><div style="display: table-cell; white-space: nowrap; line-height: 1.5; max-width: 200px; text-align: center;" xmlns="http://www.w3.org/1999/xhtml"><span class="nodeLabel"><p>Offline Mode</p></span></div></foreignObject></g></g><g transform="translate(1421.7890625, 214)" id="flowchart-GOOGLE_CDN-4" class="node default"><rect height="54" width="143.890625" y="-27" x="-71.9453125" style="" class="basic label-container"/><g transform="translate(-41.9453125, -12)" style="" class="label"><rect/><foreignObject height="24" width="83.890625"><div style="display: table-cell; white-space: nowrap; line-height: 1.5; max-width: 200px; text-align: center;" xmlns="http://www.w3.org/1999/xhtml"><span class="nodeLabel"><p>Google CDN</p></span></div></foreignObject></g></g><g transform="translate(1421.7890625, 318)" id="flowchart-EDGE_CACHE-5" class="node default"><rect height="54" width="142.4375" y="-27" x="-71.21875" style="" class="basic label-container"/><g transform="translate(-41.21875, -12)" style="" class="label"><rect/><foreignObject height="24" width="82.4375"><div style="display: table-cell; white-space: nowrap; line-height: 1.5; max-width: 200px; text-align: center;" xmlns="http://www.w3.org/1999/xhtml"><span class="nodeLabel"><p>Edge Cache</p></span></div></foreignObject></g></g><g transform="translate(1421.7890625, 422)" id="flowchart-LOAD_BALANCER-6" class="node default"><rect height="54" width="212.015625" y="-27" x="-106.0078125" style="" class="basic label-container"/><g transform="translate(-76.0078125, -12)" style="" class="label"><rect/><foreignObject height="24" width="152.015625"><div style="display: table-cell; white-space: nowrap; line-height: 1.5; max-width: 200px; text-align: center;" xmlns="http://www.w3.org/1999/xhtml"><span class="nodeLabel"><p>Global Load Balancer</p></span></div></foreignObject></g></g><g transform="translate(1421.7890625, 588)" id="flowchart-REALTIME_API-7" class="node default"><rect height="78" width="170.234375" y="-39" x="-85.1171875" style="" class="basic label-container"/><g transform="translate(-55.1171875, -24)" style="" class="label"><rect/><foreignObject height="48" width="110.234375"><div style="display: table-cell; white-space: nowrap; line-height: 1.5; max-width: 200px; text-align: center;" xmlns="http://www.w3.org/1999/xhtml"><span class="nodeLabel"><p>Realtime API<br />WebSocket/SSE</p></span></div></foreignObject></g></g><g transform="translate(1421.7890625, 716)" id="flowchart-OT_SERVER-8" class="node default"><rect height="78" width="220.3125" y="-39" x="-110.15625" style="" class="basic label-container"/><g transform="translate(-80.15625, -24)" style="" class="label"><rect/><foreignObject height="48" width="160.3125"><div style="display: table-cell; white-space: nowrap; line-height: 1.5; max-width: 200px; text-align: center;" xmlns="http://www.w3.org/1999/xhtml"><span class="nodeLabel"><p>OT Server<br />Operational Transform</p></span></div></foreignObject></g></g><g transform="translate(1431.7890625, 869)" id="flowchart-PRESENCE-9" class="node default"><rect height="78" width="180.21875" y="-39" x="-90.109375" style="" class="basic label-container"/><g transform="translate(-60.109375, -24)" style="" class="label"><rect/><foreignObject height="48" width="120.21875"><div style="display: table-cell; white-space: nowrap; line-height: 1.5; max-width: 200px; text-align: center;" xmlns="http://www.w3.org/1999/xhtml"><span class="nodeLabel"><p>Presence Service<br />Active Users</p></span></div></foreignObject></g></g><g transform="translate(1431.7890625, 997)" id="flowchart-CURSOR-10" class="node default"><rect height="78" width="212.703125" y="-39" x="-106.3515625" style="" class="basic label-container"/><g transform="translate(-76.3515625, -24)" style="" class="label"><rect/><foreignObject height="48" width="152.703125"><div style="display: table-cell; white-space: nowrap; line-height: 1.5; max-width: 200px; text-align: center;" xmlns="http://www.w3.org/1999/xhtml"><span class="nodeLabel"><p>Cursor Sync<br />Collaborative Cursors</p></span></div></foreignObject></g></g><g transform="translate(552.8203125, 869)" id="flowchart-DOC_SERVICE-11" class="node default"><rect height="54" width="188.671875" y="-27" x="-94.3359375" style="" class="basic label-container"/><g transform="translate(-64.3359375, -12)" style="" class="label"><rect/><foreignObject height="24" width="128.671875"><div style="display: table-cell; white-space: nowrap; line-height: 1.5; max-width: 200px; text-align: center;" xmlns="http://www.w3.org/1999/xhtml"><span class="nodeLabel"><p>Document Service</p></span></div></foreignObject></g></g><g transform="translate(225.6640625, 997)" id="flowchart-AUTH-12" class="node default"><rect height="54" width="149.78125" y="-27" x="-74.890625" style="" class="basic label-container"/><g transform="translate(-44.890625, -12)" style="" class="label"><rect/><foreignObject height="24" width="89.78125"><div style="display: table-cell; white-space: nowrap; line-height: 1.5; max-width: 200px; text-align: center;" xmlns="http://www.w3.org/1999/xhtml"><span class="nodeLabel"><p>Auth Service</p></span></div></foreignObject></g></g><g transform="translate(1137.1796875, 997)" id="flowchart-SHARE-13" class="node default"><rect height="54" width="168.90625" y="-27" x="-84.453125" style="" class="basic label-container"/><g transform="translate(-54.453125, -12)" style="" class="label"><rect/><foreignObject height="24" width="108.90625"><div style="display: table-cell; white-space: nowrap; line-height: 1.5; max-width: 200px; text-align: center;" xmlns="http://www.w3.org/1999/xhtml"><span class="nodeLabel"><p>Sharing Service</p></span></div></foreignObject></g></g><g transform="translate(437.890625, 997)" id="flowchart-REVISION-14" class="node default"><rect height="54" width="174.671875" y="-27" x="-87.3359375" style="" class="basic label-container"/><g transform="translate(-57.3359375, -12)" style="" class="label"><rect/><foreignObject height="24" width="114.671875"><div style="display: table-cell; white-space: nowrap; line-height: 1.5; max-width: 200px; text-align: center;" xmlns="http://www.w3.org/1999/xhtml"><span class="nodeLabel"><p>Revision Service</p></span></div></foreignObject></g></g><g transform="translate(667.75, 997)" id="flowchart-COMMENT-15" class="node default"><rect height="54" width="185.046875" y="-27" x="-92.5234375" style="" class="basic label-container"/><g transform="translate(-62.5234375, -12)" style="" class="label"><rect/><foreignObject height="24" width="125.046875"><div style="display: table-cell; white-space: nowrap; line-height: 1.5; max-width: 200px; text-align: center;" xmlns="http://www.w3.org/1999/xhtml"><span class="nodeLabel"><p>Comment Service</p></span></div></foreignObject></g></g><g transform="translate(906.5, 997)" id="flowchart-SUGGEST-16" class="node default"><rect height="54" width="192.453125" y="-27" x="-96.2265625" style="" class="basic label-container"/><g transform="translate(-66.2265625, -12)" style="" class="label"><rect/><foreignObject height="24" width="132.453125"><div style="display: table-cell; white-space: nowrap; line-height: 1.5; max-width: 200px; text-align: center;" xmlns="http://www.w3.org/1999/xhtml"><span class="nodeLabel"><p>Suggestion Service</p></span></div></foreignObject></g></g><g transform="translate(79.8828125, 1174.864345550537)" id="flowchart-BIGTABLE-17" class="node default"><path transform="translate(-36.8828125, -33.416948353116894)" style="" class="basic label-container" d="M0,9.277965568744595 a36.8828125,9.277965568744595 0,0,0 73.765625,0 a36.8828125,9.277965568744595 0,0,0 -73.765625,0 l0,48.27796556874459 a36.8828125,9.277965568744595 0,0,0 73.765625,0 l0,-48.27796556874459"/><g transform="translate(-29.3828125, -2)" style="" class="label"><rect/><foreignObject height="24" width="58.765625"><div style="display: table-cell; white-space: nowrap; line-height: 1.5; max-width: 200px; text-align: center;" xmlns="http://www.w3.org/1999/xhtml"><span class="nodeLabel"><p>Bigtable</p></span></div></foreignObject></g></g><g transform="translate(225.6640625, 1174.864345550537)" id="flowchart-SPANNER-18" class="node default"><path transform="translate(-58.8984375, -37.69373833580025)" style="" class="basic label-container" d="M0,12.129158890533498 a58.8984375,12.129158890533498 0,0,0 117.796875,0 a58.8984375,12.129158890533498 0,0,0 -117.796875,0 l0,51.129158890533496 a58.8984375,12.129158890533498 0,0,0 117.796875,0 l0,-51.129158890533496"/><g transform="translate(-51.3984375, -2)" style="" class="label"><rect/><foreignObject height="24" width="102.796875"><div style="display: table-cell; white-space: nowrap; line-height: 1.5; max-width: 200px; text-align: center;" xmlns="http://www.w3.org/1999/xhtml"><span class="nodeLabel"><p>Cloud Spanner</p></span></div></foreignObject></g></g><g transform="translate(437.890625, 1174.864345550537)" id="flowchart-COLOSSUS-19" class="node default"><path transform="translate(-66.734375, -38.86434530286543)" style="" class="basic label-container" d="M0,12.90956353524362 a66.734375,12.90956353524362 0,0,0 133.46875,0 a66.734375,12.90956353524362 0,0,0 -133.46875,0 l0,51.90956353524362 a66.734375,12.90956353524362 0,0,0 133.46875,0 l0,-51.90956353524362"/><g transform="translate(-59.234375, -2)" style="" class="label"><rect/><foreignObject height="24" width="118.46875"><div style="display: table-cell; white-space: nowrap; line-height: 1.5; max-width: 200px; text-align: center;" xmlns="http://www.w3.org/1999/xhtml"><span class="nodeLabel"><p>Colossus Storage</p></span></div></foreignObject></g></g><g transform="translate(1137.1796875, 1174.864345550537)" id="flowchart-MEMCACHE-20" class="node default"><path transform="translate(-45.0390625, -35.20559389756629)" style="" class="basic label-container" d="M0,10.470395931710861 a45.0390625,10.470395931710861 0,0,0 90.078125,0 a45.0390625,10.470395931710861 0,0,0 -90.078125,0 l0,49.47039593171086 a45.0390625,10.470395931710861 0,0,0 90.078125,0 l0,-49.47039593171086"/><g transform="translate(-37.5390625, -2)" style="" class="label"><rect/><foreignObject height="24" width="75.078125"><div style="display: table-cell; white-space: nowrap; line-height: 1.5; max-width: 200px; text-align: center;" xmlns="http://www.w3.org/1999/xhtml"><span class="nodeLabel"><p>Memcache</p></span></div></foreignObject></g></g></g></g></g></svg>