<svg class="mermaid-svg" aria-roledescription="class" role="graphics-document document" viewBox="0 0 706.8515625 892" style="max-width: 706.852px; background-color: transparent;" class="classDiagram" xmlns:xlink="http://www.w3.org/1999/xlink" xmlns="http://www.w3.org/2000/svg"  id="my-svg"><style>#my-svg{font-family:"trebuchet ms",verdana,arial,sans-serif;font-size:16px;fill:#333;}@keyframes edge-animation-frame{from{stroke-dashoffset:0;}}@keyframes dash{to{stroke-dashoffset:0;}}#my-svg .edge-animation-slow{stroke-dasharray:9,5!important;stroke-dashoffset:900;animation:dash 50s linear infinite;stroke-linecap:round;}#my-svg .edge-animation-fast{stroke-dasharray:9,5!important;stroke-dashoffset:900;animation:dash 20s linear infinite;stroke-linecap:round;}#my-svg .error-icon{fill:#552222;}#my-svg .error-text{fill:#552222;stroke:#552222;}#my-svg .edge-thickness-normal{stroke-width:1px;}#my-svg .edge-thickness-thick{stroke-width:3.5px;}#my-svg .edge-pattern-solid{stroke-dasharray:0;}#my-svg .edge-thickness-invisible{stroke-width:0;fill:none;}#my-svg .edge-pattern-dashed{stroke-dasharray:3;}#my-svg .edge-pattern-dotted{stroke-dasharray:2;}#my-svg .marker{fill:#333333;stroke:#333333;}#my-svg .marker.cross{stroke:#333333;}#my-svg svg{font-family:"trebuchet ms",verdana,arial,sans-serif;font-size:16px;}#my-svg p{margin:0;}#my-svg g.classGroup text{fill:#9370DB;stroke:none;font-family:"trebuchet ms",verdana,arial,sans-serif;font-size:10px;}#my-svg g.classGroup text .title{font-weight:bolder;}#my-svg .nodeLabel,#my-svg .edgeLabel{color:#131300;}#my-svg .edgeLabel .label rect{fill:#ECECFF;}#my-svg .label text{fill:#131300;}#my-svg .labelBkg{background:#ECECFF;}#my-svg .edgeLabel .label span{background:#ECECFF;}#my-svg .classTitle{font-weight:bolder;}#my-svg .node rect,#my-svg .node circle,#my-svg .node ellipse,#my-svg .node polygon,#my-svg .node path{fill:#ECECFF;stroke:#9370DB;stroke-width:1px;}#my-svg .divider{stroke:#9370DB;stroke-width:1;}#my-svg g.clickable{cursor:pointer;}#my-svg g.classGroup rect{fill:#ECECFF;stroke:#9370DB;}#my-svg g.classGroup line{stroke:#9370DB;stroke-width:1;}#my-svg .classLabel .box{stroke:none;stroke-width:0;fill:#ECECFF;opacity:0.5;}#my-svg .classLabel .label{fill:#9370DB;font-size:10px;}#my-svg .relation{stroke:#333333;stroke-width:1;fill:none;}#my-svg .dashed-line{stroke-dasharray:3;}#my-svg .dotted-line{stroke-dasharray:1 2;}#my-svg #compositionStart,#my-svg .composition{fill:#333333!important;stroke:#333333!important;stroke-width:1;}#my-svg #compositionEnd,#my-svg .composition{fill:#333333!important;stroke:#333333!important;stroke-width:1;}#my-svg #dependencyStart,#my-svg .dependency{fill:#333333!important;stroke:#333333!important;stroke-width:1;}#my-svg #dependencyStart,#my-svg .dependency{fill:#333333!important;stroke:#333333!important;stroke-width:1;}#my-svg #extensionStart,#my-svg .extension{fill:transparent!important;stroke:#333333!important;stroke-width:1;}#my-svg #extensionEnd,#my-svg .extension{fill:transparent!important;stroke:#333333!important;stroke-width:1;}#my-svg #aggregationStart,#my-svg .aggregation{fill:transparent!important;stroke:#333333!important;stroke-width:1;}#my-svg #aggregationEnd,#my-svg .aggregation{fill:transparent!important;stroke:#333333!important;stroke-width:1;}#my-svg #lollipopStart,#my-svg .lollipop{fill:#ECECFF!important;stroke:#333333!important;stroke-width:1;}#my-svg #lollipopEnd,#my-svg .lollipop{fill:#ECECFF!important;stroke:#333333!important;stroke-width:1;}#my-svg .edgeTerminals{font-size:11px;line-height:initial;}#my-svg .classTitleText{text-anchor:middle;font-size:18px;fill:#333;}#my-svg .label-icon{display:inline-block;height:1em;overflow:visible;vertical-align:-0.125em;}#my-svg .node .label-icon path{fill:currentColor;stroke:revert;stroke-width:revert;}#my-svg :root{--mermaid-font-family:"trebuchet ms",verdana,arial,sans-serif;}</style><g><defs><marker orient="auto" markerHeight="240" markerWidth="190" refY="7" refX="18" class="marker aggregation class" id="my-svg_class-aggregationStart"><path d="M 18,7 L9,13 L1,7 L9,1 Z"/></marker></defs><defs><marker orient="auto" markerHeight="28" markerWidth="20" refY="7" refX="1" class="marker aggregation class" id="my-svg_class-aggregationEnd"><path d="M 18,7 L9,13 L1,7 L9,1 Z"/></marker></defs><defs><marker orient="auto" markerHeight="240" markerWidth="190" refY="7" refX="18" class="marker extension class" id="my-svg_class-extensionStart"><path d="M 1,7 L18,13 V 1 Z"/></marker></defs><defs><marker orient="auto" markerHeight="28" markerWidth="20" refY="7" refX="1" class="marker extension class" id="my-svg_class-extensionEnd"><path d="M 1,1 V 13 L18,7 Z"/></marker></defs><defs><marker orient="auto" markerHeight="240" markerWidth="190" refY="7" refX="18" class="marker composition class" id="my-svg_class-compositionStart"><path d="M 18,7 L9,13 L1,7 L9,1 Z"/></marker></defs><defs><marker orient="auto" markerHeight="28" markerWidth="20" refY="7" refX="1" class="marker composition class" id="my-svg_class-compositionEnd"><path d="M 18,7 L9,13 L1,7 L9,1 Z"/></marker></defs><defs><marker orient="auto" markerHeight="240" markerWidth="190" refY="7" refX="6" class="marker dependency class" id="my-svg_class-dependencyStart"><path d="M 5,7 L9,13 L1,7 L9,1 Z"/></marker></defs><defs><marker orient="auto" markerHeight="28" markerWidth="20" refY="7" refX="13" class="marker dependency class" id="my-svg_class-dependencyEnd"><path d="M 18,7 L9,13 L14,7 L9,1 Z"/></marker></defs><defs><marker orient="auto" markerHeight="240" markerWidth="190" refY="7" refX="13" class="marker lollipop class" id="my-svg_class-lollipopStart"><circle r="6" cy="7" cx="7" fill="transparent" stroke="black"/></marker></defs><defs><marker orient="auto" markerHeight="240" markerWidth="190" refY="7" refX="1" class="marker lollipop class" id="my-svg_class-lollipopEnd"><circle r="6" cy="7" cx="7" fill="transparent" stroke="black"/></marker></defs><g class="root"><g class="clusters"/><g class="edgePaths"><path style="" class="edge-thickness-normal edge-pattern-solid relation" id="id_User_Profile_1" d="M267.234,664.894L257.967,669.245C248.699,673.596,230.164,682.298,220.896,694.816C211.629,707.333,211.629,723.667,211.629,731.833L211.629,740"/><path style="" class="edge-thickness-normal edge-pattern-solid relation" id="id_User_Connection_2" d="M518.117,664.894L527.385,669.245C536.652,673.596,555.188,682.298,564.455,690.816C573.723,699.333,573.723,707.667,573.723,711.833L573.723,716"/><path marker-start="url(#my-svg_class-aggregationStart)" style="" class="edge-thickness-normal edge-pattern-solid relation" id="id_ConnectionGraph_User_3" d="M392.676,514L392.676,515.167C392.676,516.333,392.676,518.667,392.676,524C392.676,529.333,392.676,537.667,392.676,541.833L392.676,546"/><path marker-end="url(#my-svg_class-dependencyEnd)" style="" class="edge-thickness-normal edge-pattern-dashed relation" id="id_ConnectionService_ConnectionGraph_4" d="M392.676,254L392.676,258.167C392.676,262.333,392.676,270.667,392.676,278C392.676,285.333,392.676,291.667,392.676,294.833L392.676,298"/></g><g class="edgeLabels"><g class="edgeLabel"><g transform="translate(0, -12)" class="label"><foreignObject  width="0"><div class="labelBkg" xmlns="http://www.w3.org/1999/xhtml" style="display: table-cell; white-space: nowrap; line-height: 1.5; max-width: 200px; text-align: center;"><span class="edgeLabel" style=";display: inline-block"></span></div></foreignObject></g></g><g class="edgeLabel"><g transform="translate(0, -12)" class="label"><foreignObject height="24" width="0"><div class="labelBkg" xmlns="http://www.w3.org/1999/xhtml" style="display: table-cell; white-space: nowrap; line-height: 1.5; max-width: 200px; text-align: center;"><span class="edgeLabel" style=";display: inline-block"></span></div></foreignObject></g></g><g class="edgeLabel"><g transform="translate(0, -12)" class="label"><foreignObject height="24" width="0"><div class="labelBkg" xmlns="http://www.w3.org/1999/xhtml" style="display: table-cell; white-space: nowrap; line-height: 1.5; max-width: 200px; text-align: center;"><span class="edgeLabel" style=";display: inline-block"></span></div></foreignObject></g></g><g class="edgeLabel"><g transform="translate(0, -12)" class="label"><foreignObject height="24" width="0"><div class="labelBkg" xmlns="http://www.w3.org/1999/xhtml" style="display: table-cell; white-space: nowrap; line-height: 1.5; max-width: 200px; text-align: center;"><span class="edgeLabel" style=";display: inline-block"></span></div></foreignObject></g></g></g><g class="nodes"><g transform="translate(392.67578125, 606)" id="classId-User-0" class="node default"><g class="basic label-container"><path style="" fill="#ECECFF" stroke-width="0" stroke="none" d="M-125.44140625 -60 L125.44140625 -60 L125.44140625 60 L-125.44140625 60"/><path style="" stroke-dasharray="0 0" fill="none" stroke-width="1.3" stroke="#9370DB" d="M-125.44140625 -60 C-66.34333290931741 -60, -7.245259568634836 -60, 125.44140625 -60 M-125.44140625 -60 C-72.30469256210887 -60, -19.167978874217738 -60, 125.44140625 -60 M125.44140625 -60 C125.44140625 -25.149563450071597, 125.44140625 9.700873099856807, 125.44140625 60 M125.44140625 -60 C125.44140625 -25.208529508777758, 125.44140625 9.582940982444484, 125.44140625 60 M125.44140625 60 C38.39948969323957 60, -48.64242686352085 60, -125.44140625 60 M125.44140625 60 C59.98283475496876 60, -5.475736740062473 60, -125.44140625 60 M-125.44140625 60 C-125.44140625 35.284286740492355, -125.44140625 10.56857348098471, -125.44140625 -60 M-125.44140625 60 C-125.44140625 21.464333251968775, -125.44140625 -17.07133349606245, -125.44140625 -60"/></g><g transform="translate(0, -36)" class="annotation-group text"/><g transform="translate(-16.8828125, -36)" class="label-group text"><g transform="translate(0,-12)" style="font-weight: bolder" class="label"><foreignObject height="24" width="33.765625"><div style="display: table-cell; white-space: nowrap; line-height: 1.5; max-width: 80px; text-align: center;" xmlns="http://www.w3.org/1999/xhtml"><span style="" class="nodeLabel markdown-node-label"><p>User</p></span></div></foreignObject></g></g><g transform="translate(-113.44140625, 12)" class="members-group text"><g transform="translate(0,-12)" style="" class="label"><foreignObject height="24" width="210"><div style="display: table-cell; white-space: nowrap; line-height: 1.5; max-width: 237px; text-align: center;" xmlns="http://www.w3.org/1999/xhtml"><span style="" class="nodeLabel markdown-node-label"><p>-id, name, headline, location</p></span></div></foreignObject></g></g><g transform="translate(-113.44140625, 60)" class="methods-group text"/><g style="" class="divider"><path style="" stroke-dasharray="0 0" fill="none" stroke-width="1.3" stroke="#9370DB" d="M-125.44140625 -12 C-55.91480521698965 -12, 13.611795816020702 -12, 125.44140625 -12 M-125.44140625 -12 C-58.29783728119064 -12, 8.845731687618724 -12, 125.44140625 -12"/></g><g style="" class="divider"><path style="" stroke-dasharray="0 0" fill="none" stroke-width="1.3" stroke="#9370DB" d="M-125.44140625 36 C-58.48560192743001 36, 8.470202395139978 36, 125.44140625 36 M-125.44140625 36 C-39.886578783109286 36, 45.66824868378143 36, 125.44140625 36"/></g></g><g transform="translate(211.62890625, 800)" id="classId-Profile-1" class="node default"><g class="basic label-container"><path style="" fill="#ECECFF" stroke-width="0" stroke="none" d="M-186.96484375 -60 L186.96484375 -60 L186.96484375 60 L-186.96484375 60"/><path style="" stroke-dasharray="0 0" fill="none" stroke-width="1.3" stroke="#9370DB" d="M-186.96484375 -60 C-82.26253230682501 -60, 22.439779136349983 -60, 186.96484375 -60 M-186.96484375 -60 C-102.00825620342131 -60, -17.051668656842622 -60, 186.96484375 -60 M186.96484375 -60 C186.96484375 -25.062405044492095, 186.96484375 9.87518991101581, 186.96484375 60 M186.96484375 -60 C186.96484375 -22.58029862303779, 186.96484375 14.839402753924418, 186.96484375 60 M186.96484375 60 C83.86244541287392 60, -19.23995292425215 60, -186.96484375 60 M186.96484375 60 C58.00705079576122 60, -70.95074215847757 60, -186.96484375 60 M-186.96484375 60 C-186.96484375 29.242316715111162, -186.96484375 -1.515366569777676, -186.96484375 -60 M-186.96484375 60 C-186.96484375 16.48169874352851, -186.96484375 -27.036602512942977, -186.96484375 -60"/></g><g transform="translate(0, -36)" class="annotation-group text"/><g transform="translate(-24.9453125, -36)" class="label-group text"><g transform="translate(0,-12)" style="font-weight: bolder" class="label"><foreignObject height="24" width="49.890625"><div style="display: table-cell; white-space: nowrap; line-height: 1.5; max-width: 94px; text-align: center;" xmlns="http://www.w3.org/1999/xhtml"><span style="" class="nodeLabel markdown-node-label"><p>Profile</p></span></div></foreignObject></g></g><g transform="translate(-174.96484375, 12)" class="members-group text"><g transform="translate(0,-12)" style="" class="label"><foreignObject height="24" width="324.984375"><div style="display: table-cell; white-space: nowrap; line-height: 1.5; max-width: 339px; text-align: center;" xmlns="http://www.w3.org/1999/xhtml"><span style="" class="nodeLabel markdown-node-label"><p>-experiences, education, skills, certifications</p></span></div></foreignObject></g></g><g transform="translate(-174.96484375, 60)" class="methods-group text"/><g style="" class="divider"><path style="" stroke-dasharray="0 0" fill="none" stroke-width="1.3" stroke="#9370DB" d="M-186.96484375 -12 C-47.45189268372803 -12, 92.06105838254393 -12, 186.96484375 -12 M-186.96484375 -12 C-72.60043363089761 -12, 41.763976488204776 -12, 186.96484375 -12"/></g><g style="" class="divider"><path style="" stroke-dasharray="0 0" fill="none" stroke-width="1.3" stroke="#9370DB" d="M-186.96484375 36 C-63.47038096354895 36, 60.024081822902104 36, 186.96484375 36 M-186.96484375 36 C-39.56524598630787 36, 107.83435177738426 36, 186.96484375 36"/></g></g><g transform="translate(95.9140625, 131)" id="classId-ConnectionStatus-2" class="node default"><g class="basic label-container"><path style="" fill="#ECECFF" stroke-width="0" stroke="none" d="M-87.9140625 -108 L87.9140625 -108 L87.9140625 108 L-87.9140625 108"/><path style="" stroke-dasharray="0 0" fill="none" stroke-width="1.3" stroke="#9370DB" d="M-87.9140625 -108 C-27.121341497665895 -108, 33.67137950466821 -108, 87.9140625 -108 M-87.9140625 -108 C-41.34316659913113 -108, 5.227729301737739 -108, 87.9140625 -108 M87.9140625 -108 C87.9140625 -21.978237884736757, 87.9140625 64.04352423052649, 87.9140625 108 M87.9140625 -108 C87.9140625 -26.405617702956846, 87.9140625 55.18876459408631, 87.9140625 108 M87.9140625 108 C36.70712659562666 108, -14.499809308746677 108, -87.9140625 108 M87.9140625 108 C26.071199188872733 108, -35.771664122254535 108, -87.9140625 108 M-87.9140625 108 C-87.9140625 34.66509395252578, -87.9140625 -38.66981209494844, -87.9140625 -108 M-87.9140625 108 C-87.9140625 32.91415857973712, -87.9140625 -42.17168284052576, -87.9140625 -108"/></g><g transform="translate(-28.140625, -84)" class="annotation-group text"><g transform="translate(0,-12)" style="" class="label"><foreignObject height="24" width="56.28125"><div style="display: table-cell; white-space: nowrap; line-height: 1.5; max-width: 102px; text-align: center;" xmlns="http://www.w3.org/1999/xhtml"><span style="" class="nodeLabel markdown-node-label"><p>«enum»</p></span></div></foreignObject></g></g><g transform="translate(-65.234375, -60)" class="label-group text"><g transform="translate(0,-12)" style="font-weight: bolder" class="label"><foreignObject height="24" width="130.46875"><div style="display: table-cell; white-space: nowrap; line-height: 1.5; max-width: 163px; text-align: center;" xmlns="http://www.w3.org/1999/xhtml"><span style="" class="nodeLabel markdown-node-label"><p>ConnectionStatus</p></span></div></foreignObject></g></g><g transform="translate(-75.9140625, -12)" class="members-group text"><g transform="translate(0,-12)" style="" class="label"><foreignObject height="24" width="63"><div style="display: table-cell; white-space: nowrap; line-height: 1.5; max-width: 120px; text-align: center;" xmlns="http://www.w3.org/1999/xhtml"><span style="" class="nodeLabel markdown-node-label"><p>PENDING</p></span></div></foreignObject></g><g transform="translate(0,12)" style="" class="label"><foreignObject height="24" width="86.59375"><div style="display: table-cell; white-space: nowrap; line-height: 1.5; max-width: 147px; text-align: center;" xmlns="http://www.w3.org/1999/xhtml"><span style="" class="nodeLabel markdown-node-label"><p>CONNECTED</p></span></div></foreignObject></g><g transform="translate(0,36)" style="" class="label"><foreignObject height="24" width="69.109375"><div style="display: table-cell; white-space: nowrap; line-height: 1.5; max-width: 130px; text-align: center;" xmlns="http://www.w3.org/1999/xhtml"><span style="" class="nodeLabel markdown-node-label"><p>DECLINED</p></span></div></foreignObject></g><g transform="translate(0,60)" style="" class="label"><foreignObject height="24" width="65.109375"><div style="display: table-cell; white-space: nowrap; line-height: 1.5; max-width: 126px; text-align: center;" xmlns="http://www.w3.org/1999/xhtml"><span style="" class="nodeLabel markdown-node-label"><p>BLOCKED</p></span></div></foreignObject></g></g><g transform="translate(-75.9140625, 108)" class="methods-group text"/><g style="" class="divider"><path style="" stroke-dasharray="0 0" fill="none" stroke-width="1.3" stroke="#9370DB" d="M-87.9140625 -36 C-27.352397414247932 -36, 33.209267671504136 -36, 87.9140625 -36 M-87.9140625 -36 C-17.785478973570832 -36, 52.343104552858335 -36, 87.9140625 -36"/></g><g style="" class="divider"><path style="" stroke-dasharray="0 0" fill="none" stroke-width="1.3" stroke="#9370DB" d="M-87.9140625 84 C-51.40382671448269 84, -14.89359092896538 84, 87.9140625 84 M-87.9140625 84 C-49.974498449928895 84, -12.03493439985779 84, 87.9140625 84"/></g></g><g transform="translate(573.72265625, 800)" id="classId-Connection-3" class="node default"><g class="basic label-container"><path style="" fill="#ECECFF" stroke-width="0" stroke="none" d="M-125.12890625 -84 L125.12890625 -84 L125.12890625 84 L-125.12890625 84"/><path style="" stroke-dasharray="0 0" fill="none" stroke-width="1.3" stroke="#9370DB" d="M-125.12890625 -84 C-67.16622319316878 -84, -9.203540136337566 -84, 125.12890625 -84 M-125.12890625 -84 C-62.43840956534411 -84, 0.2520871193117813 -84, 125.12890625 -84 M125.12890625 -84 C125.12890625 -40.34921501296317, 125.12890625 3.301569974073658, 125.12890625 84 M125.12890625 -84 C125.12890625 -32.067965561399404, 125.12890625 19.86406887720119, 125.12890625 84 M125.12890625 84 C31.41693807872936 84, -62.29503009254128 84, -125.12890625 84 M125.12890625 84 C25.2481838407854 84, -74.6325385684292 84, -125.12890625 84 M-125.12890625 84 C-125.12890625 48.098734634632585, -125.12890625 12.19746926926517, -125.12890625 -84 M-125.12890625 84 C-125.12890625 27.104395694763284, -125.12890625 -29.791208610473433, -125.12890625 -84"/></g><g transform="translate(0, -60)" class="annotation-group text"/><g transform="translate(-42.3671875, -60)" class="label-group text"><g transform="translate(0,-12)" style="font-weight: bolder" class="label"><foreignObject height="24" width="84.734375"><div style="display: table-cell; white-space: nowrap; line-height: 1.5; max-width: 124px; text-align: center;" xmlns="http://www.w3.org/1999/xhtml"><span style="" class="nodeLabel markdown-node-label"><p>Connection</p></span></div></foreignObject></g></g><g transform="translate(-113.12890625, -12)" class="members-group text"><g transform="translate(0,-12)" style="" class="label"><foreignObject height="24" width="155.828125"><div style="display: table-cell; white-space: nowrap; line-height: 1.5; max-width: 198px; text-align: center;" xmlns="http://www.w3.org/1999/xhtml"><span style="" class="nodeLabel markdown-node-label"><p>-fromUserId, toUserId</p></span></div></foreignObject></g><g transform="translate(0,12)" style="" class="label"><foreignObject height="24" width="183.890625"><div style="display: table-cell; white-space: nowrap; line-height: 1.5; max-width: 218px; text-align: center;" xmlns="http://www.w3.org/1999/xhtml"><span style="" class="nodeLabel markdown-node-label"><p>-status: ConnectionStatus</p></span></div></foreignObject></g><g transform="translate(0,36)" style="" class="label"><foreignObject height="24" width="102.515625"><div style="display: table-cell; white-space: nowrap; line-height: 1.5; max-width: 145px; text-align: center;" xmlns="http://www.w3.org/1999/xhtml"><span style="" class="nodeLabel markdown-node-label"><p>-since: Instant</p></span></div></foreignObject></g></g><g transform="translate(-113.12890625, 84)" class="methods-group text"/><g style="" class="divider"><path style="" stroke-dasharray="0 0" fill="none" stroke-width="1.3" stroke="#9370DB" d="M-125.12890625 -36 C-67.89674285903278 -36, -10.664579468065568 -36, 125.12890625 -36 M-125.12890625 -36 C-59.547363099307574 -36, 6.034180051384851 -36, 125.12890625 -36"/></g><g style="" class="divider"><path style="" stroke-dasharray="0 0" fill="none" stroke-width="1.3" stroke="#9370DB" d="M-125.12890625 60 C-44.11183388324727 60, 36.90523848350546 60, 125.12890625 60 M-125.12890625 60 C-63.11858177590764 60, -1.1082573018152857 60, 125.12890625 60"/></g></g><g transform="translate(392.67578125, 400)" id="classId-ConnectionGraph-4" class="node default"><g class="basic label-container"><path style="" fill="#ECECFF" stroke-width="0" stroke="none" d="M-167.47265625 -96 L167.47265625 -96 L167.47265625 96 L-167.47265625 96"/><path style="" stroke-dasharray="0 0" fill="none" stroke-width="1.3" stroke="#9370DB" d="M-167.47265625 -96 C-42.17827101642672 -96, 83.11611421714656 -96, 167.47265625 -96 M-167.47265625 -96 C-59.703885785018656 -96, 48.06488467996269 -96, 167.47265625 -96 M167.47265625 -96 C167.47265625 -54.506810888613586, 167.47265625 -13.013621777227172, 167.47265625 96 M167.47265625 -96 C167.47265625 -34.64988271222393, 167.47265625 26.700234575552145, 167.47265625 96 M167.47265625 96 C70.2806637368935 96, -26.911328776212997 96, -167.47265625 96 M167.47265625 96 C66.42526029303141 96, -34.62213566393717 96, -167.47265625 96 M-167.47265625 96 C-167.47265625 52.56802525553242, -167.47265625 9.136050511064838, -167.47265625 -96 M-167.47265625 96 C-167.47265625 48.21692639553664, -167.47265625 0.4338527910732779, -167.47265625 -96"/></g><g transform="translate(0, -72)" class="annotation-group text"/><g transform="translate(-64.5703125, -72)" class="label-group text"><g transform="translate(0,-12)" style="font-weight: bolder" class="label"><foreignObject height="24" width="129.140625"><div style="display: table-cell; white-space: nowrap; line-height: 1.5; max-width: 164px; text-align: center;" xmlns="http://www.w3.org/1999/xhtml"><span style="" class="nodeLabel markdown-node-label"><p>ConnectionGraph</p></span></div></foreignObject></g></g><g transform="translate(-155.47265625, -24)" class="members-group text"><g transform="translate(0,-12)" style="" class="label"><foreignObject height="24" width="246.375"><div style="display: table-cell; white-space: nowrap; line-height: 1.5; max-width: 322px; text-align: center;" xmlns="http://www.w3.org/1999/xhtml"><span style="" class="nodeLabel markdown-node-label"><p>-adjacency: Map~User, Set&lt;User~&gt;</p></span></div></foreignObject></g></g><g transform="translate(-155.47265625, 24)" class="methods-group text"><g transform="translate(0,-12)" style="" class="label"><foreignObject height="24" width="105.140625"><div style="display: table-cell; white-space: nowrap; line-height: 1.5; max-width: 147px; text-align: center;" xmlns="http://www.w3.org/1999/xhtml"><span style="" class="nodeLabel markdown-node-label"><p>+connect(a, b)</p></span></div></foreignObject></g><g transform="translate(0,12)" style="" class="label"><foreignObject height="24" width="125.09375"><div style="display: table-cell; white-space: nowrap; line-height: 1.5; max-width: 166px; text-align: center;" xmlns="http://www.w3.org/1999/xhtml"><span style="" class="nodeLabel markdown-node-label"><p>+disconnect(a, b)</p></span></div></foreignObject></g><g transform="translate(0,36)" style="" class="label"><foreignObject height="24" width="97.890625"><div style="display: table-cell; white-space: nowrap; line-height: 1.5; max-width: 145px; text-align: center;" xmlns="http://www.w3.org/1999/xhtml"><span style="" class="nodeLabel markdown-node-label"><p>+neighbors(u)</p></span></div></foreignObject></g></g><g style="" class="divider"><path style="" stroke-dasharray="0 0" fill="none" stroke-width="1.3" stroke="#9370DB" d="M-167.47265625 -48 C-39.4737543475357 -48, 88.5251475549286 -48, 167.47265625 -48 M-167.47265625 -48 C-60.97050989291857 -48, 45.53163646416286 -48, 167.47265625 -48"/></g><g style="" class="divider"><path style="" stroke-dasharray="0 0" fill="none" stroke-width="1.3" stroke="#9370DB" d="M-167.47265625 0 C-36.78765732217019 0, 93.89734160565962 0, 167.47265625 0 M-167.47265625 0 C-80.42074976353568 0, 6.631156722928637 0, 167.47265625 0"/></g></g><g transform="translate(392.67578125, 131)" id="classId-ConnectionService-5" class="node default"><g class="basic label-container"><path style="" fill="#ECECFF" stroke-width="0" stroke="none" d="M-158.84765625 -123 L158.84765625 -123 L158.84765625 123 L-158.84765625 123"/><path style="" stroke-dasharray="0 0" fill="none" stroke-width="1.3" stroke="#9370DB" d="M-158.84765625 -123 C-72.58176083786806 -123, 13.68413457426388 -123, 158.84765625 -123 M-158.84765625 -123 C-53.83992964417486 -123, 51.16779696165028 -123, 158.84765625 -123 M158.84765625 -123 C158.84765625 -59.636345594194815, 158.84765625 3.7273088116103708, 158.84765625 123 M158.84765625 -123 C158.84765625 -64.6710857292375, 158.84765625 -6.342171458475008, 158.84765625 123 M158.84765625 123 C43.64205153261774 123, -71.56355318476452 123, -158.84765625 123 M158.84765625 123 C72.03922626997269 123, -14.769203710054626 123, -158.84765625 123 M-158.84765625 123 C-158.84765625 61.102662017301576, -158.84765625 -0.7946759653968485, -158.84765625 -123 M-158.84765625 123 C-158.84765625 46.861564443423575, -158.84765625 -29.27687111315285, -158.84765625 -123"/></g><g transform="translate(0, -99)" class="annotation-group text"/><g transform="translate(-70.0234375, -99)" class="label-group text"><g transform="translate(0,-12)" style="font-weight: bolder" class="label"><foreignObject height="24" width="140.046875"><div style="display: table-cell; white-space: nowrap; line-height: 1.5; max-width: 172px; text-align: center;" xmlns="http://www.w3.org/1999/xhtml"><span style="" class="nodeLabel markdown-node-label"><p>ConnectionService</p></span></div></foreignObject></g></g><g transform="translate(-146.84765625, -51)" class="members-group text"/><g transform="translate(-146.84765625, -21)" class="methods-group text"><g transform="translate(0,-12)" style="" class="label"><foreignObject height="24" width="169.21875"><div style="display: table-cell; white-space: nowrap; line-height: 1.5; max-width: 207px; text-align: center;" xmlns="http://www.w3.org/1999/xhtml"><span style="" class="nodeLabel markdown-node-label"><p>+sendRequest(from, to)</p></span></div></foreignObject></g><g transform="translate(0,12)" style="" class="label"><foreignObject height="24" width="92.234375"><div style="display: table-cell; white-space: nowrap; line-height: 1.5; max-width: 135px; text-align: center;" xmlns="http://www.w3.org/1999/xhtml"><span style="" class="nodeLabel markdown-node-label"><p>+accept(req)</p></span></div></foreignObject></g><g transform="translate(0,36)" style="" class="label"><foreignObject height="24" width="96.3125"><div style="display: table-cell; white-space: nowrap; line-height: 1.5; max-width: 141px; text-align: center;" xmlns="http://www.w3.org/1999/xhtml"><span style="" class="nodeLabel markdown-node-label"><p>+decline(req)</p></span></div></foreignObject></g><g transform="translate(0,60)" style="" class="label"><foreignObject height="24" width="194.890625"><div style="display: table-cell; white-space: nowrap; line-height: 1.5; max-width: 225px; text-align: center;" xmlns="http://www.w3.org/1999/xhtml"><span style="" class="nodeLabel markdown-node-label"><p>+degreeBetween(a, b) : int</p></span></div></foreignObject></g><g transform="translate(0,84)" style="" class="label"><foreignObject height="24" width="223.671875"><div style="display: table-cell; white-space: nowrap; line-height: 1.5; max-width: 255px; text-align: center;" xmlns="http://www.w3.org/1999/xhtml"><span style="" class="nodeLabel markdown-node-label"><p>+mutualConnections(a, b) : Set</p></span></div></foreignObject></g><g transform="translate(0,108)" style="" class="label"><foreignObject height="24" width="171.296875"><div style="display: table-cell; white-space: nowrap; line-height: 1.5; max-width: 253px; text-align: center;" xmlns="http://www.w3.org/1999/xhtml"><span style="" class="nodeLabel markdown-node-label"><p>+suggest(u) : List&lt;User&gt;</p></span></div></foreignObject></g></g><g style="" class="divider"><path style="" stroke-dasharray="0 0" fill="none" stroke-width="1.3" stroke="#9370DB" d="M-158.84765625 -75 C-88.97287662991197 -75, -19.09809700982393 -75, 158.84765625 -75 M-158.84765625 -75 C-58.0356037558623 -75, 42.776448738275406 -75, 158.84765625 -75"/></g><g style="" class="divider"><path style="" stroke-dasharray="0 0" fill="none" stroke-width="1.3" stroke="#9370DB" d="M-158.84765625 -51 C-36.5786232725941 -51, 85.6904097048118 -51, 158.84765625 -51 M-158.84765625 -51 C-41.37928181374211 -51, 76.08909262251578 -51, 158.84765625 -51"/></g></g></g></g></g></svg>