<svg class="mermaid-svg" aria-roledescription="class" role="graphics-document document" viewBox="0 0 555.1328125 560" style="max-width: 555.133px; background-color: transparent;" class="classDiagram" xmlns:xlink="http://www.w3.org/1999/xlink" xmlns="http://www.w3.org/2000/svg"  id="my-svg"><style>#my-svg{font-family:"trebuchet ms",verdana,arial,sans-serif;font-size:16px;fill:#333;}@keyframes edge-animation-frame{from{stroke-dashoffset:0;}}@keyframes dash{to{stroke-dashoffset:0;}}#my-svg .edge-animation-slow{stroke-dasharray:9,5!important;stroke-dashoffset:900;animation:dash 50s linear infinite;stroke-linecap:round;}#my-svg .edge-animation-fast{stroke-dasharray:9,5!important;stroke-dashoffset:900;animation:dash 20s linear infinite;stroke-linecap:round;}#my-svg .error-icon{fill:#552222;}#my-svg .error-text{fill:#552222;stroke:#552222;}#my-svg .edge-thickness-normal{stroke-width:1px;}#my-svg .edge-thickness-thick{stroke-width:3.5px;}#my-svg .edge-pattern-solid{stroke-dasharray:0;}#my-svg .edge-thickness-invisible{stroke-width:0;fill:none;}#my-svg .edge-pattern-dashed{stroke-dasharray:3;}#my-svg .edge-pattern-dotted{stroke-dasharray:2;}#my-svg .marker{fill:#333333;stroke:#333333;}#my-svg .marker.cross{stroke:#333333;}#my-svg svg{font-family:"trebuchet ms",verdana,arial,sans-serif;font-size:16px;}#my-svg p{margin:0;}#my-svg g.classGroup text{fill:#9370DB;stroke:none;font-family:"trebuchet ms",verdana,arial,sans-serif;font-size:10px;}#my-svg g.classGroup text .title{font-weight:bolder;}#my-svg .nodeLabel,#my-svg .edgeLabel{color:#131300;}#my-svg .edgeLabel .label rect{fill:#ECECFF;}#my-svg .label text{fill:#131300;}#my-svg .labelBkg{background:#ECECFF;}#my-svg .edgeLabel .label span{background:#ECECFF;}#my-svg .classTitle{font-weight:bolder;}#my-svg .node rect,#my-svg .node circle,#my-svg .node ellipse,#my-svg .node polygon,#my-svg .node path{fill:#ECECFF;stroke:#9370DB;stroke-width:1px;}#my-svg .divider{stroke:#9370DB;stroke-width:1;}#my-svg g.clickable{cursor:pointer;}#my-svg g.classGroup rect{fill:#ECECFF;stroke:#9370DB;}#my-svg g.classGroup line{stroke:#9370DB;stroke-width:1;}#my-svg .classLabel .box{stroke:none;stroke-width:0;fill:#ECECFF;opacity:0.5;}#my-svg .classLabel .label{fill:#9370DB;font-size:10px;}#my-svg .relation{stroke:#333333;stroke-width:1;fill:none;}#my-svg .dashed-line{stroke-dasharray:3;}#my-svg .dotted-line{stroke-dasharray:1 2;}#my-svg #compositionStart,#my-svg .composition{fill:#333333!important;stroke:#333333!important;stroke-width:1;}#my-svg #compositionEnd,#my-svg .composition{fill:#333333!important;stroke:#333333!important;stroke-width:1;}#my-svg #dependencyStart,#my-svg .dependency{fill:#333333!important;stroke:#333333!important;stroke-width:1;}#my-svg #dependencyStart,#my-svg .dependency{fill:#333333!important;stroke:#333333!important;stroke-width:1;}#my-svg #extensionStart,#my-svg .extension{fill:transparent!important;stroke:#333333!important;stroke-width:1;}#my-svg #extensionEnd,#my-svg .extension{fill:transparent!important;stroke:#333333!important;stroke-width:1;}#my-svg #aggregationStart,#my-svg .aggregation{fill:transparent!important;stroke:#333333!important;stroke-width:1;}#my-svg #aggregationEnd,#my-svg .aggregation{fill:transparent!important;stroke:#333333!important;stroke-width:1;}#my-svg #lollipopStart,#my-svg .lollipop{fill:#ECECFF!important;stroke:#333333!important;stroke-width:1;}#my-svg #lollipopEnd,#my-svg .lollipop{fill:#ECECFF!important;stroke:#333333!important;stroke-width:1;}#my-svg .edgeTerminals{font-size:11px;line-height:initial;}#my-svg .classTitleText{text-anchor:middle;font-size:18px;fill:#333;}#my-svg .label-icon{display:inline-block;height:1em;overflow:visible;vertical-align:-0.125em;}#my-svg .node .label-icon path{fill:currentColor;stroke:revert;stroke-width:revert;}#my-svg :root{--mermaid-font-family:"trebuchet ms",verdana,arial,sans-serif;}</style><g><defs><marker orient="auto" markerHeight="240" markerWidth="190" refY="7" refX="18" class="marker aggregation class" id="my-svg_class-aggregationStart"><path d="M 18,7 L9,13 L1,7 L9,1 Z"/></marker></defs><defs><marker orient="auto" markerHeight="28" markerWidth="20" refY="7" refX="1" class="marker aggregation class" id="my-svg_class-aggregationEnd"><path d="M 18,7 L9,13 L1,7 L9,1 Z"/></marker></defs><defs><marker orient="auto" markerHeight="240" markerWidth="190" refY="7" refX="18" class="marker extension class" id="my-svg_class-extensionStart"><path d="M 1,7 L18,13 V 1 Z"/></marker></defs><defs><marker orient="auto" markerHeight="28" markerWidth="20" refY="7" refX="1" class="marker extension class" id="my-svg_class-extensionEnd"><path d="M 1,1 V 13 L18,7 Z"/></marker></defs><defs><marker orient="auto" markerHeight="240" markerWidth="190" refY="7" refX="18" class="marker composition class" id="my-svg_class-compositionStart"><path d="M 18,7 L9,13 L1,7 L9,1 Z"/></marker></defs><defs><marker orient="auto" markerHeight="28" markerWidth="20" refY="7" refX="1" class="marker composition class" id="my-svg_class-compositionEnd"><path d="M 18,7 L9,13 L1,7 L9,1 Z"/></marker></defs><defs><marker orient="auto" markerHeight="240" markerWidth="190" refY="7" refX="6" class="marker dependency class" id="my-svg_class-dependencyStart"><path d="M 5,7 L9,13 L1,7 L9,1 Z"/></marker></defs><defs><marker orient="auto" markerHeight="28" markerWidth="20" refY="7" refX="13" class="marker dependency class" id="my-svg_class-dependencyEnd"><path d="M 18,7 L9,13 L14,7 L9,1 Z"/></marker></defs><defs><marker orient="auto" markerHeight="240" markerWidth="190" refY="7" refX="13" class="marker lollipop class" id="my-svg_class-lollipopStart"><circle r="6" cy="7" cx="7" fill="transparent" stroke="black"/></marker></defs><defs><marker orient="auto" markerHeight="240" markerWidth="190" refY="7" refX="1" class="marker lollipop class" id="my-svg_class-lollipopEnd"><circle r="6" cy="7" cx="7" fill="transparent" stroke="black"/></marker></defs><g class="root"><g class="clusters"/><g class="edgePaths"><path marker-end="url(#my-svg_class-dependencyEnd)" marker-start="url(#my-svg_class-aggregationStart)" style="" class="edge-thickness-normal edge-pattern-solid relation" id="id_Context_State_1" d="M177.144,154.674L164.777,162.395C152.411,170.116,127.678,185.558,115.312,196.446C102.945,207.333,102.945,213.667,102.945,216.833L102.945,220"/><path marker-start="url(#my-svg_class-extensionStart)" style="" class="edge-thickness-normal edge-pattern-dashed relation" id="id_State_ConcreteStateA_2" d="M102.945,394L102.945,395.167C102.945,396.333,102.945,398.667,106.915,404C110.885,409.333,118.824,417.667,122.794,421.833L126.763,426"/><path marker-start="url(#my-svg_class-extensionStart)" style="" class="edge-thickness-normal edge-pattern-dashed relation" id="id_State_ConcreteStateB_3" d="M214.306,351.092L232.799,359.41C251.291,367.728,288.275,384.364,312.377,396.849C336.479,409.333,347.698,417.667,353.308,421.833L358.917,426"/><path marker-end="url(#my-svg_class-dependencyEnd)" style="" class="edge-thickness-normal edge-pattern-dashed relation" id="id_ConcreteStateA_Context_4" d="M251.747,426L256.043,421.833C260.34,417.667,268.933,409.333,273.229,388.5C277.525,367.667,277.525,334.333,277.525,301C277.525,267.667,277.525,234.333,277.525,214.5C277.525,194.667,277.525,188.333,277.525,185.167L277.525,182"/><path marker-end="url(#my-svg_class-dependencyEnd)" style="" class="edge-thickness-normal edge-pattern-dashed relation" id="id_ConcreteStateB_Context_5" d="M450.893,426L451.367,421.833C451.84,417.667,452.787,409.333,453.261,388.5C453.734,367.667,453.734,334.333,453.734,301C453.734,267.667,453.734,234.333,439.402,208.801C425.07,183.269,396.406,165.537,382.073,156.672L367.741,147.806"/></g><g class="edgeLabels"><g class="edgeLabel"><g transform="translate(0, -12)" class="label"><foreignObject  width="0"><div class="labelBkg" xmlns="http://www.w3.org/1999/xhtml" style="display: table-cell; white-space: nowrap; line-height: 1.5; max-width: 200px; text-align: center;"><span class="edgeLabel" style=";display: inline-block"></span></div></foreignObject></g></g><g class="edgeLabel"><g transform="translate(0, -12)" class="label"><foreignObject height="24" width="0"><div class="labelBkg" xmlns="http://www.w3.org/1999/xhtml" style="display: table-cell; white-space: nowrap; line-height: 1.5; max-width: 200px; text-align: center;"><span class="edgeLabel" style=";display: inline-block"></span></div></foreignObject></g></g><g class="edgeLabel"><g transform="translate(0, -12)" class="label"><foreignObject height="24" width="0"><div class="labelBkg" xmlns="http://www.w3.org/1999/xhtml" style="display: table-cell; white-space: nowrap; line-height: 1.5; max-width: 200px; text-align: center;"><span class="edgeLabel" style=";display: inline-block"></span></div></foreignObject></g></g><g transform="translate(277.525390625, 301)" class="edgeLabel"><g transform="translate(-37.734375, -12)" class="label"><foreignObject height="24" width="75.46875"><div class="labelBkg" xmlns="http://www.w3.org/1999/xhtml" style="display: table-cell; white-space: nowrap; line-height: 1.5; max-width: 200px; text-align: center;"><span class="edgeLabel" style=";display: inline-block"><p>transitions</p></span></div></foreignObject></g></g><g transform="translate(453.734375, 301)" class="edgeLabel"><g transform="translate(-37.734375, -12)" class="label"><foreignObject height="24" width="75.46875"><div class="labelBkg" xmlns="http://www.w3.org/1999/xhtml" style="display: table-cell; white-space: nowrap; line-height: 1.5; max-width: 200px; text-align: center;"><span class="edgeLabel" style=";display: inline-block"><p>transitions</p></span></div></foreignObject></g></g></g><g class="nodes"><g transform="translate(277.525390625, 92)" id="classId-Context-0" class="node default"><g class="basic label-container"><path style="" fill="#ECECFF" stroke-width="0" stroke="none" d="M-85.11328125 -84 L85.11328125 -84 L85.11328125 84 L-85.11328125 84"/><path style="" stroke-dasharray="0 0" fill="none" stroke-width="1.3" stroke="#9370DB" d="M-85.11328125 -84 C-17.770440341423424 -84, 49.57240056715315 -84, 85.11328125 -84 M-85.11328125 -84 C-26.554988282046047 -84, 32.003304685907906 -84, 85.11328125 -84 M85.11328125 -84 C85.11328125 -28.116957130277093, 85.11328125 27.766085739445813, 85.11328125 84 M85.11328125 -84 C85.11328125 -48.80254858082324, 85.11328125 -13.605097161646484, 85.11328125 84 M85.11328125 84 C27.53467890907431 84, -30.043923431851383 84, -85.11328125 84 M85.11328125 84 C32.735410673116384 84, -19.642459903767232 84, -85.11328125 84 M-85.11328125 84 C-85.11328125 44.21744008425294, -85.11328125 4.4348801685058845, -85.11328125 -84 M-85.11328125 84 C-85.11328125 39.24740432086845, -85.11328125 -5.5051913582631045, -85.11328125 -84"/></g><g transform="translate(0, -60)" class="annotation-group text"/><g transform="translate(-29.5078125, -60)" class="label-group text"><g transform="translate(0,-12)" style="font-weight: bolder" class="label"><foreignObject height="24" width="59.015625"><div style="display: table-cell; white-space: nowrap; line-height: 1.5; max-width: 101px; text-align: center;" xmlns="http://www.w3.org/1999/xhtml"><span style="" class="nodeLabel markdown-node-label"><p>Context</p></span></div></foreignObject></g></g><g transform="translate(-73.11328125, -12)" class="members-group text"><g transform="translate(0,-12)" style="" class="label"><foreignObject height="24" width="90.390625"><div style="display: table-cell; white-space: nowrap; line-height: 1.5; max-width: 130px; text-align: center;" xmlns="http://www.w3.org/1999/xhtml"><span style="" class="nodeLabel markdown-node-label"><p>-state: State</p></span></div></foreignObject></g></g><g transform="translate(-73.11328125, 36)" class="methods-group text"><g transform="translate(0,-12)" style="" class="label"><foreignObject height="24" width="116.71875"><div style="display: table-cell; white-space: nowrap; line-height: 1.5; max-width: 156px; text-align: center;" xmlns="http://www.w3.org/1999/xhtml"><span style="" class="nodeLabel markdown-node-label"><p>+setState(State)</p></span></div></foreignObject></g><g transform="translate(0,12)" style="" class="label"><foreignObject height="24" width="74.296875"><div style="display: table-cell; white-space: nowrap; line-height: 1.5; max-width: 120px; text-align: center;" xmlns="http://www.w3.org/1999/xhtml"><span style="" class="nodeLabel markdown-node-label"><p>+request()</p></span></div></foreignObject></g></g><g style="" class="divider"><path style="" stroke-dasharray="0 0" fill="none" stroke-width="1.3" stroke="#9370DB" d="M-85.11328125 -36 C-18.0922451941412 -36, 48.9287908617176 -36, 85.11328125 -36 M-85.11328125 -36 C-29.737433534094876 -36, 25.638414181810248 -36, 85.11328125 -36"/></g><g style="" class="divider"><path style="" stroke-dasharray="0 0" fill="none" stroke-width="1.3" stroke="#9370DB" d="M-85.11328125 12 C-36.91555714924188 12, 11.282166951516245 12, 85.11328125 12 M-85.11328125 12 C-42.2198060207764 12, 0.673669208447194 12, 85.11328125 12"/></g></g><g transform="translate(102.9453125, 301)" id="classId-State-1" class="node default"><g class="basic label-container"><path style="" fill="#ECECFF" stroke-width="0" stroke="none" d="M-94.9453125 -75 L94.9453125 -75 L94.9453125 75 L-94.9453125 75"/><path style="" stroke-dasharray="0 0" fill="none" stroke-width="1.3" stroke="#9370DB" d="M-94.9453125 -75 C-21.925568065091284 -75, 51.09417636981743 -75, 94.9453125 -75 M-94.9453125 -75 C-28.041466674265706 -75, 38.86237915146859 -75, 94.9453125 -75 M94.9453125 -75 C94.9453125 -43.280096187450745, 94.9453125 -11.56019237490149, 94.9453125 75 M94.9453125 -75 C94.9453125 -35.28557817655955, 94.9453125 4.428843646880907, 94.9453125 75 M94.9453125 75 C25.31921559254026 75, -44.30688131491948 75, -94.9453125 75 M94.9453125 75 C46.15989314553241 75, -2.6255262089351845 75, -94.9453125 75 M-94.9453125 75 C-94.9453125 24.113110772095176, -94.9453125 -26.773778455809648, -94.9453125 -75 M-94.9453125 75 C-94.9453125 36.03296927385587, -94.9453125 -2.9340614522882618, -94.9453125 -75"/></g><g transform="translate(-41.171875, -51)" class="annotation-group text"><g transform="translate(0,-12)" style="" class="label"><foreignObject height="24" width="82.34375"><div style="display: table-cell; white-space: nowrap; line-height: 1.5; max-width: 122px; text-align: center;" xmlns="http://www.w3.org/1999/xhtml"><span style="" class="nodeLabel markdown-node-label"><p>«interface»</p></span></div></foreignObject></g></g><g transform="translate(-19.296875, -27)" class="label-group text"><g transform="translate(0,-12)" style="font-weight: bolder" class="label"><foreignObject height="24" width="38.59375"><div style="display: table-cell; white-space: nowrap; line-height: 1.5; max-width: 82px; text-align: center;" xmlns="http://www.w3.org/1999/xhtml"><span style="" class="nodeLabel markdown-node-label"><p>State</p></span></div></foreignObject></g></g><g transform="translate(-82.9453125, 21)" class="members-group text"/><g transform="translate(-82.9453125, 51)" class="methods-group text"><g transform="translate(0,-12)" style="" class="label"><foreignObject height="24" width="124.71875"><div style="display: table-cell; white-space: nowrap; line-height: 1.5; max-width: 167px; text-align: center;" xmlns="http://www.w3.org/1999/xhtml"><span style="" class="nodeLabel markdown-node-label"><p>+handle(Context)</p></span></div></foreignObject></g></g><g style="" class="divider"><path style="" stroke-dasharray="0 0" fill="none" stroke-width="1.3" stroke="#9370DB" d="M-94.9453125 -3 C-28.691811518011463 -3, 37.561689463977075 -3, 94.9453125 -3 M-94.9453125 -3 C-56.94797255835253 -3, -18.950632616705064 -3, 94.9453125 -3"/></g><g style="" class="divider"><path style="" stroke-dasharray="0 0" fill="none" stroke-width="1.3" stroke="#9370DB" d="M-94.9453125 21 C-26.089720367851655 21, 42.76587176429669 21, 94.9453125 21 M-94.9453125 21 C-26.21458450995199 21, 42.51614348009602 21, 94.9453125 21"/></g></g><g transform="translate(186.78515625, 489)" id="classId-ConcreteStateA-2" class="node default"><g class="basic label-container"><path style="" fill="#ECECFF" stroke-width="0" stroke="none" d="M-103.55078125 -63 L103.55078125 -63 L103.55078125 63 L-103.55078125 63"/><path style="" stroke-dasharray="0 0" fill="none" stroke-width="1.3" stroke="#9370DB" d="M-103.55078125 -63 C-37.54919825578686 -63, 28.452384738426275 -63, 103.55078125 -63 M-103.55078125 -63 C-57.02666972942588 -63, -10.502558208851767 -63, 103.55078125 -63 M103.55078125 -63 C103.55078125 -24.575427025745093, 103.55078125 13.849145948509815, 103.55078125 63 M103.55078125 -63 C103.55078125 -19.825034204470654, 103.55078125 23.34993159105869, 103.55078125 63 M103.55078125 63 C31.68253331771747 63, -40.18571461456506 63, -103.55078125 63 M103.55078125 63 C21.986116055463015 63, -59.57854913907397 63, -103.55078125 63 M-103.55078125 63 C-103.55078125 13.840261065195804, -103.55078125 -35.31947786960839, -103.55078125 -63 M-103.55078125 63 C-103.55078125 23.925840746778597, -103.55078125 -15.148318506442806, -103.55078125 -63"/></g><g transform="translate(0, -39)" class="annotation-group text"/><g transform="translate(-58.3828125, -39)" class="label-group text"><g transform="translate(0,-12)" style="font-weight: bolder" class="label"><foreignObject height="24" width="116.765625"><div style="display: table-cell; white-space: nowrap; line-height: 1.5; max-width: 151px; text-align: center;" xmlns="http://www.w3.org/1999/xhtml"><span style="" class="nodeLabel markdown-node-label"><p>ConcreteStateA</p></span></div></foreignObject></g></g><g transform="translate(-91.55078125, 9)" class="members-group text"/><g transform="translate(-91.55078125, 39)" class="methods-group text"><g transform="translate(0,-12)" style="" class="label"><foreignObject height="24" width="124.71875"><div style="display: table-cell; white-space: nowrap; line-height: 1.5; max-width: 167px; text-align: center;" xmlns="http://www.w3.org/1999/xhtml"><span style="" class="nodeLabel markdown-node-label"><p>+handle(Context)</p></span></div></foreignObject></g></g><g style="" class="divider"><path style="" stroke-dasharray="0 0" fill="none" stroke-width="1.3" stroke="#9370DB" d="M-103.55078125 -15 C-59.42838530202062 -15, -15.305989354041245 -15, 103.55078125 -15 M-103.55078125 -15 C-34.696076805710774 -15, 34.15862763857845 -15, 103.55078125 -15"/></g><g style="" class="divider"><path style="" stroke-dasharray="0 0" fill="none" stroke-width="1.3" stroke="#9370DB" d="M-103.55078125 9 C-21.44346593351554 9, 60.66384938296892 9, 103.55078125 9 M-103.55078125 9 C-56.02716989176971 9, -8.503558533539419 9, 103.55078125 9"/></g></g><g transform="translate(443.734375, 489)" id="classId-ConcreteStateB-3" class="node default"><g class="basic label-container"><path style="" fill="#ECECFF" stroke-width="0" stroke="none" d="M-103.3984375 -63 L103.3984375 -63 L103.3984375 63 L-103.3984375 63"/><path style="" stroke-dasharray="0 0" fill="none" stroke-width="1.3" stroke="#9370DB" d="M-103.3984375 -63 C-37.102320696503654 -63, 29.193796106992693 -63, 103.3984375 -63 M-103.3984375 -63 C-52.22274967212481 -63, -1.047061844249626 -63, 103.3984375 -63 M103.3984375 -63 C103.3984375 -30.562861037058354, 103.3984375 1.8742779258832911, 103.3984375 63 M103.3984375 -63 C103.3984375 -15.914130668747795, 103.3984375 31.17173866250441, 103.3984375 63 M103.3984375 63 C46.657019487338566 63, -10.084398525322868 63, -103.3984375 63 M103.3984375 63 C41.329893856144096 63, -20.738649787711807 63, -103.3984375 63 M-103.3984375 63 C-103.3984375 21.098890410323584, -103.3984375 -20.802219179352832, -103.3984375 -63 M-103.3984375 63 C-103.3984375 27.080733607065916, -103.3984375 -8.838532785868168, -103.3984375 -63"/></g><g transform="translate(0, -39)" class="annotation-group text"/><g transform="translate(-58.078125, -39)" class="label-group text"><g transform="translate(0,-12)" style="font-weight: bolder" class="label"><foreignObject height="24" width="116.15625"><div style="display: table-cell; white-space: nowrap; line-height: 1.5; max-width: 150px; text-align: center;" xmlns="http://www.w3.org/1999/xhtml"><span style="" class="nodeLabel markdown-node-label"><p>ConcreteStateB</p></span></div></foreignObject></g></g><g transform="translate(-91.3984375, 9)" class="members-group text"/><g transform="translate(-91.3984375, 39)" class="methods-group text"><g transform="translate(0,-12)" style="" class="label"><foreignObject height="24" width="124.71875"><div style="display: table-cell; white-space: nowrap; line-height: 1.5; max-width: 167px; text-align: center;" xmlns="http://www.w3.org/1999/xhtml"><span style="" class="nodeLabel markdown-node-label"><p>+handle(Context)</p></span></div></foreignObject></g></g><g style="" class="divider"><path style="" stroke-dasharray="0 0" fill="none" stroke-width="1.3" stroke="#9370DB" d="M-103.3984375 -15 C-35.18637061091954 -15, 33.02569627816092 -15, 103.3984375 -15 M-103.3984375 -15 C-24.86900822942252 -15, 53.66042104115496 -15, 103.3984375 -15"/></g><g style="" class="divider"><path style="" stroke-dasharray="0 0" fill="none" stroke-width="1.3" stroke="#9370DB" d="M-103.3984375 9 C-59.26211786745901 9, -15.125798234918022 9, 103.3984375 9 M-103.3984375 9 C-52.74483698488255 9, -2.091236469765093 9, 103.3984375 9"/></g></g></g></g></g></svg>