<svg class="mermaid-svg" aria-roledescription="class" role="graphics-document document" viewBox="0 0 1412.3671875 674" style="max-width: 1412.37px; background-color: transparent;" class="classDiagram" xmlns:xlink="http://www.w3.org/1999/xlink" xmlns="http://www.w3.org/2000/svg"  id="my-svg"><style>#my-svg{font-family:"trebuchet ms",verdana,arial,sans-serif;font-size:16px;fill:#ccc;}@keyframes edge-animation-frame{from{stroke-dashoffset:0;}}@keyframes dash{to{stroke-dashoffset:0;}}#my-svg .edge-animation-slow{stroke-dasharray:9,5!important;stroke-dashoffset:900;animation:dash 50s linear infinite;stroke-linecap:round;}#my-svg .edge-animation-fast{stroke-dasharray:9,5!important;stroke-dashoffset:900;animation:dash 20s linear infinite;stroke-linecap:round;}#my-svg .error-icon{fill:#a44141;}#my-svg .error-text{fill:#ddd;stroke:#ddd;}#my-svg .edge-thickness-normal{stroke-width:1px;}#my-svg .edge-thickness-thick{stroke-width:3.5px;}#my-svg .edge-pattern-solid{stroke-dasharray:0;}#my-svg .edge-thickness-invisible{stroke-width:0;fill:none;}#my-svg .edge-pattern-dashed{stroke-dasharray:3;}#my-svg .edge-pattern-dotted{stroke-dasharray:2;}#my-svg .marker{fill:lightgrey;stroke:lightgrey;}#my-svg .marker.cross{stroke:lightgrey;}#my-svg svg{font-family:"trebuchet ms",verdana,arial,sans-serif;font-size:16px;}#my-svg p{margin:0;}#my-svg g.classGroup text{fill:#ccc;stroke:none;font-family:"trebuchet ms",verdana,arial,sans-serif;font-size:10px;}#my-svg g.classGroup text .title{font-weight:bolder;}#my-svg .nodeLabel,#my-svg .edgeLabel{color:#e0dfdf;}#my-svg .edgeLabel .label rect{fill:#1f2020;}#my-svg .label text{fill:#e0dfdf;}#my-svg .labelBkg{background:#1f2020;}#my-svg .edgeLabel .label span{background:#1f2020;}#my-svg .classTitle{font-weight:bolder;}#my-svg .node rect,#my-svg .node circle,#my-svg .node ellipse,#my-svg .node polygon,#my-svg .node path{fill:#1f2020;stroke:#ccc;stroke-width:1px;}#my-svg .divider{stroke:#ccc;stroke-width:1;}#my-svg g.clickable{cursor:pointer;}#my-svg g.classGroup rect{fill:#1f2020;stroke:#ccc;}#my-svg g.classGroup line{stroke:#ccc;stroke-width:1;}#my-svg .classLabel .box{stroke:none;stroke-width:0;fill:#1f2020;opacity:0.5;}#my-svg .classLabel .label{fill:#ccc;font-size:10px;}#my-svg .relation{stroke:lightgrey;stroke-width:1;fill:none;}#my-svg .dashed-line{stroke-dasharray:3;}#my-svg .dotted-line{stroke-dasharray:1 2;}#my-svg #compositionStart,#my-svg .composition{fill:lightgrey!important;stroke:lightgrey!important;stroke-width:1;}#my-svg #compositionEnd,#my-svg .composition{fill:lightgrey!important;stroke:lightgrey!important;stroke-width:1;}#my-svg #dependencyStart,#my-svg .dependency{fill:lightgrey!important;stroke:lightgrey!important;stroke-width:1;}#my-svg #dependencyStart,#my-svg .dependency{fill:lightgrey!important;stroke:lightgrey!important;stroke-width:1;}#my-svg #extensionStart,#my-svg .extension{fill:transparent!important;stroke:lightgrey!important;stroke-width:1;}#my-svg #extensionEnd,#my-svg .extension{fill:transparent!important;stroke:lightgrey!important;stroke-width:1;}#my-svg #aggregationStart,#my-svg .aggregation{fill:transparent!important;stroke:lightgrey!important;stroke-width:1;}#my-svg #aggregationEnd,#my-svg .aggregation{fill:transparent!important;stroke:lightgrey!important;stroke-width:1;}#my-svg #lollipopStart,#my-svg .lollipop{fill:#1f2020!important;stroke:lightgrey!important;stroke-width:1;}#my-svg #lollipopEnd,#my-svg .lollipop{fill:#1f2020!important;stroke:lightgrey!important;stroke-width:1;}#my-svg .edgeTerminals{font-size:11px;line-height:initial;}#my-svg .classTitleText{text-anchor:middle;font-size:18px;fill:#ccc;}#my-svg .label-icon{display:inline-block;height:1em;overflow:visible;vertical-align:-0.125em;}#my-svg .node .label-icon path{fill:currentColor;stroke:revert;stroke-width:revert;}#my-svg :root{--mermaid-font-family:"trebuchet ms",verdana,arial,sans-serif;}</style><g><defs><marker orient="auto" markerHeight="240" markerWidth="190" refY="7" refX="18" class="marker aggregation class" id="my-svg_class-aggregationStart"><path d="M 18,7 L9,13 L1,7 L9,1 Z"/></marker></defs><defs><marker orient="auto" markerHeight="28" markerWidth="20" refY="7" refX="1" class="marker aggregation class" id="my-svg_class-aggregationEnd"><path d="M 18,7 L9,13 L1,7 L9,1 Z"/></marker></defs><defs><marker orient="auto" markerHeight="240" markerWidth="190" refY="7" refX="18" class="marker extension class" id="my-svg_class-extensionStart"><path d="M 1,7 L18,13 V 1 Z"/></marker></defs><defs><marker orient="auto" markerHeight="28" markerWidth="20" refY="7" refX="1" class="marker extension class" id="my-svg_class-extensionEnd"><path d="M 1,1 V 13 L18,7 Z"/></marker></defs><defs><marker orient="auto" markerHeight="240" markerWidth="190" refY="7" refX="18" class="marker composition class" id="my-svg_class-compositionStart"><path d="M 18,7 L9,13 L1,7 L9,1 Z"/></marker></defs><defs><marker orient="auto" markerHeight="28" markerWidth="20" refY="7" refX="1" class="marker composition class" id="my-svg_class-compositionEnd"><path d="M 18,7 L9,13 L1,7 L9,1 Z"/></marker></defs><defs><marker orient="auto" markerHeight="240" markerWidth="190" refY="7" refX="6" class="marker dependency class" id="my-svg_class-dependencyStart"><path d="M 5,7 L9,13 L1,7 L9,1 Z"/></marker></defs><defs><marker orient="auto" markerHeight="28" markerWidth="20" refY="7" refX="13" class="marker dependency class" id="my-svg_class-dependencyEnd"><path d="M 18,7 L9,13 L14,7 L9,1 Z"/></marker></defs><defs><marker orient="auto" markerHeight="240" markerWidth="190" refY="7" refX="13" class="marker lollipop class" id="my-svg_class-lollipopStart"><circle r="6" cy="7" cx="7" fill="transparent" stroke="black"/></marker></defs><defs><marker orient="auto" markerHeight="240" markerWidth="190" refY="7" refX="1" class="marker lollipop class" id="my-svg_class-lollipopEnd"><circle r="6" cy="7" cx="7" fill="transparent" stroke="black"/></marker></defs><g class="root"><g class="clusters"/><g class="edgePaths"><path style="" class="edge-thickness-normal edge-pattern-solid relation" id="id_StockItem_Sku_1" d="M143.039,441.355L136.987,446.629C130.935,451.904,118.831,462.452,112.779,471.893C106.727,481.333,106.727,489.667,106.727,493.833L106.727,498"/><path style="" class="edge-thickness-normal edge-pattern-solid relation" id="id_StockItem_Warehouse_2" d="M320.57,441.355L326.622,446.629C332.674,451.904,344.779,462.452,350.831,475.893C356.883,489.333,356.883,505.667,356.883,513.833L356.883,522"/><path marker-start="url(#my-svg_class-extensionStart)" style="" class="edge-thickness-normal edge-pattern-solid relation" id="id_StockMovement_Receive_3" d="M921.194,170.65L887.135,184.709C853.077,198.767,784.96,226.883,750.902,252.108C716.844,277.333,716.844,299.667,716.844,310.833L716.844,322"/><path marker-start="url(#my-svg_class-extensionStart)" style="" class="edge-thickness-normal edge-pattern-solid relation" id="id_StockMovement_Reserve_4" d="M927.587,201.25L914.655,210.208C901.722,219.166,875.857,237.083,862.925,257.208C849.992,277.333,849.992,299.667,849.992,310.833L849.992,322"/><path marker-start="url(#my-svg_class-extensionStart)" style="" class="edge-thickness-normal edge-pattern-solid relation" id="id_StockMovement_Commit_5" d="M1004.883,207.294L1001.151,215.245C997.419,223.196,989.956,239.098,986.224,258.216C982.492,277.333,982.492,299.667,982.492,310.833L982.492,322"/><path marker-start="url(#my-svg_class-extensionStart)" style="" class="edge-thickness-normal edge-pattern-solid relation" id="id_StockMovement_Cancel_6" d="M1087.766,207.294L1091.497,215.245C1095.229,223.196,1102.693,239.098,1106.424,258.216C1110.156,277.333,1110.156,299.667,1110.156,310.833L1110.156,322"/><path marker-start="url(#my-svg_class-extensionStart)" style="" class="edge-thickness-normal edge-pattern-solid relation" id="id_StockMovement_Transfer_7" d="M1163.442,201.354L1176.157,210.295C1188.873,219.236,1214.304,237.118,1227.019,257.226C1239.734,277.333,1239.734,299.667,1239.734,310.833L1239.734,322"/><path marker-start="url(#my-svg_class-extensionStart)" style="" class="edge-thickness-normal edge-pattern-solid relation" id="id_StockMovement_Adjust_8" d="M1171.398,171.818L1204.228,185.682C1237.057,199.545,1302.716,227.273,1335.546,252.303C1368.375,277.333,1368.375,299.667,1368.375,310.833L1368.375,322"/><path marker-end="url(#my-svg_class-dependencyEnd)" style="" class="edge-thickness-normal edge-pattern-dashed relation" id="id_InventoryService_StockItem_9" d="M256.273,230L252.195,234.167C248.117,238.333,239.961,246.667,235.883,254C231.805,261.333,231.805,267.667,231.805,270.833L231.805,274"/><path marker-end="url(#my-svg_class-dependencyEnd)" style="" class="edge-thickness-normal edge-pattern-dashed relation" id="id_InventoryService_Reservation_10" d="M473.548,230L477.626,234.167C481.704,238.333,489.86,246.667,493.938,254C498.016,261.333,498.016,267.667,498.016,270.833L498.016,274"/></g><g class="edgeLabels"><g class="edgeLabel"><g transform="translate(0, -12)" class="label"><foreignObject  width="0"><div class="labelBkg" xmlns="http://www.w3.org/1999/xhtml" style="display: table-cell; white-space: nowrap; line-height: 1.5; max-width: 200px; text-align: center;"><span class="edgeLabel" style=";display: inline-block"></span></div></foreignObject></g></g><g class="edgeLabel"><g transform="translate(0, -12)" class="label"><foreignObject height="24" width="0"><div class="labelBkg" xmlns="http://www.w3.org/1999/xhtml" style="display: table-cell; white-space: nowrap; line-height: 1.5; max-width: 200px; text-align: center;"><span class="edgeLabel" style=";display: inline-block"></span></div></foreignObject></g></g><g class="edgeLabel"><g transform="translate(0, -12)" class="label"><foreignObject height="24" width="0"><div class="labelBkg" xmlns="http://www.w3.org/1999/xhtml" style="display: table-cell; white-space: nowrap; line-height: 1.5; max-width: 200px; text-align: center;"><span class="edgeLabel" style=";display: inline-block"></span></div></foreignObject></g></g><g class="edgeLabel"><g transform="translate(0, -12)" class="label"><foreignObject height="24" width="0"><div class="labelBkg" xmlns="http://www.w3.org/1999/xhtml" style="display: table-cell; white-space: nowrap; line-height: 1.5; max-width: 200px; text-align: center;"><span class="edgeLabel" style=";display: inline-block"></span></div></foreignObject></g></g><g class="edgeLabel"><g transform="translate(0, -12)" class="label"><foreignObject height="24" width="0"><div class="labelBkg" xmlns="http://www.w3.org/1999/xhtml" style="display: table-cell; white-space: nowrap; line-height: 1.5; max-width: 200px; text-align: center;"><span class="edgeLabel" style=";display: inline-block"></span></div></foreignObject></g></g><g class="edgeLabel"><g transform="translate(0, -12)" class="label"><foreignObject height="24" width="0"><div class="labelBkg" xmlns="http://www.w3.org/1999/xhtml" style="display: table-cell; white-space: nowrap; line-height: 1.5; max-width: 200px; text-align: center;"><span class="edgeLabel" style=";display: inline-block"></span></div></foreignObject></g></g><g class="edgeLabel"><g transform="translate(0, -12)" class="label"><foreignObject height="24" width="0"><div class="labelBkg" xmlns="http://www.w3.org/1999/xhtml" style="display: table-cell; white-space: nowrap; line-height: 1.5; max-width: 200px; text-align: center;"><span class="edgeLabel" style=";display: inline-block"></span></div></foreignObject></g></g><g class="edgeLabel"><g transform="translate(0, -12)" class="label"><foreignObject height="24" width="0"><div class="labelBkg" xmlns="http://www.w3.org/1999/xhtml" style="display: table-cell; white-space: nowrap; line-height: 1.5; max-width: 200px; text-align: center;"><span class="edgeLabel" style=";display: inline-block"></span></div></foreignObject></g></g><g class="edgeLabel"><g transform="translate(0, -12)" class="label"><foreignObject height="24" width="0"><div class="labelBkg" xmlns="http://www.w3.org/1999/xhtml" style="display: table-cell; white-space: nowrap; line-height: 1.5; max-width: 200px; text-align: center;"><span class="edgeLabel" style=";display: inline-block"></span></div></foreignObject></g></g><g class="edgeLabel"><g transform="translate(0, -12)" class="label"><foreignObject height="24" width="0"><div class="labelBkg" xmlns="http://www.w3.org/1999/xhtml" style="display: table-cell; white-space: nowrap; line-height: 1.5; max-width: 200px; text-align: center;"><span class="edgeLabel" style=";display: inline-block"></span></div></foreignObject></g></g></g><g class="nodes"><g transform="translate(106.7265625, 582)" id="classId-Sku-0" class="node default"><g class="basic label-container"><path style="" fill="#1f2020" stroke-width="0" stroke="none" d="M-98.7265625 -84 L98.7265625 -84 L98.7265625 84 L-98.7265625 84"/><path style="" stroke-dasharray="0 0" fill="none" stroke-width="1.3" stroke="#ccc" d="M-98.7265625 -84 C-27.579635881944412 -84, 43.567290736111175 -84, 98.7265625 -84 M-98.7265625 -84 C-39.24298716430208 -84, 20.240588171395842 -84, 98.7265625 -84 M98.7265625 -84 C98.7265625 -48.96740375691903, 98.7265625 -13.934807513838066, 98.7265625 84 M98.7265625 -84 C98.7265625 -25.97093480306721, 98.7265625 32.05813039386558, 98.7265625 84 M98.7265625 84 C40.36908336068151 84, -17.988395778636985 84, -98.7265625 84 M98.7265625 84 C57.84219473205274 84, 16.95782696410548 84, -98.7265625 84 M-98.7265625 84 C-98.7265625 35.872000051095924, -98.7265625 -12.255999897808152, -98.7265625 -84 M-98.7265625 84 C-98.7265625 39.60136991189177, -98.7265625 -4.797260176216454, -98.7265625 -84"/></g><g transform="translate(0, -60)" class="annotation-group text"/><g transform="translate(-13.203125, -60)" class="label-group text"><g transform="translate(0,-12)" style="font-weight: bolder" class="label"><foreignObject height="24" width="26.40625"><div style="display: table-cell; white-space: nowrap; line-height: 1.5; max-width: 75px; text-align: center;" xmlns="http://www.w3.org/1999/xhtml"><span style="" class="nodeLabel markdown-node-label"><p>Sku</p></span></div></foreignObject></g></g><g transform="translate(-86.7265625, -12)" class="members-group text"><g transform="translate(0,-12)" style="" class="label"><foreignObject height="24" width="137.171875"><div style="display: table-cell; white-space: nowrap; line-height: 1.5; max-width: 175px; text-align: center;" xmlns="http://www.w3.org/1999/xhtml"><span style="" class="nodeLabel markdown-node-label"><p>-id, name, supplier</p></span></div></foreignObject></g><g transform="translate(0,12)" style="" class="label"><foreignObject height="24" width="160.25"><div style="display: table-cell; white-space: nowrap; line-height: 1.5; max-width: 196px; text-align: center;" xmlns="http://www.w3.org/1999/xhtml"><span style="" class="nodeLabel markdown-node-label"><p>-reorderThreshold: int</p></span></div></foreignObject></g><g transform="translate(0,36)" style="" class="label"><foreignObject height="24" width="151.671875"><div style="display: table-cell; white-space: nowrap; line-height: 1.5; max-width: 187px; text-align: center;" xmlns="http://www.w3.org/1999/xhtml"><span style="" class="nodeLabel markdown-node-label"><p>-reorderQuantity: int</p></span></div></foreignObject></g></g><g transform="translate(-86.7265625, 84)" class="methods-group text"/><g style="" class="divider"><path style="" stroke-dasharray="0 0" fill="none" stroke-width="1.3" stroke="#ccc" d="M-98.7265625 -36 C-21.7100198775005 -36, 55.306522744999 -36, 98.7265625 -36 M-98.7265625 -36 C-28.801813322646325 -36, 41.12293585470735 -36, 98.7265625 -36"/></g><g style="" class="divider"><path style="" stroke-dasharray="0 0" fill="none" stroke-width="1.3" stroke="#ccc" d="M-98.7265625 60 C-51.009441868500986 60, -3.292321237001971 60, 98.7265625 60 M-98.7265625 60 C-55.764391813589945 60, -12.802221127179891 60, 98.7265625 60"/></g></g><g transform="translate(356.8828125, 582)" id="classId-Warehouse-1" class="node default"><g class="basic label-container"><path style="" fill="#1f2020" stroke-width="0" stroke="none" d="M-101.4296875 -60 L101.4296875 -60 L101.4296875 60 L-101.4296875 60"/><path style="" stroke-dasharray="0 0" fill="none" stroke-width="1.3" stroke="#ccc" d="M-101.4296875 -60 C-22.8717320860854 -60, 55.6862233278292 -60, 101.4296875 -60 M-101.4296875 -60 C-26.425702915863 -60, 48.578281668274 -60, 101.4296875 -60 M101.4296875 -60 C101.4296875 -16.040432590418433, 101.4296875 27.919134819163133, 101.4296875 60 M101.4296875 -60 C101.4296875 -13.83744817911716, 101.4296875 32.32510364176568, 101.4296875 60 M101.4296875 60 C60.254520742135874 60, 19.079353984271748 60, -101.4296875 60 M101.4296875 60 C56.28061478889029 60, 11.13154207778058 60, -101.4296875 60 M-101.4296875 60 C-101.4296875 29.668340515875986, -101.4296875 -0.6633189682480278, -101.4296875 -60 M-101.4296875 60 C-101.4296875 26.769157235995436, -101.4296875 -6.461685528009127, -101.4296875 -60"/></g><g transform="translate(0, -36)" class="annotation-group text"/><g transform="translate(-41.09375, -36)" class="label-group text"><g transform="translate(0,-12)" style="font-weight: bolder" class="label"><foreignObject height="24" width="82.1875"><div style="display: table-cell; white-space: nowrap; line-height: 1.5; max-width: 121px; text-align: center;" xmlns="http://www.w3.org/1999/xhtml"><span style="" class="nodeLabel markdown-node-label"><p>Warehouse</p></span></div></foreignObject></g></g><g transform="translate(-89.4296875, 12)" class="members-group text"><g transform="translate(0,-12)" style="" class="label"><foreignObject height="24" width="137.765625"><div style="display: table-cell; white-space: nowrap; line-height: 1.5; max-width: 174px; text-align: center;" xmlns="http://www.w3.org/1999/xhtml"><span style="" class="nodeLabel markdown-node-label"><p>-id, name, location</p></span></div></foreignObject></g></g><g transform="translate(-89.4296875, 60)" class="methods-group text"/><g style="" class="divider"><path style="" stroke-dasharray="0 0" fill="none" stroke-width="1.3" stroke="#ccc" d="M-101.4296875 -12 C-49.19563871061283 -12, 3.0384100787743336 -12, 101.4296875 -12 M-101.4296875 -12 C-46.23100357003267 -12, 8.967680359934661 -12, 101.4296875 -12"/></g><g style="" class="divider"><path style="" stroke-dasharray="0 0" fill="none" stroke-width="1.3" stroke="#ccc" d="M-101.4296875 36 C-58.039623720819 36, -14.649559941638003 36, 101.4296875 36 M-101.4296875 36 C-52.53070943826291 36, -3.6317313765258206 36, 101.4296875 36"/></g></g><g transform="translate(231.8046875, 364)" id="classId-StockItem-2" class="node default"><g class="basic label-container"><path style="" fill="#1f2020" stroke-width="0" stroke="none" d="M-88.765625 -84 L88.765625 -84 L88.765625 84 L-88.765625 84"/><path style="" stroke-dasharray="0 0" fill="none" stroke-width="1.3" stroke="#ccc" d="M-88.765625 -84 C-44.039700669902466 -84, 0.6862236601950684 -84, 88.765625 -84 M-88.765625 -84 C-38.03445726443418 -84, 12.696710471131638 -84, 88.765625 -84 M88.765625 -84 C88.765625 -29.71920536705874, 88.765625 24.561589265882517, 88.765625 84 M88.765625 -84 C88.765625 -48.251120490114054, 88.765625 -12.502240980228109, 88.765625 84 M88.765625 84 C41.96221079597964 84, -4.841203408040727 84, -88.765625 84 M88.765625 84 C44.1785326027205 84, -0.4085597945589967 84, -88.765625 84 M-88.765625 84 C-88.765625 31.877959867183066, -88.765625 -20.24408026563387, -88.765625 -84 M-88.765625 84 C-88.765625 49.69381631785685, -88.765625 15.3876326357137, -88.765625 -84"/></g><g transform="translate(0, -60)" class="annotation-group text"/><g transform="translate(-37.140625, -60)" class="label-group text"><g transform="translate(0,-12)" style="font-weight: bolder" class="label"><foreignObject height="24" width="74.28125"><div style="display: table-cell; white-space: nowrap; line-height: 1.5; max-width: 116px; text-align: center;" xmlns="http://www.w3.org/1999/xhtml"><span style="" class="nodeLabel markdown-node-label"><p>StockItem</p></span></div></foreignObject></g></g><g transform="translate(-76.765625, -12)" class="members-group text"><g transform="translate(0,-12)" style="" class="label"><foreignObject height="24" width="116.390625"><div style="display: table-cell; white-space: nowrap; line-height: 1.5; max-width: 158px; text-align: center;" xmlns="http://www.w3.org/1999/xhtml"><span style="" class="nodeLabel markdown-node-label"><p>-sku, warehouse</p></span></div></foreignObject></g><g transform="translate(0,12)" style="" class="label"><foreignObject height="24" width="90.078125"><div style="display: table-cell; white-space: nowrap; line-height: 1.5; max-width: 136px; text-align: center;" xmlns="http://www.w3.org/1999/xhtml"><span style="" class="nodeLabel markdown-node-label"><p>-onHand: int</p></span></div></foreignObject></g><g transform="translate(0,36)" style="" class="label"><foreignObject height="24" width="98.0625"><div style="display: table-cell; white-space: nowrap; line-height: 1.5; max-width: 139px; text-align: center;" xmlns="http://www.w3.org/1999/xhtml"><span style="" class="nodeLabel markdown-node-label"><p>-reserved: int</p></span></div></foreignObject></g></g><g transform="translate(-76.765625, 84)" class="methods-group text"/><g style="" class="divider"><path style="" stroke-dasharray="0 0" fill="none" stroke-width="1.3" stroke="#ccc" d="M-88.765625 -36 C-34.97580301431029 -36, 18.814018971379426 -36, 88.765625 -36 M-88.765625 -36 C-24.55891771536581 -36, 39.64778956926838 -36, 88.765625 -36"/></g><g style="" class="divider"><path style="" stroke-dasharray="0 0" fill="none" stroke-width="1.3" stroke="#ccc" d="M-88.765625 60 C-21.425832039535834 60, 45.91396092092833 60, 88.765625 60 M-88.765625 60 C-24.983046028150127 60, 38.799532943699745 60, 88.765625 60"/></g></g><g transform="translate(498.015625, 364)" id="classId-Reservation-3" class="node default"><g class="basic label-container"><path style="" fill="#1f2020" stroke-width="0" stroke="none" d="M-127.4453125 -84 L127.4453125 -84 L127.4453125 84 L-127.4453125 84"/><path style="" stroke-dasharray="0 0" fill="none" stroke-width="1.3" stroke="#ccc" d="M-127.4453125 -84 C-50.040551620206514 -84, 27.36420925958697 -84, 127.4453125 -84 M-127.4453125 -84 C-36.903139358093156 -84, 53.63903378381369 -84, 127.4453125 -84 M127.4453125 -84 C127.4453125 -31.111323219157278, 127.4453125 21.777353561685445, 127.4453125 84 M127.4453125 -84 C127.4453125 -33.46167535055541, 127.4453125 17.07664929888918, 127.4453125 84 M127.4453125 84 C58.02819324501927 84, -11.388926009961466 84, -127.4453125 84 M127.4453125 84 C55.16014015449737 84, -17.12503219100526 84, -127.4453125 84 M-127.4453125 84 C-127.4453125 28.694314174831916, -127.4453125 -26.611371650336167, -127.4453125 -84 M-127.4453125 84 C-127.4453125 49.36039719313544, -127.4453125 14.720794386270882, -127.4453125 -84"/></g><g transform="translate(0, -60)" class="annotation-group text"/><g transform="translate(-44.234375, -60)" class="label-group text"><g transform="translate(0,-12)" style="font-weight: bolder" class="label"><foreignObject height="24" width="88.46875"><div style="display: table-cell; white-space: nowrap; line-height: 1.5; max-width: 126px; text-align: center;" xmlns="http://www.w3.org/1999/xhtml"><span style="" class="nodeLabel markdown-node-label"><p>Reservation</p></span></div></foreignObject></g></g><g transform="translate(-115.4453125, -12)" class="members-group text"><g transform="translate(0,-12)" style="" class="label"><foreignObject height="24" width="174.40625"><div style="display: table-cell; white-space: nowrap; line-height: 1.5; max-width: 207px; text-align: center;" xmlns="http://www.w3.org/1999/xhtml"><span style="" class="nodeLabel markdown-node-label"><p>-id, sku, warehouse, qty</p></span></div></foreignObject></g><g transform="translate(0,12)" style="" class="label"><foreignObject height="24" width="186.65625"><div style="display: table-cell; white-space: nowrap; line-height: 1.5; max-width: 220px; text-align: center;" xmlns="http://www.w3.org/1999/xhtml"><span style="" class="nodeLabel markdown-node-label"><p>-status: ReservationStatus</p></span></div></foreignObject></g><g transform="translate(0,36)" style="" class="label"><foreignObject height="24" width="73.296875"><div style="display: table-cell; white-space: nowrap; line-height: 1.5; max-width: 122px; text-align: center;" xmlns="http://www.w3.org/1999/xhtml"><span style="" class="nodeLabel markdown-node-label"><p>-expiresAt</p></span></div></foreignObject></g></g><g transform="translate(-115.4453125, 84)" class="methods-group text"/><g style="" class="divider"><path style="" stroke-dasharray="0 0" fill="none" stroke-width="1.3" stroke="#ccc" d="M-127.4453125 -36 C-32.27203690617948 -36, 62.90123868764104 -36, 127.4453125 -36 M-127.4453125 -36 C-28.13411526770895 -36, 71.1770819645821 -36, 127.4453125 -36"/></g><g style="" class="divider"><path style="" stroke-dasharray="0 0" fill="none" stroke-width="1.3" stroke="#ccc" d="M-127.4453125 60 C-71.77531158457981 60, -16.105310669159607 60, 127.4453125 60 M-127.4453125 60 C-49.99660870739996 60, 27.452095085200085 60, 127.4453125 60"/></g></g><g transform="translate(1046.32421875, 119)" id="classId-StockMovement-4" class="node default"><g class="basic label-container"><path style="" fill="#1f2020" stroke-width="0" stroke="none" d="M-108.4921875 -72 L108.4921875 -72 L108.4921875 72 L-108.4921875 72"/><path style="" stroke-dasharray="0 0" fill="none" stroke-width="1.3" stroke="#ccc" d="M-108.4921875 -72 C-49.36029499837952 -72, 9.771597503240955 -72, 108.4921875 -72 M-108.4921875 -72 C-63.89857999816229 -72, -19.30497249632458 -72, 108.4921875 -72 M108.4921875 -72 C108.4921875 -31.479259824894726, 108.4921875 9.041480350210549, 108.4921875 72 M108.4921875 -72 C108.4921875 -18.814856096253983, 108.4921875 34.37028780749203, 108.4921875 72 M108.4921875 72 C54.66573445641495 72, 0.8392814128299051 72, -108.4921875 72 M108.4921875 72 C60.291552057002896 72, 12.090916614005792 72, -108.4921875 72 M-108.4921875 72 C-108.4921875 28.57403620478879, -108.4921875 -14.85192759042242, -108.4921875 -72 M-108.4921875 72 C-108.4921875 39.19126254853084, -108.4921875 6.382525097061674, -108.4921875 -72"/></g><g transform="translate(-37.90625, -48)" class="annotation-group text"><g transform="translate(0,-12)" style="" class="label"><foreignObject height="24" width="75.8125"><div style="display: table-cell; white-space: nowrap; line-height: 1.5; max-width: 116px; text-align: center;" xmlns="http://www.w3.org/1999/xhtml"><span style="" class="nodeLabel markdown-node-label"><p>«abstract»</p></span></div></foreignObject></g></g><g transform="translate(-58.9375, -24)" class="label-group text"><g transform="translate(0,-12)" style="font-weight: bolder" class="label"><foreignObject height="24" width="117.875"><div style="display: table-cell; white-space: nowrap; line-height: 1.5; max-width: 156px; text-align: center;" xmlns="http://www.w3.org/1999/xhtml"><span style="" class="nodeLabel markdown-node-label"><p>StockMovement</p></span></div></foreignObject></g></g><g transform="translate(-96.4921875, 24)" class="members-group text"><g transform="translate(0,-12)" style="" class="label"><foreignObject height="24" width="134.046875"><div style="display: table-cell; white-space: nowrap; line-height: 1.5; max-width: 173px; text-align: center;" xmlns="http://www.w3.org/1999/xhtml"><span style="" class="nodeLabel markdown-node-label"><p>-id, sku, qty, when</p></span></div></foreignObject></g></g><g transform="translate(-96.4921875, 72)" class="methods-group text"/><g style="" class="divider"><path style="" stroke-dasharray="0 0" fill="none" stroke-width="1.3" stroke="#ccc" d="M-108.4921875 0 C-38.58114216220311 0, 31.329903175593785 0, 108.4921875 0 M-108.4921875 0 C-58.11626668015012 0, -7.740345860300238 0, 108.4921875 0"/></g><g style="" class="divider"><path style="" stroke-dasharray="0 0" fill="none" stroke-width="1.3" stroke="#ccc" d="M-108.4921875 48 C-54.8029856005084 48, -1.1137837010168 48, 108.4921875 48 M-108.4921875 48 C-30.84495355479092 48, 46.80228039041816 48, 108.4921875 48"/></g></g><g transform="translate(716.84375, 364)" id="classId-Receive-5" class="node default"><g class="basic label-container"><path style="" fill="#1f2020" stroke-width="0" stroke="none" d="M-41.3828125 -42 L41.3828125 -42 L41.3828125 42 L-41.3828125 42"/><path style="" stroke-dasharray="0 0" fill="none" stroke-width="1.3" stroke="#ccc" d="M-41.3828125 -42 C-21.481152799146344 -42, -1.5794930982926871 -42, 41.3828125 -42 M-41.3828125 -42 C-11.899907442458922 -42, 17.582997615082157 -42, 41.3828125 -42 M41.3828125 -42 C41.3828125 -13.156558907747566, 41.3828125 15.686882184504867, 41.3828125 42 M41.3828125 -42 C41.3828125 -22.473150043495203, 41.3828125 -2.946300086990405, 41.3828125 42 M41.3828125 42 C18.514556077131914 42, -4.353700345736172 42, -41.3828125 42 M41.3828125 42 C20.41479912790475 42, -0.5532142441904995 42, -41.3828125 42 M-41.3828125 42 C-41.3828125 20.163302654835796, -41.3828125 -1.6733946903284078, -41.3828125 -42 M-41.3828125 42 C-41.3828125 15.088207637723528, -41.3828125 -11.823584724552944, -41.3828125 -42"/></g><g transform="translate(0, -18)" class="annotation-group text"/><g transform="translate(-29.3828125, -18)" class="label-group text"><g transform="translate(0,-12)" style="font-weight: bolder" class="label"><foreignObject height="24" width="58.765625"><div style="display: table-cell; white-space: nowrap; line-height: 1.5; max-width: 102px; text-align: center;" xmlns="http://www.w3.org/1999/xhtml"><span style="" class="nodeLabel markdown-node-label"><p>Receive</p></span></div></foreignObject></g></g><g transform="translate(-29.3828125, 30)" class="members-group text"/><g transform="translate(-29.3828125, 60)" class="methods-group text"/><g style="" class="divider"><path style="" stroke-dasharray="0 0" fill="none" stroke-width="1.3" stroke="#ccc" d="M-41.3828125 6 C-18.92287004848253 6, 3.5370724030349407 6, 41.3828125 6 M-41.3828125 6 C-12.072172753783654 6, 17.23846699243269 6, 41.3828125 6"/></g><g style="" class="divider"><path style="" stroke-dasharray="0 0" fill="none" stroke-width="1.3" stroke="#ccc" d="M-41.3828125 24 C-23.251866867292765 24, -5.120921234585531 24, 41.3828125 24 M-41.3828125 24 C-18.88169952537731 24, 3.6194134492453784 24, 41.3828125 24"/></g></g><g transform="translate(849.9921875, 364)" id="classId-Reserve-6" class="node default"><g class="basic label-container"><path style="" fill="#1f2020" stroke-width="0" stroke="none" d="M-41.765625 -42 L41.765625 -42 L41.765625 42 L-41.765625 42"/><path style="" stroke-dasharray="0 0" fill="none" stroke-width="1.3" stroke="#ccc" d="M-41.765625 -42 C-10.133260913102283 -42, 21.499103173795433 -42, 41.765625 -42 M-41.765625 -42 C-13.406000791435673 -42, 14.953623417128654 -42, 41.765625 -42 M41.765625 -42 C41.765625 -23.8427462294649, 41.765625 -5.685492458929801, 41.765625 42 M41.765625 -42 C41.765625 -24.229399193510158, 41.765625 -6.458798387020316, 41.765625 42 M41.765625 42 C8.572765289849187 42, -24.620094420301626 42, -41.765625 42 M41.765625 42 C19.660015424769828 42, -2.4455941504603445 42, -41.765625 42 M-41.765625 42 C-41.765625 20.116984454556402, -41.765625 -1.7660310908871963, -41.765625 -42 M-41.765625 42 C-41.765625 22.494862106132622, -41.765625 2.9897242122652443, -41.765625 -42"/></g><g transform="translate(0, -18)" class="annotation-group text"/><g transform="translate(-29.765625, -18)" class="label-group text"><g transform="translate(0,-12)" style="font-weight: bolder" class="label"><foreignObject height="24" width="59.53125"><div style="display: table-cell; white-space: nowrap; line-height: 1.5; max-width: 102px; text-align: center;" xmlns="http://www.w3.org/1999/xhtml"><span style="" class="nodeLabel markdown-node-label"><p>Reserve</p></span></div></foreignObject></g></g><g transform="translate(-29.765625, 30)" class="members-group text"/><g transform="translate(-29.765625, 60)" class="methods-group text"/><g style="" class="divider"><path style="" stroke-dasharray="0 0" fill="none" stroke-width="1.3" stroke="#ccc" d="M-41.765625 6 C-17.85432905339273 6, 6.056966893214543 6, 41.765625 6 M-41.765625 6 C-20.700501431655262 6, 0.3646221366894764 6, 41.765625 6"/></g><g style="" class="divider"><path style="" stroke-dasharray="0 0" fill="none" stroke-width="1.3" stroke="#ccc" d="M-41.765625 24 C-10.23280323821912 24, 21.30001852356176 24, 41.765625 24 M-41.765625 24 C-21.541088671170165 24, -1.31655234234033 24, 41.765625 24"/></g></g><g transform="translate(982.4921875, 364)" id="classId-Commit-7" class="node default"><g class="basic label-container"><path style="" fill="#1f2020" stroke-width="0" stroke="none" d="M-40.734375 -42 L40.734375 -42 L40.734375 42 L-40.734375 42"/><path style="" stroke-dasharray="0 0" fill="none" stroke-width="1.3" stroke="#ccc" d="M-40.734375 -42 C-8.162183923384369 -42, 24.410007153231263 -42, 40.734375 -42 M-40.734375 -42 C-15.964481483129518 -42, 8.805412033740964 -42, 40.734375 -42 M40.734375 -42 C40.734375 -9.495463994306448, 40.734375 23.009072011387104, 40.734375 42 M40.734375 -42 C40.734375 -19.932493990419452, 40.734375 2.1350120191610955, 40.734375 42 M40.734375 42 C8.653132287971033 42, -23.428110424057934 42, -40.734375 42 M40.734375 42 C8.97585696133267 42, -22.78266107733466 42, -40.734375 42 M-40.734375 42 C-40.734375 23.289166007278816, -40.734375 4.578332014557631, -40.734375 -42 M-40.734375 42 C-40.734375 22.920779954366495, -40.734375 3.8415599087329895, -40.734375 -42"/></g><g transform="translate(0, -18)" class="annotation-group text"/><g transform="translate(-28.734375, -18)" class="label-group text"><g transform="translate(0,-12)" style="font-weight: bolder" class="label"><foreignObject height="24" width="57.46875"><div style="display: table-cell; white-space: nowrap; line-height: 1.5; max-width: 102px; text-align: center;" xmlns="http://www.w3.org/1999/xhtml"><span style="" class="nodeLabel markdown-node-label"><p>Commit</p></span></div></foreignObject></g></g><g transform="translate(-28.734375, 30)" class="members-group text"/><g transform="translate(-28.734375, 60)" class="methods-group text"/><g style="" class="divider"><path style="" stroke-dasharray="0 0" fill="none" stroke-width="1.3" stroke="#ccc" d="M-40.734375 6 C-12.8764525198823 6, 14.981469960235401 6, 40.734375 6 M-40.734375 6 C-10.348161176325231 6, 20.038052647349538 6, 40.734375 6"/></g><g style="" class="divider"><path style="" stroke-dasharray="0 0" fill="none" stroke-width="1.3" stroke="#ccc" d="M-40.734375 24 C-21.70328652601613 24, -2.6721980520322575 24, 40.734375 24 M-40.734375 24 C-10.720737740686577 24, 19.292899518626847 24, 40.734375 24"/></g></g><g transform="translate(1110.15625, 364)" id="classId-Cancel-8" class="node default"><g class="basic label-container"><path style="" fill="#1f2020" stroke-width="0" stroke="none" d="M-36.9296875 -42 L36.9296875 -42 L36.9296875 42 L-36.9296875 42"/><path style="" stroke-dasharray="0 0" fill="none" stroke-width="1.3" stroke="#ccc" d="M-36.9296875 -42 C-9.120745225943388 -42, 18.688197048113224 -42, 36.9296875 -42 M-36.9296875 -42 C-12.542568637762798 -42, 11.844550224474403 -42, 36.9296875 -42 M36.9296875 -42 C36.9296875 -23.32776830532682, 36.9296875 -4.655536610653641, 36.9296875 42 M36.9296875 -42 C36.9296875 -18.50312115553742, 36.9296875 4.993757688925157, 36.9296875 42 M36.9296875 42 C19.424448660267302 42, 1.9192098205346042 42, -36.9296875 42 M36.9296875 42 C7.791505909281508 42, -21.346675681436984 42, -36.9296875 42 M-36.9296875 42 C-36.9296875 10.068663745076627, -36.9296875 -21.862672509846746, -36.9296875 -42 M-36.9296875 42 C-36.9296875 9.92417974259412, -36.9296875 -22.15164051481176, -36.9296875 -42"/></g><g transform="translate(0, -18)" class="annotation-group text"/><g transform="translate(-24.9296875, -18)" class="label-group text"><g transform="translate(0,-12)" style="font-weight: bolder" class="label"><foreignObject height="24" width="49.859375"><div style="display: table-cell; white-space: nowrap; line-height: 1.5; max-width: 94px; text-align: center;" xmlns="http://www.w3.org/1999/xhtml"><span style="" class="nodeLabel markdown-node-label"><p>Cancel</p></span></div></foreignObject></g></g><g transform="translate(-24.9296875, 30)" class="members-group text"/><g transform="translate(-24.9296875, 60)" class="methods-group text"/><g style="" class="divider"><path style="" stroke-dasharray="0 0" fill="none" stroke-width="1.3" stroke="#ccc" d="M-36.9296875 6 C-20.977145041107235 6, -5.02460258221447 6, 36.9296875 6 M-36.9296875 6 C-13.933777965949243 6, 9.062131568101513 6, 36.9296875 6"/></g><g style="" class="divider"><path style="" stroke-dasharray="0 0" fill="none" stroke-width="1.3" stroke="#ccc" d="M-36.9296875 24 C-7.883685741280598 24, 21.162316017438805 24, 36.9296875 24 M-36.9296875 24 C-20.99475917464952 24, -5.05983084929904 24, 36.9296875 24"/></g></g><g transform="translate(1239.734375, 364)" id="classId-Transfer-9" class="node default"><g class="basic label-container"><path style="" fill="#1f2020" stroke-width="0" stroke="none" d="M-42.6484375 -42 L42.6484375 -42 L42.6484375 42 L-42.6484375 42"/><path style="" stroke-dasharray="0 0" fill="none" stroke-width="1.3" stroke="#ccc" d="M-42.6484375 -42 C-12.55437590753197 -42, 17.53968568493606 -42, 42.6484375 -42 M-42.6484375 -42 C-10.411893505129726 -42, 21.82465048974055 -42, 42.6484375 -42 M42.6484375 -42 C42.6484375 -9.097219982688756, 42.6484375 23.805560034622488, 42.6484375 42 M42.6484375 -42 C42.6484375 -13.49697895328655, 42.6484375 15.006042093426899, 42.6484375 42 M42.6484375 42 C8.914146301872478 42, -24.820144896255044 42, -42.6484375 42 M42.6484375 42 C10.391929052893168 42, -21.864579394213663 42, -42.6484375 42 M-42.6484375 42 C-42.6484375 12.87623414407156, -42.6484375 -16.24753171185688, -42.6484375 -42 M-42.6484375 42 C-42.6484375 19.61352394502216, -42.6484375 -2.772952109955682, -42.6484375 -42"/></g><g transform="translate(0, -18)" class="annotation-group text"/><g transform="translate(-30.6484375, -18)" class="label-group text"><g transform="translate(0,-12)" style="font-weight: bolder" class="label"><foreignObject height="24" width="61.296875"><div style="display: table-cell; white-space: nowrap; line-height: 1.5; max-width: 104px; text-align: center;" xmlns="http://www.w3.org/1999/xhtml"><span style="" class="nodeLabel markdown-node-label"><p>Transfer</p></span></div></foreignObject></g></g><g transform="translate(-30.6484375, 30)" class="members-group text"/><g transform="translate(-30.6484375, 60)" class="methods-group text"/><g style="" class="divider"><path style="" stroke-dasharray="0 0" fill="none" stroke-width="1.3" stroke="#ccc" d="M-42.6484375 6 C-15.209491875082438 6, 12.229453749835123 6, 42.6484375 6 M-42.6484375 6 C-24.52542028398358 6, -6.402403067967157 6, 42.6484375 6"/></g><g style="" class="divider"><path style="" stroke-dasharray="0 0" fill="none" stroke-width="1.3" stroke="#ccc" d="M-42.6484375 24 C-23.16640981936413 24, -3.6843821387282603 24, 42.6484375 24 M-42.6484375 24 C-20.534323020212693 24, 1.579791459574615 24, 42.6484375 24"/></g></g><g transform="translate(1368.375, 364)" id="classId-Adjust-10" class="node default"><g class="basic label-container"><path style="" fill="#1f2020" stroke-width="0" stroke="none" d="M-35.9921875 -42 L35.9921875 -42 L35.9921875 42 L-35.9921875 42"/><path style="" stroke-dasharray="0 0" fill="none" stroke-width="1.3" stroke="#ccc" d="M-35.9921875 -42 C-7.452307080463395 -42, 21.08757333907321 -42, 35.9921875 -42 M-35.9921875 -42 C-8.904149287845375 -42, 18.18388892430925 -42, 35.9921875 -42 M35.9921875 -42 C35.9921875 -24.80590183331094, 35.9921875 -7.611803666621881, 35.9921875 42 M35.9921875 -42 C35.9921875 -9.026261257386885, 35.9921875 23.94747748522623, 35.9921875 42 M35.9921875 42 C16.174129709781983 42, -3.6439280804360337 42, -35.9921875 42 M35.9921875 42 C18.882911559260332 42, 1.7736356185206645 42, -35.9921875 42 M-35.9921875 42 C-35.9921875 23.745333871593655, -35.9921875 5.490667743187309, -35.9921875 -42 M-35.9921875 42 C-35.9921875 17.902735214853475, -35.9921875 -6.194529570293049, -35.9921875 -42"/></g><g transform="translate(0, -18)" class="annotation-group text"/><g transform="translate(-23.9921875, -18)" class="label-group text"><g transform="translate(0,-12)" style="font-weight: bolder" class="label"><foreignObject height="24" width="47.984375"><div style="display: table-cell; white-space: nowrap; line-height: 1.5; max-width: 93px; text-align: center;" xmlns="http://www.w3.org/1999/xhtml"><span style="" class="nodeLabel markdown-node-label"><p>Adjust</p></span></div></foreignObject></g></g><g transform="translate(-23.9921875, 30)" class="members-group text"/><g transform="translate(-23.9921875, 60)" class="methods-group text"/><g style="" class="divider"><path style="" stroke-dasharray="0 0" fill="none" stroke-width="1.3" stroke="#ccc" d="M-35.9921875 6 C-8.886994361363243 6, 18.218198777273514 6, 35.9921875 6 M-35.9921875 6 C-9.864582097136037 6, 16.263023305727927 6, 35.9921875 6"/></g><g style="" class="divider"><path style="" stroke-dasharray="0 0" fill="none" stroke-width="1.3" stroke="#ccc" d="M-35.9921875 24 C-10.828693070536918 24, 14.334801358926164 24, 35.9921875 24 M-35.9921875 24 C-9.681372714470587 24, 16.629442071058826 24, 35.9921875 24"/></g></g><g transform="translate(364.91015625, 119)" id="classId-InventoryService-11" class="node default"><g class="basic label-container"><path style="" fill="#1f2020" stroke-width="0" stroke="none" d="M-201.8828125 -111 L201.8828125 -111 L201.8828125 111 L-201.8828125 111"/><path style="" stroke-dasharray="0 0" fill="none" stroke-width="1.3" stroke="#ccc" d="M-201.8828125 -111 C-58.26318576175265 -111, 85.3564409764947 -111, 201.8828125 -111 M-201.8828125 -111 C-43.29454430005339 -111, 115.29372389989322 -111, 201.8828125 -111 M201.8828125 -111 C201.8828125 -61.326620276546436, 201.8828125 -11.653240553092871, 201.8828125 111 M201.8828125 -111 C201.8828125 -22.92258840424155, 201.8828125 65.1548231915169, 201.8828125 111 M201.8828125 111 C62.85620692622422 111, -76.17039864755156 111, -201.8828125 111 M201.8828125 111 C102.88939967257593 111, 3.8959868451518673 111, -201.8828125 111 M-201.8828125 111 C-201.8828125 23.903451450305027, -201.8828125 -63.193097099389945, -201.8828125 -111 M-201.8828125 111 C-201.8828125 52.80492520743313, -201.8828125 -5.3901495851337415, -201.8828125 -111"/></g><g transform="translate(0, -87)" class="annotation-group text"/><g transform="translate(-63.53125, -87)" class="label-group text"><g transform="translate(0,-12)" style="font-weight: bolder" class="label"><foreignObject height="24" width="127.0625"><div style="display: table-cell; white-space: nowrap; line-height: 1.5; max-width: 160px; text-align: center;" xmlns="http://www.w3.org/1999/xhtml"><span style="" class="nodeLabel markdown-node-label"><p>InventoryService</p></span></div></foreignObject></g></g><g transform="translate(-189.8828125, -39)" class="members-group text"/><g transform="translate(-189.8828125, -9)" class="methods-group text"><g transform="translate(0,-12)" style="" class="label"><foreignObject height="24" width="316.234375"><div style="display: table-cell; white-space: nowrap; line-height: 1.5; max-width: 336px; text-align: center;" xmlns="http://www.w3.org/1999/xhtml"><span style="" class="nodeLabel markdown-node-label"><p>+reserve(sku, warehouse, qty) : Reservation</p></span></div></foreignObject></g><g transform="translate(0,12)" style="" class="label"><foreignObject height="24" width="154.96875"><div style="display: table-cell; white-space: nowrap; line-height: 1.5; max-width: 194px; text-align: center;" xmlns="http://www.w3.org/1999/xhtml"><span style="" class="nodeLabel markdown-node-label"><p>+commit(reservation)</p></span></div></foreignObject></g><g transform="translate(0,36)" style="" class="label"><foreignObject height="24" width="147.421875"><div style="display: table-cell; white-space: nowrap; line-height: 1.5; max-width: 186px; text-align: center;" xmlns="http://www.w3.org/1999/xhtml"><span style="" class="nodeLabel markdown-node-label"><p>+cancel(reservation)</p></span></div></foreignObject></g><g transform="translate(0,60)" style="" class="label"><foreignObject height="24" width="217.21875"><div style="display: table-cell; white-space: nowrap; line-height: 1.5; max-width: 247px; text-align: center;" xmlns="http://www.w3.org/1999/xhtml"><span style="" class="nodeLabel markdown-node-label"><p>+receive(sku, warehouse, qty)</p></span></div></foreignObject></g><g transform="translate(0,84)" style="" class="label"><foreignObject height="24" width="249.390625"><div style="display: table-cell; white-space: nowrap; line-height: 1.5; max-width: 279px; text-align: center;" xmlns="http://www.w3.org/1999/xhtml"><span style="" class="nodeLabel markdown-node-label"><p>+transfer(sku, fromWh, toWh, qty)</p></span></div></foreignObject></g></g><g style="" class="divider"><path style="" stroke-dasharray="0 0" fill="none" stroke-width="1.3" stroke="#ccc" d="M-201.8828125 -63 C-67.9357026364859 -63, 66.0114072270282 -63, 201.8828125 -63 M-201.8828125 -63 C-107.85887637190712 -63, -13.83494024381423 -63, 201.8828125 -63"/></g><g style="" class="divider"><path style="" stroke-dasharray="0 0" fill="none" stroke-width="1.3" stroke="#ccc" d="M-201.8828125 -39 C-97.2636524827577 -39, 7.3555075344845875 -39, 201.8828125 -39 M-201.8828125 -39 C-57.10143609539716 -39, 87.67994030920568 -39, 201.8828125 -39"/></g></g></g></g></g></svg>