<svg class="mermaid-svg" aria-roledescription="flowchart-v2" role="graphics-document document" viewBox="0 0 1059.75 934" style="max-width: 1059.75px; background-color: transparent;" class="flowchart" xmlns:xlink="http://www.w3.org/1999/xlink" xmlns="http://www.w3.org/2000/svg"  id="my-svg"><style>#my-svg{font-family:"trebuchet ms",verdana,arial,sans-serif;font-size:16px;fill:#ccc;}@keyframes edge-animation-frame{from{stroke-dashoffset:0;}}@keyframes dash{to{stroke-dashoffset:0;}}#my-svg .edge-animation-slow{stroke-dasharray:9,5!important;stroke-dashoffset:900;animation:dash 50s linear infinite;stroke-linecap:round;}#my-svg .edge-animation-fast{stroke-dasharray:9,5!important;stroke-dashoffset:900;animation:dash 20s linear infinite;stroke-linecap:round;}#my-svg .error-icon{fill:#a44141;}#my-svg .error-text{fill:#ddd;stroke:#ddd;}#my-svg .edge-thickness-normal{stroke-width:1px;}#my-svg .edge-thickness-thick{stroke-width:3.5px;}#my-svg .edge-pattern-solid{stroke-dasharray:0;}#my-svg .edge-thickness-invisible{stroke-width:0;fill:none;}#my-svg .edge-pattern-dashed{stroke-dasharray:3;}#my-svg .edge-pattern-dotted{stroke-dasharray:2;}#my-svg .marker{fill:lightgrey;stroke:lightgrey;}#my-svg .marker.cross{stroke:lightgrey;}#my-svg svg{font-family:"trebuchet ms",verdana,arial,sans-serif;font-size:16px;}#my-svg p{margin:0;}#my-svg .label{font-family:"trebuchet ms",verdana,arial,sans-serif;color:#ccc;}#my-svg .cluster-label text{fill:#F9FFFE;}#my-svg .cluster-label span{color:#F9FFFE;}#my-svg .cluster-label span p{background-color:transparent;}#my-svg .label text,#my-svg span{fill:#ccc;color:#ccc;}#my-svg .node rect,#my-svg .node circle,#my-svg .node ellipse,#my-svg .node polygon,#my-svg .node path{fill:#1f2020;stroke:#ccc;stroke-width:1px;}#my-svg .rough-node .label text,#my-svg .node .label text,#my-svg .image-shape .label,#my-svg .icon-shape .label{text-anchor:middle;}#my-svg .node .katex path{fill:#000;stroke:#000;stroke-width:1px;}#my-svg .rough-node .label,#my-svg .node .label,#my-svg .image-shape .label,#my-svg .icon-shape .label{text-align:center;}#my-svg .node.clickable{cursor:pointer;}#my-svg .root .anchor path{fill:lightgrey!important;stroke-width:0;stroke:lightgrey;}#my-svg .arrowheadPath{fill:lightgrey;}#my-svg .edgePath .path{stroke:lightgrey;stroke-width:2.0px;}#my-svg .flowchart-link{stroke:lightgrey;fill:none;}#my-svg .edgeLabel{background-color:hsl(0, 0%, 34.4117647059%);text-align:center;}#my-svg .edgeLabel p{background-color:hsl(0, 0%, 34.4117647059%);}#my-svg .edgeLabel rect{opacity:0.5;background-color:hsl(0, 0%, 34.4117647059%);fill:hsl(0, 0%, 34.4117647059%);}#my-svg .labelBkg{background-color:rgba(87.75, 87.75, 87.75, 0.5);}#my-svg .cluster rect{fill:hsl(180, 1.5873015873%, 28.3529411765%);stroke:rgba(255, 255, 255, 0.25);stroke-width:1px;}#my-svg .cluster text{fill:#F9FFFE;}#my-svg .cluster span{color:#F9FFFE;}#my-svg div.mermaidTooltip{position:absolute;text-align:center;max-width:200px;padding:2px;font-family:"trebuchet ms",verdana,arial,sans-serif;font-size:12px;background:hsl(20, 1.5873015873%, 12.3529411765%);border:1px solid rgba(255, 255, 255, 0.25);border-radius:2px;pointer-events:none;z-index:100;}#my-svg .flowchartTitleText{text-anchor:middle;font-size:18px;fill:#ccc;}#my-svg rect.text{fill:none;stroke-width:0;}#my-svg .icon-shape,#my-svg .image-shape{background-color:hsl(0, 0%, 34.4117647059%);text-align:center;}#my-svg .icon-shape p,#my-svg .image-shape p{background-color:hsl(0, 0%, 34.4117647059%);padding:2px;}#my-svg .icon-shape rect,#my-svg .image-shape rect{opacity:0.5;background-color:hsl(0, 0%, 34.4117647059%);fill:hsl(0, 0%, 34.4117647059%);}#my-svg .label-icon{display:inline-block;height:1em;overflow:visible;vertical-align:-0.125em;}#my-svg .node .label-icon path{fill:currentColor;stroke:revert;stroke-width:revert;}#my-svg :root{--mermaid-font-family:"trebuchet ms",verdana,arial,sans-serif;}</style><g><marker orient="auto" markerHeight="8" markerWidth="8" markerUnits="userSpaceOnUse" refY="5" refX="5" viewBox="0 0 10 10" class="marker flowchart-v2" id="my-svg_flowchart-v2-pointEnd"><path style="stroke-width: 1; stroke-dasharray: 1, 0;" class="arrowMarkerPath" d="M 0 0 L 10 5 L 0 10 z"/></marker><marker orient="auto" markerHeight="8" markerWidth="8" markerUnits="userSpaceOnUse" refY="5" refX="4.5" viewBox="0 0 10 10" class="marker flowchart-v2" id="my-svg_flowchart-v2-pointStart"><path style="stroke-width: 1; stroke-dasharray: 1, 0;" class="arrowMarkerPath" d="M 0 5 L 10 10 L 10 0 z"/></marker><marker orient="auto" markerHeight="11" markerWidth="11" markerUnits="userSpaceOnUse" refY="5" refX="11" viewBox="0 0 10 10" class="marker flowchart-v2" id="my-svg_flowchart-v2-circleEnd"><circle style="stroke-width: 1; stroke-dasharray: 1, 0;" class="arrowMarkerPath" r="5" cy="5" cx="5"/></marker><marker orient="auto" markerHeight="11" markerWidth="11" markerUnits="userSpaceOnUse" refY="5" refX="-1" viewBox="0 0 10 10" class="marker flowchart-v2" id="my-svg_flowchart-v2-circleStart"><circle style="stroke-width: 1; stroke-dasharray: 1, 0;" class="arrowMarkerPath" r="5" cy="5" cx="5"/></marker><marker orient="auto" markerHeight="11" markerWidth="11" markerUnits="userSpaceOnUse" refY="5.2" refX="12" viewBox="0 0 11 11" class="marker cross flowchart-v2" id="my-svg_flowchart-v2-crossEnd"><path style="stroke-width: 2; stroke-dasharray: 1, 0;" class="arrowMarkerPath" d="M 1,1 l 9,9 M 10,1 l -9,9"/></marker><marker orient="auto" markerHeight="11" markerWidth="11" markerUnits="userSpaceOnUse" refY="5.2" refX="-1" viewBox="0 0 11 11" class="marker cross flowchart-v2" id="my-svg_flowchart-v2-crossStart"><path style="stroke-width: 2; stroke-dasharray: 1, 0;" class="arrowMarkerPath" d="M 1,1 l 9,9 M 10,1 l -9,9"/></marker><g class="root"><g class="clusters"><g data-look="classic" id="Applications" class="cluster"><rect  width="1020.4375" y="798" x="31.3125" style=""/><g transform="translate(497.734375, 798)" class="cluster-label"><foreignObject height="24" width="87.59375"><div style="display: table-cell; white-space: nowrap; line-height: 1.5; max-width: 200px; text-align: center;" xmlns="http://www.w3.org/1999/xhtml"><span class="nodeLabel"><p>Applications</p></span></div></foreignObject></g></g><g data-look="classic" id="subGraph2" class="cluster"><rect height="128" width="1019.359375" y="620" x="23.6640625" style=""/><g transform="translate(497.1171875, 620)" class="cluster-label"><foreignObject height="24" width="72.453125"><div style="display: table-cell; white-space: nowrap; line-height: 1.5; max-width: 200px; text-align: center;" xmlns="http://www.w3.org/1999/xhtml"><span class="nodeLabel"><p>ML Models</p></span></div></foreignObject></g></g><g data-look="classic" id="Processing" class="cluster"><rect height="384" width="1033.16796875" y="186" x="8" style=""/><g transform="translate(487.623046875, 186)" class="cluster-label"><foreignObject height="24" width="73.921875"><div style="display: table-cell; white-space: nowrap; line-height: 1.5; max-width: 200px; text-align: center;" xmlns="http://www.w3.org/1999/xhtml"><span class="nodeLabel"><p>Processing</p></span></div></foreignObject></g></g><g data-look="classic" id="subGraph0" class="cluster"><rect height="128" width="950.609375" y="8" x="72.40234375" style=""/><g transform="translate(501.62890625, 8)" class="cluster-label"><foreignObject height="24" width="92.15625"><div style="display: table-cell; white-space: nowrap; line-height: 1.5; max-width: 200px; text-align: center;" xmlns="http://www.w3.org/1999/xhtml"><span class="nodeLabel"><p>Data Sources</p></span></div></foreignObject></g></g></g><g class="edgePaths"><path marker-end="url(#my-svg_flowchart-v2-pointEnd)" style="" class="edge-thickness-normal edge-pattern-solid edge-thickness-normal edge-pattern-solid flowchart-link" id="L_GAME_DATA_KAFKA_STREAM_0" d="M189.316,111L189.316,115.167C189.316,119.333,189.316,127.667,189.316,136C189.316,144.333,189.316,152.667,189.316,161C189.316,169.333,189.316,177.667,230.631,189.602C271.946,201.538,354.576,217.076,395.891,224.845L437.206,232.614"/><path marker-end="url(#my-svg_flowchart-v2-pointEnd)" style="" class="edge-thickness-normal edge-pattern-solid edge-thickness-normal edge-pattern-solid flowchart-link" id="L_USER_BEHAVIOR_KAFKA_STREAM_0" d="M411.043,111L411.043,115.167C411.043,119.333,411.043,127.667,411.043,136C411.043,144.333,411.043,152.667,411.043,161C411.043,169.333,411.043,177.667,418.179,185.683C425.314,193.7,439.586,201.4,446.722,205.251L453.858,209.101"/><path marker-end="url(#my-svg_flowchart-v2-pointEnd)" style="" class="edge-thickness-normal edge-pattern-solid edge-thickness-normal edge-pattern-solid flowchart-link" id="L_PUZZLE_DATA_KAFKA_STREAM_0" d="M646.121,111L646.121,115.167C646.121,119.333,646.121,127.667,646.121,136C646.121,144.333,646.121,152.667,646.121,161C646.121,169.333,646.121,177.667,639.123,185.679C632.125,193.691,618.13,201.382,611.132,205.228L604.134,209.074"/><path marker-end="url(#my-svg_flowchart-v2-pointEnd)" style="" class="edge-thickness-normal edge-pattern-solid edge-thickness-normal edge-pattern-solid flowchart-link" id="L_CHEAT_SIGNALS_KAFKA_STREAM_0" d="M889.699,111L889.699,115.167C889.699,119.333,889.699,127.667,889.699,136C889.699,144.333,889.699,152.667,889.699,161C889.699,169.333,889.699,177.667,845.103,189.761C800.507,201.855,711.314,217.709,666.718,225.637L622.122,233.564"/><path marker-end="url(#my-svg_flowchart-v2-pointEnd)" style="" class="edge-thickness-normal edge-pattern-solid edge-thickness-normal edge-pattern-solid flowchart-link" id="L_KAFKA_STREAM_SPARK_PROC_0" d="M529.66,289L529.66,293.167C529.66,297.333,529.66,305.667,529.66,313.333C529.66,321,529.66,328,529.66,331.5L529.66,335"/><path marker-end="url(#my-svg_flowchart-v2-pointEnd)" style="" class="edge-thickness-normal edge-pattern-solid edge-thickness-normal edge-pattern-solid flowchart-link" id="L_SPARK_PROC_CLICKHOUSE_QUERY_0" d="M529.66,417L529.66,421.167C529.66,425.333,529.66,433.667,529.66,441.333C529.66,449,529.66,456,529.66,459.5L529.66,463"/><path marker-end="url(#my-svg_flowchart-v2-pointEnd)" style="" class="edge-thickness-normal edge-pattern-solid edge-thickness-normal edge-pattern-solid flowchart-link" id="L_CLICKHOUSE_QUERY_CHEAT_DETECT_0" d="M437.863,521.685L390.736,529.738C343.609,537.79,249.355,553.895,202.229,566.114C155.102,578.333,155.102,586.667,155.102,595C155.102,603.333,155.102,611.667,155.102,619.333C155.102,627,155.102,634,155.102,637.5L155.102,641"/><path marker-end="url(#my-svg_flowchart-v2-pointEnd)" style="" class="edge-thickness-normal edge-pattern-solid edge-thickness-normal edge-pattern-solid flowchart-link" id="L_CLICKHOUSE_QUERY_PUZZLE_RATING_0" d="M452.791,545L444.578,549.167C436.366,553.333,419.941,561.667,411.728,570C403.516,578.333,403.516,586.667,403.516,595C403.516,603.333,403.516,611.667,403.516,619.333C403.516,627,403.516,634,403.516,637.5L403.516,641"/><path marker-end="url(#my-svg_flowchart-v2-pointEnd)" style="" class="edge-thickness-normal edge-pattern-solid edge-thickness-normal edge-pattern-solid flowchart-link" id="L_CLICKHOUSE_QUERY_MATCHMAKING_ML_0" d="M606.529,545L614.742,549.167C622.955,553.333,639.38,561.667,647.592,570C655.805,578.333,655.805,586.667,655.805,595C655.805,603.333,655.805,611.667,655.805,619.333C655.805,627,655.805,634,655.805,637.5L655.805,641"/><path marker-end="url(#my-svg_flowchart-v2-pointEnd)" style="" class="edge-thickness-normal edge-pattern-solid edge-thickness-normal edge-pattern-solid flowchart-link" id="L_CLICKHOUSE_QUERY_OPENING_ANALYSIS_0" d="M621.457,521.567L669.059,529.639C716.661,537.711,811.866,553.856,859.468,566.094C907.07,578.333,907.07,586.667,907.07,595C907.07,603.333,907.07,611.667,907.07,619.333C907.07,627,907.07,634,907.07,637.5L907.07,641"/><path marker-end="url(#my-svg_flowchart-v2-pointEnd)" style="" class="edge-thickness-normal edge-pattern-solid edge-thickness-normal edge-pattern-solid flowchart-link" id="L_CHEAT_DETECT_FAIR_PLAY_0" d="M155.102,723L155.102,727.167C155.102,731.333,155.102,739.667,155.102,748C155.102,756.333,155.102,764.667,155.102,773C155.102,781.333,155.102,789.667,155.102,797.333C155.102,805,155.102,812,155.102,815.5L155.102,819"/><path marker-end="url(#my-svg_flowchart-v2-pointEnd)" style="" class="edge-thickness-normal edge-pattern-solid edge-thickness-normal edge-pattern-solid flowchart-link" id="L_PUZZLE_RATING_PUZZLE_SELECT_0" d="M403.516,723L403.516,727.167C403.516,731.333,403.516,739.667,403.516,748C403.516,756.333,403.516,764.667,403.516,773C403.516,781.333,403.516,789.667,410.973,797.694C418.431,805.72,433.345,813.441,440.803,817.301L448.26,821.161"/><path marker-end="url(#my-svg_flowchart-v2-pointEnd)" style="" class="edge-thickness-normal edge-pattern-solid edge-thickness-normal edge-pattern-solid flowchart-link" id="L_MATCHMAKING_ML_PUZZLE_SELECT_0" d="M655.805,723L655.805,727.167C655.805,731.333,655.805,739.667,655.805,748C655.805,756.333,655.805,764.667,655.805,773C655.805,781.333,655.805,789.667,648.026,797.703C640.247,805.739,624.69,813.479,616.911,817.349L609.133,821.218"/><path marker-end="url(#my-svg_flowchart-v2-pointEnd)" style="" class="edge-thickness-normal edge-pattern-solid edge-thickness-normal edge-pattern-solid flowchart-link" id="L_OPENING_ANALYSIS_INSIGHTS_0" d="M907.07,723L907.07,727.167C907.07,731.333,907.07,739.667,907.07,748C907.07,756.333,907.07,764.667,907.07,773C907.07,781.333,907.07,789.667,907.07,797.333C907.07,805,907.07,812,907.07,815.5L907.07,819"/></g><g class="edgeLabels"><g class="edgeLabel"><g transform="translate(0, 0)" class="label"><foreignObject height="0" width="0"><div style="display: table-cell; white-space: nowrap; line-height: 1.5; max-width: 200px; text-align: center;" class="labelBkg" xmlns="http://www.w3.org/1999/xhtml"><span class="edgeLabel"></span></div></foreignObject></g></g><g class="edgeLabel"><g transform="translate(0, 0)" class="label"><foreignObject height="0" width="0"><div style="display: table-cell; white-space: nowrap; line-height: 1.5; max-width: 200px; text-align: center;" class="labelBkg" xmlns="http://www.w3.org/1999/xhtml"><span class="edgeLabel"></span></div></foreignObject></g></g><g class="edgeLabel"><g transform="translate(0, 0)" class="label"><foreignObject height="0" width="0"><div style="display: table-cell; white-space: nowrap; line-height: 1.5; max-width: 200px; text-align: center;" class="labelBkg" xmlns="http://www.w3.org/1999/xhtml"><span class="edgeLabel"></span></div></foreignObject></g></g><g class="edgeLabel"><g transform="translate(0, 0)" class="label"><foreignObject height="0" width="0"><div style="display: table-cell; white-space: nowrap; line-height: 1.5; max-width: 200px; text-align: center;" class="labelBkg" xmlns="http://www.w3.org/1999/xhtml"><span class="edgeLabel"></span></div></foreignObject></g></g><g class="edgeLabel"><g transform="translate(0, 0)" class="label"><foreignObject height="0" width="0"><div style="display: table-cell; white-space: nowrap; line-height: 1.5; max-width: 200px; text-align: center;" class="labelBkg" xmlns="http://www.w3.org/1999/xhtml"><span class="edgeLabel"></span></div></foreignObject></g></g><g class="edgeLabel"><g transform="translate(0, 0)" class="label"><foreignObject height="0" width="0"><div style="display: table-cell; white-space: nowrap; line-height: 1.5; max-width: 200px; text-align: center;" class="labelBkg" xmlns="http://www.w3.org/1999/xhtml"><span class="edgeLabel"></span></div></foreignObject></g></g><g class="edgeLabel"><g transform="translate(0, 0)" class="label"><foreignObject height="0" width="0"><div style="display: table-cell; white-space: nowrap; line-height: 1.5; max-width: 200px; text-align: center;" class="labelBkg" xmlns="http://www.w3.org/1999/xhtml"><span class="edgeLabel"></span></div></foreignObject></g></g><g class="edgeLabel"><g transform="translate(0, 0)" class="label"><foreignObject height="0" width="0"><div style="display: table-cell; white-space: nowrap; line-height: 1.5; max-width: 200px; text-align: center;" class="labelBkg" xmlns="http://www.w3.org/1999/xhtml"><span class="edgeLabel"></span></div></foreignObject></g></g><g class="edgeLabel"><g transform="translate(0, 0)" class="label"><foreignObject height="0" width="0"><div style="display: table-cell; white-space: nowrap; line-height: 1.5; max-width: 200px; text-align: center;" class="labelBkg" xmlns="http://www.w3.org/1999/xhtml"><span class="edgeLabel"></span></div></foreignObject></g></g><g class="edgeLabel"><g transform="translate(0, 0)" class="label"><foreignObject height="0" width="0"><div style="display: table-cell; white-space: nowrap; line-height: 1.5; max-width: 200px; text-align: center;" class="labelBkg" xmlns="http://www.w3.org/1999/xhtml"><span class="edgeLabel"></span></div></foreignObject></g></g><g class="edgeLabel"><g transform="translate(0, 0)" class="label"><foreignObject height="0" width="0"><div style="display: table-cell; white-space: nowrap; line-height: 1.5; max-width: 200px; text-align: center;" class="labelBkg" xmlns="http://www.w3.org/1999/xhtml"><span class="edgeLabel"></span></div></foreignObject></g></g><g class="edgeLabel"><g transform="translate(0, 0)" class="label"><foreignObject height="0" width="0"><div style="display: table-cell; white-space: nowrap; line-height: 1.5; max-width: 200px; text-align: center;" class="labelBkg" xmlns="http://www.w3.org/1999/xhtml"><span class="edgeLabel"></span></div></foreignObject></g></g><g class="edgeLabel"><g transform="translate(0, 0)" class="label"><foreignObject height="0" width="0"><div style="display: table-cell; white-space: nowrap; line-height: 1.5; max-width: 200px; text-align: center;" class="labelBkg" xmlns="http://www.w3.org/1999/xhtml"><span class="edgeLabel"></span></div></foreignObject></g></g><g class="edgeLabel"><g transform="translate(0, 0)" class="label"><foreignObject height="0" width="0"><div style="display: table-cell; white-space: nowrap; line-height: 1.5; max-width: 200px; text-align: center;" class="labelBkg" xmlns="http://www.w3.org/1999/xhtml"><span class="edgeLabel"></span></div></foreignObject></g></g></g><g class="nodes"><g transform="translate(189.31640625, 72)" id="flowchart-GAME_DATA-0" class="node default"><rect height="78" width="163.828125" y="-39" x="-81.9140625" style="" class="basic label-container"/><g transform="translate(-51.9140625, -24)" style="" class="label"><rect/><foreignObject height="48" width="103.828125"><div style="display: table-cell; white-space: nowrap; line-height: 1.5; max-width: 200px; text-align: center;" xmlns="http://www.w3.org/1999/xhtml"><span class="nodeLabel"><p>Game Data<br />Moves, Results</p></span></div></foreignObject></g></g><g transform="translate(411.04296875, 72)" id="flowchart-USER_BEHAVIOR-1" class="node default"><rect height="78" width="179.625" y="-39" x="-89.8125" style="" class="basic label-container"/><g transform="translate(-59.8125, -24)" style="" class="label"><rect/><foreignObject height="48" width="119.625"><div style="display: table-cell; white-space: nowrap; line-height: 1.5; max-width: 200px; text-align: center;" xmlns="http://www.w3.org/1999/xhtml"><span class="nodeLabel"><p>User Behavior<br />Sessions, Actions</p></span></div></foreignObject></g></g><g transform="translate(646.12109375, 72)" id="flowchart-PUZZLE_DATA-2" class="node default"><rect height="78" width="190.53125" y="-39" x="-95.265625" style="" class="basic label-container"/><g transform="translate(-65.265625, -24)" style="" class="label"><rect/><foreignObject height="48" width="130.53125"><div style="display: table-cell; white-space: nowrap; line-height: 1.5; max-width: 200px; text-align: center;" xmlns="http://www.w3.org/1999/xhtml"><span class="nodeLabel"><p>Puzzle Data<br />Attempts, Success</p></span></div></foreignObject></g></g><g transform="translate(889.69921875, 72)" id="flowchart-CHEAT_SIGNALS-3" class="node default"><rect height="78" width="196.625" y="-39" x="-98.3125" style="" class="basic label-container"/><g transform="translate(-68.3125, -24)" style="" class="label"><rect/><foreignObject height="48" width="136.625"><div style="display: table-cell; white-space: nowrap; line-height: 1.5; max-width: 200px; text-align: center;" xmlns="http://www.w3.org/1999/xhtml"><span class="nodeLabel"><p>Cheat Signals<br />Detection Features</p></span></div></foreignObject></g></g><g transform="translate(529.66015625, 250)" id="flowchart-KAFKA_STREAM-4" class="node default"><rect height="78" width="177.046875" y="-39" x="-88.5234375" style="" class="basic label-container"/><g transform="translate(-58.5234375, -24)" style="" class="label"><rect/><foreignObject height="48" width="117.046875"><div style="display: table-cell; white-space: nowrap; line-height: 1.5; max-width: 200px; text-align: center;" xmlns="http://www.w3.org/1999/xhtml"><span class="nodeLabel"><p>Kafka<br />Event Streaming</p></span></div></foreignObject></g></g><g transform="translate(529.66015625, 378)" id="flowchart-SPARK_PROC-5" class="node default"><rect height="78" width="179.203125" y="-39" x="-89.6015625" style="" class="basic label-container"/><g transform="translate(-59.6015625, -24)" style="" class="label"><rect/><foreignObject height="48" width="119.203125"><div style="display: table-cell; white-space: nowrap; line-height: 1.5; max-width: 200px; text-align: center;" xmlns="http://www.w3.org/1999/xhtml"><span class="nodeLabel"><p>Spark<br />Batch Processing</p></span></div></foreignObject></g></g><g transform="translate(529.66015625, 506)" id="flowchart-CLICKHOUSE_QUERY-6" class="node default"><rect height="78" width="183.59375" y="-39" x="-91.796875" style="" class="basic label-container"/><g transform="translate(-61.796875, -24)" style="" class="label"><rect/><foreignObject height="48" width="123.59375"><div style="display: table-cell; white-space: nowrap; line-height: 1.5; max-width: 200px; text-align: center;" xmlns="http://www.w3.org/1999/xhtml"><span class="nodeLabel"><p>ClickHouse<br />Analytics Queries</p></span></div></foreignObject></g></g><g transform="translate(155.1015625, 684)" id="flowchart-CHEAT_DETECT-7" class="node default"><rect height="78" width="192.875" y="-39" x="-96.4375" style="" class="basic label-container"/><g transform="translate(-66.4375, -24)" style="" class="label"><rect/><foreignObject height="48" width="132.875"><div style="display: table-cell; white-space: nowrap; line-height: 1.5; max-width: 200px; text-align: center;" xmlns="http://www.w3.org/1999/xhtml"><span class="nodeLabel"><p>Cheat Detection<br />Engine Correlation</p></span></div></foreignObject></g></g><g transform="translate(403.515625, 684)" id="flowchart-PUZZLE_RATING-8" class="node default"><rect height="78" width="203.953125" y="-39" x="-101.9765625" style="" class="basic label-container"/><g transform="translate(-71.9765625, -24)" style="" class="label"><rect/><foreignObject height="48" width="143.953125"><div style="display: table-cell; white-space: nowrap; line-height: 1.5; max-width: 200px; text-align: center;" xmlns="http://www.w3.org/1999/xhtml"><span class="nodeLabel"><p>Puzzle Rating<br />Difficulty Prediction</p></span></div></foreignObject></g></g><g transform="translate(655.8046875, 684)" id="flowchart-MATCHMAKING_ML-9" class="node default"><rect height="78" width="200.625" y="-39" x="-100.3125" style="" class="basic label-container"/><g transform="translate(-70.3125, -24)" style="" class="label"><rect/><foreignObject height="48" width="140.625"><div style="display: table-cell; white-space: nowrap; line-height: 1.5; max-width: 200px; text-align: center;" xmlns="http://www.w3.org/1999/xhtml"><span class="nodeLabel"><p>Smart Matchmaking<br />Player Pairing</p></span></div></foreignObject></g></g><g transform="translate(907.0703125, 684)" id="flowchart-OPENING_ANALYSIS-10" class="node default"><rect height="78" width="201.90625" y="-39" x="-100.953125" style="" class="basic label-container"/><g transform="translate(-70.953125, -24)" style="" class="label"><rect/><foreignObject height="48" width="141.90625"><div style="display: table-cell; white-space: nowrap; line-height: 1.5; max-width: 200px; text-align: center;" xmlns="http://www.w3.org/1999/xhtml"><span class="nodeLabel"><p>Opening Analysis<br />Win Rate Prediction</p></span></div></foreignObject></g></g><g transform="translate(155.1015625, 862)" id="flowchart-FAIR_PLAY-11" class="node default"><rect height="78" width="177.578125" y="-39" x="-88.7890625" style="" class="basic label-container"/><g transform="translate(-58.7890625, -24)" style="" class="label"><rect/><foreignObject height="48" width="117.578125"><div style="display: table-cell; white-space: nowrap; line-height: 1.5; max-width: 200px; text-align: center;" xmlns="http://www.w3.org/1999/xhtml"><span class="nodeLabel"><p>Fair Play System<br />Account Actions</p></span></div></foreignObject></g></g><g transform="translate(527.15625, 862)" id="flowchart-PUZZLE_SELECT-12" class="node default"><rect height="78" width="177.140625" y="-39" x="-88.5703125" style="" class="basic label-container"/><g transform="translate(-58.5703125, -24)" style="" class="label"><rect/><foreignObject height="48" width="117.140625"><div style="display: table-cell; white-space: nowrap; line-height: 1.5; max-width: 200px; text-align: center;" xmlns="http://www.w3.org/1999/xhtml"><span class="nodeLabel"><p>Puzzle Selection<br />Personalized</p></span></div></foreignObject></g></g><g transform="translate(907.0703125, 862)" id="flowchart-INSIGHTS-13" class="node default"><rect height="78" width="219.359375" y="-39" x="-109.6796875" style="" class="basic label-container"/><g transform="translate(-79.6796875, -24)" style="" class="label"><rect/><foreignObject height="48" width="159.359375"><div style="display: table-cell; white-space: nowrap; line-height: 1.5; max-width: 200px; text-align: center;" xmlns="http://www.w3.org/1999/xhtml"><span class="nodeLabel"><p>Player Insights<br />Performance Analytics</p></span></div></foreignObject></g></g></g></g></g></svg>