<svg class="mermaid-svg" aria-roledescription="flowchart-v2" role="graphics-document document" viewBox="0 0 1730.23046875 470.47454833984375" style="max-width: 1730.23px; background-color: transparent;" class="flowchart" xmlns:xlink="http://www.w3.org/1999/xlink" xmlns="http://www.w3.org/2000/svg"  id="my-svg"><style>#my-svg{font-family:"trebuchet ms",verdana,arial,sans-serif;font-size:16px;fill:#ccc;}@keyframes edge-animation-frame{from{stroke-dashoffset:0;}}@keyframes dash{to{stroke-dashoffset:0;}}#my-svg .edge-animation-slow{stroke-dasharray:9,5!important;stroke-dashoffset:900;animation:dash 50s linear infinite;stroke-linecap:round;}#my-svg .edge-animation-fast{stroke-dasharray:9,5!important;stroke-dashoffset:900;animation:dash 20s linear infinite;stroke-linecap:round;}#my-svg .error-icon{fill:#a44141;}#my-svg .error-text{fill:#ddd;stroke:#ddd;}#my-svg .edge-thickness-normal{stroke-width:1px;}#my-svg .edge-thickness-thick{stroke-width:3.5px;}#my-svg .edge-pattern-solid{stroke-dasharray:0;}#my-svg .edge-thickness-invisible{stroke-width:0;fill:none;}#my-svg .edge-pattern-dashed{stroke-dasharray:3;}#my-svg .edge-pattern-dotted{stroke-dasharray:2;}#my-svg .marker{fill:lightgrey;stroke:lightgrey;}#my-svg .marker.cross{stroke:lightgrey;}#my-svg svg{font-family:"trebuchet ms",verdana,arial,sans-serif;font-size:16px;}#my-svg p{margin:0;}#my-svg .label{font-family:"trebuchet ms",verdana,arial,sans-serif;color:#ccc;}#my-svg .cluster-label text{fill:#F9FFFE;}#my-svg .cluster-label span{color:#F9FFFE;}#my-svg .cluster-label span p{background-color:transparent;}#my-svg .label text,#my-svg span{fill:#ccc;color:#ccc;}#my-svg .node rect,#my-svg .node circle,#my-svg .node ellipse,#my-svg .node polygon,#my-svg .node path{fill:#1f2020;stroke:#ccc;stroke-width:1px;}#my-svg .rough-node .label text,#my-svg .node .label text,#my-svg .image-shape .label,#my-svg .icon-shape .label{text-anchor:middle;}#my-svg .node .katex path{fill:#000;stroke:#000;stroke-width:1px;}#my-svg .rough-node .label,#my-svg .node .label,#my-svg .image-shape .label,#my-svg .icon-shape .label{text-align:center;}#my-svg .node.clickable{cursor:pointer;}#my-svg .root .anchor path{fill:lightgrey!important;stroke-width:0;stroke:lightgrey;}#my-svg .arrowheadPath{fill:lightgrey;}#my-svg .edgePath .path{stroke:lightgrey;stroke-width:2.0px;}#my-svg .flowchart-link{stroke:lightgrey;fill:none;}#my-svg .edgeLabel{background-color:hsl(0, 0%, 34.4117647059%);text-align:center;}#my-svg .edgeLabel p{background-color:hsl(0, 0%, 34.4117647059%);}#my-svg .edgeLabel rect{opacity:0.5;background-color:hsl(0, 0%, 34.4117647059%);fill:hsl(0, 0%, 34.4117647059%);}#my-svg .labelBkg{background-color:rgba(87.75, 87.75, 87.75, 0.5);}#my-svg .cluster rect{fill:hsl(180, 1.5873015873%, 28.3529411765%);stroke:rgba(255, 255, 255, 0.25);stroke-width:1px;}#my-svg .cluster text{fill:#F9FFFE;}#my-svg .cluster span{color:#F9FFFE;}#my-svg div.mermaidTooltip{position:absolute;text-align:center;max-width:200px;padding:2px;font-family:"trebuchet ms",verdana,arial,sans-serif;font-size:12px;background:hsl(20, 1.5873015873%, 12.3529411765%);border:1px solid rgba(255, 255, 255, 0.25);border-radius:2px;pointer-events:none;z-index:100;}#my-svg .flowchartTitleText{text-anchor:middle;font-size:18px;fill:#ccc;}#my-svg rect.text{fill:none;stroke-width:0;}#my-svg .icon-shape,#my-svg .image-shape{background-color:hsl(0, 0%, 34.4117647059%);text-align:center;}#my-svg .icon-shape p,#my-svg .image-shape p{background-color:hsl(0, 0%, 34.4117647059%);padding:2px;}#my-svg .icon-shape rect,#my-svg .image-shape rect{opacity:0.5;background-color:hsl(0, 0%, 34.4117647059%);fill:hsl(0, 0%, 34.4117647059%);}#my-svg .label-icon{display:inline-block;height:1em;overflow:visible;vertical-align:-0.125em;}#my-svg .node .label-icon path{fill:currentColor;stroke:revert;stroke-width:revert;}#my-svg :root{--mermaid-font-family:"trebuchet ms",verdana,arial,sans-serif;}</style><g><marker orient="auto" markerHeight="8" markerWidth="8" markerUnits="userSpaceOnUse" refY="5" refX="5" viewBox="0 0 10 10" class="marker flowchart-v2" id="my-svg_flowchart-v2-pointEnd"><path style="stroke-width: 1; stroke-dasharray: 1, 0;" class="arrowMarkerPath" d="M 0 0 L 10 5 L 0 10 z"/></marker><marker orient="auto" markerHeight="8" markerWidth="8" markerUnits="userSpaceOnUse" refY="5" refX="4.5" viewBox="0 0 10 10" class="marker flowchart-v2" id="my-svg_flowchart-v2-pointStart"><path style="stroke-width: 1; stroke-dasharray: 1, 0;" class="arrowMarkerPath" d="M 0 5 L 10 10 L 10 0 z"/></marker><marker orient="auto" markerHeight="11" markerWidth="11" markerUnits="userSpaceOnUse" refY="5" refX="11" viewBox="0 0 10 10" class="marker flowchart-v2" id="my-svg_flowchart-v2-circleEnd"><circle style="stroke-width: 1; stroke-dasharray: 1, 0;" class="arrowMarkerPath" r="5" cy="5" cx="5"/></marker><marker orient="auto" markerHeight="11" markerWidth="11" markerUnits="userSpaceOnUse" refY="5" refX="-1" viewBox="0 0 10 10" class="marker flowchart-v2" id="my-svg_flowchart-v2-circleStart"><circle style="stroke-width: 1; stroke-dasharray: 1, 0;" class="arrowMarkerPath" r="5" cy="5" cx="5"/></marker><marker orient="auto" markerHeight="11" markerWidth="11" markerUnits="userSpaceOnUse" refY="5.2" refX="12" viewBox="0 0 11 11" class="marker cross flowchart-v2" id="my-svg_flowchart-v2-crossEnd"><path style="stroke-width: 2; stroke-dasharray: 1, 0;" class="arrowMarkerPath" d="M 1,1 l 9,9 M 10,1 l -9,9"/></marker><marker orient="auto" markerHeight="11" markerWidth="11" markerUnits="userSpaceOnUse" refY="5.2" refX="-1" viewBox="0 0 11 11" class="marker cross flowchart-v2" id="my-svg_flowchart-v2-crossStart"><path style="stroke-width: 2; stroke-dasharray: 1, 0;" class="arrowMarkerPath" d="M 1,1 l 9,9 M 10,1 l -9,9"/></marker><g class="root"><g class="clusters"><g data-look="classic" id="subGraph2" class="cluster"><rect  width="708.203125" y="212.47296142578125" x="8" style=""/><g transform="translate(300.484375, 212.47296142578125)" class="cluster-label"><foreignObject height="24" width="123.234375"><div style="display: table-cell; white-space: nowrap; line-height: 1.5; max-width: 200px; text-align: center;" xmlns="http://www.w3.org/1999/xhtml"><span class="nodeLabel"><p>Shared Monorepo</p></span></div></foreignObject></g></g><g data-look="classic" id="subGraph1" class="cluster"><rect height="130.47296142578125" width="712.265625" y="8" x="119.9453125" style=""/><g transform="translate(406.7265625, 8)" class="cluster-label"><foreignObject height="24" width="138.703125"><div style="display: table-cell; white-space: nowrap; line-height: 1.5; max-width: 200px; text-align: center;" xmlns="http://www.w3.org/1999/xhtml"><span class="nodeLabel"><p>Backend Multi-repo</p></span></div></foreignObject></g></g><g data-look="classic" id="subGraph0" class="cluster"><rect height="325.4745407104492" width="863.5078125" y="8" x="858.72265625" style=""/><g transform="translate(1220.875, 8)" class="cluster-label"><foreignObject height="24" width="139.203125"><div style="display: table-cell; white-space: nowrap; line-height: 1.5; max-width: 200px; text-align: center;" xmlns="http://www.w3.org/1999/xhtml"><span class="nodeLabel"><p>Frontend Monorepo</p></span></div></foreignObject></g></g></g><g class="edgePaths"><path marker-end="url(#my-svg_flowchart-v2-pointEnd)" style="" class="edge-thickness-normal edge-pattern-solid edge-thickness-normal edge-pattern-solid flowchart-link" id="L_FM_Web_0" d="M1134.434,95.629L1109.767,102.769C1085.1,109.91,1035.767,124.192,1011.1,137.499C986.434,150.806,986.434,163.14,986.434,175.473C986.434,187.806,986.434,200.14,986.434,211.223C986.434,222.307,986.434,232.14,986.434,237.057L986.434,241.974"/><path marker-end="url(#my-svg_flowchart-v2-pointEnd)" style="" class="edge-thickness-normal edge-pattern-solid edge-thickness-normal edge-pattern-solid flowchart-link" id="L_FM_Mobile_0" d="M1183.756,112.533L1180.853,116.856C1177.95,121.18,1172.145,129.826,1169.242,140.316C1166.34,150.806,1166.34,163.14,1166.34,175.473C1166.34,187.806,1166.34,200.14,1166.34,211.223C1166.34,222.307,1166.34,232.14,1166.34,237.057L1166.34,241.974"/><path marker-end="url(#my-svg_flowchart-v2-pointEnd)" style="" class="edge-thickness-normal edge-pattern-solid edge-thickness-normal edge-pattern-solid flowchart-link" id="L_FM_Admin_0" d="M1289.137,89.862L1303.862,97.964C1318.587,106.066,1348.038,122.269,1362.763,136.538C1377.488,150.806,1377.488,163.14,1377.488,175.473C1377.488,187.806,1377.488,200.14,1377.488,211.223C1377.488,222.307,1377.488,232.14,1377.488,237.057L1377.488,241.974"/><path marker-end="url(#my-svg_flowchart-v2-pointEnd)" style="" class="edge-thickness-normal edge-pattern-solid edge-thickness-normal edge-pattern-solid flowchart-link" id="L_FM_UILib_0" d="M1289.137,86.121L1341.517,94.847C1393.897,103.572,1498.658,121.022,1551.038,135.914C1603.418,150.806,1603.418,163.14,1603.418,175.473C1603.418,187.806,1603.418,200.14,1603.418,211.223C1603.418,222.307,1603.418,232.14,1603.418,237.057L1603.418,241.974"/><path marker-end="url(#my-svg_flowchart-v2-pointEnd)" style="" class="edge-thickness-normal edge-pattern-solid edge-thickness-normal edge-pattern-solid flowchart-link" id="L_SM_Types_0" d="M326.773,284.652L294.363,292.789C261.953,300.926,197.133,317.2,164.723,329.504C132.313,341.808,132.313,350.141,132.313,357.808C132.313,365.475,132.313,372.475,132.313,375.975L132.313,379.475"/><path marker-end="url(#my-svg_flowchart-v2-pointEnd)" style="" class="edge-thickness-normal edge-pattern-solid edge-thickness-normal edge-pattern-solid flowchart-link" id="L_SM_Protos_0" d="M373.289,308.475L373.289,312.641C373.289,316.808,373.289,325.141,373.289,333.475C373.289,341.808,373.289,350.141,373.289,357.808C373.289,365.475,373.289,372.475,373.289,375.975L373.289,379.475"/><path marker-end="url(#my-svg_flowchart-v2-pointEnd)" style="" class="edge-thickness-normal edge-pattern-solid edge-thickness-normal edge-pattern-solid flowchart-link" id="L_SM_Contracts_0" d="M419.805,285.221L450.35,293.263C480.896,301.305,541.987,317.39,572.533,329.599C603.078,341.808,603.078,350.141,603.078,357.808C603.078,365.475,603.078,372.475,603.078,375.975L603.078,379.475"/><path marker-end="url(#my-svg_flowchart-v2-pointEnd)" style="" class="edge-thickness-normal edge-pattern-dotted edge-thickness-normal edge-pattern-solid flowchart-link" id="L_FM_SM_0" d="M1134.434,91.701L1101.777,99.496C1069.121,107.292,1003.809,122.882,971.152,136.844C938.496,150.806,938.496,163.14,938.496,175.473C938.496,187.806,938.496,200.14,852.71,215.489C766.925,230.838,595.353,249.204,509.568,258.386L423.782,267.569"/><path marker-end="url(#my-svg_flowchart-v2-pointEnd)" style="" class="edge-thickness-normal edge-pattern-dotted edge-thickness-normal edge-pattern-solid flowchart-link" id="L_S1_SM_0" d="M205.703,109.543L205.703,114.364C205.703,119.186,205.703,128.829,205.703,139.818C205.703,150.806,205.703,163.14,205.703,175.473C205.703,187.806,205.703,200.14,225.254,213.365C244.806,226.59,283.908,240.706,303.46,247.764L323.011,254.823"/><path marker-end="url(#my-svg_flowchart-v2-pointEnd)" style="" class="edge-thickness-normal edge-pattern-dotted edge-thickness-normal edge-pattern-solid flowchart-link" id="L_S2_SM_0" d="M373.289,112.114L373.289,116.507C373.289,120.9,373.289,129.687,373.289,140.246C373.289,150.806,373.289,163.14,373.289,175.473C373.289,187.806,373.289,200.14,373.289,209.806C373.289,219.473,373.289,226.473,373.289,229.973L373.289,233.473"/></g><g class="edgeLabels"><g class="edgeLabel"><g transform="translate(0, 0)" class="label"><foreignObject height="0" width="0"><div style="display: table-cell; white-space: nowrap; line-height: 1.5; max-width: 200px; text-align: center;" class="labelBkg" xmlns="http://www.w3.org/1999/xhtml"><span class="edgeLabel"></span></div></foreignObject></g></g><g class="edgeLabel"><g transform="translate(0, 0)" class="label"><foreignObject height="0" width="0"><div style="display: table-cell; white-space: nowrap; line-height: 1.5; max-width: 200px; text-align: center;" class="labelBkg" xmlns="http://www.w3.org/1999/xhtml"><span class="edgeLabel"></span></div></foreignObject></g></g><g class="edgeLabel"><g transform="translate(0, 0)" class="label"><foreignObject height="0" width="0"><div style="display: table-cell; white-space: nowrap; line-height: 1.5; max-width: 200px; text-align: center;" class="labelBkg" xmlns="http://www.w3.org/1999/xhtml"><span class="edgeLabel"></span></div></foreignObject></g></g><g class="edgeLabel"><g transform="translate(0, 0)" class="label"><foreignObject height="0" width="0"><div style="display: table-cell; white-space: nowrap; line-height: 1.5; max-width: 200px; text-align: center;" class="labelBkg" xmlns="http://www.w3.org/1999/xhtml"><span class="edgeLabel"></span></div></foreignObject></g></g><g class="edgeLabel"><g transform="translate(0, 0)" class="label"><foreignObject height="0" width="0"><div style="display: table-cell; white-space: nowrap; line-height: 1.5; max-width: 200px; text-align: center;" class="labelBkg" xmlns="http://www.w3.org/1999/xhtml"><span class="edgeLabel"></span></div></foreignObject></g></g><g class="edgeLabel"><g transform="translate(0, 0)" class="label"><foreignObject height="0" width="0"><div style="display: table-cell; white-space: nowrap; line-height: 1.5; max-width: 200px; text-align: center;" class="labelBkg" xmlns="http://www.w3.org/1999/xhtml"><span class="edgeLabel"></span></div></foreignObject></g></g><g class="edgeLabel"><g transform="translate(0, 0)" class="label"><foreignObject height="0" width="0"><div style="display: table-cell; white-space: nowrap; line-height: 1.5; max-width: 200px; text-align: center;" class="labelBkg" xmlns="http://www.w3.org/1999/xhtml"><span class="edgeLabel"></span></div></foreignObject></g></g><g transform="translate(938.49609375, 175.47296142578125)" class="edgeLabel"><g transform="translate(-27.1953125, -12)" class="label"><foreignObject height="24" width="54.390625"><div style="display: table-cell; white-space: nowrap; line-height: 1.5; max-width: 200px; text-align: center;" class="labelBkg" xmlns="http://www.w3.org/1999/xhtml"><span class="edgeLabel"><p>imports</p></span></div></foreignObject></g></g><g transform="translate(205.703125, 175.47296142578125)" class="edgeLabel"><g transform="translate(-27.1953125, -12)" class="label"><foreignObject height="24" width="54.390625"><div style="display: table-cell; white-space: nowrap; line-height: 1.5; max-width: 200px; text-align: center;" class="labelBkg" xmlns="http://www.w3.org/1999/xhtml"><span class="edgeLabel"><p>imports</p></span></div></foreignObject></g></g><g transform="translate(373.2890625, 175.47296142578125)" class="edgeLabel"><g transform="translate(-27.1953125, -12)" class="label"><foreignObject height="24" width="54.390625"><div style="display: table-cell; white-space: nowrap; line-height: 1.5; max-width: 200px; text-align: center;" class="labelBkg" xmlns="http://www.w3.org/1999/xhtml"><span class="edgeLabel"><p>imports</p></span></div></foreignObject></g></g></g><g class="nodes"><g transform="translate(1211.78515625, 73.23648071289062)" id="flowchart-FM-0" class="node default"><path transform="translate(-77.3515625, -40.24115971174795)" style="" class="basic label-container" d="M0,13.827439807831965 a77.3515625,13.827439807831965 0,0,0 154.703125,0 a77.3515625,13.827439807831965 0,0,0 -154.703125,0 l0,52.827439807831965 a77.3515625,13.827439807831965 0,0,0 154.703125,0 l0,-52.827439807831965"/><g transform="translate(-69.8515625, -2)" style="" class="label"><rect/><foreignObject height="24" width="139.703125"><div style="display: table-cell; white-space: nowrap; line-height: 1.5; max-width: 200px; text-align: center;" xmlns="http://www.w3.org/1999/xhtml"><span class="nodeLabel"><p>frontend-monorepo</p></span></div></foreignObject></g></g><g transform="translate(986.43359375, 272.97375106811523)" id="flowchart-Web-2" class="node default"><rect height="54" width="121.75" y="-27" x="-60.875" style="" class="basic label-container"/><g transform="translate(-30.875, -12)" style="" class="label"><rect/><foreignObject height="24" width="61.75"><div style="display: table-cell; white-space: nowrap; line-height: 1.5; max-width: 200px; text-align: center;" xmlns="http://www.w3.org/1999/xhtml"><span class="nodeLabel"><p>Web App</p></span></div></foreignObject></g></g><g transform="translate(1166.33984375, 272.97375106811523)" id="flowchart-Mobile-4" class="node default"><rect height="54" width="138.0625" y="-27" x="-69.03125" style="" class="basic label-container"/><g transform="translate(-39.03125, -12)" style="" class="label"><rect/><foreignObject height="24" width="78.0625"><div style="display: table-cell; white-space: nowrap; line-height: 1.5; max-width: 200px; text-align: center;" xmlns="http://www.w3.org/1999/xhtml"><span class="nodeLabel"><p>Mobile App</p></span></div></foreignObject></g></g><g transform="translate(1377.48828125, 272.97375106811523)" id="flowchart-Admin-6" class="node default"><rect height="54" width="184.234375" y="-27" x="-92.1171875" style="" class="basic label-container"/><g transform="translate(-62.1171875, -12)" style="" class="label"><rect/><foreignObject height="24" width="124.234375"><div style="display: table-cell; white-space: nowrap; line-height: 1.5; max-width: 200px; text-align: center;" xmlns="http://www.w3.org/1999/xhtml"><span class="nodeLabel"><p>Admin Dashboard</p></span></div></foreignObject></g></g><g transform="translate(1603.41796875, 272.97375106811523)" id="flowchart-UILib-8" class="node default"><rect height="54" width="167.625" y="-27" x="-83.8125" style="" class="basic label-container"/><g transform="translate(-53.8125, -12)" style="" class="label"><rect/><foreignObject height="24" width="107.625"><div style="display: table-cell; white-space: nowrap; line-height: 1.5; max-width: 200px; text-align: center;" xmlns="http://www.w3.org/1999/xhtml"><span class="nodeLabel"><p>UI Components</p></span></div></foreignObject></g></g><g transform="translate(205.703125, 73.23648071289062)" id="flowchart-S1-9" class="node default"><path transform="translate(-50.7578125, -36.30606332344623)" style="" class="basic label-container" d="M0,11.204042215630821 a50.7578125,11.204042215630821 0,0,0 101.515625,0 a50.7578125,11.204042215630821 0,0,0 -101.515625,0 l0,50.20404221563082 a50.7578125,11.204042215630821 0,0,0 101.515625,0 l0,-50.20404221563082"/><g transform="translate(-43.2578125, -2)" style="" class="label"><rect/><foreignObject height="24" width="86.515625"><div style="display: table-cell; white-space: nowrap; line-height: 1.5; max-width: 200px; text-align: center;" xmlns="http://www.w3.org/1999/xhtml"><span class="nodeLabel"><p>user-service</p></span></div></foreignObject></g></g><g transform="translate(373.2890625, 73.23648071289062)" id="flowchart-S2-10" class="node default"><path transform="translate(-66.828125, -38.87749184487133)" style="" class="basic label-container" d="M0,12.918327896580886 a66.828125,12.918327896580886 0,0,0 133.65625,0 a66.828125,12.918327896580886 0,0,0 -133.65625,0 l0,51.918327896580884 a66.828125,12.918327896580886 0,0,0 133.65625,0 l0,-51.918327896580884"/><g transform="translate(-59.328125, -2)" style="" class="label"><rect/><foreignObject height="24" width="118.65625"><div style="display: table-cell; white-space: nowrap; line-height: 1.5; max-width: 200px; text-align: center;" xmlns="http://www.w3.org/1999/xhtml"><span class="nodeLabel"><p>payment-service</p></span></div></foreignObject></g></g><g transform="translate(567.4296875, 73.23648071289062)" id="flowchart-S3-11" class="node default"><path transform="translate(-77.3125, -40.236477425122935)" style="" class="basic label-container" d="M0,13.82431828341529 a77.3125,13.82431828341529 0,0,0 154.625,0 a77.3125,13.82431828341529 0,0,0 -154.625,0 l0,52.82431828341529 a77.3125,13.82431828341529 0,0,0 154.625,0 l0,-52.82431828341529"/><g transform="translate(-69.8125, -2)" style="" class="label"><rect/><foreignObject height="24" width="139.625"><div style="display: table-cell; white-space: nowrap; line-height: 1.5; max-width: 200px; text-align: center;" xmlns="http://www.w3.org/1999/xhtml"><span class="nodeLabel"><p>notification-service</p></span></div></foreignObject></g></g><g transform="translate(745.9765625, 73.23648071289062)" id="flowchart-S4-12" class="node default"><path transform="translate(-51.234375, -36.392773732655584)" style="" class="basic label-container" d="M0,11.261849155103723 a51.234375,11.261849155103723 0,0,0 102.46875,0 a51.234375,11.261849155103723 0,0,0 -102.46875,0 l0,50.261849155103725 a51.234375,11.261849155103723 0,0,0 102.46875,0 l0,-50.261849155103725"/><g transform="translate(-43.734375, -2)" style="" class="label"><rect/><foreignObject height="24" width="87.46875"><div style="display: table-cell; white-space: nowrap; line-height: 1.5; max-width: 200px; text-align: center;" xmlns="http://www.w3.org/1999/xhtml"><span class="nodeLabel"><p>api-gateway</p></span></div></foreignObject></g></g><g transform="translate(373.2890625, 272.97375106811523)" id="flowchart-SM-13" class="node default"><path transform="translate(-46.515625, -35.50078830442884)" style="" class="basic label-container" d="M0,10.66719220295256 a46.515625,10.66719220295256 0,0,0 93.03125,0 a46.515625,10.66719220295256 0,0,0 -93.03125,0 l0,49.66719220295256 a46.515625,10.66719220295256 0,0,0 93.03125,0 l0,-49.66719220295256"/><g transform="translate(-39.015625, -2)" style="" class="label"><rect/><foreignObject height="24" width="78.03125"><div style="display: table-cell; white-space: nowrap; line-height: 1.5; max-width: 200px; text-align: center;" xmlns="http://www.w3.org/1999/xhtml"><span class="nodeLabel"><p>shared-libs</p></span></div></foreignObject></g></g><g transform="translate(132.3125, 410.4745407104492)" id="flowchart-Types-15" class="node default"><rect height="54" width="178.625" y="-27" x="-89.3125" style="" class="basic label-container"/><g transform="translate(-59.3125, -12)" style="" class="label"><rect/><foreignObject height="24" width="118.625"><div style="display: table-cell; white-space: nowrap; line-height: 1.5; max-width: 200px; text-align: center;" xmlns="http://www.w3.org/1999/xhtml"><span class="nodeLabel"><p>TypeScript Types</p></span></div></foreignObject></g></g><g transform="translate(373.2890625, 410.4745407104492)" id="flowchart-Protos-17" class="node default"><rect height="54" width="203.328125" y="-27" x="-101.6640625" style="" class="basic label-container"/><g transform="translate(-71.6640625, -12)" style="" class="label"><rect/><foreignObject height="24" width="143.328125"><div style="display: table-cell; white-space: nowrap; line-height: 1.5; max-width: 200px; text-align: center;" xmlns="http://www.w3.org/1999/xhtml"><span class="nodeLabel"><p>Protobuf Definitions</p></span></div></foreignObject></g></g><g transform="translate(603.078125, 410.4745407104492)" id="flowchart-Contracts-19" class="node default"><rect height="54" width="156.25" y="-27" x="-78.125" style="" class="basic label-container"/><g transform="translate(-48.125, -12)" style="" class="label"><rect/><foreignObject height="24" width="96.25"><div style="display: table-cell; white-space: nowrap; line-height: 1.5; max-width: 200px; text-align: center;" xmlns="http://www.w3.org/1999/xhtml"><span class="nodeLabel"><p>API Contracts</p></span></div></foreignObject></g></g></g></g></g></svg>