<svg class="mermaid-svg" aria-roledescription="pie" role="graphics-document document" style="max-width: 724.156px; background-color: transparent;" viewBox="0 0 724.15625 450" xmlns:xlink="http://www.w3.org/1999/xlink" xmlns="http://www.w3.org/2000/svg"  id="my-svg"><style>#my-svg{font-family:"trebuchet ms",verdana,arial,sans-serif;font-size:16px;fill:#333;}@keyframes edge-animation-frame{from{stroke-dashoffset:0;}}@keyframes dash{to{stroke-dashoffset:0;}}#my-svg .edge-animation-slow{stroke-dasharray:9,5!important;stroke-dashoffset:900;animation:dash 50s linear infinite;stroke-linecap:round;}#my-svg .edge-animation-fast{stroke-dasharray:9,5!important;stroke-dashoffset:900;animation:dash 20s linear infinite;stroke-linecap:round;}#my-svg .error-icon{fill:#552222;}#my-svg .error-text{fill:#552222;stroke:#552222;}#my-svg .edge-thickness-normal{stroke-width:1px;}#my-svg .edge-thickness-thick{stroke-width:3.5px;}#my-svg .edge-pattern-solid{stroke-dasharray:0;}#my-svg .edge-thickness-invisible{stroke-width:0;fill:none;}#my-svg .edge-pattern-dashed{stroke-dasharray:3;}#my-svg .edge-pattern-dotted{stroke-dasharray:2;}#my-svg .marker{fill:#333333;stroke:#333333;}#my-svg .marker.cross{stroke:#333333;}#my-svg svg{font-family:"trebuchet ms",verdana,arial,sans-serif;font-size:16px;}#my-svg p{margin:0;}#my-svg .pieCircle{stroke:black;stroke-width:2px;opacity:0.7;}#my-svg .pieOuterCircle{stroke:black;stroke-width:2px;fill:none;}#my-svg .pieTitleText{text-anchor:middle;font-size:25px;fill:black;font-family:"trebuchet ms",verdana,arial,sans-serif;}#my-svg .slice{font-family:"trebuchet ms",verdana,arial,sans-serif;fill:#333;font-size:17px;}#my-svg .legend text{fill:black;font-family:"trebuchet ms",verdana,arial,sans-serif;font-size:17px;}#my-svg :root{--mermaid-font-family:"trebuchet ms",verdana,arial,sans-serif;}</style><g/><g transform="translate(225,225)"><circle class="pieOuterCircle" r="186" cy="0" cx="0"/><path class="pieCircle" fill="#ECECFF" d="M0,-185A185,185,0,0,1,175.945,57.168L0,0Z"/><path class="pieCircle" fill="#ffffde" d="M175.945,57.168A185,185,0,0,1,-57.168,175.945L0,0Z"/><path class="pieCircle" fill="hsl(80, 100%, 56.2745098039%)" d="M-57.168,175.945A185,185,0,0,1,-185,0L0,0Z"/><path class="pieCircle" fill="hsl(240, 100%, 86.2745098039%)" d="M-185,0A185,185,0,0,1,-108.74,-149.668L0,0Z"/><path class="pieCircle" fill="hsl(60, 100%, 63.5294117647%)" d="M-108.74,-149.668A185,185,0,0,1,-34.666,-181.723L0,0Z"/><path class="pieCircle" fill="hsl(80, 100%, 76.2745098039%)" d="M-34.666,-181.723A185,185,0,0,1,0,-185L0,0Z"/><text style="text-anchor: middle;" class="slice" transform="translate(112.25110796952396,-81.55520375558064)">30%</text><text style="text-anchor: middle;" class="slice" transform="translate(62.99118183886206,123.62715523113606)">25%</text><text style="text-anchor: middle;" class="slice" transform="translate(-112.25110796952394,81.55520375558066)">20%</text><text style="text-anchor: middle;" class="slice" transform="translate(-123.62715523113604,-62.991181838862104)">15%</text><text style="text-anchor: middle;" class="slice" transform="translate(-55.10426982557576,-127.33845431365239)">7%</text><text style="text-anchor: middle;" class="slice" transform="translate(-13.057528472943812,-138.13422258867735)">3%</text><text class="pieTitleText" y="-200" x="0">Google Docs Infrastructure Cost Distribution</text><g transform="translate(216,-66)" class="legend"><rect style="fill: rgb(236, 236, 255); stroke: rgb(236, 236, 255);"  width="18"/><text y="14" x="22">Compute (Serving, OT)</text></g><g transform="translate(216,-44)" class="legend"><rect style="fill: rgb(255, 255, 222); stroke: rgb(255, 255, 222);" height="18" width="18"/><text y="14" x="22">Storage (Bigtable, Colossus)</text></g><g transform="translate(216,-22)" class="legend"><rect style="fill: rgb(181, 255, 32); stroke: rgb(181, 255, 32);" height="18" width="18"/><text y="14" x="22">Network &amp; CDN</text></g><g transform="translate(216,0)" class="legend"><rect style="fill: rgb(185, 185, 255); stroke: rgb(185, 185, 255);" height="18" width="18"/><text y="14" x="22">Database (Spanner)</text></g><g transform="translate(216,22)" class="legend"><rect style="fill: rgb(255, 255, 69); stroke: rgb(255, 255, 69);" height="18" width="18"/><text y="14" x="22">ML &amp; Analytics</text></g><g transform="translate(216,44)" class="legend"><rect style="fill: rgb(215, 255, 134); stroke: rgb(215, 255, 134);" height="18" width="18"/><text y="14" x="22">Monitoring &amp; Operations</text></g></g></svg>