<svg class="mermaid-svg" aria-roledescription="flowchart-v2" role="graphics-document document" viewBox="0 0 1389.93359375 678" style="max-width: 1389.93px; background-color: transparent;" class="flowchart" xmlns:xlink="http://www.w3.org/1999/xlink" xmlns="http://www.w3.org/2000/svg"  id="my-svg"><style>#my-svg{font-family:"trebuchet ms",verdana,arial,sans-serif;font-size:16px;fill:#333;}@keyframes edge-animation-frame{from{stroke-dashoffset:0;}}@keyframes dash{to{stroke-dashoffset:0;}}#my-svg .edge-animation-slow{stroke-dasharray:9,5!important;stroke-dashoffset:900;animation:dash 50s linear infinite;stroke-linecap:round;}#my-svg .edge-animation-fast{stroke-dasharray:9,5!important;stroke-dashoffset:900;animation:dash 20s linear infinite;stroke-linecap:round;}#my-svg .error-icon{fill:#552222;}#my-svg .error-text{fill:#552222;stroke:#552222;}#my-svg .edge-thickness-normal{stroke-width:1px;}#my-svg .edge-thickness-thick{stroke-width:3.5px;}#my-svg .edge-pattern-solid{stroke-dasharray:0;}#my-svg .edge-thickness-invisible{stroke-width:0;fill:none;}#my-svg .edge-pattern-dashed{stroke-dasharray:3;}#my-svg .edge-pattern-dotted{stroke-dasharray:2;}#my-svg .marker{fill:#333333;stroke:#333333;}#my-svg .marker.cross{stroke:#333333;}#my-svg svg{font-family:"trebuchet ms",verdana,arial,sans-serif;font-size:16px;}#my-svg p{margin:0;}#my-svg .label{font-family:"trebuchet ms",verdana,arial,sans-serif;color:#333;}#my-svg .cluster-label text{fill:#333;}#my-svg .cluster-label span{color:#333;}#my-svg .cluster-label span p{background-color:transparent;}#my-svg .label text,#my-svg span{fill:#333;color:#333;}#my-svg .node rect,#my-svg .node circle,#my-svg .node ellipse,#my-svg .node polygon,#my-svg .node path{fill:#ECECFF;stroke:#9370DB;stroke-width:1px;}#my-svg .rough-node .label text,#my-svg .node .label text,#my-svg .image-shape .label,#my-svg .icon-shape .label{text-anchor:middle;}#my-svg .node .katex path{fill:#000;stroke:#000;stroke-width:1px;}#my-svg .rough-node .label,#my-svg .node .label,#my-svg .image-shape .label,#my-svg .icon-shape .label{text-align:center;}#my-svg .node.clickable{cursor:pointer;}#my-svg .root .anchor path{fill:#333333!important;stroke-width:0;stroke:#333333;}#my-svg .arrowheadPath{fill:#333333;}#my-svg .edgePath .path{stroke:#333333;stroke-width:2.0px;}#my-svg .flowchart-link{stroke:#333333;fill:none;}#my-svg .edgeLabel{background-color:rgba(232,232,232, 0.8);text-align:center;}#my-svg .edgeLabel p{background-color:rgba(232,232,232, 0.8);}#my-svg .edgeLabel rect{opacity:0.5;background-color:rgba(232,232,232, 0.8);fill:rgba(232,232,232, 0.8);}#my-svg .labelBkg{background-color:rgba(232, 232, 232, 0.5);}#my-svg .cluster rect{fill:#ffffde;stroke:#aaaa33;stroke-width:1px;}#my-svg .cluster text{fill:#333;}#my-svg .cluster span{color:#333;}#my-svg div.mermaidTooltip{position:absolute;text-align:center;max-width:200px;padding:2px;font-family:"trebuchet ms",verdana,arial,sans-serif;font-size:12px;background:hsl(80, 100%, 96.2745098039%);border:1px solid #aaaa33;border-radius:2px;pointer-events:none;z-index:100;}#my-svg .flowchartTitleText{text-anchor:middle;font-size:18px;fill:#333;}#my-svg rect.text{fill:none;stroke-width:0;}#my-svg .icon-shape,#my-svg .image-shape{background-color:rgba(232,232,232, 0.8);text-align:center;}#my-svg .icon-shape p,#my-svg .image-shape p{background-color:rgba(232,232,232, 0.8);padding:2px;}#my-svg .icon-shape rect,#my-svg .image-shape rect{opacity:0.5;background-color:rgba(232,232,232, 0.8);fill:rgba(232,232,232, 0.8);}#my-svg .label-icon{display:inline-block;height:1em;overflow:visible;vertical-align:-0.125em;}#my-svg .node .label-icon path{fill:currentColor;stroke:revert;stroke-width:revert;}#my-svg :root{--mermaid-font-family:"trebuchet ms",verdana,arial,sans-serif;}</style><g><marker orient="auto" markerHeight="8" markerWidth="8" markerUnits="userSpaceOnUse" refY="5" refX="5" viewBox="0 0 10 10" class="marker flowchart-v2" id="my-svg_flowchart-v2-pointEnd"><path style="stroke-width: 1; stroke-dasharray: 1, 0;" class="arrowMarkerPath" d="M 0 0 L 10 5 L 0 10 z"/></marker><marker orient="auto" markerHeight="8" markerWidth="8" markerUnits="userSpaceOnUse" refY="5" refX="4.5" viewBox="0 0 10 10" class="marker flowchart-v2" id="my-svg_flowchart-v2-pointStart"><path style="stroke-width: 1; stroke-dasharray: 1, 0;" class="arrowMarkerPath" d="M 0 5 L 10 10 L 10 0 z"/></marker><marker orient="auto" markerHeight="11" markerWidth="11" markerUnits="userSpaceOnUse" refY="5" refX="11" viewBox="0 0 10 10" class="marker flowchart-v2" id="my-svg_flowchart-v2-circleEnd"><circle style="stroke-width: 1; stroke-dasharray: 1, 0;" class="arrowMarkerPath" r="5" cy="5" cx="5"/></marker><marker orient="auto" markerHeight="11" markerWidth="11" markerUnits="userSpaceOnUse" refY="5" refX="-1" viewBox="0 0 10 10" class="marker flowchart-v2" id="my-svg_flowchart-v2-circleStart"><circle style="stroke-width: 1; stroke-dasharray: 1, 0;" class="arrowMarkerPath" r="5" cy="5" cx="5"/></marker><marker orient="auto" markerHeight="11" markerWidth="11" markerUnits="userSpaceOnUse" refY="5.2" refX="12" viewBox="0 0 11 11" class="marker cross flowchart-v2" id="my-svg_flowchart-v2-crossEnd"><path style="stroke-width: 2; stroke-dasharray: 1, 0;" class="arrowMarkerPath" d="M 1,1 l 9,9 M 10,1 l -9,9"/></marker><marker orient="auto" markerHeight="11" markerWidth="11" markerUnits="userSpaceOnUse" refY="5.2" refX="-1" viewBox="0 0 11 11" class="marker cross flowchart-v2" id="my-svg_flowchart-v2-crossStart"><path style="stroke-width: 2; stroke-dasharray: 1, 0;" class="arrowMarkerPath" d="M 1,1 l 9,9 M 10,1 l -9,9"/></marker><g class="root"><g class="clusters"><g data-look="classic" id="subGraph4" class="cluster"><rect  width="1298.375" y="542" x="44.98828125" style=""/><g transform="translate(659.51171875, 542)" class="cluster-label"><foreignObject height="24" width="69.328125"><div style="display: table-cell; white-space: nowrap; line-height: 1.5; max-width: 200px; text-align: center;" xmlns="http://www.w3.org/1999/xhtml"><span class="nodeLabel"><p>End Users</p></span></div></foreignObject></g></g><g data-look="classic" id="subGraph3" class="cluster"><rect height="128" width="564.18359375" y="364" x="817.75" style=""/><g transform="translate(1010.849609375, 364)" class="cluster-label"><foreignObject height="24" width="177.984375"><div style="display: table-cell; white-space: nowrap; line-height: 1.5; max-width: 200px; text-align: center;" xmlns="http://www.w3.org/1999/xhtml"><span class="nodeLabel"><p>Internet Exchange Points</p></span></div></foreignObject></g></g><g data-look="classic" id="subGraph2" class="cluster"><rect height="128" width="789.75" y="364" x="8" style=""/><g transform="translate(356.2109375, 364)" class="cluster-label"><foreignObject height="24" width="93.328125"><div style="display: table-cell; white-space: nowrap; line-height: 1.5; max-width: 200px; text-align: center;" xmlns="http://www.w3.org/1999/xhtml"><span class="nodeLabel"><p>ISP Locations</p></span></div></foreignObject></g></g><g data-look="classic" id="subGraph1" class="cluster"><rect height="128" width="1289.625" y="186" x="59.4765625" style=""/><g transform="translate(641.1484375, 186)" class="cluster-label"><foreignObject height="24" width="126.28125"><div style="display: table-cell; white-space: nowrap; line-height: 1.5; max-width: 200px; text-align: center;" xmlns="http://www.w3.org/1999/xhtml"><span class="nodeLabel"><p>Regional Fill Sites</p></span></div></foreignObject></g></g><g data-look="classic" id="subGraph0" class="cluster"><rect height="128" width="748.671875" y="8" x="266.65625" style=""/><g transform="translate(592.8828125, 8)" class="cluster-label"><foreignObject height="24" width="96.21875"><div style="display: table-cell; white-space: nowrap; line-height: 1.5; max-width: 200px; text-align: center;" xmlns="http://www.w3.org/1999/xhtml"><span class="nodeLabel"><p>Netflix Origin</p></span></div></foreignObject></g></g></g><g class="edgePaths"><path marker-end="url(#my-svg_flowchart-v2-pointEnd)" style="" class="edge-thickness-normal edge-pattern-solid edge-thickness-normal edge-pattern-solid flowchart-link" id="L_ORIGIN_FILL1_0" d="M713.68,83.044L645.842,91.87C578.005,100.696,442.331,118.348,374.493,131.341C306.656,144.333,306.656,152.667,306.656,161C306.656,169.333,306.656,177.667,306.656,185.333C306.656,193,306.656,200,306.656,203.5L306.656,207"/><path marker-end="url(#my-svg_flowchart-v2-pointEnd)" style="" class="edge-thickness-normal edge-pattern-solid edge-thickness-normal edge-pattern-solid flowchart-link" id="L_ORIGIN_FILL2_0" d="M801.126,111L801.4,115.167C801.674,119.333,802.222,127.667,802.496,136C802.77,144.333,802.77,152.667,802.77,161C802.77,169.333,802.77,177.667,802.77,185.333C802.77,193,802.77,200,802.77,203.5L802.77,207"/><path marker-end="url(#my-svg_flowchart-v2-pointEnd)" style="" class="edge-thickness-normal edge-pattern-solid edge-thickness-normal edge-pattern-solid flowchart-link" id="L_ORIGIN_FILL3_0" d="M883.445,99.982L901.655,105.985C919.865,111.988,956.284,123.994,974.493,134.164C992.703,144.333,992.703,152.667,992.703,161C992.703,169.333,992.703,177.667,992.703,185.333C992.703,193,992.703,200,992.703,203.5L992.703,207"/><path marker-end="url(#my-svg_flowchart-v2-pointEnd)" style="" class="edge-thickness-normal edge-pattern-solid edge-thickness-normal edge-pattern-solid flowchart-link" id="L_FILL1_ISP1_0" d="M240.336,272.057L219.316,279.047C198.297,286.038,156.258,300.019,135.238,311.176C114.219,322.333,114.219,330.667,114.219,339C114.219,347.333,114.219,355.667,114.219,363.333C114.219,371,114.219,378,114.219,381.5L114.219,385"/><path marker-end="url(#my-svg_flowchart-v2-pointEnd)" style="" class="edge-thickness-normal edge-pattern-solid edge-thickness-normal edge-pattern-solid flowchart-link" id="L_FILL1_ISP2_0" d="M306.656,289L306.656,293.167C306.656,297.333,306.656,305.667,306.656,314C306.656,322.333,306.656,330.667,306.656,339C306.656,347.333,306.656,355.667,306.656,363.333C306.656,371,306.656,378,306.656,381.5L306.656,385"/><path marker-end="url(#my-svg_flowchart-v2-pointEnd)" style="" class="edge-thickness-normal edge-pattern-solid edge-thickness-normal edge-pattern-solid flowchart-link" id="L_FILL1_IXP1_0" d="M372.977,256.945L463.788,266.454C554.599,275.963,736.221,294.982,827.033,308.657C917.844,322.333,917.844,330.667,917.844,339C917.844,347.333,917.844,355.667,917.844,363.333C917.844,371,917.844,378,917.844,381.5L917.844,385"/><path marker-end="url(#my-svg_flowchart-v2-pointEnd)" style="" class="edge-thickness-normal edge-pattern-solid edge-thickness-normal edge-pattern-solid flowchart-link" id="L_FILL2_ISP3_0" d="M736.449,263.977L696.89,272.314C657.331,280.651,578.212,297.326,538.653,309.83C499.094,322.333,499.094,330.667,499.094,339C499.094,347.333,499.094,355.667,499.094,363.333C499.094,371,499.094,378,499.094,381.5L499.094,385"/><path marker-end="url(#my-svg_flowchart-v2-pointEnd)" style="" class="edge-thickness-normal edge-pattern-solid edge-thickness-normal edge-pattern-solid flowchart-link" id="L_FILL2_IXP2_0" d="M869.09,264.375L907.247,272.646C945.404,280.917,1021.717,297.458,1059.874,309.896C1098.031,322.333,1098.031,330.667,1098.031,339C1098.031,347.333,1098.031,355.667,1098.031,363.333C1098.031,371,1098.031,378,1098.031,381.5L1098.031,385"/><path marker-end="url(#my-svg_flowchart-v2-pointEnd)" style="" class="edge-thickness-normal edge-pattern-solid edge-thickness-normal edge-pattern-solid flowchart-link" id="L_FILL3_ISP4_0" d="M921.594,265.111L883.25,273.259C844.906,281.407,768.219,297.704,729.875,310.018C691.531,322.333,691.531,330.667,691.531,339C691.531,347.333,691.531,355.667,691.531,363.333C691.531,371,691.531,378,691.531,381.5L691.531,385"/><path marker-end="url(#my-svg_flowchart-v2-pointEnd)" style="" class="edge-thickness-normal edge-pattern-solid edge-thickness-normal edge-pattern-solid flowchart-link" id="L_FILL3_IXP3_0" d="M1063.813,265.74L1100.15,273.783C1136.488,281.827,1209.164,297.913,1245.502,310.123C1281.84,322.333,1281.84,330.667,1281.84,339C1281.84,347.333,1281.84,355.667,1281.84,363.333C1281.84,371,1281.84,378,1281.84,381.5L1281.84,385"/><path marker-end="url(#my-svg_flowchart-v2-pointEnd)" style="" class="edge-thickness-normal edge-pattern-solid edge-thickness-normal edge-pattern-solid flowchart-link" id="L_ISP1_USER1_0" d="M114.219,467L114.219,471.167C114.219,475.333,114.219,483.667,114.219,492C114.219,500.333,114.219,508.667,114.219,517C114.219,525.333,114.219,533.667,116.189,541.416C118.159,549.165,122.098,556.33,124.068,559.912L126.038,563.495"/><path marker-end="url(#my-svg_flowchart-v2-pointEnd)" style="" class="edge-thickness-normal edge-pattern-solid edge-thickness-normal edge-pattern-solid flowchart-link" id="L_ISP2_USER2_0" d="M306.656,467L306.656,471.167C306.656,475.333,306.656,483.667,359.255,492C411.854,500.333,517.052,508.667,569.651,517C622.25,525.333,622.25,533.667,626.734,541.573C631.218,549.479,640.186,556.959,644.67,560.698L649.154,564.438"/><path marker-end="url(#my-svg_flowchart-v2-pointEnd)" style="" class="edge-thickness-normal edge-pattern-solid edge-thickness-normal edge-pattern-solid flowchart-link" id="L_ISP3_USER3_0" d="M499.094,467L499.094,471.167C499.094,475.333,499.094,483.667,550.672,492C602.25,500.333,705.406,508.667,756.984,517C808.563,525.333,808.563,533.667,871.325,546.959C934.088,560.251,1059.614,578.503,1122.376,587.628L1185.139,596.754"/><path marker-end="url(#my-svg_flowchart-v2-pointEnd)" style="" class="edge-thickness-normal edge-pattern-solid edge-thickness-normal edge-pattern-solid flowchart-link" id="L_IXP1_USER1_0" d="M917.844,467L917.844,471.167C917.844,475.333,917.844,483.667,865.245,492C812.646,500.333,707.448,508.667,654.849,517C602.25,525.333,602.25,533.667,539.007,546.771C475.764,559.876,349.278,577.753,286.036,586.691L222.793,595.629"/><path marker-end="url(#my-svg_flowchart-v2-pointEnd)" style="" class="edge-thickness-normal edge-pattern-solid edge-thickness-normal edge-pattern-solid flowchart-link" id="L_IXP2_USER2_0" d="M1098.031,467L1098.031,471.167C1098.031,475.333,1098.031,483.667,1046.453,492C994.875,500.333,891.719,508.667,840.141,517C788.563,525.333,788.563,533.667,783.081,541.75C777.599,549.833,766.636,557.666,761.154,561.583L755.673,565.5"/><path marker-end="url(#my-svg_flowchart-v2-pointEnd)" style="" class="edge-thickness-normal edge-pattern-solid edge-thickness-normal edge-pattern-solid flowchart-link" id="L_IXP3_USER3_0" d="M1281.84,467L1281.84,471.167C1281.84,475.333,1281.84,483.667,1281.84,492C1281.84,500.333,1281.84,508.667,1281.84,517C1281.84,525.333,1281.84,533.667,1279.991,541.408C1278.141,549.149,1274.443,556.298,1272.594,559.873L1270.744,563.447"/></g><g class="edgeLabels"><g class="edgeLabel"><g transform="translate(0, 0)" class="label"><foreignObject height="0" width="0"><div style="display: table-cell; white-space: nowrap; line-height: 1.5; max-width: 200px; text-align: center;" class="labelBkg" xmlns="http://www.w3.org/1999/xhtml"><span class="edgeLabel"></span></div></foreignObject></g></g><g class="edgeLabel"><g transform="translate(0, 0)" class="label"><foreignObject height="0" width="0"><div style="display: table-cell; white-space: nowrap; line-height: 1.5; max-width: 200px; text-align: center;" class="labelBkg" xmlns="http://www.w3.org/1999/xhtml"><span class="edgeLabel"></span></div></foreignObject></g></g><g class="edgeLabel"><g transform="translate(0, 0)" class="label"><foreignObject height="0" width="0"><div style="display: table-cell; white-space: nowrap; line-height: 1.5; max-width: 200px; text-align: center;" class="labelBkg" xmlns="http://www.w3.org/1999/xhtml"><span class="edgeLabel"></span></div></foreignObject></g></g><g class="edgeLabel"><g transform="translate(0, 0)" class="label"><foreignObject height="0" width="0"><div style="display: table-cell; white-space: nowrap; line-height: 1.5; max-width: 200px; text-align: center;" class="labelBkg" xmlns="http://www.w3.org/1999/xhtml"><span class="edgeLabel"></span></div></foreignObject></g></g><g class="edgeLabel"><g transform="translate(0, 0)" class="label"><foreignObject height="0" width="0"><div style="display: table-cell; white-space: nowrap; line-height: 1.5; max-width: 200px; text-align: center;" class="labelBkg" xmlns="http://www.w3.org/1999/xhtml"><span class="edgeLabel"></span></div></foreignObject></g></g><g class="edgeLabel"><g transform="translate(0, 0)" class="label"><foreignObject height="0" width="0"><div style="display: table-cell; white-space: nowrap; line-height: 1.5; max-width: 200px; text-align: center;" class="labelBkg" xmlns="http://www.w3.org/1999/xhtml"><span class="edgeLabel"></span></div></foreignObject></g></g><g class="edgeLabel"><g transform="translate(0, 0)" class="label"><foreignObject height="0" width="0"><div style="display: table-cell; white-space: nowrap; line-height: 1.5; max-width: 200px; text-align: center;" class="labelBkg" xmlns="http://www.w3.org/1999/xhtml"><span class="edgeLabel"></span></div></foreignObject></g></g><g class="edgeLabel"><g transform="translate(0, 0)" class="label"><foreignObject height="0" width="0"><div style="display: table-cell; white-space: nowrap; line-height: 1.5; max-width: 200px; text-align: center;" class="labelBkg" xmlns="http://www.w3.org/1999/xhtml"><span class="edgeLabel"></span></div></foreignObject></g></g><g class="edgeLabel"><g transform="translate(0, 0)" class="label"><foreignObject height="0" width="0"><div style="display: table-cell; white-space: nowrap; line-height: 1.5; max-width: 200px; text-align: center;" class="labelBkg" xmlns="http://www.w3.org/1999/xhtml"><span class="edgeLabel"></span></div></foreignObject></g></g><g class="edgeLabel"><g transform="translate(0, 0)" class="label"><foreignObject height="0" width="0"><div style="display: table-cell; white-space: nowrap; line-height: 1.5; max-width: 200px; text-align: center;" class="labelBkg" xmlns="http://www.w3.org/1999/xhtml"><span class="edgeLabel"></span></div></foreignObject></g></g><g class="edgeLabel"><g transform="translate(0, 0)" class="label"><foreignObject height="0" width="0"><div style="display: table-cell; white-space: nowrap; line-height: 1.5; max-width: 200px; text-align: center;" class="labelBkg" xmlns="http://www.w3.org/1999/xhtml"><span class="edgeLabel"></span></div></foreignObject></g></g><g class="edgeLabel"><g transform="translate(0, 0)" class="label"><foreignObject height="0" width="0"><div style="display: table-cell; white-space: nowrap; line-height: 1.5; max-width: 200px; text-align: center;" class="labelBkg" xmlns="http://www.w3.org/1999/xhtml"><span class="edgeLabel"></span></div></foreignObject></g></g><g class="edgeLabel"><g transform="translate(0, 0)" class="label"><foreignObject height="0" width="0"><div style="display: table-cell; white-space: nowrap; line-height: 1.5; max-width: 200px; text-align: center;" class="labelBkg" xmlns="http://www.w3.org/1999/xhtml"><span class="edgeLabel"></span></div></foreignObject></g></g><g class="edgeLabel"><g transform="translate(0, 0)" class="label"><foreignObject height="0" width="0"><div style="display: table-cell; white-space: nowrap; line-height: 1.5; max-width: 200px; text-align: center;" class="labelBkg" xmlns="http://www.w3.org/1999/xhtml"><span class="edgeLabel"></span></div></foreignObject></g></g><g class="edgeLabel"><g transform="translate(0, 0)" class="label"><foreignObject height="0" width="0"><div style="display: table-cell; white-space: nowrap; line-height: 1.5; max-width: 200px; text-align: center;" class="labelBkg" xmlns="http://www.w3.org/1999/xhtml"><span class="edgeLabel"></span></div></foreignObject></g></g><g class="edgeLabel"><g transform="translate(0, 0)" class="label"><foreignObject height="0" width="0"><div style="display: table-cell; white-space: nowrap; line-height: 1.5; max-width: 200px; text-align: center;" class="labelBkg" xmlns="http://www.w3.org/1999/xhtml"><span class="edgeLabel"></span></div></foreignObject></g></g></g><g class="nodes"><g transform="translate(798.5625, 72)" id="flowchart-ORIGIN-0" class="node default"><rect height="78" width="169.765625" y="-39" x="-84.8828125" style="" class="basic label-container"/><g transform="translate(-54.8828125, -24)" style="" class="label"><rect/><foreignObject height="48" width="109.765625"><div style="display: table-cell; white-space: nowrap; line-height: 1.5; max-width: 200px; text-align: center;" xmlns="http://www.w3.org/1999/xhtml"><span class="nodeLabel"><p>Origin Servers<br />Content Source</p></span></div></foreignObject></g></g><g transform="translate(306.65625, 250)" id="flowchart-FILL1-1" class="node default"><rect height="78" width="132.640625" y="-39" x="-66.3203125" style="" class="basic label-container"/><g transform="translate(-36.3203125, -24)" style="" class="label"><rect/><foreignObject height="48" width="72.640625"><div style="display: table-cell; white-space: nowrap; line-height: 1.5; max-width: 200px; text-align: center;" xmlns="http://www.w3.org/1999/xhtml"><span class="nodeLabel"><p>Fill Server<br />US-East</p></span></div></foreignObject></g></g><g transform="translate(802.76953125, 250)" id="flowchart-FILL2-2" class="node default"><rect height="78" width="132.640625" y="-39" x="-66.3203125" style="" class="basic label-container"/><g transform="translate(-36.3203125, -24)" style="" class="label"><rect/><foreignObject height="48" width="72.640625"><div style="display: table-cell; white-space: nowrap; line-height: 1.5; max-width: 200px; text-align: center;" xmlns="http://www.w3.org/1999/xhtml"><span class="nodeLabel"><p>Fill Server<br />EU-West</p></span></div></foreignObject></g></g><g transform="translate(992.703125, 250)" id="flowchart-FILL3-3" class="node default"><rect height="78" width="142.21875" y="-39" x="-71.109375" style="" class="basic label-container"/><g transform="translate(-41.109375, -24)" style="" class="label"><rect/><foreignObject height="48" width="82.21875"><div style="display: table-cell; white-space: nowrap; line-height: 1.5; max-width: 200px; text-align: center;" xmlns="http://www.w3.org/1999/xhtml"><span class="nodeLabel"><p>Fill Server<br />Asia-Pacific</p></span></div></foreignObject></g></g><g transform="translate(114.21875, 428)" id="flowchart-ISP1-4" class="node default"><rect height="78" width="142.4375" y="-39" x="-71.21875" style="" class="basic label-container"/><g transform="translate(-41.21875, -24)" style="" class="label"><rect/><foreignObject height="48" width="82.4375"><div style="display: table-cell; white-space: nowrap; line-height: 1.5; max-width: 200px; text-align: center;" xmlns="http://www.w3.org/1999/xhtml"><span class="nodeLabel"><p>Edge Cache<br />Comcast</p></span></div></foreignObject></g></g><g transform="translate(306.65625, 428)" id="flowchart-ISP2-5" class="node default"><rect height="78" width="142.4375" y="-39" x="-71.21875" style="" class="basic label-container"/><g transform="translate(-41.21875, -24)" style="" class="label"><rect/><foreignObject height="48" width="82.4375"><div style="display: table-cell; white-space: nowrap; line-height: 1.5; max-width: 200px; text-align: center;" xmlns="http://www.w3.org/1999/xhtml"><span class="nodeLabel"><p>Edge Cache<br />Verizon</p></span></div></foreignObject></g></g><g transform="translate(499.09375, 428)" id="flowchart-ISP3-6" class="node default"><rect height="78" width="142.4375" y="-39" x="-71.21875" style="" class="basic label-container"/><g transform="translate(-41.21875, -24)" style="" class="label"><rect/><foreignObject height="48" width="82.4375"><div style="display: table-cell; white-space: nowrap; line-height: 1.5; max-width: 200px; text-align: center;" xmlns="http://www.w3.org/1999/xhtml"><span class="nodeLabel"><p>Edge Cache<br />BT</p></span></div></foreignObject></g></g><g transform="translate(691.53125, 428)" id="flowchart-ISP4-7" class="node default"><rect height="78" width="142.4375" y="-39" x="-71.21875" style="" class="basic label-container"/><g transform="translate(-41.21875, -24)" style="" class="label"><rect/><foreignObject height="48" width="82.4375"><div style="display: table-cell; white-space: nowrap; line-height: 1.5; max-width: 200px; text-align: center;" xmlns="http://www.w3.org/1999/xhtml"><span class="nodeLabel"><p>Edge Cache<br />NTT</p></span></div></foreignObject></g></g><g transform="translate(917.84375, 428)" id="flowchart-IXP1-8" class="node default"><rect height="78" width="130.1875" y="-39" x="-65.09375" style="" class="basic label-container"/><g transform="translate(-35.09375, -24)" style="" class="label"><rect/><foreignObject height="48" width="70.1875"><div style="display: table-cell; white-space: nowrap; line-height: 1.5; max-width: 200px; text-align: center;" xmlns="http://www.w3.org/1999/xhtml"><span class="nodeLabel"><p>IXP Cache<br />NYIIX</p></span></div></foreignObject></g></g><g transform="translate(1098.03125, 428)" id="flowchart-IXP2-9" class="node default"><rect height="78" width="130.1875" y="-39" x="-65.09375" style="" class="basic label-container"/><g transform="translate(-35.09375, -24)" style="" class="label"><rect/><foreignObject height="48" width="70.1875"><div style="display: table-cell; white-space: nowrap; line-height: 1.5; max-width: 200px; text-align: center;" xmlns="http://www.w3.org/1999/xhtml"><span class="nodeLabel"><p>IXP Cache<br />LINX</p></span></div></foreignObject></g></g><g transform="translate(1281.83984375, 428)" id="flowchart-IXP3-10" class="node default"><rect height="78" width="130.1875" y="-39" x="-65.09375" style="" class="basic label-container"/><g transform="translate(-35.09375, -24)" style="" class="label"><rect/><foreignObject height="48" width="70.1875"><div style="display: table-cell; white-space: nowrap; line-height: 1.5; max-width: 200px; text-align: center;" xmlns="http://www.w3.org/1999/xhtml"><span class="nodeLabel"><p>IXP Cache<br />JPIX</p></span></div></foreignObject></g></g><g transform="translate(149.41015625, 606)" id="flowchart-USER1-11" class="node default"><rect height="78" width="138.84375" y="-39" x="-69.421875" style="" class="basic label-container"/><g transform="translate(-39.421875, -24)" style="" class="label"><rect/><foreignObject height="48" width="78.84375"><div style="display: table-cell; white-space: nowrap; line-height: 1.5; max-width: 200px; text-align: center;" xmlns="http://www.w3.org/1999/xhtml"><span class="nodeLabel"><p>Residential<br />Users</p></span></div></foreignObject></g></g><g transform="translate(698.98828125, 606)" id="flowchart-USER2-12" class="node default"><rect height="78" width="106.859375" y="-39" x="-53.4296875" style="" class="basic label-container"/><g transform="translate(-23.4296875, -24)" style="" class="label"><rect/><foreignObject height="48" width="46.859375"><div style="display: table-cell; white-space: nowrap; line-height: 1.5; max-width: 200px; text-align: center;" xmlns="http://www.w3.org/1999/xhtml"><span class="nodeLabel"><p>Mobile<br />Users</p></span></div></foreignObject></g></g><g transform="translate(1248.73046875, 606)" id="flowchart-USER3-13" class="node default"><rect height="78" width="119.265625" y="-39" x="-59.6328125" style="" class="basic label-container"/><g transform="translate(-29.6328125, -24)" style="" class="label"><rect/><foreignObject height="48" width="59.265625"><div style="display: table-cell; white-space: nowrap; line-height: 1.5; max-width: 200px; text-align: center;" xmlns="http://www.w3.org/1999/xhtml"><span class="nodeLabel"><p>Business<br />Users</p></span></div></foreignObject></g></g></g></g></g></svg>