<svg class="mermaid-svg" aria-roledescription="flowchart-v2" role="graphics-document document" viewBox="0 0 1159.53125 491.283935546875" style="max-width: 1159.53px; background-color: transparent;" class="flowchart" xmlns:xlink="http://www.w3.org/1999/xlink" xmlns="http://www.w3.org/2000/svg"  id="my-svg"><style>#my-svg{font-family:"trebuchet ms",verdana,arial,sans-serif;font-size:16px;fill:#333;}@keyframes edge-animation-frame{from{stroke-dashoffset:0;}}@keyframes dash{to{stroke-dashoffset:0;}}#my-svg .edge-animation-slow{stroke-dasharray:9,5!important;stroke-dashoffset:900;animation:dash 50s linear infinite;stroke-linecap:round;}#my-svg .edge-animation-fast{stroke-dasharray:9,5!important;stroke-dashoffset:900;animation:dash 20s linear infinite;stroke-linecap:round;}#my-svg .error-icon{fill:#552222;}#my-svg .error-text{fill:#552222;stroke:#552222;}#my-svg .edge-thickness-normal{stroke-width:1px;}#my-svg .edge-thickness-thick{stroke-width:3.5px;}#my-svg .edge-pattern-solid{stroke-dasharray:0;}#my-svg .edge-thickness-invisible{stroke-width:0;fill:none;}#my-svg .edge-pattern-dashed{stroke-dasharray:3;}#my-svg .edge-pattern-dotted{stroke-dasharray:2;}#my-svg .marker{fill:#333333;stroke:#333333;}#my-svg .marker.cross{stroke:#333333;}#my-svg svg{font-family:"trebuchet ms",verdana,arial,sans-serif;font-size:16px;}#my-svg p{margin:0;}#my-svg .label{font-family:"trebuchet ms",verdana,arial,sans-serif;color:#333;}#my-svg .cluster-label text{fill:#333;}#my-svg .cluster-label span{color:#333;}#my-svg .cluster-label span p{background-color:transparent;}#my-svg .label text,#my-svg span{fill:#333;color:#333;}#my-svg .node rect,#my-svg .node circle,#my-svg .node ellipse,#my-svg .node polygon,#my-svg .node path{fill:#ECECFF;stroke:#9370DB;stroke-width:1px;}#my-svg .rough-node .label text,#my-svg .node .label text,#my-svg .image-shape .label,#my-svg .icon-shape .label{text-anchor:middle;}#my-svg .node .katex path{fill:#000;stroke:#000;stroke-width:1px;}#my-svg .rough-node .label,#my-svg .node .label,#my-svg .image-shape .label,#my-svg .icon-shape .label{text-align:center;}#my-svg .node.clickable{cursor:pointer;}#my-svg .root .anchor path{fill:#333333!important;stroke-width:0;stroke:#333333;}#my-svg .arrowheadPath{fill:#333333;}#my-svg .edgePath .path{stroke:#333333;stroke-width:2.0px;}#my-svg .flowchart-link{stroke:#333333;fill:none;}#my-svg .edgeLabel{background-color:rgba(232,232,232, 0.8);text-align:center;}#my-svg .edgeLabel p{background-color:rgba(232,232,232, 0.8);}#my-svg .edgeLabel rect{opacity:0.5;background-color:rgba(232,232,232, 0.8);fill:rgba(232,232,232, 0.8);}#my-svg .labelBkg{background-color:rgba(232, 232, 232, 0.5);}#my-svg .cluster rect{fill:#ffffde;stroke:#aaaa33;stroke-width:1px;}#my-svg .cluster text{fill:#333;}#my-svg .cluster span{color:#333;}#my-svg div.mermaidTooltip{position:absolute;text-align:center;max-width:200px;padding:2px;font-family:"trebuchet ms",verdana,arial,sans-serif;font-size:12px;background:hsl(80, 100%, 96.2745098039%);border:1px solid #aaaa33;border-radius:2px;pointer-events:none;z-index:100;}#my-svg .flowchartTitleText{text-anchor:middle;font-size:18px;fill:#333;}#my-svg rect.text{fill:none;stroke-width:0;}#my-svg .icon-shape,#my-svg .image-shape{background-color:rgba(232,232,232, 0.8);text-align:center;}#my-svg .icon-shape p,#my-svg .image-shape p{background-color:rgba(232,232,232, 0.8);padding:2px;}#my-svg .icon-shape rect,#my-svg .image-shape rect{opacity:0.5;background-color:rgba(232,232,232, 0.8);fill:rgba(232,232,232, 0.8);}#my-svg .label-icon{display:inline-block;height:1em;overflow:visible;vertical-align:-0.125em;}#my-svg .node .label-icon path{fill:currentColor;stroke:revert;stroke-width:revert;}#my-svg :root{--mermaid-font-family:"trebuchet ms",verdana,arial,sans-serif;}</style><g><marker orient="auto" markerHeight="8" markerWidth="8" markerUnits="userSpaceOnUse" refY="5" refX="5" viewBox="0 0 10 10" class="marker flowchart-v2" id="my-svg_flowchart-v2-pointEnd"><path style="stroke-width: 1; stroke-dasharray: 1, 0;" class="arrowMarkerPath" d="M 0 0 L 10 5 L 0 10 z"/></marker><marker orient="auto" markerHeight="8" markerWidth="8" markerUnits="userSpaceOnUse" refY="5" refX="4.5" viewBox="0 0 10 10" class="marker flowchart-v2" id="my-svg_flowchart-v2-pointStart"><path style="stroke-width: 1; stroke-dasharray: 1, 0;" class="arrowMarkerPath" d="M 0 5 L 10 10 L 10 0 z"/></marker><marker orient="auto" markerHeight="11" markerWidth="11" markerUnits="userSpaceOnUse" refY="5" refX="11" viewBox="0 0 10 10" class="marker flowchart-v2" id="my-svg_flowchart-v2-circleEnd"><circle style="stroke-width: 1; stroke-dasharray: 1, 0;" class="arrowMarkerPath" r="5" cy="5" cx="5"/></marker><marker orient="auto" markerHeight="11" markerWidth="11" markerUnits="userSpaceOnUse" refY="5" refX="-1" viewBox="0 0 10 10" class="marker flowchart-v2" id="my-svg_flowchart-v2-circleStart"><circle style="stroke-width: 1; stroke-dasharray: 1, 0;" class="arrowMarkerPath" r="5" cy="5" cx="5"/></marker><marker orient="auto" markerHeight="11" markerWidth="11" markerUnits="userSpaceOnUse" refY="5.2" refX="12" viewBox="0 0 11 11" class="marker cross flowchart-v2" id="my-svg_flowchart-v2-crossEnd"><path style="stroke-width: 2; stroke-dasharray: 1, 0;" class="arrowMarkerPath" d="M 1,1 l 9,9 M 10,1 l -9,9"/></marker><marker orient="auto" markerHeight="11" markerWidth="11" markerUnits="userSpaceOnUse" refY="5.2" refX="-1" viewBox="0 0 11 11" class="marker cross flowchart-v2" id="my-svg_flowchart-v2-crossStart"><path style="stroke-width: 2; stroke-dasharray: 1, 0;" class="arrowMarkerPath" d="M 1,1 l 9,9 M 10,1 l -9,9"/></marker><g class="root"><g class="clusters"><g data-look="classic" id="subGraph3" class="cluster"><rect  width="579.28125" y="340" x="8" style=""/><g transform="translate(234.8203125, 340)" class="cluster-label"><foreignObject height="24" width="125.640625"><div style="display: table-cell; white-space: nowrap; line-height: 1.5; max-width: 200px; text-align: center;" xmlns="http://www.w3.org/1999/xhtml"><span class="nodeLabel"><p>Availability Zones</p></span></div></foreignObject></g></g><g data-look="classic" id="subGraph2" class="cluster"><rect height="143.28395080566406" width="519.515625" y="340" x="607.28125" style=""/><g transform="translate(801.2265625, 340)" class="cluster-label"><foreignObject height="24" width="131.625"><div style="display: table-cell; white-space: nowrap; line-height: 1.5; max-width: 200px; text-align: center;" xmlns="http://www.w3.org/1999/xhtml"><span class="nodeLabel"><p>Database Sharding</p></span></div></foreignObject></g></g><g data-look="classic" id="subGraph1" class="cluster"><rect height="128" width="1119.1171875" y="162" x="32.4140625" style=""/><g transform="translate(523.91796875, 162)" class="cluster-label"><foreignObject height="24" width="136.109375"><div style="display: table-cell; white-space: nowrap; line-height: 1.5; max-width: 200px; text-align: center;" xmlns="http://www.w3.org/1999/xhtml"><span class="nodeLabel"><p>Auto Scaling Group</p></span></div></foreignObject></g></g><g data-look="classic" id="subGraph0" class="cluster"><rect height="104" width="1019.65234375" y="8" x="50.36328125" style=""/><g transform="translate(509.673828125, 8)" class="cluster-label"><foreignObject height="24" width="101.03125"><div style="display: table-cell; white-space: nowrap; line-height: 1.5; max-width: 200px; text-align: center;" xmlns="http://www.w3.org/1999/xhtml"><span class="nodeLabel"><p>Load Balancer</p></span></div></foreignObject></g></g></g><g class="edgePaths"><path marker-end="url(#my-svg_flowchart-v2-pointEnd)" style="" class="edge-thickness-normal edge-pattern-solid edge-thickness-normal edge-pattern-solid flowchart-link" id="L_LB_ASG1_0" d="M717.126,87L708.123,91.167C699.119,95.333,681.112,103.667,672.109,112C663.105,120.333,663.105,128.667,663.105,137C663.105,145.333,663.105,153.667,663.105,161.333C663.105,169,663.105,176,663.105,179.5L663.105,183"/><path marker-end="url(#my-svg_flowchart-v2-pointEnd)" style="" class="edge-thickness-normal edge-pattern-solid edge-thickness-normal edge-pattern-solid flowchart-link" id="L_LB_ASG2_0" d="M812.162,87L817.824,91.167C823.487,95.333,834.812,103.667,840.474,112C846.137,120.333,846.137,128.667,846.137,137C846.137,145.333,846.137,153.667,846.137,161.333C846.137,169,846.137,176,846.137,179.5L846.137,183"/><path marker-end="url(#my-svg_flowchart-v2-pointEnd)" style="" class="edge-thickness-normal edge-pattern-solid edge-thickness-normal edge-pattern-solid flowchart-link" id="L_LB_ASG3_0" d="M898.945,85.309L920.649,89.757C942.353,94.206,985.76,103.103,1007.464,111.718C1029.168,120.333,1029.168,128.667,1029.168,137C1029.168,145.333,1029.168,153.667,1029.168,161.333C1029.168,169,1029.168,176,1029.168,179.5L1029.168,183"/><path marker-end="url(#my-svg_flowchart-v2-pointEnd)" style="" class="edge-thickness-normal edge-pattern-solid edge-thickness-normal edge-pattern-solid flowchart-link" id="L_LB_ASG4_0" d="M651.992,70.086L566.467,77.071C480.943,84.057,309.893,98.029,224.368,109.181C138.844,120.333,138.844,128.667,138.844,137C138.844,145.333,138.844,153.667,138.844,161.333C138.844,169,138.844,176,138.844,179.5L138.844,183"/><path marker-end="url(#my-svg_flowchart-v2-pointEnd)" style="" class="edge-thickness-normal edge-pattern-solid edge-thickness-normal edge-pattern-solid flowchart-link" id="L_ASG1_SHARD1_0" d="M675.81,265L677.167,269.167C678.524,273.333,681.239,281.667,682.596,290C683.953,298.333,683.953,306.667,683.953,315C683.953,323.333,683.953,331.667,683.953,339.357C683.953,347.048,683.953,354.096,683.953,357.62L683.953,361.144"/><path marker-end="url(#my-svg_flowchart-v2-pointEnd)" style="" class="edge-thickness-normal edge-pattern-solid edge-thickness-normal edge-pattern-solid flowchart-link" id="L_ASG2_SHARD2_0" d="M858.841,265L860.198,269.167C861.555,273.333,864.27,281.667,865.627,290C866.984,298.333,866.984,306.667,866.984,315C866.984,323.333,866.984,331.667,866.984,339.333C866.984,347,866.984,354,866.984,357.5L866.984,361"/><path marker-end="url(#my-svg_flowchart-v2-pointEnd)" style="" class="edge-thickness-normal edge-pattern-solid edge-thickness-normal edge-pattern-solid flowchart-link" id="L_ASG3_SHARD3_0" d="M1041.872,265L1043.229,269.167C1044.587,273.333,1047.301,281.667,1048.658,290C1050.016,298.333,1050.016,306.667,1050.016,315C1050.016,323.333,1050.016,331.667,1050.016,339.353C1050.016,347.039,1050.016,354.078,1050.016,357.598L1050.016,361.117"/><path marker-end="url(#my-svg_flowchart-v2-pointEnd)" style="" class="edge-thickness-normal edge-pattern-solid edge-thickness-normal edge-pattern-solid flowchart-link" id="L_ASG1_AZ1_0" d="M596.59,233.296L510.426,242.746C424.262,252.197,251.934,271.099,165.77,284.716C79.605,298.333,79.605,306.667,79.605,315C79.605,323.333,79.605,331.667,82.619,342.664C85.632,353.661,91.659,367.322,94.672,374.152L97.685,380.982"/><path marker-end="url(#my-svg_flowchart-v2-pointEnd)" style="" class="edge-thickness-normal edge-pattern-solid edge-thickness-normal edge-pattern-solid flowchart-link" id="L_ASG2_AZ2_0" d="M779.621,233.765L699.331,243.137C619.042,252.51,458.462,271.255,378.173,284.794C297.883,298.333,297.883,306.667,297.883,315C297.883,323.333,297.883,331.667,297.883,342.607C297.883,353.547,297.883,367.095,297.883,373.868L297.883,380.642"/><path marker-end="url(#my-svg_flowchart-v2-pointEnd)" style="" class="edge-thickness-normal edge-pattern-solid edge-thickness-normal edge-pattern-solid flowchart-link" id="L_ASG3_AZ3_0" d="M962.652,233.813L882.929,243.178C803.206,252.542,643.759,271.271,564.036,284.802C484.313,298.333,484.313,306.667,484.313,315C484.313,323.333,484.313,331.667,484.313,342.607C484.313,353.547,484.313,367.095,484.313,373.868L484.313,380.642"/><path marker-end="url(#my-svg_flowchart-v2-pointEnd)" style="" class="edge-thickness-normal edge-pattern-solid edge-thickness-normal edge-pattern-solid flowchart-link" id="L_ASG4_AZ1_0" d="M172.788,265L176.414,269.167C180.041,273.333,187.294,281.667,190.92,290C194.547,298.333,194.547,306.667,194.547,315C194.547,323.333,194.547,331.667,186.398,342.839C178.248,354.011,161.95,368.023,153.801,375.029L145.651,382.034"/></g><g class="edgeLabels"><g class="edgeLabel"><g transform="translate(0, 0)" class="label"><foreignObject height="0" width="0"><div style="display: table-cell; white-space: nowrap; line-height: 1.5; max-width: 200px; text-align: center;" class="labelBkg" xmlns="http://www.w3.org/1999/xhtml"><span class="edgeLabel"></span></div></foreignObject></g></g><g class="edgeLabel"><g transform="translate(0, 0)" class="label"><foreignObject height="0" width="0"><div style="display: table-cell; white-space: nowrap; line-height: 1.5; max-width: 200px; text-align: center;" class="labelBkg" xmlns="http://www.w3.org/1999/xhtml"><span class="edgeLabel"></span></div></foreignObject></g></g><g class="edgeLabel"><g transform="translate(0, 0)" class="label"><foreignObject height="0" width="0"><div style="display: table-cell; white-space: nowrap; line-height: 1.5; max-width: 200px; text-align: center;" class="labelBkg" xmlns="http://www.w3.org/1999/xhtml"><span class="edgeLabel"></span></div></foreignObject></g></g><g class="edgeLabel"><g transform="translate(0, 0)" class="label"><foreignObject height="0" width="0"><div style="display: table-cell; white-space: nowrap; line-height: 1.5; max-width: 200px; text-align: center;" class="labelBkg" xmlns="http://www.w3.org/1999/xhtml"><span class="edgeLabel"></span></div></foreignObject></g></g><g class="edgeLabel"><g transform="translate(0, 0)" class="label"><foreignObject height="0" width="0"><div style="display: table-cell; white-space: nowrap; line-height: 1.5; max-width: 200px; text-align: center;" class="labelBkg" xmlns="http://www.w3.org/1999/xhtml"><span class="edgeLabel"></span></div></foreignObject></g></g><g class="edgeLabel"><g transform="translate(0, 0)" class="label"><foreignObject height="0" width="0"><div style="display: table-cell; white-space: nowrap; line-height: 1.5; max-width: 200px; text-align: center;" class="labelBkg" xmlns="http://www.w3.org/1999/xhtml"><span class="edgeLabel"></span></div></foreignObject></g></g><g class="edgeLabel"><g transform="translate(0, 0)" class="label"><foreignObject height="0" width="0"><div style="display: table-cell; white-space: nowrap; line-height: 1.5; max-width: 200px; text-align: center;" class="labelBkg" xmlns="http://www.w3.org/1999/xhtml"><span class="edgeLabel"></span></div></foreignObject></g></g><g class="edgeLabel"><g transform="translate(0, 0)" class="label"><foreignObject height="0" width="0"><div style="display: table-cell; white-space: nowrap; line-height: 1.5; max-width: 200px; text-align: center;" class="labelBkg" xmlns="http://www.w3.org/1999/xhtml"><span class="edgeLabel"></span></div></foreignObject></g></g><g class="edgeLabel"><g transform="translate(0, 0)" class="label"><foreignObject height="0" width="0"><div style="display: table-cell; white-space: nowrap; line-height: 1.5; max-width: 200px; text-align: center;" class="labelBkg" xmlns="http://www.w3.org/1999/xhtml"><span class="edgeLabel"></span></div></foreignObject></g></g><g class="edgeLabel"><g transform="translate(0, 0)" class="label"><foreignObject height="0" width="0"><div style="display: table-cell; white-space: nowrap; line-height: 1.5; max-width: 200px; text-align: center;" class="labelBkg" xmlns="http://www.w3.org/1999/xhtml"><span class="edgeLabel"></span></div></foreignObject></g></g><g class="edgeLabel"><g transform="translate(0, 0)" class="label"><foreignObject height="0" width="0"><div style="display: table-cell; white-space: nowrap; line-height: 1.5; max-width: 200px; text-align: center;" class="labelBkg" xmlns="http://www.w3.org/1999/xhtml"><span class="edgeLabel"></span></div></foreignObject></g></g></g><g class="nodes"><g transform="translate(775.46875, 60)" id="flowchart-LB-0" class="node default"><rect height="54" width="246.953125" y="-27" x="-123.4765625" style="" class="basic label-container"/><g transform="translate(-93.4765625, -12)" style="" class="label"><rect/><foreignObject height="24" width="186.953125"><div style="display: table-cell; white-space: nowrap; line-height: 1.5; max-width: 200px; text-align: center;" xmlns="http://www.w3.org/1999/xhtml"><span class="nodeLabel"><p>Application Load Balancer</p></span></div></foreignObject></g></g><g transform="translate(663.10546875, 226)" id="flowchart-ASG1-1" class="node default"><rect height="78" width="133.03125" y="-39" x="-66.515625" style="" class="basic label-container"/><g transform="translate(-36.515625, -24)" style="" class="label"><rect/><foreignObject height="48" width="73.03125"><div style="display: table-cell; white-space: nowrap; line-height: 1.5; max-width: 200px; text-align: center;" xmlns="http://www.w3.org/1999/xhtml"><span class="nodeLabel"><p>Instance 1<br />CPU: 50%</p></span></div></foreignObject></g></g><g transform="translate(846.13671875, 226)" id="flowchart-ASG2-2" class="node default"><rect height="78" width="133.03125" y="-39" x="-66.515625" style="" class="basic label-container"/><g transform="translate(-36.515625, -24)" style="" class="label"><rect/><foreignObject height="48" width="73.03125"><div style="display: table-cell; white-space: nowrap; line-height: 1.5; max-width: 200px; text-align: center;" xmlns="http://www.w3.org/1999/xhtml"><span class="nodeLabel"><p>Instance 2<br />CPU: 60%</p></span></div></foreignObject></g></g><g transform="translate(1029.16796875, 226)" id="flowchart-ASG3-3" class="node default"><rect height="78" width="133.03125" y="-39" x="-66.515625" style="" class="basic label-container"/><g transform="translate(-36.515625, -24)" style="" class="label"><rect/><foreignObject height="48" width="73.03125"><div style="display: table-cell; white-space: nowrap; line-height: 1.5; max-width: 200px; text-align: center;" xmlns="http://www.w3.org/1999/xhtml"><span class="nodeLabel"><p>Instance 3<br />CPU: 45%</p></span></div></foreignObject></g></g><g transform="translate(138.84375, 226)" id="flowchart-ASG4-4" class="node default"><rect height="78" width="142.859375" y="-39" x="-71.4296875" style="" class="basic label-container"/><g transform="translate(-41.4296875, -24)" style="" class="label"><rect/><foreignObject height="48" width="82.859375"><div style="display: table-cell; white-space: nowrap; line-height: 1.5; max-width: 200px; text-align: center;" xmlns="http://www.w3.org/1999/xhtml"><span class="nodeLabel"><p>Instance N<br />Auto-added</p></span></div></foreignObject></g></g><g transform="translate(683.953125, 411.64197540283203)" id="flowchart-SHARD1-5" class="node default"><path transform="translate(-41.671875, -46.501124943752814)" style="" class="basic label-container" d="M0,10.000749962501875 a41.671875,10.000749962501875 0,0,0 83.34375,0 a41.671875,10.000749962501875 0,0,0 -83.34375,0 l0,73.00074996250187 a41.671875,10.000749962501875 0,0,0 83.34375,0 l0,-73.00074996250187"/><g transform="translate(-34.171875, -14)" style="" class="label"><rect/><foreignObject height="48" width="68.34375"><div style="display: table-cell; white-space: nowrap; line-height: 1.5; max-width: 200px; text-align: center;" xmlns="http://www.w3.org/1999/xhtml"><span class="nodeLabel"><p>Shard 1<br />Users A-G</p></span></div></foreignObject></g></g><g transform="translate(866.984375, 411.64197540283203)" id="flowchart-SHARD2-6" class="node default"><path transform="translate(-42.328125, -46.641973468475186)" style="" class="basic label-container" d="M0,10.094648978983454 a42.328125,10.094648978983454 0,0,0 84.65625,0 a42.328125,10.094648978983454 0,0,0 -84.65625,0 l0,73.09464897898346 a42.328125,10.094648978983454 0,0,0 84.65625,0 l0,-73.09464897898346"/><g transform="translate(-34.828125, -14)" style="" class="label"><rect/><foreignObject height="48" width="69.65625"><div style="display: table-cell; white-space: nowrap; line-height: 1.5; max-width: 200px; text-align: center;" xmlns="http://www.w3.org/1999/xhtml"><span class="nodeLabel"><p>Shard 2<br />Users H-N</p></span></div></foreignObject></g></g><g transform="translate(1050.015625, 411.64197540283203)" id="flowchart-SHARD3-7" class="node default"><path transform="translate(-41.78125, -46.524722804914596)" style="" class="basic label-container" d="M0,10.016481869943064 a41.78125,10.016481869943064 0,0,0 83.5625,0 a41.78125,10.016481869943064 0,0,0 -83.5625,0 l0,73.01648186994306 a41.78125,10.016481869943064 0,0,0 83.5625,0 l0,-73.01648186994306"/><g transform="translate(-34.28125, -14)" style="" class="label"><rect/><foreignObject height="48" width="68.5625"><div style="display: table-cell; white-space: nowrap; line-height: 1.5; max-width: 200px; text-align: center;" xmlns="http://www.w3.org/1999/xhtml"><span class="nodeLabel"><p>Shard 3<br />Users O-Z</p></span></div></foreignObject></g></g><g transform="translate(111.2109375, 411.64197540283203)" id="flowchart-AZ1-8" class="node default"><rect height="54" width="136.421875" y="-27" x="-68.2109375" style="" class="basic label-container"/><g transform="translate(-38.2109375, -12)" style="" class="label"><rect/><foreignObject height="24" width="76.421875"><div style="display: table-cell; white-space: nowrap; line-height: 1.5; max-width: 200px; text-align: center;" xmlns="http://www.w3.org/1999/xhtml"><span class="nodeLabel"><p>US-East-1a</p></span></div></foreignObject></g></g><g transform="translate(297.8828125, 411.64197540283203)" id="flowchart-AZ2-9" class="node default"><rect height="54" width="136.921875" y="-27" x="-68.4609375" style="" class="basic label-container"/><g transform="translate(-38.4609375, -12)" style="" class="label"><rect/><foreignObject height="24" width="76.921875"><div style="display: table-cell; white-space: nowrap; line-height: 1.5; max-width: 200px; text-align: center;" xmlns="http://www.w3.org/1999/xhtml"><span class="nodeLabel"><p>US-East-1b</p></span></div></foreignObject></g></g><g transform="translate(484.3125, 411.64197540283203)" id="flowchart-AZ3-10" class="node default"><rect height="54" width="135.9375" y="-27" x="-67.96875" style="" class="basic label-container"/><g transform="translate(-37.96875, -12)" style="" class="label"><rect/><foreignObject height="24" width="75.9375"><div style="display: table-cell; white-space: nowrap; line-height: 1.5; max-width: 200px; text-align: center;" xmlns="http://www.w3.org/1999/xhtml"><span class="nodeLabel"><p>US-East-1c</p></span></div></foreignObject></g></g></g></g></g></svg>