<svg class="mermaid-svg" aria-roledescription="flowchart-v2" role="graphics-document document" viewBox="0 0 1261.921875 1038.125" style="max-width: 1261.92px; background-color: transparent;" class="flowchart" xmlns:xlink="http://www.w3.org/1999/xlink" xmlns="http://www.w3.org/2000/svg"  id="my-svg"><style>#my-svg{font-family:"trebuchet ms",verdana,arial,sans-serif;font-size:16px;fill:#ccc;}@keyframes edge-animation-frame{from{stroke-dashoffset:0;}}@keyframes dash{to{stroke-dashoffset:0;}}#my-svg .edge-animation-slow{stroke-dasharray:9,5!important;stroke-dashoffset:900;animation:dash 50s linear infinite;stroke-linecap:round;}#my-svg .edge-animation-fast{stroke-dasharray:9,5!important;stroke-dashoffset:900;animation:dash 20s linear infinite;stroke-linecap:round;}#my-svg .error-icon{fill:#a44141;}#my-svg .error-text{fill:#ddd;stroke:#ddd;}#my-svg .edge-thickness-normal{stroke-width:1px;}#my-svg .edge-thickness-thick{stroke-width:3.5px;}#my-svg .edge-pattern-solid{stroke-dasharray:0;}#my-svg .edge-thickness-invisible{stroke-width:0;fill:none;}#my-svg .edge-pattern-dashed{stroke-dasharray:3;}#my-svg .edge-pattern-dotted{stroke-dasharray:2;}#my-svg .marker{fill:lightgrey;stroke:lightgrey;}#my-svg .marker.cross{stroke:lightgrey;}#my-svg svg{font-family:"trebuchet ms",verdana,arial,sans-serif;font-size:16px;}#my-svg p{margin:0;}#my-svg .label{font-family:"trebuchet ms",verdana,arial,sans-serif;color:#ccc;}#my-svg .cluster-label text{fill:#F9FFFE;}#my-svg .cluster-label span{color:#F9FFFE;}#my-svg .cluster-label span p{background-color:transparent;}#my-svg .label text,#my-svg span{fill:#ccc;color:#ccc;}#my-svg .node rect,#my-svg .node circle,#my-svg .node ellipse,#my-svg .node polygon,#my-svg .node path{fill:#1f2020;stroke:#ccc;stroke-width:1px;}#my-svg .rough-node .label text,#my-svg .node .label text,#my-svg .image-shape .label,#my-svg .icon-shape .label{text-anchor:middle;}#my-svg .node .katex path{fill:#000;stroke:#000;stroke-width:1px;}#my-svg .rough-node .label,#my-svg .node .label,#my-svg .image-shape .label,#my-svg .icon-shape .label{text-align:center;}#my-svg .node.clickable{cursor:pointer;}#my-svg .root .anchor path{fill:lightgrey!important;stroke-width:0;stroke:lightgrey;}#my-svg .arrowheadPath{fill:lightgrey;}#my-svg .edgePath .path{stroke:lightgrey;stroke-width:2.0px;}#my-svg .flowchart-link{stroke:lightgrey;fill:none;}#my-svg .edgeLabel{background-color:hsl(0, 0%, 34.4117647059%);text-align:center;}#my-svg .edgeLabel p{background-color:hsl(0, 0%, 34.4117647059%);}#my-svg .edgeLabel rect{opacity:0.5;background-color:hsl(0, 0%, 34.4117647059%);fill:hsl(0, 0%, 34.4117647059%);}#my-svg .labelBkg{background-color:rgba(87.75, 87.75, 87.75, 0.5);}#my-svg .cluster rect{fill:hsl(180, 1.5873015873%, 28.3529411765%);stroke:rgba(255, 255, 255, 0.25);stroke-width:1px;}#my-svg .cluster text{fill:#F9FFFE;}#my-svg .cluster span{color:#F9FFFE;}#my-svg div.mermaidTooltip{position:absolute;text-align:center;max-width:200px;padding:2px;font-family:"trebuchet ms",verdana,arial,sans-serif;font-size:12px;background:hsl(20, 1.5873015873%, 12.3529411765%);border:1px solid rgba(255, 255, 255, 0.25);border-radius:2px;pointer-events:none;z-index:100;}#my-svg .flowchartTitleText{text-anchor:middle;font-size:18px;fill:#ccc;}#my-svg rect.text{fill:none;stroke-width:0;}#my-svg .icon-shape,#my-svg .image-shape{background-color:hsl(0, 0%, 34.4117647059%);text-align:center;}#my-svg .icon-shape p,#my-svg .image-shape p{background-color:hsl(0, 0%, 34.4117647059%);padding:2px;}#my-svg .icon-shape rect,#my-svg .image-shape rect{opacity:0.5;background-color:hsl(0, 0%, 34.4117647059%);fill:hsl(0, 0%, 34.4117647059%);}#my-svg .label-icon{display:inline-block;height:1em;overflow:visible;vertical-align:-0.125em;}#my-svg .node .label-icon path{fill:currentColor;stroke:revert;stroke-width:revert;}#my-svg :root{--mermaid-font-family:"trebuchet ms",verdana,arial,sans-serif;}</style><g><marker orient="auto" markerHeight="8" markerWidth="8" markerUnits="userSpaceOnUse" refY="5" refX="5" viewBox="0 0 10 10" class="marker flowchart-v2" id="my-svg_flowchart-v2-pointEnd"><path style="stroke-width: 1; stroke-dasharray: 1, 0;" class="arrowMarkerPath" d="M 0 0 L 10 5 L 0 10 z"/></marker><marker orient="auto" markerHeight="8" markerWidth="8" markerUnits="userSpaceOnUse" refY="5" refX="4.5" viewBox="0 0 10 10" class="marker flowchart-v2" id="my-svg_flowchart-v2-pointStart"><path style="stroke-width: 1; stroke-dasharray: 1, 0;" class="arrowMarkerPath" d="M 0 5 L 10 10 L 10 0 z"/></marker><marker orient="auto" markerHeight="11" markerWidth="11" markerUnits="userSpaceOnUse" refY="5" refX="11" viewBox="0 0 10 10" class="marker flowchart-v2" id="my-svg_flowchart-v2-circleEnd"><circle style="stroke-width: 1; stroke-dasharray: 1, 0;" class="arrowMarkerPath" r="5" cy="5" cx="5"/></marker><marker orient="auto" markerHeight="11" markerWidth="11" markerUnits="userSpaceOnUse" refY="5" refX="-1" viewBox="0 0 10 10" class="marker flowchart-v2" id="my-svg_flowchart-v2-circleStart"><circle style="stroke-width: 1; stroke-dasharray: 1, 0;" class="arrowMarkerPath" r="5" cy="5" cx="5"/></marker><marker orient="auto" markerHeight="11" markerWidth="11" markerUnits="userSpaceOnUse" refY="5.2" refX="12" viewBox="0 0 11 11" class="marker cross flowchart-v2" id="my-svg_flowchart-v2-crossEnd"><path style="stroke-width: 2; stroke-dasharray: 1, 0;" class="arrowMarkerPath" d="M 1,1 l 9,9 M 10,1 l -9,9"/></marker><marker orient="auto" markerHeight="11" markerWidth="11" markerUnits="userSpaceOnUse" refY="5.2" refX="-1" viewBox="0 0 11 11" class="marker cross flowchart-v2" id="my-svg_flowchart-v2-crossStart"><path style="stroke-width: 2; stroke-dasharray: 1, 0;" class="arrowMarkerPath" d="M 1,1 l 9,9 M 10,1 l -9,9"/></marker><g class="root"><g class="clusters"/><g class="edgePaths"><path marker-end="url(#my-svg_flowchart-v2-pointEnd)" style="" class="edge-thickness-normal edge-pattern-solid edge-thickness-normal edge-pattern-solid flowchart-link" id="L_Start_Q1_0" d="M354.656,62L354.656,66.167C354.656,70.333,354.656,78.667,354.656,86.333C354.656,94,354.656,101,354.656,104.5L354.656,108"/><path marker-end="url(#my-svg_flowchart-v2-pointEnd)" style="" class="edge-thickness-normal edge-pattern-solid edge-thickness-normal edge-pattern-solid flowchart-link" id="L_Q1_Mono1_0" d="M308.289,196.617L274.601,210.511C240.914,224.406,173.539,252.195,139.851,288.987C106.164,325.779,106.164,371.573,106.164,417.367C106.164,463.161,106.164,508.956,106.164,555.217C106.164,601.479,106.164,648.208,106.164,694.938C106.164,741.667,106.164,788.396,106.164,817.26C106.164,846.125,106.164,857.125,106.164,862.625L106.164,868.125"/><path marker-end="url(#my-svg_flowchart-v2-pointEnd)" style="" class="edge-thickness-normal edge-pattern-solid edge-thickness-normal edge-pattern-solid flowchart-link" id="L_Q1_Multi1_0" d="M354.656,242.984L354.656,249.151C354.656,255.318,354.656,267.651,354.656,296.715C354.656,325.779,354.656,371.573,354.656,417.367C354.656,463.161,354.656,508.956,354.656,555.217C354.656,601.479,354.656,648.208,354.656,694.938C354.656,741.667,354.656,788.396,354.656,817.26C354.656,846.125,354.656,857.125,354.656,862.625L354.656,868.125"/><path marker-end="url(#my-svg_flowchart-v2-pointEnd)" style="" class="edge-thickness-normal edge-pattern-solid edge-thickness-normal edge-pattern-solid flowchart-link" id="L_Q1_Q2_0" d="M406.712,190.929L464.214,205.771C521.717,220.614,636.722,250.299,694.224,270.642C751.727,290.984,751.727,301.984,751.727,307.484L751.727,312.984"/><path marker-end="url(#my-svg_flowchart-v2-pointEnd)" style="" class="edge-thickness-normal edge-pattern-solid edge-thickness-normal edge-pattern-solid flowchart-link" id="L_Q2_Mono2_0" d="M694.539,460.563L673.757,476.261C652.974,491.959,611.409,523.354,590.626,562.417C569.844,601.479,569.844,648.208,569.844,694.938C569.844,741.667,569.844,788.396,569.844,817.26C569.844,846.125,569.844,857.125,569.844,862.625L569.844,868.125"/><path marker-end="url(#my-svg_flowchart-v2-pointEnd)" style="" class="edge-thickness-normal edge-pattern-solid edge-thickness-normal edge-pattern-solid flowchart-link" id="L_Q2_Multi2_0" d="M751.727,517.75L751.727,523.917C751.727,530.083,751.727,542.417,751.727,571.948C751.727,601.479,751.727,648.208,751.727,694.938C751.727,741.667,751.727,788.396,751.727,817.26C751.727,846.125,751.727,857.125,751.727,862.625L751.727,868.125"/><path marker-end="url(#my-svg_flowchart-v2-pointEnd)" style="" class="edge-thickness-normal edge-pattern-solid edge-thickness-normal edge-pattern-solid flowchart-link" id="L_Q2_Q3_0" d="M819.892,449.584L856.977,467.112C894.062,484.64,968.232,519.695,1005.317,542.722C1042.402,565.75,1042.402,576.75,1042.402,582.25L1042.402,587.75"/><path marker-end="url(#my-svg_flowchart-v2-pointEnd)" style="" class="edge-thickness-normal edge-pattern-solid edge-thickness-normal edge-pattern-solid flowchart-link" id="L_Q3_Mono3_0" d="M997.314,753.037L986.697,766.718C976.079,780.4,954.844,807.762,944.227,826.944C933.609,846.125,933.609,857.125,933.609,862.625L933.609,868.125"/><path marker-end="url(#my-svg_flowchart-v2-pointEnd)" style="" class="edge-thickness-normal edge-pattern-solid edge-thickness-normal edge-pattern-solid flowchart-link" id="L_Q3_Multi3_0" d="M1087.491,753.037L1098.108,766.718C1108.725,780.4,1129.96,807.762,1140.578,826.944C1151.195,846.125,1151.195,857.125,1151.195,862.625L1151.195,868.125"/><path marker-end="url(#my-svg_flowchart-v2-pointEnd)" style="" class="edge-thickness-normal edge-pattern-solid edge-thickness-normal edge-pattern-solid flowchart-link" id="L_Mono1_Eval_0" d="M106.164,926.125L106.164,930.292C106.164,934.458,106.164,942.792,183.203,954.181C260.241,965.571,414.319,980.017,491.358,987.24L568.396,994.463"/><path marker-end="url(#my-svg_flowchart-v2-pointEnd)" style="" class="edge-thickness-normal edge-pattern-solid edge-thickness-normal edge-pattern-solid flowchart-link" id="L_Mono2_Eval_0" d="M569.844,926.125L569.844,930.292C569.844,934.458,569.844,942.792,576.552,950.794C583.26,958.796,596.677,966.468,603.385,970.304L610.093,974.139"/><path marker-end="url(#my-svg_flowchart-v2-pointEnd)" style="" class="edge-thickness-normal edge-pattern-solid edge-thickness-normal edge-pattern-solid flowchart-link" id="L_Mono3_Eval_0" d="M933.609,926.125L933.609,930.292C933.609,934.458,933.609,942.792,903.528,952.692C873.446,962.592,813.284,974.059,783.202,979.792L753.121,985.526"/><path marker-end="url(#my-svg_flowchart-v2-pointEnd)" style="" class="edge-thickness-normal edge-pattern-solid edge-thickness-normal edge-pattern-solid flowchart-link" id="L_Multi1_Eval_0" d="M354.656,926.125L354.656,930.292C354.656,934.458,354.656,942.792,390.286,953.011C425.916,963.229,497.176,975.334,532.806,981.386L568.435,987.438"/><path marker-end="url(#my-svg_flowchart-v2-pointEnd)" style="" class="edge-thickness-normal edge-pattern-solid edge-thickness-normal edge-pattern-solid flowchart-link" id="L_Multi2_Eval_0" d="M751.727,926.125L751.727,930.292C751.727,934.458,751.727,942.792,745.018,950.794C738.31,958.796,724.894,966.468,718.185,970.304L711.477,974.139"/><path marker-end="url(#my-svg_flowchart-v2-pointEnd)" style="" class="edge-thickness-normal edge-pattern-solid edge-thickness-normal edge-pattern-solid flowchart-link" id="L_Multi3_Eval_0" d="M1151.195,926.125L1151.195,930.292C1151.195,934.458,1151.195,942.792,1084.858,953.992C1018.52,965.193,885.845,979.261,819.507,986.295L753.169,993.329"/></g><g class="edgeLabels"><g class="edgeLabel"><g transform="translate(0, 0)" class="label"><foreignObject  width="0"><div style="display: table-cell; white-space: nowrap; line-height: 1.5; max-width: 200px; text-align: center;" class="labelBkg" xmlns="http://www.w3.org/1999/xhtml"><span class="edgeLabel"></span></div></foreignObject></g></g><g transform="translate(106.1640625, 554.75)" class="edgeLabel"><g transform="translate(-33.3828125, -12)" class="label"><foreignObject height="24" width="66.765625"><div style="display: table-cell; white-space: nowrap; line-height: 1.5; max-width: 200px; text-align: center;" class="labelBkg" xmlns="http://www.w3.org/1999/xhtml"><span class="edgeLabel"><p>&lt; 10 devs</p></span></div></foreignObject></g></g><g transform="translate(354.65625, 554.75)" class="edgeLabel"><g transform="translate(-33.3828125, -12)" class="label"><foreignObject height="24" width="66.765625"><div style="display: table-cell; white-space: nowrap; line-height: 1.5; max-width: 200px; text-align: center;" class="labelBkg" xmlns="http://www.w3.org/1999/xhtml"><span class="edgeLabel">&gt; 50 devs</span></div></foreignObject></g></g><g transform="translate(751.7265625, 279.984375)" class="edgeLabel"><g transform="translate(-38.109375, -12)" class="label"><foreignObject height="24" width="76.21875"><div style="display: table-cell; white-space: nowrap; line-height: 1.5; max-width: 200px; text-align: center;" class="labelBkg" xmlns="http://www.w3.org/1999/xhtml"><span class="edgeLabel"><p>10-50 devs</p></span></div></foreignObject></g></g><g transform="translate(569.84375, 694.9375)" class="edgeLabel"><g transform="translate(-15.90625, -12)" class="label"><foreignObject height="24" width="31.8125"><div style="display: table-cell; white-space: nowrap; line-height: 1.5; max-width: 200px; text-align: center;" class="labelBkg" xmlns="http://www.w3.org/1999/xhtml"><span class="edgeLabel"><p>High</p></span></div></foreignObject></g></g><g transform="translate(751.7265625, 694.9375)" class="edgeLabel"><g transform="translate(-14.296875, -12)" class="label"><foreignObject height="24" width="28.59375"><div style="display: table-cell; white-space: nowrap; line-height: 1.5; max-width: 200px; text-align: center;" class="labelBkg" xmlns="http://www.w3.org/1999/xhtml"><span class="edgeLabel"><p>Low</p></span></div></foreignObject></g></g><g transform="translate(1042.40234375, 554.75)" class="edgeLabel"><g transform="translate(-27.7890625, -12)" class="label"><foreignObject height="24" width="55.578125"><div style="display: table-cell; white-space: nowrap; line-height: 1.5; max-width: 200px; text-align: center;" class="labelBkg" xmlns="http://www.w3.org/1999/xhtml"><span class="edgeLabel"><p>Medium</p></span></div></foreignObject></g></g><g transform="translate(933.609375, 835.125)" class="edgeLabel"><g transform="translate(-42.8671875, -12)" class="label"><foreignObject height="24" width="85.734375"><div style="display: table-cell; white-space: nowrap; line-height: 1.5; max-width: 200px; text-align: center;" class="labelBkg" xmlns="http://www.w3.org/1999/xhtml"><span class="edgeLabel"><p>Single Stack</p></span></div></foreignObject></g></g><g transform="translate(1151.1953125, 835.125)" class="edgeLabel"><g transform="translate(-68.28125, -12)" class="label"><foreignObject height="24" width="136.5625"><div style="display: table-cell; white-space: nowrap; line-height: 1.5; max-width: 200px; text-align: center;" class="labelBkg" xmlns="http://www.w3.org/1999/xhtml"><span class="edgeLabel"><p>Multiple Languages</p></span></div></foreignObject></g></g><g class="edgeLabel"><g transform="translate(0, 0)" class="label"><foreignObject height="0" width="0"><div style="display: table-cell; white-space: nowrap; line-height: 1.5; max-width: 200px; text-align: center;" class="labelBkg" xmlns="http://www.w3.org/1999/xhtml"><span class="edgeLabel"></span></div></foreignObject></g></g><g class="edgeLabel"><g transform="translate(0, 0)" class="label"><foreignObject height="0" width="0"><div style="display: table-cell; white-space: nowrap; line-height: 1.5; max-width: 200px; text-align: center;" class="labelBkg" xmlns="http://www.w3.org/1999/xhtml"><span class="edgeLabel"></span></div></foreignObject></g></g><g class="edgeLabel"><g transform="translate(0, 0)" class="label"><foreignObject height="0" width="0"><div style="display: table-cell; white-space: nowrap; line-height: 1.5; max-width: 200px; text-align: center;" class="labelBkg" xmlns="http://www.w3.org/1999/xhtml"><span class="edgeLabel"></span></div></foreignObject></g></g><g class="edgeLabel"><g transform="translate(0, 0)" class="label"><foreignObject height="0" width="0"><div style="display: table-cell; white-space: nowrap; line-height: 1.5; max-width: 200px; text-align: center;" class="labelBkg" xmlns="http://www.w3.org/1999/xhtml"><span class="edgeLabel"></span></div></foreignObject></g></g><g class="edgeLabel"><g transform="translate(0, 0)" class="label"><foreignObject height="0" width="0"><div style="display: table-cell; white-space: nowrap; line-height: 1.5; max-width: 200px; text-align: center;" class="labelBkg" xmlns="http://www.w3.org/1999/xhtml"><span class="edgeLabel"></span></div></foreignObject></g></g><g class="edgeLabel"><g transform="translate(0, 0)" class="label"><foreignObject height="0" width="0"><div style="display: table-cell; white-space: nowrap; line-height: 1.5; max-width: 200px; text-align: center;" class="labelBkg" xmlns="http://www.w3.org/1999/xhtml"><span class="edgeLabel"></span></div></foreignObject></g></g></g><g class="nodes"><g transform="translate(354.65625, 35)" id="flowchart-Start-0" class="node default"><rect height="54" width="95.015625" y="-27" x="-47.5078125" style="" class="basic label-container"/><g transform="translate(-17.5078125, -12)" style="" class="label"><rect/><foreignObject height="24" width="35.015625"><div style="display: table-cell; white-space: nowrap; line-height: 1.5; max-width: 200px; text-align: center;" xmlns="http://www.w3.org/1999/xhtml"><span class="nodeLabel"><p>Start</p></span></div></foreignObject></g></g><g transform="translate(354.65625, 177.4921875)" id="flowchart-Q1-1" class="node default"><polygon transform="translate(-64.9921875, 65.4921875)" class="label-container" points="65.4921875,0 130.984375,-65.4921875 65.4921875,-130.984375 0,-65.4921875"/><g transform="translate(-38.4921875, -12)" style="" class="label"><rect/><foreignObject height="24" width="76.984375"><div style="display: table-cell; white-space: nowrap; line-height: 1.5; max-width: 200px; text-align: center;" xmlns="http://www.w3.org/1999/xhtml"><span class="nodeLabel"><p>Team Size?</p></span></div></foreignObject></g></g><g transform="translate(106.1640625, 899.125)" id="flowchart-Mono1-3" class="node default"><rect height="54" width="196.328125" y="-27" x="-98.1640625" style="" class="basic label-container"/><g transform="translate(-68.1640625, -12)" style="" class="label"><rect/><foreignObject height="24" width="136.328125"><div style="display: table-cell; white-space: nowrap; line-height: 1.5; max-width: 200px; text-align: center;" xmlns="http://www.w3.org/1999/xhtml"><span class="nodeLabel"><p>Consider Monorepo</p></span></div></foreignObject></g></g><g transform="translate(354.65625, 899.125)" id="flowchart-Multi1-5" class="node default"><rect height="54" width="200.65625" y="-27" x="-100.328125" style="" class="basic label-container"/><g transform="translate(-70.328125, -12)" style="" class="label"><rect/><foreignObject height="24" width="140.65625"><div style="display: table-cell; white-space: nowrap; line-height: 1.5; max-width: 200px; text-align: center;" xmlns="http://www.w3.org/1999/xhtml"><span class="nodeLabel"><p>Consider Multi-repo</p></span></div></foreignObject></g></g><g transform="translate(751.7265625, 417.3671875)" id="flowchart-Q2-7" class="node default"><polygon transform="translate(-99.8828125, 100.3828125)" class="label-container" points="100.3828125,0 200.765625,-100.3828125 100.3828125,-200.765625 0,-100.3828125"/><g transform="translate(-73.3828125, -12)" style="" class="label"><rect/><foreignObject height="24" width="146.765625"><div style="display: table-cell; white-space: nowrap; line-height: 1.5; max-width: 200px; text-align: center;" xmlns="http://www.w3.org/1999/xhtml"><span class="nodeLabel"><p>Code Sharing Needs?</p></span></div></foreignObject></g></g><g transform="translate(569.84375, 899.125)" id="flowchart-Mono2-9" class="node default"><rect height="54" width="129.71875" y="-27" x="-64.859375" style="" class="basic label-container"/><g transform="translate(-34.859375, -12)" style="" class="label"><rect/><foreignObject height="24" width="69.71875"><div style="display: table-cell; white-space: nowrap; line-height: 1.5; max-width: 200px; text-align: center;" xmlns="http://www.w3.org/1999/xhtml"><span class="nodeLabel"><p>Monorepo</p></span></div></foreignObject></g></g><g transform="translate(751.7265625, 899.125)" id="flowchart-Multi2-11" class="node default"><rect height="54" width="134.046875" y="-27" x="-67.0234375" style="" class="basic label-container"/><g transform="translate(-37.0234375, -12)" style="" class="label"><rect/><foreignObject height="24" width="74.046875"><div style="display: table-cell; white-space: nowrap; line-height: 1.5; max-width: 200px; text-align: center;" xmlns="http://www.w3.org/1999/xhtml"><span class="nodeLabel"><p>Multi-repo</p></span></div></foreignObject></g></g><g transform="translate(1042.40234375, 694.9375)" id="flowchart-Q3-13" class="node default"><polygon transform="translate(-102.6875, 103.1875)" class="label-container" points="103.1875,0 206.375,-103.1875 103.1875,-206.375 0,-103.1875"/><g transform="translate(-76.1875, -12)" style="" class="label"><rect/><foreignObject height="24" width="152.375"><div style="display: table-cell; white-space: nowrap; line-height: 1.5; max-width: 200px; text-align: center;" xmlns="http://www.w3.org/1999/xhtml"><span class="nodeLabel"><p>Technology Diversity?</p></span></div></foreignObject></g></g><g transform="translate(933.609375, 899.125)" id="flowchart-Mono3-15" class="node default"><rect height="54" width="129.71875" y="-27" x="-64.859375" style="" class="basic label-container"/><g transform="translate(-34.859375, -12)" style="" class="label"><rect/><foreignObject height="24" width="69.71875"><div style="display: table-cell; white-space: nowrap; line-height: 1.5; max-width: 200px; text-align: center;" xmlns="http://www.w3.org/1999/xhtml"><span class="nodeLabel"><p>Monorepo</p></span></div></foreignObject></g></g><g transform="translate(1151.1953125, 899.125)" id="flowchart-Multi3-17" class="node default"><rect height="54" width="205.453125" y="-27" x="-102.7265625" style="" class="basic label-container"/><g transform="translate(-72.7265625, -12)" style="" class="label"><rect/><foreignObject height="24" width="145.453125"><div style="display: table-cell; white-space: nowrap; line-height: 1.5; max-width: 200px; text-align: center;" xmlns="http://www.w3.org/1999/xhtml"><span class="nodeLabel"><p>Multi-repo or Hybrid</p></span></div></foreignObject></g></g><g transform="translate(660.78515625, 1003.125)" id="flowchart-Eval-19" class="node default"><rect height="54" width="176.8125" y="-27" x="-88.40625" style="" class="basic label-container"/><g transform="translate(-58.40625, -12)" style="" class="label"><rect/><foreignObject height="24" width="116.8125"><div style="display: table-cell; white-space: nowrap; line-height: 1.5; max-width: 200px; text-align: center;" xmlns="http://www.w3.org/1999/xhtml"><span class="nodeLabel"><p>Evaluate Tooling</p></span></div></foreignObject></g></g></g></g></g></svg>